<svg xmlns="http://www.w3.org/2000/svg" viewBox="0 0 40 40"><title>Icon-Architecture-Group/32/Auto-Scaling-group_32</title><g fill="none" fill-rule="evenodd"><path fill="#ed7100" d="M0 0h40v40H0z"/><path fill="#fff" d="M18.021 19.495a.5.5 0 0 0-.188-.39l-2.954-2.954-.707.707 2.138 2.137H7v1h9.314l-2.142 2.142.707.707 2.969-2.969a.5.5 0 0 0 .173-.38m15.965-.5h-9.311l2.138-2.137-.707-.707-2.969 2.97a.5.5 0 0 0 .016.77l2.953 2.953.707-.707-2.142-2.142h9.315zm-12.99 12.33V22.01h-1v9.31l-2.138-2.137-.707.707 2.969 2.967a.5.5 0 0 0 .773-.016l2.951-2.95-.707-.708zM17.858 9.836l-.707-.707 2.952-2.95c.182-.233.58-.24.774-.018l2.967 2.968-.707.707-2.141-2.14v9.313h-1V7.7z"/></g></svg>