<svg xmlns="http://www.w3.org/2000/svg" viewBox="0 0 40 40"><title>Icon-Architecture-Group/32/EC2-instance-contents_32</title><g fill="none" fill-rule="evenodd"><path fill="#ed7100" d="M0 0h40v40H0z"/><path fill="#fff" d="M10 29h19V10H10zm23-17v-1h-3V9.5a.5.5 0 0 0-.5-.5H28V6h-1v3h-3V6h-1v3h-3V6h-1v3h-3V6h-1v3h-3V6h-1v3H9.5a.5.5 0 0 0-.5.5V11H6v1h3v3H6v1h3v3H6v1h3v3H6v1h3v3H6v1h3v1.5a.5.5 0 0 0 .5.5H11v3h1v-3h3v3h1v-3h3v3h1v-3h3v3h1v-3h3v3h1v-3h1.5a.5.5 0 0 0 .5-.5V28h3v-1h-3v-3h3v-1h-3v-3h3v-1h-3v-3h3v-1h-3v-3z"/></g></svg>