<svg xmlns="http://www.w3.org/2000/svg" viewBox="0 0 40 40"><title>Icon-Architecture-Group/32/Spot-Fleet_32</title><g fill="none" fill-rule="evenodd"><path fill="#ed7100" d="M0 0h40v40H0z"/><path fill="#fff" d="M7.14 20H6v-1h1.14a12.28 12.28 0 0 1 2.32-6.748l.812.586A11.27 11.27 0 0 0 8.14 19H9v1h-.86a11.27 11.27 0 0 0 2.132 6.162l-.811.586A12.28 12.28 0 0 1 7.14 20m19.608 9.539A12.26 12.26 0 0 1 20 31.86V33h-1v-1.14a12.26 12.26 0 0 1-6.748-2.321l.586-.81A11.27 11.27 0 0 0 19 30.86V30h1v.86a11.27 11.27 0 0 0 6.162-2.131zM12.252 9.461A12.26 12.26 0 0 1 19 7.14V6h1v1.14c2.443.096 4.767.887 6.748 2.321l-.586.81A11.27 11.27 0 0 0 20 8.14V9h-1v-.86c-2.23.095-4.352.822-6.162 2.131zM33 20h-1.14a12.27 12.27 0 0 1-2.321 6.748l-.81-.586A11.3 11.3 0 0 0 30.86 20H30v-1h.86a11.3 11.3 0 0 0-2.131-6.162l.81-.586A12.27 12.27 0 0 1 31.86 19H33zm-6.294-8.413 3.78-3.78.708.707-3.781 3.78zM12.294 27.413l-3.78 3.78-.707-.707 3.78-3.78zm11.88-3.946 7.02 7.019-.707.707-7.02-7.019zm-9.347-7.934-7.02-7.019.707-.707 7.02 7.019zM25 19v-5h-5v1h-1v-1.249c0-.414.337-.751.75-.751h5.499c.414 0 .75.337.75.751v5.498a.75.75 0 0 1-.75.751h-1.25v-1zm-11 1v5h5v-1h1v1.249a.75.75 0 0 1-.751.751H13.75a.75.75 0 0 1-.751-.751v-5.498c0-.414.337-.751.75-.751H15v1zm3 2h5v-5h-5zm6 .129v-5.258c0-.48-.39-.871-.871-.871H16.87a.87.87 0 0 0-.871.871v5.258c0 .48.39.871.87.871h5.259a.87.87 0 0 0 .87-.871"/></g></svg>