<svg xmlns="http://www.w3.org/2000/svg" viewBox="0 0 40 40"><title>Icon-Architecture-Group/32/Virtual-private-cloud-VPC_32</title><g fill="none" fill-rule="evenodd"><path fill="#8c4fff" d="M0 0h40v40H0z"/><path fill="#fff" d="m30.97 21.03-2.943-1.264v10.49c2.545-.353 2.932-2.969 2.948-3.088zm-3.943 9.24V19.76l-3.035 1.272v6.201c.013.054.445 2.767 3.035 3.036m.306-11.723a.5.5 0 0 1 .39.001l3.945 1.692a.5.5 0 0 1 .303.46v6.533c-.183 1.447-1.357 4.063-4.527 4.063-3.075 0-4.254-2.612-4.448-3.994l-.004-6.603c0-.2.12-.383.306-.46zm5.65.637-5.461-2.406-5.53 2.327v7.128c-.001.042-.054 2.868 1.657 4.623.917.941 2.194 1.42 3.795 1.42 1.602 0 2.887-.48 3.819-1.423 1.735-1.758 1.72-4.585 1.72-4.613zM31.98 31.55c-1.127 1.144-2.654 1.725-4.536 1.725-1.884 0-3.404-.58-4.517-1.727-2.005-2.063-1.94-5.197-1.935-5.329v-7.446a.5.5 0 0 1 .305-.46l6.035-2.54a.5.5 0 0 1 .396.003l5.956 2.625c.182.08.299.26.299.457v7.375c.002.125.027 3.255-2.003 5.317m-20.988-7.314h8v1h-8c-2.811 0-4.811-2.016-4.98-5.016A4 4 0 0 1 6 19.841c0-2.509 1.318-4.223 3.817-4.979a8 8 0 0 1-.032-.647c0-2.916 1.577-5.445 4.017-6.445 3.298-1.348 7.042-.894 9.106 1.104a8.2 8.2 0 0 1 1.76 2.485c.609-.45 1.4-.66 2.349-.614 1.78.09 3.149 1.713 3.433 4.007 1.498.124 2.485.883 3.01 2.308l-.937.346c-.428-1.157-1.208-1.673-2.531-1.673a.5.5 0 0 1-.5-.47c-.138-2.338-1.406-3.463-2.526-3.519-.945-.053-1.645.22-2.08.791a.5.5 0 0 1-.472.193.5.5 0 0 1-.395-.323 7.4 7.4 0 0 0-1.807-2.814c-1.788-1.73-5.09-2.099-8.031-.895-2.063.845-3.396 3.011-3.396 5.52 0 .272.035.695.066.958a.5.5 0 0 1-.376.544C8.169 16.29 7 17.678 7 19.841c0 .101-.001.201.009.302.14 2.495 1.703 4.093 3.983 4.093"/></g></svg>