<svg xmlns="http://www.w3.org/2000/svg" viewBox="0 0 74 74"><title>Icon-Architecture-Category/48/Analytics_48</title><g fill="none" fill-rule="evenodd"><path fill="#8c4fff" d="M5 5h64v64H5z"/><path stroke="#879196" stroke-width="2" d="M1 1h72v72H1z"/><path fill="#fff" d="M49 28v6h-2v-3.413l-8.26 9.086c-.356.39-.953.437-1.365.108l-4.3-3.441-7.368 7.367-1.414-1.414 8-8a1 1 0 0 1 1.332-.074l4.267 3.414L45.74 29H42v-2h6a1 1 0 0 1 1 1m5.434 24H19.566l-1.799-3h38.466zM21 23.21c0-.667.543-1.21 1.211-1.21H50.79c.973 0 2.211.82 2.211 1.21V47H21zm37.87 24.297A1 1 0 0 0 58 47h-3V23.21c0-1.93-2.534-3.21-4.21-3.21H22.21a3.214 3.214 0 0 0-3.21 3.21V47h-3a1.001 1.001 0 0 0-.858 1.515l3 5c.18.301.505.485.857.485h36a1 1 0 0 0 .857-.485l3-5a1 1 0 0 0 .013-1.008"/></g></svg>