<svg xmlns="http://www.w3.org/2000/svg" viewBox="0 0 74 74"><title>Icon-Architecture-Category/48/Application-Integration_48</title><g fill="none" fill-rule="evenodd"><path fill="#e7157b" d="M5 5h64v64H5z"/><path stroke="#879196" stroke-width="2" d="M1 1h72v72H1z"/><path fill="#fff" d="M57 36h-6.134c.24-.587.366-1.222.366-1.876a4.96 4.96 0 0 0-1.883-3.902c-1.198-.953-2.759-1.294-4.277-.944a4.95 4.95 0 0 0-3.639 3.555A5.02 5.02 0 0 0 41.635 36H37v-7.047a1 1 0 0 0-1.724-.69c-.759.796-1.859 1.107-2.947.827a2.96 2.96 0 0 1-2.102-2.153c-.217-.936-.018-1.852.56-2.58a2.97 2.97 0 0 1 4.489-.199 1 1 0 0 0 1.724-.69V17h19c.552 0 1 .449 1 1zm0 20c0 .551-.448 1-1 1H37v-5.675a5.02 5.02 0 0 0 3.167.203 4.95 4.95 0 0 0 3.556-3.64c.351-1.519.007-3.078-.945-4.275a4.96 4.96 0 0 0-3.902-1.885c-.654 0-1.288.126-1.876.367V38h6.507c.409 0 .776-.249.929-.628.151-.38.057-.813-.239-1.096-.796-.758-1.105-1.861-.827-2.947a2.97 2.97 0 0 1 2.153-2.103c.941-.217 1.853-.017 2.581.562a2.968 2.968 0 0 1 .199 4.488c-.296.283-.39.717-.239 1.096.153.379.52.628.929.628H57zm-40 0V38h4.135a5.03 5.03 0 0 0-.202 3.168 4.946 4.946 0 0 0 4.812 3.689 4.97 4.97 0 0 0 3.104-1.079 4.96 4.96 0 0 0 1.883-3.902c0-.654-.126-1.289-.366-1.876H35v5.968a1 1 0 0 0 1.724.69 2.971 2.971 0 0 1 4.489.199c.578.728.777 1.644.56 2.58a2.96 2.96 0 0 1-2.102 2.153c-1.089.279-2.188-.031-2.947-.827a1 1 0 0 0-1.724.69V57H18c-.552 0-1-.449-1-1m1-39h17v4.595a4.9 4.9 0 0 0-1.876-.367 4.96 4.96 0 0 0-3.902 1.885c-.952 1.197-1.296 2.756-.945 4.274a4.95 4.95 0 0 0 3.556 3.641A5 5 0 0 0 35 30.825V36h-6.507c-.409 0-.776.249-.929.628-.151.379-.057.813.239 1.096a2.968 2.968 0 0 1-.199 4.488c-.727.579-1.642.78-2.581.562a2.97 2.97 0 0 1-2.153-2.102c-.278-1.087.031-2.19.827-2.948.296-.283.39-.716.239-1.096a1 1 0 0 0-.929-.628H17V18c0-.551.448-1 1-1m38-2H18c-1.654 0-3 1.346-3 3v38c0 1.654 1.346 3 3 3h38c1.654 0 3-1.346 3-3V18c0-1.654-1.346-3-3-3"/></g></svg>