<svg xmlns="http://www.w3.org/2000/svg" viewBox="0 0 74 74"><title>Icon-Architecture-Category/48/Blockchain_48</title><g fill="none" fill-rule="evenodd"><path fill="#ed7100" d="M5 5h64v64H5z"/><path stroke="#879196" stroke-width="2" d="M1 1h72v72H1z"/><path fill="#fff" d="M57 42h-9.676a1 1 0 0 1-.324-.11V38h-5v4h-9.676a1 1 0 0 1-.324-.11V38h-5v3.89a1 1 0 0 1-.319.11H17V32h9.818a.5.5 0 0 1 .182.072V36h5v-3.928a.6.6 0 0 1 .171-.072H42v4h5v-3.928a.6.6 0 0 1 .171-.072H57zm.167-12h-9.996c-.906 0-2.171.72-2.171 1.893V34h-1v-2.107C44 30.849 43.178 30 42.167 30h-9.996c-.906 0-2.171.72-2.171 1.893V34h-1v-2.107C29 30.72 27.735 30 26.829 30h-9.996C15.822 30 15 30.849 15 31.893v10.25c0 1.024.819 1.857 1.827 1.857h9.854C27.49 44 29 43.362 29 42.143V40h1v2.143C30 43.362 31.51 44 32.319 44h9.854C43.181 44 44 43.167 44 42.143V40h1v2.143C45 43.362 46.51 44 47.319 44h9.854C58.181 44 59 43.167 59 42.143v-10.25C59 30.849 58.178 30 57.167 30M50 39h4v-4h-4zm-.226 2h4.452c.978 0 1.774-.796 1.774-1.774v-4.452c0-.978-.796-1.774-1.774-1.774h-4.452c-.978 0-1.774.796-1.774 1.774v4.452c0 .978.796 1.774 1.774 1.774M35 39h4v-4h-4zm4.226-6h-4.452c-.978 0-1.774.796-1.774 1.774v4.452c0 .978.796 1.774 1.774 1.774h4.452c.978 0 1.774-.796 1.774-1.774v-4.452c0-.978-.796-1.774-1.774-1.774M20 39h4v-4h-4zm4.226-6h-4.452c-.978 0-1.774.796-1.774 1.774v4.452c0 .978.796 1.774 1.774 1.774h4.452c.978 0 1.774-.796 1.774-1.774v-4.452c0-.978-.796-1.774-1.774-1.774"/></g></svg>