<svg xmlns="http://www.w3.org/2000/svg" viewBox="0 0 74 74"><title>Icon-Architecture-Category/48/Business-Applications_48</title><g fill="none" fill-rule="evenodd"><path fill="#dd344c" d="M5 5h64v64H5z"/><path stroke="#879196" stroke-width="2" d="M1 1h72v72H1z"/><path fill="#fff" d="M53.52 57H20.48l-2.398-3h37.837zM21 34.158c0-.638.52-1.158 1.159-1.158h2.84v19h-4zM29 29a1 1 0 0 0 1-1v-4h3v28h-6V29zm6 23h4V21h-4zm9-28v4a1 1 0 0 0 1 1h2v23h-6V24zm7.842 9c.639 0 1.158.52 1.158 1.158V52h-4V33zm7.06 19.567A1 1 0 0 0 58 52h-3V34.158A3.16 3.16 0 0 0 51.842 31H49v-3a1 1 0 0 0-1-1h-2v-4a1 1 0 0 0-1-1h-4v-2a1 1 0 0 0-1-1h-2v-4h-2v4h-2a1 1 0 0 0-1 1v2h-4a1 1 0 0 0-1 1v4h-2a1 1 0 0 0-1 1v3h-2.841a3.16 3.16 0 0 0-3.16 3.158V52h-3a1 1 0 0 0-.78 1.625l4 5c.19.237.478.375.78.375h34c.305 0 .592-.138.783-.375l4-5c.24-.3.286-.712.12-1.058"/></g></svg>