<svg xmlns="http://www.w3.org/2000/svg" viewBox="0 0 74 74"><title>Icon-Architecture-Category/48/Cloud-Financial-Management_48</title><g fill="none" fill-rule="evenodd"><path fill="#7aa116" d="M5 5h64v64H5z"/><path stroke="#879196" stroke-width="2" d="M1 1h72v72H1z"/><path fill="#fff" d="M34 55h5v-2h-5zm-9 0h5v-2h-5zm9-5h5v-2h-5zm-9 0h5v-2h-5zm9-6h5v-2h-5zm-9 0h5v-2h-5zm20 9h3v-9h-3zm4-11h-5a1 1 0 0 0-1 1v11a1 1 0 0 0 1 1h5a1 1 0 0 0 1-1V43a1 1 0 0 0-1-1m-23-4h22v-5H26zm-1-7a1 1 0 0 0-1 1v7a1 1 0 0 0 1 1h24a1 1 0 0 0 1-1v-7a1 1 0 0 0-1-1zm28 26H21V27h8v1a1 1 0 0 0 1 1h14a1 1 0 0 0 1-1v-1h8zM30.382 17H39c1.85 0 4 1.311 4 3v7H31v-7c0-1.313-.245-2.284-.618-3m-5.132 4.094v-1.125c0-1.24.666-2.969 1.75-2.969.495 0 2 0 2 3v1.094zM54 25h-9v-5c0-2.947-3.162-5-6-5H27c-2.316 0-3.75 2.579-3.75 4.969v2.125a1 1 0 0 0 1 1H29V25h-9a1 1 0 0 0-1 1v32a1 1 0 0 0 1 1h34a1 1 0 0 0 1-1V26a1 1 0 0 0-1-1"/></g></svg>