<svg xmlns="http://www.w3.org/2000/svg" viewBox="0 0 74 74"><title>Icon-Architecture-Category/48/Compute_48</title><g fill="none" fill-rule="evenodd"><path fill="#ed7100" d="M5 5h64v64H5z"/><path stroke="#879196" stroke-width="2" d="M1 1h72v72H1z"/><path fill="#fff" d="M29 29.125c0-.069.056-.125.125-.125h15.75c.069 0 .125.056.125.125v15.75a.125.125 0 0 1-.125.125h-15.75a.125.125 0 0 1-.125-.125zM29.125 47h15.75A2.127 2.127 0 0 0 47 44.875v-15.75A2.127 2.127 0 0 0 44.875 27h-15.75A2.127 2.127 0 0 0 27 29.125v15.75c0 1.172.953 2.125 2.125 2.125M22 52h30V22H22zm32-31a1 1 0 0 0-1-1h-3v-5h-2v5h-4v-5h-2v5h-4v-5h-2v5h-4v-5h-2v5h-4v-5h-2v5h-3a1 1 0 0 0-1 1v3h-5v2h5v4h-5v2h5v4h-5v2h5v4h-5v2h5v4h-5v2h5v3a1 1 0 0 0 1 1h3v5h2v-5h4v5h2v-5h4v5h2v-5h4v5h2v-5h4v5h2v-5h3a1 1 0 0 0 1-1v-3h5v-2h-5v-4h5v-2h-5v-4h5v-2h-5v-4h5v-2h-5v-4h5v-2h-5z"/></g></svg>