<svg xmlns="http://www.w3.org/2000/svg" viewBox="0 0 74 74"><title>Icon-Architecture-Category/48/Containers_48</title><g fill="none" fill-rule="evenodd"><path fill="#ed7100" d="M5 5h64v64H5z"/><path stroke="#879196" stroke-width="2" d="M1 1h72v72H1z"/><path fill="#fff" d="M19 52h36V38H19zm-2 4h40v-2H17zm40-18v14h1a1 1 0 0 1 1 1v4a1 1 0 0 1-1 1H16a1 1 0 0 1-1-1v-4a1 1 0 0 1 1-1h1V38h-1a1 1 0 0 1-1-1v-4c0-.357.198-.656.48-.833l-.009-.015 15.2-9.5 1.06 1.696L19.488 32H44v2H17v2h40v-2H46v-2h8.512l-12.243-7.652 1.06-1.696 15.2 9.5-.009.015c.282.177.48.476.48.833v4a1 1 0 0 1-1 1zM37 24c1.93 0 3.5-1.57 3.5-3.5h-2c0 .827-.673 1.5-1.5 1.5s-1.5-.673-1.5-1.5.673-1.5 1.5-1.5a1 1 0 0 0 1-1v-4h-2v3.146a3.505 3.505 0 0 0-2.5 3.354c0 1.93 1.57 3.5 3.5 3.5M21 50h2V40h-2zm5 0h2V40h-2zm5 0h2V40h-2zm20 0h2V40h-2zm-5 0h2V40h-2zm-5 0h2V40h-2zm-5 0h2V40h-2z"/></g></svg>