<svg xmlns="http://www.w3.org/2000/svg" viewBox="0 0 74 74"><title>Icon-Architecture-Category/48/Customer-Enablement_48</title><g fill="none" fill-rule="evenodd"><path fill="#c925d1" d="M5 5h64v64H5z"/><path stroke="#879196" stroke-width="2" d="M1 1h72v72H1z"/><path fill="#fff" d="m55 47.508-7.109 3.708c-.557-6.041-3.435-11.017-7.287-12.968C42.635 37.021 44 34.799 44 32.258c0-3.86-3.141-7-7-7s-7 3.14-7 7a6.99 6.99 0 0 0 3.374 5.976c-3.871 1.928-6.726 6.862-7.274 12.978L19 47.508V26.747l18-9.388 18 9.388zm-23-15.25c0-2.757 2.243-5 5-5s5 2.243 5 5-2.243 5-5 5-5-2.243-5-5m5 24.639-8.961-4.675c.375-7.173 4.276-12.874 8.961-12.874 4.719 0 8.593 5.68 8.963 12.873zM36.989 15 17 25.48v23.295l19.989 10.481L57 48.775V25.48z"/></g></svg>