<svg xmlns="http://www.w3.org/2000/svg" viewBox="0 0 74 74"><title>Icon-Architecture-Category/48/Database_48</title><g fill="none" fill-rule="evenodd"><path fill="#c925d1" d="M5 5h64v64H5z"/><path stroke="#879196" stroke-width="2" d="M1 1h72v72H1z"/><path fill="#fff" d="M37 36.764c-7.44 0-13-2.345-13-4.441v-7.546c2.768 2.034 7.991 3.105 13 3.105s10.232-1.071 13-3.105v7.546c0 2.096-5.56 4.441-13 4.441m0 10.691c-7.44 0-13-2.345-13-4.441v-7.355c2.768 2.034 7.991 3.105 13 3.105s10.232-1.071 13-3.105v7.355c0 2.096-5.56 4.441-13 4.441M37 57c-7.44 0-13-2.344-13-4.441V46.35c2.768 2.034 7.991 3.105 13 3.105s10.232-1.071 13-3.105v6.209C50 54.656 44.44 57 37 57m0-40c7.44 0 13 2.345 13 4.441s-5.56 4.441-13 4.441-13-2.345-13-4.441S29.56 17 37 17m0-2c-7.271 0-15 2.258-15 6.441v31.118C22 56.743 29.729 59 37 59s15-2.257 15-6.441V21.441C52 17.258 44.271 15 37 15"/></g></svg>