<svg xmlns="http://www.w3.org/2000/svg" viewBox="0 0 74 74"><title>Icon-Architecture-Category/48/Developer-Tools_48</title><g fill="none" fill-rule="evenodd"><path fill="#c925d1" d="M5 5h64v64H5z"/><path stroke="#879196" stroke-width="2" d="M1 1h72v72H1z"/><path fill="#fff" d="M57.018 51.755c0-.45-.175-.872-.493-1.19L41.056 35.097a.66.66 0 0 0-.94 0l-4.02 4.02a.666.666 0 0 0 .001.94l15.468 15.468a1.686 1.686 0 0 0 2.38 0l2.58-2.58c.317-.318.493-.74.493-1.19M25.63 26.565 35.745 36.64l1.895-1.895-9.483-9.52a3.5 3.5 0 0 1-.85-1.396l-1.4-4.37a1.5 1.5 0 0 0-.802-.899l-4.798-2.176a1.49 1.49 0 0 0-1.663.303l-.957.957a1.49 1.49 0 0 0-.303 1.663l2.176 4.798c.173.381.5.672.898.8zM57.94 49.15a3.66 3.66 0 0 1 1.08 2.604c0 .983-.385 1.908-1.08 2.604l-2.58 2.58a3.68 3.68 0 0 1-2.604 1.077 3.67 3.67 0 0 1-2.604-1.077L34.682 41.471a2.67 2.67 0 0 1-.316-3.38l-9.807-9.77-4.712-1.51a3.5 3.5 0 0 1-2.108-1.879l-2.177-4.799a3.5 3.5 0 0 1 .711-3.903l.957-.957a3.5 3.5 0 0 1 3.903-.71l4.798 2.176a3.5 3.5 0 0 1 1.88 2.108l1.4 4.372c.072.222.198.428.364.595l9.516 9.555c1.025-.677 2.493-.574 3.38.314zm-19.21-19.47 5.321-5.697c.203-.217.3-.513.262-.809a6.33 6.33 0 0 1 1.808-5.316 6.37 6.37 0 0 1 5.843-1.719l-3.78 3.782a3.44 3.44 0 0 0-1.014 2.445c0 .924.36 1.793 1.013 2.446a3.465 3.465 0 0 0 4.892 0l3.781-3.782a6.38 6.38 0 0 1-1.719 5.844 6.34 6.34 0 0 1-5.317 1.81.98.98 0 0 0-.833.284l-4.009 4.01 1.414 1.413 3.675-3.675a8.32 8.32 0 0 0 6.484-2.428 8.39 8.39 0 0 0 1.63-9.526 1 1 0 0 0-1.609-.277l-4.91 4.913a1.463 1.463 0 0 1-2.065 0 1.46 1.46 0 0 1 0-2.063l4.912-4.912a.999.999 0 0 0-.276-1.609 8.39 8.39 0 0 0-9.527 1.63 8.31 8.31 0 0 0-2.424 6.505l-5.014 5.365zm-3.987 15.985-3.028 3.368a8.31 8.31 0 0 1-2.425 6.516 8.38 8.38 0 0 1-5.922 2.446 8.35 8.35 0 0 1-3.604-.815 1 1 0 0 1-.276-1.61l4.911-4.912c.276-.276.428-.642.428-1.03 0-.39-.152-.756-.428-1.032a1.463 1.463 0 0 0-2.063 0l-4.91 4.912a1.01 1.01 0 0 1-.877.278 1 1 0 0 1-.733-.554 8.39 8.39 0 0 1 1.63-9.527 8.32 8.32 0 0 1 6.504-2.426l5.366-5.013 1.365 1.462-5.696 5.321a1 1 0 0 1-.809.262 6.33 6.33 0 0 0-5.316 1.808 6.38 6.38 0 0 0-1.719 5.844l3.781-3.78a3.463 3.463 0 0 1 4.891 0 3.44 3.44 0 0 1 1.014 2.444c0 .924-.36 1.793-1.014 2.446l-3.78 3.781a6.39 6.39 0 0 0 5.843-1.719 6.33 6.33 0 0 0 1.808-5.316 1 1 0 0 1 .248-.795l3.322-3.696z"/></g></svg>