<svg xmlns="http://www.w3.org/2000/svg" viewBox="0 0 74 74"><title>Icon-Architecture-Category/48/End-User-Computing_48</title><g fill="none" fill-rule="evenodd"><path fill="#01a88d" d="M5 5h64v64H5z"/><path stroke="#879196" stroke-width="2" d="M1 1h72v72H1z"/><path fill="#fff" d="M47 55h5v-2h-5zM20 18.263c0-.696.687-1.263 1.529-1.263H54.47c.842 0 1.529.567 1.529 1.263V22h2v-3.737C58 16.464 56.417 15 54.47 15H21.53c-1.946 0-3.53 1.464-3.53 3.263V43h-2a.999.999 0 0 0-.78 1.625l4 5a1 1 0 0 0 .78.375h17v-2H20.48l-2.398-3H37v-2H20zM58 49V26H41v23zm-17 8h17v-6H41zm19-31v31c0 1.103-.897 2-2 2H41c-1.103 0-2-.897-2-2V26c0-1.103.897-2 2-2h17c1.103 0 2 .897 2 2M49.942 36.075l-.001-.029-.003-.213c0-1.101-.551-2.13-1.514-2.824-1.408-1.016-3.463-1.181-5.635-.458l.633 1.898c1.532-.511 2.965-.442 3.832.182.44.319.684.745.684 1.202l.004.249c.004.258.014.658.007.773A1 1 0 0 0 48.938 38c.147 0 3.592.029 3.667 2.53.019.613-.223 1.211-.683 1.684-.484.5-1.147.786-1.817.786H43v2h7.105a4.57 4.57 0 0 0 3.252-1.393c.839-.865 1.283-1.979 1.248-3.137-.09-2.983-2.7-4.115-4.663-4.395M38 26.889V28h-2v-1.111c0-1.882-1.805-3.596-3.787-3.596-1.935 0-3.51 1.551-3.51 3.457 0 .377.074.759.225 1.167a.998.998 0 0 1-1.199 1.311 3.5 3.5 0 0 0-.926-.141c-1.936 0-3.51 1.551-3.51 3.456S24.867 36 26.803 36H37v2H26.803c-3.038 0-5.51-2.448-5.51-5.457 0-2.98 2.425-5.409 5.423-5.456a5 5 0 0 1-.012-.337c0-3.009 2.472-5.457 5.509-5.457 3.083 0 5.787 2.615 5.787 5.596"/></g></svg>