<svg xmlns="http://www.w3.org/2000/svg" viewBox="0 0 74 74"><title>Icon-Architecture-Category/48/Front-End-Web-Mobile_48</title><g fill="none" fill-rule="evenodd"><path fill="#dd344c" d="M5 5h64v64H5z"/><path stroke="#879196" stroke-width="2" d="M1 1h72v72H1z"/><path fill="#fff" d="M46 55h6v-2h-6zm-5 2h16.001v-6H41zm0-29v21h16.001L57 28zm18 0v29c0 1.103-.897 2-2 2H41c-1.103 0-2-.897-2-2V28c0-1.103.897-2 2-2h16c1.103 0 2 .897 2 2m-37-6h17v2h2v-3a1 1 0 0 0-1-1H21a1 1 0 0 0-1 1v29a1 1 0 0 0 1 1h16v-2H22zm-3.852 32H37v2H18.148C16.412 56 15 54.557 15 52.782V18.218C15 16.443 16.412 15 18.148 15h24.704C44.588 15 46 16.443 46 18.218V24h-2v-5.782c0-.672-.516-1.218-1.148-1.218H18.148c-.632 0-1.148.546-1.148 1.218v34.564c0 .672.516 1.218 1.148 1.218"/></g></svg>