<svg xmlns="http://www.w3.org/2000/svg" viewBox="0 0 74 74"><title>Icon-Architecture-Category/48/Games_48</title><g fill="none" fill-rule="evenodd"><path fill="#8c4fff" d="M5 5h64v64H5z"/><path stroke="#879196" stroke-width="2" d="M1 1h72v72H1z"/><path fill="#fff" d="M51.521 33.5a1.5 1.5 0 1 1-3.001-.001 1.5 1.5 0 0 1 3.001.001m-3-5a1.5 1.5 0 1 1 3.001.001 1.5 1.5 0 0 1-3.001-.001m3.999 1a1.5 1.5 0 1 1 0 3 1.5 1.5 0 0 1 0-3M46.021 31a1.5 1.5 0 1 1 3.001.001A1.5 1.5 0 0 1 46.021 31m-23 1h-2v-2h2v-2h2v2h2v2h-2v2h-2zm34 14.037c-.007.406-.165 3.963-3.6 3.963-2.982 0-5.728-6.59-7.562-11.028A8.94 8.94 0 0 0 50.021 40a8.98 8.98 0 0 0 7-3.356zM20.599 50c-3.433 0-3.592-3.557-3.599-3.95v-9.406A8.98 8.98 0 0 0 24 40a8.94 8.94 0 0 0 4.162-1.028C26.328 43.411 23.581 50 20.599 50M24 24c3.86 0 7 3.14 7 7s-3.14 7-7 7-7-3.14-7-7 3.141-7 7-7m18.542 11.999H31.479A8.94 8.94 0 0 0 33 31c0-1.849-.561-3.57-1.522-5.001h11.065A8.95 8.95 0 0 0 41.021 31a8.95 8.95 0 0 0 1.521 4.999M50.021 24c3.859 0 7 3.14 7 7s-3.141 7-7 7-7-3.14-7-7 3.141-7 7-7m0-2a8.95 8.95 0 0 0-5.643 1.999H29.644A8.95 8.95 0 0 0 24 22c-4.962 0-9 4.038-9 9v15.059C15.019 48.114 16.213 52 20.599 52c4.346 0 7.182-6.866 9.461-12.382.232-.562.457-1.107.674-1.619h12.553c.218.512.443 1.057.675 1.619C46.241 45.135 49.077 52 53.421 52c4.387 0 5.581-3.886 5.6-5.95V31c0-4.962-4.037-9-9-9"/></g></svg>