<svg xmlns="http://www.w3.org/2000/svg" viewBox="0 0 74 74"><title>Icon-Architecture-Category/48/Internet-of-Things_48</title><g fill="none" fill-rule="evenodd"><path fill="#7aa116" d="M5 5h64v64H5z"/><path stroke="#879196" stroke-width="2" d="M1 1h72v72H1z"/><path fill="#fff" d="M52 42.5c-2.757 0-5-2.243-5-5s2.243-5 5-5 5 2.243 5 5-2.243 5-5 5m-9 10.866V39h2.166c.689 3.141 3.49 5.5 6.834 5.5.059 0 .115-.007.173-.009A16.45 16.45 0 0 1 43 53.366m-5 1.094V28.92a7 7 0 0 0 5.914-5.882 16.6 16.6 0 0 1 7.784 7.477A7 7 0 0 0 45.025 37H42a1 1 0 0 0-1 1v16.008c-.973.242-1.977.391-3 .452m-5-.452V38a1 1 0 0 0-1-1h-3.025a7 7 0 0 0-6.673-6.485 16.6 16.6 0 0 1 7.784-7.477A7 7 0 0 0 36 28.92v25.54a16.5 16.5 0 0 1-3-.452m-11.173-9.517c.058.002.114.009.173.009 3.344 0 6.145-2.359 6.834-5.5H31v14.366a16.45 16.45 0 0 1-9.173-8.875M17 37.5c0-2.757 2.243-5 5-5s5 2.243 5 5-2.243 5-5 5-5-2.243-5-5M37 17c2.757 0 5 2.243 5 5s-2.243 5-5 5-5-2.243-5-5 2.243-5 5-5m17.031 13.803c-1.911-4.517-5.579-8.143-10.137-9.974C43.334 17.526 40.46 15 37 15s-6.334 2.526-6.894 5.829c-4.558 1.831-8.226 5.457-10.137 9.974C17.097 31.676 15 34.347 15 37.5c0 2.984 1.881 5.531 4.516 6.536A18.45 18.45 0 0 0 31 55.498V59h2v-2.945q1.467.323 3 .405V59h2v-2.54a18.5 18.5 0 0 0 3-.405V59h2v-3.502a18.45 18.45 0 0 0 11.484-11.462C57.119 43.031 59 40.484 59 37.5c0-3.153-2.097-5.824-4.969-6.697"/></g></svg>