<svg xmlns="http://www.w3.org/2000/svg" viewBox="0 0 74 74"><title>Icon-Architecture-Category/48/Management-Governance_48</title><g fill="none" fill-rule="evenodd"><path fill="#e7157b" d="M5 5h64v64H5z"/><path stroke="#879196" stroke-width="2" d="M1 1h72v72H1z"/><path fill="#fff" d="M37 43H20v-2h17v-2h2v2h4v2h-4v2h-2zm-12-8h-5v-2h5v-2h2v2h16v2H27v2h-2zm12-15h10v-3H37zm18.842-3H49v-1a1 1 0 0 0-1-1H36a1 1 0 0 0-1 1v1h-6.842A3.16 3.16 0 0 0 25 20.158V24h2v-3.842c0-.638.52-1.158 1.158-1.158H35v2a1 1 0 0 0 1 1h12a1 1 0 0 0 1-1v-2h6.842c.638 0 1.158.52 1.158 1.158v35.684A1.16 1.16 0 0 1 55.842 57H29.158A1.16 1.16 0 0 1 28 55.842V53h-2v2.842A3.16 3.16 0 0 0 29.158 59h26.684A3.16 3.16 0 0 0 59 55.842V20.158A3.16 3.16 0 0 0 55.842 17M17 49h29V28H17zm31 1V27a1 1 0 0 0-1-1H16a1 1 0 0 0-1 1v23a1 1 0 0 0 1 1h31a1 1 0 0 0 1-1"/></g></svg>