<svg xmlns="http://www.w3.org/2000/svg" viewBox="0 0 74 74"><title>Icon-Architecture-Category/48/Media-Services_48</title><g fill="none" fill-rule="evenodd"><path fill="#ed7100" d="M5 5h64v64H5z"/><path stroke="#879196" stroke-width="2" d="M1 1h72v72H1z"/><path fill="#fff" d="m37.474 37.062-11.309 6.802c-.016.01-.053.036-.109.005S26 43.797 26 43.776V30.223c0-.021 0-.063.056-.093a.1.1 0 0 1 .048-.014c.033 0 .062.02.099.044l11.271 6.777.516-.857zm1.031-1.839L27.273 28.47a2.1 2.1 0 0 0-2.161-.103A2.1 2.1 0 0 0 24 30.223v13.553c0 .778.426 1.489 1.112 1.856.316.17.663.253 1.005.253.398 0 .79-.113 1.118-.332l11.309-6.802A2.1 2.1 0 0 0 39.482 37c0-.706-.351-1.361-.977-1.777M57 45.894a.106.106 0 0 1-.105.106h-2.921V27.999h2.921c.058 0 .105.048.105.106zM45 40v11.789c0 .668-.543 1.211-1.211 1.211H18.211A1.21 1.21 0 0 1 17 51.789V22.21c0-.668.543-1.21 1.211-1.21h25.578c.668 0 1.211.542 1.211 1.21v11.789h3.762L52 29.552v14.895L48.762 40zm11.895-14.001h-4.823L47.739 32H47v-9.79c0-1.77-1.44-3.21-3.211-3.21H18.211A3.214 3.214 0 0 0 15 22.21v29.579c0 1.77 1.441 3.21 3.211 3.21h25.578A3.214 3.214 0 0 0 47 51.789v-9.79h.739L52.072 48h4.823A2.11 2.11 0 0 0 59 45.894V28.105a2.11 2.11 0 0 0-2.105-2.106"/></g></svg>