<svg xmlns="http://www.w3.org/2000/svg" fill="none" viewBox="0 0 74 74"><path fill="#e7157b" d="M5 5h64v64H5z"/><path stroke="#879196" stroke-width="2" d="M1 1h72v72H1z"/><path fill="#fff" d="M58.89 32.317c0 2.707-1.577 5.1-4.017 6.097l-.756-1.852c1.685-.687 2.773-2.353 2.773-4.245 0-2.478-1.858-4.476-4.23-4.547a1 1 0 0 1-.914-1.328c.097-.279.144-.538.144-.792 0-1.286-.993-2.333-2.214-2.333-.576 0-1.123.234-1.54.66a.998.998 0 0 1-1.659-.375c-.976-2.829-3.566-4.73-6.444-4.73-1.953 0-3.818.872-5.118 2.392l-1.52-1.3c1.681-1.965 4.1-3.091 6.638-3.091 3.301 0 6.303 1.911 7.82 4.87a4.1 4.1 0 0 1 1.823-.426c2.323 0 4.214 1.944 4.214 4.333q0 .131-.01.263c2.888.632 5.01 3.248 5.01 6.404m-11.914.492q.024-.238.024-.475c0-2.757-2.179-5-4.857-5-.805 0-1.581.201-2.275.581C38.111 24.329 34.522 22 30.571 22c-5.75 0-10.428 4.835-10.428 10.778q0 .13.002.26C17.118 34.047 15 36.983 15 40.335 15 44.704 18.01 48 22 48v-2c-2.898 0-5-2.383-5-5.666 0-2.709 1.847-5.047 4.392-5.562a1 1 0 0 0 .797-1.079q-.046-.45-.046-.915c0-4.84 3.78-8.778 8.428-8.778 3.538 0 6.723 2.335 7.923 5.81a1 1 0 0 0 1.66.374 2.77 2.77 0 0 1 1.989-.85c1.575 0 2.857 1.345 2.857 3 0 .324-.06.657-.185 1.017a1 1 0 0 0 .916 1.325c2.954.09 5.269 2.575 5.269 5.657C51 43.618 48.898 46 46 46v2c3.99 0 7-3.296 7-7.666 0-3.754-2.565-6.854-6.024-7.525M44 41.444v11.112a1 1 0 0 1-.558.896l-9 4.445a1 1 0 0 1-.884 0l-9-4.445a1 1 0 0 1-.558-.896V41.444a1 1 0 0 1 .558-.896l9-4.445a1 1 0 0 1 .884 0l9 4.445a1 1 0 0 1 .558.896m-16.742 0L34 44.774l6.742-3.33L34 38.116zM26 51.935l7 3.457V46.51l-7-3.457zm16 0v-8.88l-7 3.456v8.88z"/></svg>