<svg xmlns="http://www.w3.org/2000/svg" viewBox="0 0 74 74"><title>Icon-Architecture-Category/48/Networking-Content-Delivery_48</title><g fill="none" fill-rule="evenodd"><path fill="#8c4fff" d="M5 5h64v64H5z"/><path stroke="#879196" stroke-width="2" d="M1 1h72v72H1z"/><path fill="#fff" d="M50.821 40h-26.03C21.489 40 19 37.41 19 34.113c.002-.237.13-5.795 6.922-5.795a1 1 0 0 0 1-1c0-10.141 7.729-10.316 8.054-10.318 4.019 0 6.325 1.707 7.259 5.371a1 1 0 0 0 1.428.642c.999-.515 1.897-.032 2.477.465 1.156.988 2.021 3 1.469 4.655a1 1 0 0 0 .948 1.316c4.834 0 7.443 2.751 7.443 5.34C56 38.084 54.161 40 50.821 40m.429 10.5c0 1.378-1.121 2.5-2.5 2.5a2.503 2.503 0 0 1-2.5-2.5c0-1.378 1.121-2.5 2.5-2.5s2.5 1.122 2.5 2.5m-11.5 4c0 1.378-1.121 2.5-2.5 2.5a2.503 2.503 0 0 1-2.5-2.5c0-1.378 1.121-2.5 2.5-2.5s2.5 1.122 2.5 2.5m-14-1.5a2.503 2.503 0 0 1-2.5-2.5c0-1.378 1.121-2.5 2.5-2.5s2.5 1.122 2.5 2.5-1.121 2.5-2.5 2.5m24.014-25.5c.184-2.182-.92-4.341-2.324-5.542-1.09-.933-2.364-1.314-3.573-1.103C42.519 16.969 39.533 15 34.976 15c-.097 0-9.521.132-10.033 11.351-7.85.548-7.943 7.683-7.943 7.757C17 38.477 20.422 42 24.791 42h8.354l-5.303 4.54A4.45 4.45 0 0 0 25.75 46a4.505 4.505 0 0 0-4.5 4.5c0 2.481 2.018 4.5 4.5 4.5 2.481 0 4.5-2.019 4.5-4.5 0-.991-.332-1.899-.876-2.644l6.876-5.957v8.222c-2 .457-3.5 2.242-3.5 4.379 0 2.481 2.018 4.5 4.5 4.5 2.481 0 4.5-2.019 4.5-4.5 0-2.137-1.5-3.922-3.5-4.379v-8.222l6.876 5.957a4.47 4.47 0 0 0-.876 2.644c0 2.481 2.018 4.5 4.5 4.5 2.481 0 4.5-2.019 4.5-4.5s-2.019-4.5-4.5-4.5c-.759 0-1.464.207-2.092.54L41.354 42h9.467C55.316 42 58 39.241 58 34.789c0-3.317-2.876-6.829-8.236-7.289"/></g></svg>