<svg xmlns="http://www.w3.org/2000/svg" viewBox="0 0 74 74"><title>Icon-Architecture-Category/48/Satellite_48</title><g fill="none" fill-rule="evenodd"><path fill="#c925d1" d="M5 5h64v64H5z"/><path stroke="#879196" stroke-width="2" d="M1 1h72v72H1z"/><path fill="#fff" d="M50.545 40.402c-2.264 1.342-4.963 2.64-7.995 3.804-5.776 2.217-12.409 3.737-17.61 3.9 2.516 3.73 6.782 6.189 11.611 6.189 7.683 0 13.935-6.223 13.994-13.893M21.62 45.995a15.9 15.9 0 0 1-1.065-5.643c-1.552 1.34-2.483 2.605-2.55 3.53-.028.385.095.687.398.98.586.563 1.705.944 3.217 1.133m.932-5.7c0 2.085.471 4.057 1.291 5.837 4.506.033 11.091-1.145 17.991-3.793 3.525-1.353 6.36-2.783 8.541-4.154-1.022-6.72-6.822-11.89-13.823-11.89-7.72 0-14 6.28-14 14m30.926-12.142a1.001 1.001 0 1 0-1 1c.551 0 1-.448 1-1m3.31 1.95c.89.865 1.21 1.91.971 3.068-.377 1.837-2.278 3.934-5.265 5.988.027.377.058.752.058 1.136 0 8.822-7.178 16-16 16-5.99 0-11.217-3.315-13.958-8.203-2.477-.15-4.452-.71-5.576-1.79-.732-.702-1.079-1.59-1.008-2.567.17-2.306 2.66-4.581 4.785-6.12 1.28-7.548 7.85-13.32 15.757-13.32 7.674 0 14.098 5.432 15.641 12.65 2.19-1.63 3.387-3.107 3.607-4.176.1-.483-.012-.85-.359-1.188a4.4 4.4 0 0 0-1.507-.821 2.96 2.96 0 0 1-1.456.393c-1.655 0-3-1.345-3-3 0-1.654 1.345-3 3-3 1.654 0 3 1.346 3 3 0 .35-.073.683-.183.997a6.5 6.5 0 0 1 1.492.954m-5.49-7.168a3.58 3.58 0 0 1 2.756.183c.707.349 1.288.93 1.637 1.636l1.793-.886a5.64 5.64 0 0 0-2.543-2.543 5.58 5.58 0 0 0-4.286-.285 5.58 5.58 0 0 0-3.23 2.828l1.793.886a3.59 3.59 0 0 1 2.08-1.82m8.6-1.322-1.79.89a6.35 6.35 0 0 0-2.845-2.844 6.32 6.32 0 0 0-8.46 2.844l-1.792-.89c2.038-4.105 7.036-5.785 11.141-3.745a8.37 8.37 0 0 1 3.746 3.745"/></g></svg>