<svg xmlns="http://www.w3.org/2000/svg" viewBox="0 0 74 74"><title>Icon-Architecture-Category/48/Serverless_48</title><g fill="none" fill-rule="evenodd"><path stroke="#879196" stroke-width="2" d="M1 1h72v72H1z"/><path fill="#8c4fff" d="M5 5h64v64H5z"/><path fill="#fff" d="M59.624 42.647c0 2.376-.833 4.606-2.346 6.279-1.716 1.898-4.138 2.901-7.005 2.901-5.803 0-9.636-3.723-12.899-7.52a242 242 0 0 1-1.325-1.567c-1.579-1.882-3.08-3.673-4.724-5.031l.005 4.79-2 .002-.007-7c0-.265.105-.52.292-.708.188-.187.442-.292.707-.293l7.007-.007.002 2-4.353.005c1.574 1.375 3.017 3.059 4.411 4.727.367.44 1.141 1.373 1.302 1.547 3.27 3.532 6.514 7.055 11.582 7.055 2.286 0 4.195-.775 5.522-2.243 1.163-1.285 1.83-3.085 1.83-4.937 0-3.331-2.069-6.691-6.69-6.691-4.958 0-8.06 2.309-10.828 5.246q-.4-.456-.803-.919-.257-.294-.516-.588c2.901-3.027 6.458-5.669 11.927-5.737-.274-2.807-2.156-4.458-5.154-4.458h-.687a1 1 0 0 1-.875-.516C42.27 25.863 39 24 35.25 24c-5.514 0-10 4.486-10 10a1 1 0 0 1-1 1 7.18 7.18 0 0 0-5.29 2.293 7.2 7.2 0 0 0-1.943 5.442c.246 3.793 3.547 6.765 7.516 6.765h1.606q.556 0 1.107-.08c.801-.117 1.514-.326 2.12-.623 2.046-1.002 3.717-2.644 5.358-4.491l.136.156q.593.68 1.196 1.354c-1.7 1.893-3.536 3.663-5.81 4.777-.793.388-1.705.659-2.712.806-.462.067-.93.101-1.395.101h-1.606c-5.02 0-9.198-3.793-9.512-8.636a9.17 9.17 0 0 1 2.48-6.939 9.3 9.3 0 0 1 5.786-2.874C23.771 26.876 28.951 22 35.25 22c4.28 0 8.047 2.044 10.197 5.5h.115c4.168 0 6.93 2.571 7.17 6.604 4.723.808 6.893 4.803 6.893 8.543"/></g></svg>