<svg xmlns="http://www.w3.org/2000/svg" viewBox="0 0 74 74"><title>Icon-Architecture-Category/48/Storage_48</title><g fill="none" fill-rule="evenodd"><path fill="#7aa116" d="M5 5h64v64H5z"/><path stroke="#879196" stroke-width="2" d="M1 1h72v72H1z"/><path fill="#fff" d="M31 45h12l.001 3H31zm0 5h12c1.103 0 2-.897 2-2v-3c0-1.103-.897-2-2-2H31c-1.103 0-2 .897-2 2v3c0 1.103.897 2 2 2m-2-16h16v-2H29zm0-10h6v-2h-6zm0 5h7v-2h-7zm26 26.746c0 .692-.563 1.254-1.254 1.254H20.254A1.255 1.255 0 0 1 19 55.746V40h36zM26 17h14v7a1 1 0 0 0 1 1h7v13H26zm16 1.414L46.586 23H42zM56 38h-6V24h-.009a1 1 0 0 0-.284-.707l-8-8a1 1 0 0 0-.707-.284V15H25a1 1 0 0 0-1 1v22h-6a1 1 0 0 0-1 1v16.746A3.257 3.257 0 0 0 20.254 59h33.492A3.257 3.257 0 0 0 57 55.746V39a1 1 0 0 0-1-1"/></g></svg>