<svg xmlns="http://www.w3.org/2000/svg" viewBox="0 0 48 48"><title>Icon-Resource/General-Resource/Res_Alert_48_Light</title><path fill="#232f3d" fill-rule="evenodd" d="M24.496 35c-.827 0-1.5.673-1.5 1.5s.673 1.5 1.5 1.5 1.5-.673 1.5-1.5-.673-1.5-1.5-1.5m0 5c-1.93 0-3.5-1.57-3.5-3.5s1.57-3.5 3.5-3.5 3.5 1.57 3.5 3.5-1.57 3.5-3.5 3.5m-.564-11h1.128l.867-13h-2.862zm2.064 2h-3a1 1 0 0 1-.998-.934l-1-15A1 1 0 0 1 21.996 14h5a1 1 0 0 1 .998 1.066l-1 15a1 1 0 0 1-.998.934m-11.92-7.938a3 3 0 0 1-.138.269L5.21 38.339c-.3.51-.282 1.157.048 1.736S6.14 41 6.735 41h35.522c.595 0 1.148-.346 1.478-.925s.35-1.226.052-1.73l-8.733-15.014a3 3 0 0 1-.138-.269l-.014.008-8.88-15.266C25.726 7.303 25.154 7 24.496 7c-.657 0-1.228.301-1.528.807L14.09 23.07zM42.257 43H6.735c-1.322 0-2.524-.723-3.216-1.934-.68-1.192-.693-2.625-.035-3.739l8.875-15.26.013.008c.066-.142.141-.272.203-.379l8.666-14.898.003-.005C21.907 5.67 23.122 5 24.496 5s2.59.67 3.252 1.793l8.67 14.903c.061.107.136.237.202.379l.013-.008 8.88 15.266c.653 1.108.64 2.541-.04 3.733C44.781 42.277 43.58 43 42.257 43"/></svg>