<svg xmlns="http://www.w3.org/2000/svg" viewBox="0 0 48 48"><title>Icon-Resource/Database/Res_Amazon-RDS_Optimized-Writes_48</title><path fill="#c925d1" fill-rule="evenodd" d="m43.758 17.06-7.206-2.827-1.058 2.695 7.199 2.847zm-1.796 4.576-7.2-2.846-5.511 14.042 2.574 1.01L35.96 23.78l1.85.76-4.123 10.032 2.77 1.087zm-12.57 21.218 5.76-5.558-6.1-2.394zM45.985 16.86l-8.032 20.46a.98.98 0 0 1-.485.519l-8.286 7.997a1 1 0 0 1-1.066.209 1 1 0 0 1-.628-.886L27 33.735l.024-.001a1 1 0 0 1 0-.702l8.03-20.461a1 1 0 0 1 1.297-.565l9.067 3.559c.247.097.445.288.552.53.105.244.11.519.014.766M4.014 8.16c0 2.002 4.637 4.16 12.128 4.16C23.72 12.322 29 10.13 29 8.162S23.72 4 16.142 4C8.65 4 4.014 6.16 4.014 8.162m20.678 34.836.545 1.923c-2.548.723-5.65 1.104-8.966 1.104C7.736 46.024 2 43.548 2 39.863V8.025h.027C2.167 4.417 7.797 2 16.142 2c7.298 0 14.672 2.07 14.842 6.025H31v9h-2v-5.616c-2.713 1.92-7.806 2.913-12.858 2.913-5.484 0-9.787-1.047-12.142-2.786v28.327c0 2.046 4.59 4.16 12.27 4.16 3.136 0 6.049-.355 8.422-1.026M8 23.025h12v-2H8zm-1 4h20v-2H7zm3 4h6v-2h-6zm9 0h5v-2h-5z"/></svg>