<svg xmlns="http://www.w3.org/2000/svg" viewBox="0 0 48 48"><title>Icon-Resource/Containers/Res_Amazon-Elastic-Container-Service_CopiIoT-CLI_48</title><path fill="#ed7100" fill-rule="evenodd" d="M21.53 28.04 9.673 17.26l-1.346 1.48 10.142 9.22-10.102 8.267 1.266 1.548zM19 37h16v-2H19zm19-19c0-.362-.198-.697-.515-.873L29 12.413V5.662l15 7.94v17.595l-6-3.75zm7.484 15.875A1 1 0 0 0 46 33V13a1 1 0 0 0-.533-.884l-17-9A.999.999 0 0 0 27 4v9a1 1 0 0 0 .514.874L36 18.589V28a1 1 0 0 0 .469.848l8 5a1 1 0 0 0 1.015.026M14.023 6H23V4h-8.977zM44 44H4c-1.088-.01-2-.925-2-2V6c0-1.084.916-2 2-2h6v2H4v36h40v-4h2v4c0 1.084-.916 2-2 2"/></svg>