<svg xmlns="http://www.w3.org/2000/svg" viewBox="0 0 48 48"><title>Icon-Resource/Database/Res_Amazon-Aurora-Oracle-Instance-Alternate_48</title><path fill="#c925d1" fill-rule="evenodd" d="M43.908 39.461a4.45 4.45 0 0 1-4.447 4.448H8.447A4.45 4.45 0 0 1 4 39.461V8.448A4.45 4.45 0 0 1 8.447 4h31.014a4.45 4.45 0 0 1 4.447 4.448zM39.461 2H8.447A6.455 6.455 0 0 0 2 8.448v31.013a6.454 6.454 0 0 0 6.447 6.448h31.014a6.455 6.455 0 0 0 6.447-6.448V8.448A6.456 6.456 0 0 0 39.461 2m-.277 11.361h-1.81q.052-1.677 1.026-1.677.407 0 .595.317.19.32.19 1.048zm1.571-.122q-.001-2.814-2.3-2.813-1.34 0-2.05.932-.71.935-.71 2.707 0 3.625 2.895 3.625.555 0 1.11-.136.554-.135.932-.378v-1.231a7 7 0 0 1-.9.263 3.7 3.7 0 0 1-.764.102q-.825 0-1.19-.406t-.405-1.38h3.246q.136-.58.136-1.285m-6.142 2.949q.108 0 .392-.04v1.245a2.8 2.8 0 0 1-1.082.202q-.811 0-1.21-.453-.4-.453-.4-1.387V7.504h1.854v8.048q0 .352.087.494.088.142.36.142m-4.694.04q.554 0 1.218-.256v1.231a2.2 2.2 0 0 1-.717.317 3.5 3.5 0 0 1-.907.116q-1.365 0-2.069-.906-.704-.908-.704-2.652 0-1.717.752-2.658.75-.94 2.103-.94.798 0 1.514.405v1.232a3.3 3.3 0 0 0-1.149-.231q-.732 0-1.048.494-.319.494-.318 1.59v.188q0 1.097.311 1.584.31.486 1.014.486m-6.142-.27q-.446.433-.89.433a.53.53 0 0 1-.455-.237q-.17-.237-.169-.642 0-.473.21-.725.21-.25.602-.25.406 0 .702.096zm-.526-5.532q-.664 0-1.299.148-.637.15-1.027.407v1.23q1.175-.433 1.988-.433.5 0 .683.25.181.251.181.954v.623q-.622-.163-1.04-.163-1.016 0-1.61.589-.595.587-.595 1.602 0 .96.486 1.509.488.547 1.326.548.446 0 .88-.224.433-.223.663-.575l.162.622h1.433v-4.842q0-1.177-.527-1.711-.528-.534-1.704-.534m-3.734.107q.217 0 .433.041v1.637a4 4 0 0 0-.717-.067q-.65 0-1.23.324v5.045H16.15v-6.911h1.515l.202.892q.407-.5.806-.73.399-.231.845-.231m-7.25 4.803q-.459.852-1.353.852t-1.352-.852q-.46-.852-.46-2.517 0-1.702.447-2.529.445-.825 1.365-.825t1.367.825q.446.826.446 2.529 0 1.665-.46 2.517m-1.353-7.399q-1.785 0-2.773 1.278t-.988 3.604q0 2.328.988 3.612.989 1.285 2.773 1.285 1.786 0 2.773-1.285t.988-3.612q0-2.325-.988-3.604-.987-1.279-2.773-1.278"/></svg>