<svg xmlns="http://www.w3.org/2000/svg" viewBox="0 0 48 48"><title>Icon-Resource/Analytics/Res_Amazon-OpenSearch-Service_Data-Node_48</title><path fill="#8c4fff" fill-rule="evenodd" d="M43.911 42.513c.033-.247-.062-.375-.137-.45l-5.562-5.413q-.608.778-1.344 1.435l5.388 5.514c.337.334.911.007 1.217-.298.245-.245.404-.532.438-.788m-14.32-3.633c4.929 0 8.939-4.01 8.939-8.94S34.52 21 29.591 21s-8.94 4.01-8.94 8.94 4.01 8.94 8.94 8.94m15.588 1.759c.572.573.823 1.329.714 2.138-.091.694-.45 1.382-1.006 1.939-.674.673-1.498 1.018-2.283 1.018a2.48 2.48 0 0 1-1.77-.728l-5.587-5.72a10.86 10.86 0 0 1-5.656 1.594c-6.033 0-10.94-4.908-10.94-10.94S23.558 19 29.591 19 40.53 23.908 40.53 29.94c0 1.799-.444 3.493-1.216 4.99zM46 6.999v22h-2V7c0-1.653-1.346-3-3-3H7C5.346 4 4 5.347 4 7v34c0 1.656 1.346 3 3 3h22v2H7c-2.757 0-5-2.242-5-5V7c0-2.756 2.243-5 5-5h34c2.757 0 5 2.244 5 5"/></svg>