<svg xmlns="http://www.w3.org/2000/svg" viewBox="0 0 48 48"><title>Icon-Resource/Application-Integration/Res_Amazon-EventBridge_Schema-Registry_48</title><path fill="#e7157b" fill-rule="evenodd" d="m38 35.943-3.5 2.021-3.5-2.021v-4.042l3.5-2.02 3.5 2.02zm1.5-5.485L35 27.86a1 1 0 0 0-1 0l-4.5 2.598a1 1 0 0 0-.5.866v5.196c0 .358.19.688.5.866l4.5 2.599a1 1 0 0 0 1 0l4.5-2.599c.31-.178.5-.508.5-.866v-5.196a1 1 0 0 0-.5-.866M17 35.943l-3.5 2.021-3.5-2.021v-4.042l3.5-2.02 3.5 2.02zm1.5-5.485L14 27.86a1 1 0 0 0-1 0l-4.5 2.598a1 1 0 0 0-.5.866v5.196c0 .358.19.688.5.866l4.5 2.599a1 1 0 0 0 1 0l4.5-2.599c.31-.178.5-.508.5-.866v-5.196a1 1 0 0 0-.5-.866M31 10.901l3.5-2.02 3.5 2.02v4.042l-3.5 2.021-3.5-2.021zm-1.5 5.485 4.5 2.599a1 1 0 0 0 1 0l4.5-2.599c.31-.178.5-.508.5-.866v-5.196a1 1 0 0 0-.5-.866L35 6.86a1 1 0 0 0-1 0l-4.5 2.598a1 1 0 0 0-.5.866v5.196c0 .358.19.688.5.866M10 10.901l3.5-2.02 3.5 2.02v4.042l-3.5 2.021-3.5-2.021zm-1.5 5.485 4.5 2.599a1 1 0 0 0 1 0l4.5-2.599c.31-.178.5-.508.5-.866v-5.196a1 1 0 0 0-.5-.866L14 6.86a1 1 0 0 0-1 0L8.5 9.458a1 1 0 0 0-.5.866v5.196c0 .358.19.688.5.866M25 44h19V25H25zM4 44h19V25H4zm0-21h19V4H4zm21 0h19V4H25zM45 2H3a1 1 0 0 0-1 1v42a1 1 0 0 0 1 1h42a1 1 0 0 0 1-1V3a1 1 0 0 0-1-1"/></svg>