<svg xmlns="http://www.w3.org/2000/svg" viewBox="0 0 48 48"><title>Icon-Resource/Storage/Res_Amazon-Elastic-Block-Store_Snapshot_48</title><path fill="#7aa116" fill-rule="evenodd" d="m36.2 30.791.078-.583c.512.329.862.594 1.071.783a7.5 7.5 0 0 1-1.15-.2m-13.463-4.256c0-.106.086-.193.192-.193.031 0 .053.02.08.033l-.148.299c-.066-.021-.124-.06-.124-.139m9.967 15.3c0 .004-.177.373-1.362.841a13.4 13.4 0 0 1-1.907.573c-1.882.435-4.194.675-6.507.675-5.78 0-9.489-1.38-9.766-2.042a1 1 0 0 0-.009-.133L10.39 21.228c.048.024.108.043.157.066q.489.237 1.045.444c.03.011.054.023.085.033.404.146.837.279 1.284.403q.184.05.37.098.562.147 1.152.273l.282.062q.72.145 1.464.261.181.027.366.053.608.089 1.22.161.186.022.371.042.753.083 1.495.137.128.009.255.016.63.043 1.24.069l.381.014c.471.016.934.026 1.372.026.44 0 .902-.01 1.373-.026l.382-.014q.611-.026 1.244-.069.124-.007.25-.016.74-.055 1.492-.136l.383-.044q.606-.071 1.21-.16.186-.026.37-.054.744-.115 1.463-.26c.096-.02.188-.042.284-.063a25 25 0 0 0 1.52-.37c.446-.125.88-.257 1.284-.403.032-.011.058-.023.088-.035a12 12 0 0 0 1.043-.442c.05-.023.11-.042.156-.066l-1.208 9c-2.609-.863-6.186-2.351-9.55-3.945a1.804 1.804 0 0 0-1.783-1.555c-.997 0-1.807.811-1.807 1.807 0 .997.81 1.807 1.807 1.807.333 0 .642-.096.91-.254q6.343 3.04 10.152 4.161zm-9.776-26.913c7.668 0 12.786 2.404 12.928 3.432l-.012.097c-.01.034-.035.07-.055.106-.018.031-.032.062-.058.094-.028.036-.068.074-.105.111-.035.035-.067.07-.11.106-.045.038-.1.076-.153.115-.053.038-.1.076-.163.116-.059.037-.129.076-.195.114-.072.041-.139.082-.219.124-.072.038-.156.077-.236.115-.09.043-.176.086-.275.129-.085.037-.18.074-.272.111-.109.045-.214.089-.332.133-.099.037-.208.073-.314.11-.126.043-.247.087-.382.13-.112.037-.236.071-.353.106-.143.043-.28.086-.433.127-.127.035-.265.068-.399.102-.156.04-.308.081-.473.119-.143.033-.298.064-.447.097-.17.036-.334.073-.512.108-.159.031-.33.06-.497.089-.18.032-.356.066-.544.096-.18.029-.372.054-.559.08s-.37.056-.564.08c-.204.026-.42.047-.633.071-.189.02-.374.043-.569.062-.23.021-.472.037-.71.055-.19.015-.375.032-.57.044-.266.017-.544.027-.818.038-.18.008-.354.019-.538.025a47 47 0 0 1-2.855 0c-.178-.005-.346-.016-.522-.024-.279-.012-.562-.022-.834-.039-.18-.011-.35-.027-.526-.04-.254-.019-.512-.037-.756-.06-.175-.016-.338-.037-.508-.055-.232-.025-.469-.049-.694-.077-.173-.022-.334-.048-.502-.071-.209-.03-.422-.058-.623-.09-.165-.027-.319-.056-.48-.085a25 25 0 0 1-.56-.1c-.158-.031-.304-.064-.455-.097-.17-.036-.344-.071-.505-.108-.145-.034-.276-.07-.414-.104-.154-.039-.313-.078-.459-.118-.134-.036-.256-.074-.383-.112-.135-.04-.274-.08-.4-.12-.12-.039-.229-.078-.342-.117-.12-.041-.244-.082-.357-.124-.104-.039-.196-.079-.294-.118-.103-.042-.21-.084-.307-.126-.09-.039-.168-.079-.25-.118-.088-.042-.18-.084-.26-.126-.074-.038-.136-.076-.2-.114-.074-.041-.15-.083-.214-.124-.057-.037-.103-.073-.152-.109-.057-.041-.116-.082-.162-.121-.04-.034-.072-.068-.105-.101-.039-.039-.08-.078-.109-.116-.026-.031-.039-.061-.057-.091-.02-.037-.045-.074-.056-.109l-.012-.096c.142-1.028 5.26-3.432 12.925-3.432M39.67 31.017c-.17-.917-1.116-1.823-3.1-2.974l1.243-9.226v-.001l.038-.287a1 1 0 0 0 .01-.132c0-3.274-7.72-5.475-14.932-5.475C15.72 12.922 8 15.123 8 18.397q0 .066.01.132l.037.287v.001l3.117 23.145c.125 2.905 7.077 3.962 11.764 3.962 2.46 0 4.931-.258 6.958-.726.822-.19 1.56-.411 2.191-.661 1.695-.671 2.576-1.538 2.618-2.576l1.243-9.23a9 9 0 0 0 1.621.176q1.276 0 1.766-.585c.31-.368.432-.831.344-1.305M12.621 13.481h-2v-2.62a1 1 0 0 1 1-1h22.71a1 1 0 0 1 1 1v2.62h-2v-1.62H12.62zM16.095 4h13.76l2.19 2.367H13.906zm-4.474 4.367h22.71a1 1 0 0 0 .733-1.679l-4.037-4.367A1 1 0 0 0 30.293 2H15.658a1 1 0 0 0-.734.321l-4.037 4.367a1 1 0 0 0 .734 1.679"/></svg>