<svg xmlns="http://www.w3.org/2000/svg" viewBox="0 0 48 48"><title>Icon-Resource/Networking-and-Content-Delivery/Res_Amazon-Route-53_Resolver_48</title><path fill="#8c4fff" fill-rule="evenodd" d="M32.978 32.012c-1.654 0-3-1.346-3-3s1.346-3 3-3 3 1.346 3 3-1.346 3-3 3m-12-15c0-1.654 1.346-3 3-3s3 1.346 3 3-1.346 3-3 3-3-1.346-3-3m-6 15c-1.654 0-3-1.346-3-3s1.346-3 3-3 3 1.346 3 3-1.346 3-3 3m18-8c-.748 0-1.451.177-2.089.472l-3.172-4.187c.775-.881 1.261-2.022 1.261-3.285 0-2.757-2.243-5-5-5s-5 2.243-5 5c0 1.192.437 2.274 1.137 3.135l-3.22 4.25a5 5 0 0 0-1.917-.385c-2.757 0-5 2.243-5 5s2.243 5 5 5 5-2.243 5-5a4.98 4.98 0 0 0-1.429-3.488l3.113-4.108a4.9 4.9 0 0 0 2.316.596c.771 0 1.494-.19 2.147-.504l3.157 4.167a4.96 4.96 0 0 0-1.304 3.337c0 2.757 2.243 5 5 5s5-2.243 5-5-2.243-5-5-5m1.077 15.435c-4.663.837-8.595 3.294-10.062 4.305-1.468-1.011-5.401-3.468-10.064-4.305C11.6 39.028 4 37.17 4 30.821c0-2.653 1.004-4.382 2.067-6.213.998-1.719 2.029-3.496 2.029-5.928 0-3.663-2.025-6.296-3.155-7.48 1.154-1.403 3.693-4.501 5.086-6.283 2.121 1.933 4.568 2.985 6.992 2.985 2.7 0 4.941-1.065 6.974-3.333 2.031 2.268 4.272 3.333 6.972 3.333 2.424 0 4.871-1.052 6.992-2.985 1.393 1.782 3.932 4.88 5.086 6.283-1.129 1.184-3.155 3.817-3.155 7.48 0 2.432 1.031 4.209 2.029 5.928 1.063 1.831 2.067 3.56 2.067 6.213 0 6.349-7.6 8.207-9.929 8.626m9.592-15.843c-.943-1.626-1.759-3.03-1.759-4.924 0-3.998 3.119-6.595 3.149-6.619a1.003 1.003 0 0 0 .142-1.415c-.052-.062-5.144-6.233-6.307-7.828a1.002 1.002 0 0 0-1.539-.094c-1.917 2.05-4.178 3.178-6.368 3.178-2.416 0-4.321-1.082-6.178-3.51a1.002 1.002 0 0 0-1.588 0c-1.859 2.428-3.765 3.51-6.18 3.51-2.189 0-4.451-1.128-6.368-3.178a1 1 0 0 0-1.538.094c-1.163 1.595-6.256 7.766-6.308 7.828-.169.205-.248.47-.223.735.027.265.158.509.364.678.031.026 3.15 2.623 3.15 6.621 0 1.894-.815 3.298-1.759 4.924C3.242 25.491 2 27.63 2 30.821c0 5.332 4.328 9.292 11.576 10.594 5.313.954 9.763 4.328 9.808 4.362a1 1 0 0 0 1.217 0c.045-.034 4.495-3.408 9.808-4.362 7.248-1.302 11.575-5.262 11.575-10.594 0-3.191-1.241-5.33-2.337-7.217"/></svg>