<svg xmlns="http://www.w3.org/2000/svg" viewBox="0 0 48 48"><title>Icon-Resource/Storage/Res_Amazon-Elastic-File-System_Standard-Infrequent-Access_48</title><path fill="#7aa116" fill-rule="evenodd" d="M41 39V16.654c0-1.76-.891-3.654-2.846-3.654h-3.383c-.188-1.306-.645-3.478-1.63-3.914A1 1 0 0 0 32.735 9h-7.478a1 1 0 0 0-.531.153c-.873.547-1.198 2.595-1.316 3.847H21v2h3.346a1 1 0 0 0 1-1c0-.693.229-2.29.465-3h6.423c.29.698.651 2.378.651 3a1 1 0 0 0 1 1h4.269c.796 0 .846 1.641.846 1.654V38H4V16.664c.008-.39.166-1.664 1.846-1.664H9v-2H5.846C3.024 13 2 15.185 2 16.654V39a1 1 0 0 0 1 1h37a1 1 0 0 0 1-1m-9-6c1.103 0 2-.897 2-2s-.897-2-2-2-2 .897-2 2 .897 2 2 2m0 2c-2.206 0-4-1.794-4-4s1.794-4 4-4 4 1.794 4 4-1.794 4-4 4m-12.326-8h3.652L21.5 23.61zm-2.555.526 3.5-6.5c.35-.648 1.412-.648 1.762 0l3.5 6.5A1 1 0 0 1 25 29h-7a1 1 0 0 1-.881-1.474M9 31h3v-3H9zm4-5a1 1 0 0 1 1 1v5a1 1 0 0 1-1 1H8a1 1 0 0 1-1-1v-5a1 1 0 0 1 1-1zm2-7a1 1 0 0 0 .707-.293l3-3-1.414-1.414L15 16.586l-2.293-2.293-1.414 1.414 3 3A1 1 0 0 0 15 19m0-14.586 2.293 2.293 1.414-1.414-3-3a1 1 0 0 0-1.414 0l-3 3 1.414 1.414zM14 13h2V8h-2zm32 9.074V44a1 1 0 0 1-1 1H8a1 1 0 0 1-1-.999v-2h2v1h35V22.073c0-.564-.458-1.045-1.021-1.073l.1-1.997A3.07 3.07 0 0 1 46 22.074"/></svg>