<svg xmlns="http://www.w3.org/2000/svg" viewBox="0 0 48 48"><title>Icon-Resource/Machine-Learning/Res_Amazon-Rekognition_Video_48</title><path fill="#01a88d" fill-rule="evenodd" d="m27.269 22.274-3.117-1.78v3.561zm3.016 0c0 .358-.193.69-.504.868l-6.133 3.505a1 1 0 0 1-.998-.003 1 1 0 0 1-.498-.865V18.77a1 1 0 0 1 1.496-.868l6.133 3.504a1 1 0 0 1 .504.868m-10.514 6.01h12.018V16.264H19.77zm-2 1V15.264a1 1 0 0 1 1-1h14.018a1 1 0 0 1 1 1v14.018a1 1 0 0 1-1 1H18.77a1 1 0 0 1-1-1m-.673 5.216a15.1 15.1 0 0 1-3.543-3.546l-8.822 8.823A2.49 2.49 0 0 0 4 41.548c0 .671.26 1.3.733 1.773.945.945 2.599.945 3.545 0zM12.77 22.274c0 7.18 5.84 13.02 13.018 13.02 7.177 0 13.017-5.84 13.017-13.02 0-7.178-5.84-13.018-13.017-13.018-7.178 0-13.018 5.84-13.018 13.018m6.076 13.305-9.155 9.156a4.47 4.47 0 0 1-3.187 1.318 4.47 4.47 0 0 1-3.186-1.318 4.48 4.48 0 0 1-1.32-3.187c0-1.205.47-2.336 1.32-3.185l9.159-9.16a14.9 14.9 0 0 1-1.707-6.929c0-8.28 6.737-15.018 15.018-15.018 8.28 0 15.017 6.738 15.017 15.018s-6.737 15.02-15.017 15.02c-2.505 0-4.864-.626-6.942-1.715m-9.425-5.178c-1.266-2.514-1.908-5.248-1.908-8.127 0-3.135.807-6.225 2.333-8.937l-1.742-.98a20.25 20.25 0 0 0-2.591 9.917c0 3.15.734 6.271 2.12 9.027zm36.64-8.127c0 11.18-9.094 20.274-20.273 20.274-3.177 0-6.218-.712-9.041-2.119l.892-1.79a18.1 18.1 0 0 0 8.149 1.91c10.076 0 18.274-8.199 18.274-18.275S35.865 4 25.789 4c-2.532 0-4.98.508-7.275 1.51l-.801-1.832A20.05 20.05 0 0 1 25.789 2c11.179 0 20.274 9.094 20.274 20.274"/></svg>