<svg xmlns="http://www.w3.org/2000/svg" viewBox="0 0 48 48"><title>Icon-Resource/Containers/Res_Amazon-Elastic-Container-Service_ECS-Service-Connect_48</title><path fill="#ed7100" fill-rule="evenodd" d="M44 37.5c0 .827-.673 1.5-1.5 1.5s-1.5-.673-1.5-1.5.673-1.5 1.5-1.5 1.5.673 1.5 1.5m-1.5-21.499c.827 0 1.5.673 1.5 1.5s-.673 1.5-1.5 1.5-1.5-.673-1.5-1.5.673-1.5 1.5-1.5M10 42h22V12H10zM8 11v25H4V6h22v4H9a1 1 0 0 0-1 1m34.5 15.001c.827 0 1.5.673 1.5 1.5s-.673 1.5-1.5 1.5-1.5-.673-1.5-1.5.673-1.5 1.5-1.5m0 5c1.93 0 3.5-1.57 3.5-3.5s-1.57-3.5-3.5-3.5a3.5 3.5 0 0 0-3.149 2h-3.147l4.719-5.393a3.45 3.45 0 0 0 1.577.393c1.93 0 3.5-1.57 3.5-3.5s-1.57-3.5-3.5-3.5-3.5 1.57-3.5 3.5c0 .63.181 1.214.474 1.725L34 25.482V11a1 1 0 0 0-1-1h-5V5a1 1 0 0 0-1-1H3a1 1 0 0 0-1 1v32a1 1 0 0 0 1 1h5v5a1 1 0 0 0 1 1h24a1 1 0 0 0 1-1V28.628l5.508 7.083A3.47 3.47 0 0 0 39 37.5c0 1.93 1.57 3.5 3.5 3.5s3.5-1.57 3.5-3.5-1.57-3.5-3.5-3.5c-.543 0-1.052.135-1.511.357l-4.944-6.356h3.006c.245 1.692 1.691 3 3.449 3M20 37h10v-2H20zm0-9h10v-2H20zm0-9h10v-2H20zm-6 18h2v-2h-2zm-1 2h4a1 1 0 0 0 1-1v-4a1 1 0 0 0-1-1h-4a1 1 0 0 0-1 1v4a1 1 0 0 0 1 1m1-11h2v-2h-2zm-1 2h4a1 1 0 0 0 1-1v-4a1 1 0 0 0-1-1h-4a1 1 0 0 0-1 1v4a1 1 0 0 0 1 1m1-11h2v-2h-2zm-1 2h4a1 1 0 0 0 1-1v-4a1 1 0 0 0-1-1h-4a1 1 0 0 0-1 1v4a1 1 0 0 0 1 1"/></svg>