<svg xmlns="http://www.w3.org/2000/svg" viewBox="0 0 48 48"><title>Icon-Resource/Application-Integration/Res_Amazon-EventBridge_Saas-Partner-Event_48</title><path fill="#e7157b" fill-rule="evenodd" d="m31.084 20.877-6.061 3.456-.039 6.977 6.062-3.455zm-14.226 6.944 6.125 3.581.04-7.161-6.125-3.581zm.997-8.919 6.248 3.653 6.164-3.515-6.246-3.652zm6.615 15.003a1 1 0 0 1-.495.131 1 1 0 0 1-.395-.091l-8.229-4.688a1 1 0 0 1-.496-.869l.053-9.471a1 1 0 0 1 .43-.806l8.194-4.747c.31-.175.691-.174 1 .006l8.086 4.932a1 1 0 0 1 .476.854l-.051 9.287a1 1 0 0 1-.505.864zm8.984-29.879-1.84-.785-2.803 6.575 1.839.786zm8.678 7.294-1.201-1.599-5.752 4.318 1.201 1.6zm-3.34 11.517 7.158-.906-.252-1.985-7.158.907zm-1.559 7.435 6.647 2.75.764-1.848-6.647-2.75zm-5.116 5.676 4.354 5.669 1.586-1.219-4.354-5.668zm-7.299 2.39.895 7.069 1.984-.252-.894-7.069zM14.495 43.38l1.84.785 2.805-6.574-1.84-.785zm-8.678-7.293 1.202 1.6 5.752-4.32-1.202-1.599zM9.158 24.57 2 25.477l.252 1.984 7.158-.906zm1.558-7.435-6.647-2.75-.763 1.847 6.646 2.75zm.763-11.346L9.893 7.008l4.353 5.67 1.586-1.219zm9.667 3.531-.894-7.068L22.236 2l.895 7.068z"/></svg>