<svg xmlns="http://www.w3.org/2000/svg" viewBox="0 0 48 48"><title>Icon-Resource/Management-Governance/Res_Amazon-CloudWatch_Cross-account-Observability_48</title><path fill="#e7157b" fill-rule="evenodd" d="M26.014 43.982c-1.103 0-2-.897-2-2s.897-2 2-2 2 .897 2 2-.897 2-2 2m-12-11c-1.103 0-2-.897-2-2s.897-2 2-2 2 .897 2 2-.897 2-2 2m23-8c1.103 0 2 .897 2 2s-.897 2-2 2-2-.897-2-2 .897-2 2-2m-1.163 5.807c.371.114.756.193 1.163.193 2.206 0 4-1.794 4-4s-1.794-4-4-4-4 1.794-4 4a3.98 3.98 0 0 0 1.115 2.757l-6.791 8.486a3.9 3.9 0 0 0-1.324-.243 4 4 0 0 0-1.575.325l-6.671-5.992c.15-.419.246-.863.246-1.333 0-2.206-1.794-4-4-4s-4 1.794-4 4c0 .4.077.779.187 1.143L2.4 38.192l1.228 1.58 7.611-5.92a3.98 3.98 0 0 0 2.775 1.13 3.96 3.96 0 0 0 2.617-1l6.217 5.584a3.96 3.96 0 0 0-.834 2.416c0 2.206 1.794 4 4 4s4-1.794 4-4c0-1.012-.39-1.928-1.012-2.633zm10.161-3.635a8.94 8.94 0 0 1-2.76 6.31 8.94 8.94 0 0 1-6.234 2.518l-.177-.001a10 10 0 0 1-.945-.068l.246-1.985q.363.045.737.053c1.863.048 3.637-.66 4.987-1.958a6.95 6.95 0 0 0 2.146-4.907 6.95 6.95 0 0 0-1.957-4.986 6.96 6.96 0 0 0-4.907-2.147 7.06 7.06 0 0 0-4.986 1.958 6.95 6.95 0 0 0-2.146 4.907 6.97 6.97 0 0 0 .872 3.516l-1.75.97a9 9 0 0 1-1.122-4.525 8.94 8.94 0 0 1 2.76-6.309 8.94 8.94 0 0 1 6.411-2.517 8.94 8.94 0 0 1 6.308 2.761 8.94 8.94 0 0 1 2.517 6.41M25.386 4c1.894 0 3.435 1.511 3.435 3.37 0 1.858-1.541 3.37-3.435 3.37s-3.435-1.512-3.435-3.37S23.492 4 25.386 4m-.013 9.036a6.4 6.4 0 0 1 3.391.97 6.85 6.85 0 0 1 2.357 2.483l1.747-.975a8.86 8.86 0 0 0-3.049-3.207 8.5 8.5 0 0 0-1.22-.615c1.344-.979 2.222-2.549 2.222-4.322 0-2.961-2.438-5.37-5.435-5.37s-5.435 2.409-5.435 5.37c0 1.769.874 3.336 2.214 4.315a8.77 8.77 0 0 0-4.273 3.806l1.744.98c1.19-2.119 3.389-3.435 5.737-3.435m-14 4a6.4 6.4 0 0 1 3.391.97c1.731 1.075 2.898 2.925 3.187 4.976H4.793c.466-3.358 3.24-5.946 6.58-5.946M11.386 8c1.894 0 3.435 1.511 3.435 3.37 0 1.858-1.541 3.37-3.435 3.37s-3.435-1.512-3.435-3.37S9.492 8 11.386 8M3.725 24.982h15.297a1 1 0 0 0 1-1c0-3.125-1.611-6.066-4.203-7.675a8.5 8.5 0 0 0-1.22-.615c1.344-.979 2.222-2.549 2.222-4.322 0-2.961-2.438-5.37-5.435-5.37s-5.435 2.409-5.435 5.37c0 1.767.872 3.333 2.21 4.313-3.181 1.322-5.436 4.541-5.436 8.299a1 1 0 0 0 1 1"/></svg>