<svg xmlns="http://www.w3.org/2000/svg" viewBox="0 0 48 48"><title>Icon-Resource/Database/Res_Amazon-Aurora-PostgreSQL-Instance-Alternate_48</title><path fill="#c925d1" fill-rule="evenodd" d="M43.908 39.814a4.1 4.1 0 0 1-4.094 4.095H8.094A4.1 4.1 0 0 1 4 39.814V8.094A4.1 4.1 0 0 1 8.094 4h31.72a4.1 4.1 0 0 1 4.094 4.094zM39.814 2H8.094A6.1 6.1 0 0 0 2 8.094v31.72a6.1 6.1 0 0 0 6.094 6.095h31.72a6.1 6.1 0 0 0 6.094-6.095V8.094A6.1 6.1 0 0 0 39.814 2m1.139 12.516h2.2v.707h-3.048V9.172h.848zm-4.305.122q-.707 0-1.064-.616-.359-.615-.359-1.82t.359-1.816q.357-.61 1.064-.611.708 0 1.066.611.357.611.357 1.816t-.357 1.82-1.066.616m1.868-.406q.42-.79.42-2.03 0-1.492-.602-2.319-.603-.824-1.686-.824t-1.685.824q-.602.826-.602 2.319 0 .951.248 1.65.249.699.738 1.083.49.384 1.179.419.497.54 1.091.864t1.258.41v-.742a3.2 3.2 0 0 1-.829-.2 2.9 2.9 0 0 1-.726-.428q.778-.236 1.196-1.026m-5.251-1.585q.266.394.266.943 0 .794-.497 1.28-.498.483-1.327.484a3.2 3.2 0 0 1-.773-.092 2 2 0 0 1-.641-.265v-.673a3.5 3.5 0 0 0 1.387.305q.464 0 .729-.261.267-.262.267-.725 0-.63-.699-.987l-.62-.314q-.584-.297-.846-.681t-.262-.944q0-.741.463-1.2.461-.458 1.214-.458.584 0 1.309.315v.68a3 3 0 0 0-1.249-.27q-.41 0-.65.24t-.241.65q0 .323.167.55.165.227.549.428l.62.314q.568.289.834.681m-4.558-.131a2 2 0 0 0-.004.113h-1.571q.026-.654.249-.99a.71.71 0 0 1 .624-.337q.358 0 .532.267t.175.825q0 .062-.005.122m-.667-1.842q-.813 0-1.249.603-.437.601-.437 1.728 0 1.179.437 1.755.436.577 1.327.576.708 0 1.24-.332v-.601q-.603.27-1.1.27-.585 0-.851-.349-.268-.35-.275-1.135h2.235q.069-.332.069-.726 0-.88-.353-1.335-.354-.453-1.043-.454m-2.35.087q.14 0 .281.027v.759a3 3 0 0 0-.394-.035q-.497.001-.908.323v3.388h-.821v-4.427h.682l.078.533q.235-.297.493-.432.259-.136.589-.136m-3.823 3.37q-.402.332-.76.332a.69.69 0 0 1-.645-.379q-.21-.38-.21-1.166 0-.804.196-1.183a.65.65 0 0 1 .616-.38q.393 0 .803.314zm.07-2.977q-.507-.471-1.056-.471-.664 0-1.057.611-.393.612-.393 1.65 0 .656.17 1.148.17.493.494.769.322.274.768.274.524 0 1.004-.444v.322q0 .769-.227 1.101-.228.331-.768.331-.498 0-1.152-.271v.629q.558.324 1.221.324 1.737 0 1.738-2.158v-4.173h-.681zm-3.633 3.449q.271 0 .534-.087v.602a2 2 0 0 1-.795.158q-.542 0-.799-.297-.258-.297-.258-.917V11.46h-.619v-.542l.654-.104.122-1.258h.664v1.24h1.013v.664h-1.013v2.541q0 .331.11.466.108.136.387.136m-2.422-1.292q.188.28.187.69 0 .602-.375.968-.375.367-1.004.367-.672 0-1.222-.323v-.594q.681.272 1.178.272.324 0 .502-.171.18-.17.18-.484 0-.375-.481-.612l-.567-.279q-.786-.384-.786-1.205 0-.559.367-.907.367-.35.951-.35.55 0 1.057.279v.594a2.3 2.3 0 0 0-.986-.227q-.298 0-.472.158a.55.55 0 0 0-.175.427q0 .219.118.367t.398.288l.532.262q.41.2.598.48m-4.117.956a.71.71 0 0 1-.671.406.72.72 0 0 1-.673-.406q-.219-.405-.218-1.262 0-.855.218-1.256a.72.72 0 0 1 .673-.403q.453 0 .671.403.218.4.218 1.256 0 .857-.218 1.262m-.671-3.584q-.83 0-1.271.603-.441.601-.441 1.719 0 1.127.441 1.729.44.602 1.271.602.828 0 1.269-.602t.441-1.729q0-1.117-.441-1.719-.441-.604-1.269-.603m-3.462 1.205a.76.76 0 0 1-.642.314h-.865V9.844h.865q.41 0 .642.311.231.31.231.868 0 .55-.231.865m.305-2.48a1.6 1.6 0 0 0-.86-.236H5.304v6.051h.821v-2.348h.952q.725 0 1.174-.507.45-.506.45-1.345 0-.54-.196-.96a1.53 1.53 0 0 0-.568-.655"/></svg>