<svg xmlns="http://www.w3.org/2000/svg" fill="none" viewBox="0 0 48 48"><path fill="#7aa116" d="M45 32H27a.99.99 0 0 0-1 .984v12c0 .552.448 1.016 1 1.016h18c.552 0 1-.464 1-1.016v-12A.986.986 0 0 0 45 32M32 44h-4v-2h4zm0-4h-4v-2h4zm0-4h-4v-2h4zm6 8h-4v-2h4zm0-4h-4v-2h4zm0-4h-4v-2h4zm6 8h-4v-2h4zm0-4h-4v-2h4zm0-4h-4v-2h4zm.004-9.364c-.227-1.213-1.667-2.493-4.658-4.144L41 8.5C41 4.91 32.27 2 21.5 2S2 4.91 2 8.5l4.037 33.055C6.167 45.05 15.781 46 21.5 46c.772 0 1.618-.035 2.5-.073v-1.999c-.798.034-1.626.072-2.5.072-8.285 0-13.16-1.664-13.464-2.516q0-.06-.007-.12l-3.647-29.75C7.692 13.63 14.115 15 21.5 15c7.392 0 13.822-1.371 17.129-3.392l-1.7 14.232c-4.472-1.448-10.238-4.054-12.899-5.295 0-.02-.03-.024-.03-.045a2.49 2.49 0 0 0-2.5-2.5 2.49 2.49 0 0 0-2.5 2.5 2.49 2.49 0 0 0 2.5 2.5c.64 0 1.256-.232 1.699-.636 2.775 1.294 8.859 4.041 13.485 5.5L36.427 30h2.01l.19-1.584c1.181.297 2.147.455 2.907.455.99 0 1.657-.253 2.082-.76.35-.416.487-.94.388-1.475M21.5 21a.5.5 0 1 1 .002-1.002A.5.5 0 0 1 21.5 21m0-8C11.835 13 4 10.985 4 8.5S11.835 4 21.5 4 39 6.015 39 8.5 31.165 13 21.5 13m17.37 13.414.215-1.769c2.042 1.195 2.681 1.899 2.871 2.194-.314.059-1.152.082-3.086-.425"/></svg>