<svg xmlns="http://www.w3.org/2000/svg" viewBox="0 0 48 48"><title>Icon-Resource/Database/Res_Amazon-Aurora_Amazon-Aurora-Instance-alternate_48</title><path fill="#c925d1" fill-rule="evenodd" d="M34.251 25.974q-.36.349-.72.35a.43.43 0 0 1-.366-.192q-.138-.19-.137-.518 0-.383.17-.584.168-.202.486-.202.326 0 .567.077zm-.426-4.464q-.535 0-1.047.12-.513.12-.83.327v.995q.949-.35 1.604-.35.405 0 .551.202.149.202.148.769v.502a3.5 3.5 0 0 0-.84-.131q-.819 0-1.3.474-.48.475-.479 1.294 0 .775.392 1.217.395.442 1.07.442.36 0 .71-.18.348-.18.534-.464l.132.502h1.156v-3.907q0-.95-.426-1.38-.426-.431-1.375-.432m-3.012.087q.174 0 .35.033v1.322a3 3 0 0 0-.58-.055q-.524 0-.992.262v4.07h-1.496v-5.577h1.222l.164.72q.329-.402.65-.59.322-.184.682-.185m-5.44 4.208q-.18.43-.584.43t-.584-.43q-.18-.43-.18-1.36 0-.926.18-1.364.18-.436.584-.436t.584.436q.18.438.18 1.365 0 .928-.18 1.359m-.584-4.295q-1.08 0-1.67.764t-.59 2.172q.001 1.395.59 2.16.59.765 1.67.765t1.67-.764q.59-.765.59-2.161 0-1.408-.59-2.172t-1.67-.764m-3.045.087q.174 0 .35.033v1.322a3 3 0 0 0-.579-.055q-.524 0-.993.262v4.07h-1.496v-5.577h1.223l.164.72q.327-.402.65-.59.32-.184.681-.185m-5.5.055h1.495v5.577h-1.222l-.12-.502q-.841.645-1.616.644-.611 0-.927-.426-.316-.425-.317-1.233v-4.06h1.495v3.592q0 .533.12.763t.405.229q.326 0 .686-.251zm-7.05 2.684.665-3.132.687 3.132zm-.12-4.67-2.096 7.563h1.604l.382-1.801h1.811l.394 1.8h1.681l-2.085-7.562zm31.524-9.091q.332.414.332 1.21v4.093h-1.494V12.21q0-.48-.132-.698-.132-.219-.448-.22-.339.001-.742.263v4.322H36.62V10.3h1.223l.12.503q.873-.645 1.67-.644.632 0 .966.415m-7.869 1.157q.18-.437.583-.438.404 0 .585.438.179.436.178 1.363 0 .928-.178 1.359-.182.431-.585.43-.404.001-.583-.43-.18-.43-.18-1.36 0-.925.18-1.362m.583 4.289q1.081 0 1.67-.764.59-.764.59-2.162 0-1.407-.59-2.171-.589-.764-1.67-.764t-1.669.764q-.59.764-.59 2.17 0 1.4.59 2.163.589.764 1.67.764m-2.935-.143h-3.874V14.82l2.258-3.373h-2.17V10.3h3.741v1.06l-2.259 3.372h2.304zm-6.145-1.255q-.36.35-.72.35a.42.42 0 0 1-.365-.191q-.136-.19-.137-.518 0-.383.17-.584.167-.202.485-.202.327 0 .567.076zm-.84-2.03q-.818 0-1.299.475-.48.474-.48 1.294 0 .775.393 1.216.395.443 1.07.443.36 0 .708-.181.35-.18.535-.464l.132.502h1.156V11.97q.001-.95-.425-1.38-.427-.43-1.375-.431-.535 0-1.047.12-.514.12-.83.327v.994q.95-.35 1.603-.35.405 0 .551.202.149.2.148.769v.503a3.5 3.5 0 0 0-.84-.132M19.06 12.2q.001-.47-.125-.688-.126-.219-.42-.22-.315.001-.72.263.01.056.01.12v4.202H16.31V12.2q0-.47-.126-.688-.125-.219-.42-.22-.307.001-.71.263v4.322H13.56V10.3h1.222l.12.503q.873-.645 1.637-.644.776-.002 1.092.666.895-.667 1.658-.666.612 0 .94.419.326.42.327 1.207v4.092H19.06zm-9.866.786.666-3.133.687 3.133zm-.12-4.672-2.095 7.563h1.604l.382-1.8h1.811l.394 1.8h1.681l-2.085-7.563zM43.908 39.46a4.453 4.453 0 0 1-4.447 4.449H8.447A4.453 4.453 0 0 1 4 39.46V8.45a4.453 4.453 0 0 1 4.447-4.45h31.014a4.453 4.453 0 0 1 4.447 4.45zM39.461 2H8.447A6.456 6.456 0 0 0 2 8.449V39.46a6.456 6.456 0 0 0 6.447 6.449h31.014a6.455 6.455 0 0 0 6.447-6.45V8.45a6.455 6.455 0 0 0-6.447-6.45"/></svg>