<svg xmlns="http://www.w3.org/2000/svg" viewBox="0 0 48 48"><title>Icon-Resource/Networking-and-Content-Delivery/Res_Amazon-VPC_Reachability-Analyzer_48</title><path fill="#8c4fff" fill-rule="evenodd" d="M42 40c0 1.103-.897 2-2 2s-2-.897-2-2 .897-2 2-2 2 .897 2 2M10 8c0 1.103-.897 2-2 2s-2-.897-2-2 .897-2 2-2 2 .897 2 2m30 36c-2.206 0-4-1.794-4-4s1.794-4 4-4 4 1.794 4 4-1.794 4-4 4M24 20c2.206 0 4 1.794 4 4s-1.794 4-4 4-4-1.794-4-4 1.794-4 4-4M8 12c-2.206 0-4-1.794-4-4s1.794-4 4-4 4 1.794 4 4-1.794 4-4 4m32 22c-2.967 0-5.432 2.167-5.91 5H14c-3.859 0-7-3.14-7-7s3.141-7 7-7h4.09c.478 2.833 2.943 5 5.91 5s5.432-2.167 5.91-5H34c4.963 0 9-4.038 9-9s-4.037-9-9-9H13.91C13.432 4.167 10.967 2 8 2 4.691 2 2 4.691 2 8s2.691 6 6 6c2.967 0 5.432-2.167 5.91-5H34c3.859 0 7 3.14 7 7s-3.141 7-7 7h-4.09c-.478-2.833-2.943-5-5.91-5s-5.432 2.167-5.91 5H14c-4.963 0-9 4.038-9 9s4.037 9 9 9h20.09c.478 2.833 2.943 5 5.91 5 3.309 0 6-2.691 6-6s-2.691-6-6-6"/></svg>