<svg xmlns="http://www.w3.org/2000/svg" viewBox="0 0 48 48"><title>Icon-Resource/Application-Integration/Res_Amazon-Simple-Notification-Service_HTTP-Notification_48</title><path fill="#e7157b" fill-rule="evenodd" d="M17.715 11.11v5.891h.867V14.34h2.942v2.661h.866V11.11h-.866v2.533h-2.942V11.11zm13.396 5.891v-5.178h1.878v-.713h-4.624v.713h1.878v5.178zm3.561-2.967h1.216q.535 0 .806-.285.273-.286.273-.828 0-1.124-1.079-1.124h-1.216zm0 .687v2.28h-.842V11.11h2.134q.858 0 1.368.488t.51 1.323q0 .823-.51 1.312t-1.368.488zm-8.695 2.28v-5.178h1.879v-.713h-4.624v.713h1.878v5.178zM4 8c0 2.206 1.794 4 4 4s4-1.794 4-4-1.794-4-4-4-4 1.794-4 4M2 8c0-3.309 2.692-6 6-6 3.309 0 6 2.691 6 6 0 3.308-2.691 6-6 6-3.308 0-6-2.692-6-6m42 33.5h2v-2h-2zm1-6.5h-1.5v2h.5v.5h2V36a1 1 0 0 0-1-1m-25.5 2h3v-2h-3zm6 0h3v-2h-3zm-12 0h3v-2h-3zm18 0h3v-2h-3zm6 0h3v-2h-3zm-30 0h3v-2h-3zM2 36v1.5h2V37h.5v-2H3a1 1 0 0 0-1 1m0 5.5h2v-2H2zm2 2H2V45a1 1 0 0 0 1 1h1.5v-2H4zM25.5 46h3v-2h-3zm-18 0h3v-2h-3zm24 0h3v-2h-3zm6 0h3v-2h-3zm-24 0h3v-2h-3zm6 0h3v-2h-3zM44 44h-.5v2H45a1 1 0 0 0 1-1v-1.5h-2zm0-15.5h2v-2h-2zm1-6.5h-1.5v2h.5v.5h2V23a1 1 0 0 0-1-1m-7.5 2h3v-2h-3zm-6 0h3v-2h-3zm-6 0h3v-2h-3zm-6 0h3v-2h-3zm-6 0h3v-2h-3zm-6 0h3v-2h-3zM2 23v1.5h2V24h.5v-2H3a1 1 0 0 0-1 1m0 5.5h2v-2H2zm2 2H2V32a1 1 0 0 0 1 1h1.5v-2H4zM7.5 33h3v-2h-3zm24 0h3v-2h-3zm6 0h3v-2h-3zm-12 0h3v-2h-3zm-12 0h3v-2h-3zm6 0h3v-2h-3zM44 31h-.5v2H45a1 1 0 0 0 1-1v-1.5h-2zm2-22v10a1 1 0 0 1-1 1H3a1 1 0 0 1-1-1v-4h2v3h40v-8H16V8h29a1 1 0 0 1 1 1"/></svg>