<svg xmlns="http://www.w3.org/2000/svg" viewBox="0 0 48 48"><title>Icon-Resource/Machine-Learning/Res_Amazon-SageMaker_Geospatial-ML_48</title><path fill="#01a88d" fill-rule="evenodd" d="M31 35.5c0-2.481 2.019-4.5 4.5-4.5s4.5 2.019 4.5 4.5-2.019 4.5-4.5 4.5a4.505 4.505 0 0 1-4.5-4.5m11 0c0-3.584-2.916-6.5-6.5-6.5a6.51 6.51 0 0 0-6.5 6.5c0 3.584 2.916 6.5 6.5 6.5a6.46 6.46 0 0 0 3.828-1.258l4.965 4.965 1.414-1.414-4.965-4.965A6.46 6.46 0 0 0 42 35.5M8.646 36.795c1.699-.497 3.722-.907 5.97-1.206.974 3.194 2.338 5.831 3.979 7.649a20.03 20.03 0 0 1-9.949-6.443m9.949-32.033c-1.641 1.818-3.006 4.455-3.979 7.649-2.248-.299-4.271-.708-5.971-1.205a20.04 20.04 0 0 1 9.95-6.444m20.759 6.443c-1.699.497-3.722.907-5.97 1.206-.974-3.194-2.338-5.831-3.979-7.649a20.03 20.03 0 0 1 9.949 6.443m-5.442 3.157c2.557-.353 4.825-.85 6.712-1.463A19.86 19.86 0 0 1 43.949 23h-8.973c-.067-3.106-.44-6.021-1.064-8.638M25 14.985a76 76 0 0 0 6.905-.385c.626 2.539 1.001 5.397 1.071 8.4H25zM13.024 25c.067 3.106.44 6.021 1.064 8.638-2.557.353-4.825.85-6.712 1.463A19.87 19.87 0 0 1 4.051 25zm0-2H4.051a19.86 19.86 0 0 1 3.325-10.101c1.887.613 4.156 1.11 6.712 1.463-.624 2.618-.997 5.532-1.064 8.638M23 14.985V23h-7.976c.07-3.003.445-5.861 1.071-8.4 2.172.227 4.496.356 6.905.385m0-10.846v8.845a74 74 0 0 1-6.349-.34C18.111 8.048 20.406 4.81 23 4.139m2 0c2.594.671 4.889 3.909 6.349 8.505-2.012.2-4.155.312-6.349.34zm-2 28.876a76 76 0 0 0-6.905.385c-.626-2.539-1.001-5.397-1.071-8.4H23zm-6.349 2.341c2.012-.2 4.155-.312 6.349-.34v8.845c-2.594-.671-4.889-3.909-6.349-8.505M25 43.955V25h18.954c-.107 2.173-.539 4.293-1.332 6.311l1.861.731A21.9 21.9 0 0 0 46 24c0-12.131-9.869-22-22-22S2 11.869 2 24s9.869 22 22 22c2.676 0 5.29-.475 7.771-1.412l-.707-1.871A19.8 19.8 0 0 1 25 43.955"/></svg>