<svg xmlns="http://www.w3.org/2000/svg" viewBox="0 0 48 48"><title>Icon-Resource/Analytics/Res_Amazon-OpenSearch-Service_OpenSearch-Dashboards_48</title><path fill="#8c4fff" fill-rule="evenodd" d="M27.54 28h1.646l1.799 2.436a.998.998 0 0 0 1.769-.33l1.489-5.419L36.837 34H24.961zm7.659-7.333a1 1 0 0 0-.963-.732h-.002a1 1 0 0 0-.962.735l-1.901 6.921-.875-1.185a1 1 0 0 0-.805-.406h-2.809a1 1 0 0 0-.919.605L22.784 34h-1.761v2h20v-2h-2.111zM11.023 36h2V23h-2zm4 0h2V21h-2zm-8 0h2v-8h-2zm7-22h2v-2h-2zm-4 0h2v-2h-2zm-4 0h2v-2h-2zM4 39l.018-22h40.005v21.994zm40.023-29v5H4.019l.004-5zm.123-2H3.9a1.88 1.88 0 0 0-1.877 1.875L2 39.128A1.877 1.877 0 0 0 3.87 41l40.276-.006a1.88 1.88 0 0 0 1.877-1.877V9.877A1.88 1.88 0 0 0 44.146 8"/></svg>