<svg xmlns="http://www.w3.org/2000/svg" viewBox="0 0 48 48"><title>Icon-Resource/Storage/Res_Amazon-Simple-Storage-Service_S3-One-Zone-IA_48</title><path fill="#7aa116" fill-rule="evenodd" d="M39.625 36a.5.5 0 0 1-.5-.5c0-.275.225-.5.5-.5s.5.225.5.5-.225.5-.5.5m0-3a2.5 2.5 0 0 0-2.5 2.5c0 1.379 1.121 2.5 2.5 2.5s2.5-1.121 2.5-2.5-1.121-2.5-2.5-2.5m-.17 10.192c-1.718-2.672-3.795-6.413-3.795-7.972 0-2.258 1.702-4.095 3.795-4.095s3.795 1.837 3.795 4.095c0 1.559-2.077 5.3-3.795 7.972m0-14.067c-3.195 0-5.795 2.734-5.795 6.095 0 3.037 4.462 9.608 4.971 10.347a1 1 0 0 0 1.648 0c.509-.739 4.971-7.31 4.971-10.347 0-3.361-2.6-6.095-5.795-6.095M22.869 4c10.404 0 17.735 3.223 17.87 5.012l-.025.196a1.1 1.1 0 0 1-.122.258c-.018.029-.027.057-.047.087-.06.085-.143.171-.229.259-.031.031-.052.062-.087.093a4 4 0 0 1-.333.264c-.043.031-.08.063-.126.096a7 7 0 0 1-.442.269c-.053.031-.099.062-.154.092-.174.094-.368.187-.569.28-.054.027-.102.052-.16.077-.224.102-.472.202-.728.301-.043.016-.08.033-.125.05q-.443.167-.942.327l-.033.012c-3.14 1.004-7.91 1.789-13.743 1.789-8.427 0-14.639-1.641-16.922-3.211a4 4 0 0 1-.448-.355c-.017-.015-.027-.03-.043-.045a2.2 2.2 0 0 1-.267-.302c-.018-.028-.027-.055-.044-.082a1.1 1.1 0 0 1-.123-.257l-.025-.197C5.138 7.224 12.467 4 22.869 4m20.289 22.423c-.29.056-1.031.085-2.7-.322l.22-1.635c1.741 1.056 2.307 1.681 2.48 1.957m-8.765 15.863c-.705.282-1.589.55-2.624.794-2.597.593-5.755.92-8.895.92-8.459 0-13.596-2.168-13.596-3.121q0-.067-.008-.133L5.441 12.271q.346.2.731.388c.159.077.33.151.498.225a15.799 15.799 0 0 0 1.435.558 27 27 0 0 0 2.799.791q.439.102.893.196l.232.046c1.026.204 2.101.376 3.212.516l.195.026c1.566.193 3.189.323 4.826.39l.146.006c.821.032 1.644.054 2.461.054a66 66 0 0 0 6.35-.326q.506-.054 1.004-.115.197-.024.394-.049.487-.061.963-.132l.127-.02a48 48 0 0 0 1.813-.312q.25-.05.496-.098.376-.079.74-.162.28-.065.551-.131c.224-.056.45-.109.668-.168q.528-.142 1.026-.297c.176-.054.341-.113.51-.17a21 21 0 0 0 1.073-.394q.296-.12.574-.246c.129-.059.262-.115.385-.174q.4-.193.755-.4l-1.784 13.278c-4.559-1.433-10.634-4.198-13.395-5.497.001-.018.006-.035.006-.054 0-1.103-.897-2-2-2s-2 .897-2 2 .897 2 2 2c.336 0 .647-.091.926-.238 3.133 1.48 9.452 4.353 14.193 5.799l-.034.251 1.856.251c1.074.258 1.955.392 2.665.392.991 0 1.658-.252 2.083-.758.35-.417.488-.94.388-1.476-.216-1.152-1.54-2.367-4.235-3.903L42.668 9.65q.009-.034.014-.069l.05-.389a1 1 0 0 0 .009-.129C42.741 4.9 32.269 2 22.869 2 13.472 2 3 4.9 3 9.063q0 .064.009.129l.051.389q.002.018.006.035l4.213 31.34C7.41 44.629 16.886 46 22.874 46c3.285 0 6.603-.345 9.347-.972 1.138-.268 2.12-.566 2.906-.881.292-.114.566-.236.811-.349l-.841-1.815c-.21.098-.444.203-.704.303"/></svg>