<svg xmlns="http://www.w3.org/2000/svg" viewBox="0 0 48 48"><title>Icon-Resource/Containers/Res_Amazon-Elastic-Kubernetes-Service_EKS-on-Outposts_48</title><path fill="#ed7100" fill-rule="evenodd" d="m4 33.439 17.017 10.399L27 40.42V37c-1.227 0-2.577-.257-3.566-1.132l.013.027-2 1a1 1 0 0 1-.962-.038l-10-6A1 1 0 0 1 10 30V17a1 1 0 0 1 .47-.848L18 11.446V4.804l-14 8.75zm20-1.44c0 1.559.363 3 3 3v-3a1 1 0 0 1 1-1h12a1 1 0 0 1 1 1v3c2.131 0 3-.58 3-2 0-2.822-2.504-2.993-3.006-3A1.004 1.004 0 0 1 40 29a2.56 2.56 0 0 0-1.447-2.104c-1.318-.661-2.833.8-2.849.815a1 1 0 0 1-1.089.21A1 1 0 0 1 34 27c0-1.654-1.346-3-3-3s-3 1.346-3 3v1a1 1 0 0 1-.758.97C27.213 28.978 24 29.824 24 32m9-15v5.433a5.02 5.02 0 0 1 2.697 2.854c.867-.457 2.05-.802 3.303-.364v-11.35L24 4.749v6.663l8.485 4.714A1 1 0 0 1 33 17m6 16H29v11h4v-2h2v2h4zM2 34V13a1 1 0 0 1 .47-.847l16-10a1 1 0 0 1 1.014-.026c.319.176.516.51.516.874v9a1 1 0 0 1-.47.848L12 17.554v11.88l9.044 5.426 1.301-.65C22.129 33.603 22 32.879 22 32c0-1.181.459-2.104 1.088-2.82L19 24v6h-2V17h2v5.24L23.463 17h2.245l-5.058 6.34 3.877 4.652A9 9 0 0 1 26 27.275V27c0-2.757 2.243-5 5-5v-4.412l-8.485-4.714A1 1 0 0 1 22 12V3a.999.999 0 0 1 1.507-.862l17 10c.305.18.493.508.493.862v13.35c.479.6.736 1.23.863 1.727C43.635 28.377 46 29.637 46 33c0 1.494-.649 4-5 4v8a1 1 0 0 1-1 1H28a1 1 0 0 1-1-1v-2.277l-5.504 3.145a1 1 0 0 1-1.017-.014l-18-11A1 1 0 0 1 2 34m33 7h2v-2h-2zm-4 0h2v-2h-2zm0-4h2v-2h-2zm4 0h2v-2h-2z"/></svg>