<svg xmlns="http://www.w3.org/2000/svg" viewBox="0 0 48 48"><title>Icon-Resource/Storage/Res_Amazon-Elastic-File-System_File-System_48</title><path fill="#7aa116" fill-rule="evenodd" d="M37.237 11.621h4.997V6.624h-4.997zm-1.125 1.974v1.65h2v-1.624h.624v1.624h2v-1.624h.624v1.624h2v-1.65a.976.976 0 0 0 .848-.849h1.65v-2h-1.624v-.623h1.624v-2h-1.624v-.624h1.624v-2h-1.65a.98.98 0 0 0-.848-.85V3h-2v1.624h-.624V3h-2v1.624h-.624V3h-2v1.649a.98.98 0 0 0-.85.85h-1.65v2h1.625v.624h-1.624v2h1.624v.623h-1.624v2h1.649a.976.976 0 0 0 .85.849m-13.744-1.974h4.997V6.624h-4.997zm-1.125 1.974v1.65h2v-1.624h.624v1.624h2v-1.624h.624v1.624h2v-1.65a.976.976 0 0 0 .848-.849h1.65v-2h-1.624v-.623h1.624v-2h-1.624v-.624h1.624v-2h-1.65a.98.98 0 0 0-.848-.85V3h-2v1.624h-.624V3h-2v1.624h-.624V3h-2v1.649a.976.976 0 0 0-.85.85h-1.65v2h1.625v.624h-1.625v2h1.625v.623h-1.625v2h1.65a.975.975 0 0 0 .85.849M7.499 11.621h4.997V6.624H7.499zm-1.126 1.974v1.65h2v-1.624h.624v1.624h2v-1.624h.624v1.624h2v-1.65a.976.976 0 0 0 .85-.849h1.649v-2h-1.624v-.623h1.624v-2h-1.624v-.624h1.624v-2h-1.65a.98.98 0 0 0-.85-.85V3h-2v1.624h-.623V3h-2v1.624h-.624V3h-2v1.649a.976.976 0 0 0-.848.85h-1.65v2h1.624v.624H3.875v2h1.624v.623H3.875v2h1.65a.975.975 0 0 0 .848.849m30.962 14.882 6.108 13.753H10.652L4.539 28.477zM6.877 24.979h32.935l1.927 8.484-2.84-6.392a1 1 0 0 0-.913-.594H7.218zm4.12-2.618c0-.533.422-.968.942-.968h19.505a1 1 0 0 0 1-1V18.25c0-.158.11-.277.259-.277h4.243c.15 0 .267.121.267.277v2.143a1 1 0 0 0 1 1h4.828c.52 0 .942.435.942.968v11.95l-2.398-10.554a1 1 0 0 0-.975-.778H10.997zm32.044-2.968h-3.828V18.25a2.275 2.275 0 0 0-2.267-2.277h-4.243a2.27 2.27 0 0 0-2.26 2.277v1.143H11.94c-1.622 0-2.942 1.331-2.942 2.968v.618H5.624a1.002 1.002 0 0 0-.974 1.222l.517 2.276H3a1 1 0 0 0-.914 1.406l6.987 15.721a1 1 0 0 0 .924.626h34.986a1 1 0 0 0 1-1V22.361c0-1.637-1.32-2.968-2.942-2.968"/></svg>