<svg xmlns="http://www.w3.org/2000/svg" viewBox="0 0 48 48"><title>Icon-Resource/Storage/Res_Amazon-Simple-Storage-Service_S3-Glacier-Flexible-Retrieval_48</title><path fill="#7aa116" fill-rule="evenodd" d="m43.165 38.081 1.696 1.697-1.414 1.414L41.256 39h-3.172l1.638 2.841 2.894.813-.541 1.926-2.268-.639-.622 2.318-1.932-.518.766-2.85-1.608-2.789-1.582 2.735.742 2.916-1.937.494-.582-2.285-2.319.621-.517-1.932 2.851-.763L34.738 39h-3.117l-2.257 2.201-1.396-1.432 1.688-1.646-1.697-1.696 1.414-1.414L31.361 37h3.259l-1.525-2.637-2.891-.813.541-1.926 2.27.64.622-2.319 1.931.518-.766 2.858 1.609 2.782 1.58-2.74-.741-2.912 1.937-.494.582 2.285 2.318-.62.517 1.931-2.857.766L38.202 37h3.207l2.047-1.996 1.396 1.431zM22.869 4.001c10.403 0 17.733 3.223 17.87 5.012l-.025.197c-.023.081-.07.166-.119.25-.019.031-.029.062-.051.095-.057.081-.137.163-.217.245-.035.036-.06.072-.101.11-.087.08-.198.16-.305.24-.054.04-.098.08-.156.12-.118.08-.256.16-.395.24-.068.04-.129.08-.203.12-.15.082-.323.163-.494.244-.08.038-.152.076-.237.114-.191.085-.402.17-.615.253-.082.033-.156.067-.242.098-.244.092-.508.181-.777.27l-.201.07q-.474.15-.997.293l-.099.03c-3.107.841-7.449 1.461-12.631 1.461-8.422 0-14.631-1.64-16.918-3.209l-.026-.02a4 4 0 0 1-.423-.335c-.023-.02-.037-.04-.057-.06a2.2 2.2 0 0 1-.255-.288c-.02-.03-.03-.06-.048-.09a1.1 1.1 0 0 1-.12-.25l-.025-.198C5.139 7.224 12.468 4 22.869 4m20.288 22.422c-.292.055-1.031.086-2.699-.322l.219-1.635c1.74 1.056 2.307 1.681 2.48 1.957M23.117 20l1 .001-.999.001zM22.874 44c-8.459 0-13.596-2.168-13.596-3.12a1 1 0 0 0-.009-.134L5.441 12.271q.35.203.74.393c.145.071.302.138.455.206q.239.106.49.21.266.107.544.211.237.086.485.17.627.214 1.309.405c.093.027.181.055.275.08.248.067.505.13.763.192q.219.054.442.106.4.092.815.177.188.038.378.074c.966.19 1.974.352 3.016.485q.175.023.352.045.508.062 1.023.117.106.009.211.02a62 62 0 0 0 4.844.287l.145.002c.38.007.761.016 1.141.016.365 0 .733-.009 1.1-.015q.103-.002.208-.003.514-.011 1.031-.03l.422-.018a83 83 0 0 0 1.01-.05l.257-.018a59 59 0 0 0 1.917-.154l.458-.043q.444-.048.881-.1l.553-.07q.422-.055.836-.114c.205-.03.404-.065.605-.097a44 44 0 0 0 2.57-.492q.33-.076.651-.156c.196-.048.395-.096.586-.147q.548-.146 1.065-.308c.153-.048.296-.099.446-.149a19 19 0 0 0 1.102-.402q.321-.13.621-.267c.117-.053.237-.104.348-.157q.404-.195.762-.403l-1.785 13.277c-4.56-1.433-10.643-4.204-13.401-5.5 0-.018.005-.033.005-.05 0-1.104-.897-2-2-2s-2 .896-2 2c0 1.101.898 2 2 2 .337 0 .651-.093.93-.24 3.133 1.48 9.457 4.355 14.196 5.8l-.086.637 1.983.268.049-.37c1.02.238 1.859.36 2.542.36.991 0 1.658-.253 2.083-.76.35-.416.488-.939.387-1.474-.215-1.15-1.54-2.368-4.235-3.903l1.703-12.67q.007-.035.013-.068l.05-.388a1 1 0 0 0 .009-.13C42.741 4.9 32.269 2 22.869 2 13.472 2 3 4.9 3 9.063q0 .065.009.13l.051.388.005.032 4.214 31.343C7.41 44.63 16.886 46 22.874 46c2.03 0 4.068-.129 6.059-.384l-.254-1.984c-1.907.244-3.86.368-5.805.368"/></svg>