<svg xmlns="http://www.w3.org/2000/svg" viewBox="0 0 48 48"><title>Icon-Resource/Database/Res_Amazon-Aurora-Oracle-Instance_48</title><path fill="#c925d1" fill-rule="evenodd" d="M39.176 13.039q.001-.728-.19-1.048-.189-.317-.594-.317-.974 0-1.029 1.677h1.813zm1.435 1.476h-3.247q.042.972.406 1.379.365.406 1.188.406.312 0 .766-.102.454-.1.899-.263v1.231a3 3 0 0 1-.932.378q-.555.136-1.11.136-2.895 0-2.895-3.625 0-1.772.71-2.706t2.05-.933q2.299 0 2.3 2.813-.001.705-.136 1.286m-8.306-7.021v8.251q0 .934.398 1.387.4.453 1.21.453.598 0 1.083-.203v-1.244q-.284.04-.392.04-.27 0-.358-.142-.09-.142-.089-.494V7.494zM30.41 17.51q.433-.114.718-.317v-1.231q-.664.256-1.218.256-.702 0-1.014-.486-.311-.488-.312-1.584v-.188q0-1.096.32-1.59.316-.494 1.047-.494.527 0 1.15.23v-1.231a3.04 3.04 0 0 0-1.515-.405q-1.353 0-2.102.94-.753.94-.753 2.658 0 1.745.704 2.651.705.906 2.07.907.473 0 .906-.116m-6.642-2.887a2.3 2.3 0 0 0-.701-.096q-.393 0-.604.25t-.209.725q0 .405.17.642a.53.53 0 0 0 .453.237q.447 0 .892-.433zm0-1.028v-.622q0-.704-.181-.955-.183-.25-.683-.25-.812 0-1.988.432v-1.229q.39-.258 1.027-.407a5.7 5.7 0 0 1 1.298-.148q1.178 0 1.706.534.526.534.527 1.711v4.842H24.04l-.162-.622a1.7 1.7 0 0 1-.663.575 1.9 1.9 0 0 1-.88.224q-.838-.001-1.326-.548-.485-.547-.486-1.509 0-1.015.595-1.602.596-.59 1.61-.589.419-.001 1.04.163m-5.91-2.111-.204-.892H16.14v6.911h1.854v-5.045a2.5 2.5 0 0 1 1.23-.324q.339 0 .718.066v-1.636a2.4 2.4 0 0 0-.433-.041q-.448 0-.846.231-.399.23-.805.73m-5.14 1.326q0-1.704-.445-2.53-.45-.825-1.368-.825-.921 0-1.365.825c-.3.551-.446 1.394-.446 2.53q-.001 1.664.46 2.516.459.852 1.35.852.894 0 1.354-.852t.46-2.516m.96-3.605q.986 1.279.987 3.605-.001 2.327-.986 3.611-.987 1.285-2.774 1.285-1.785 0-2.772-1.285-.989-1.284-.987-3.611-.002-2.326.987-3.605.988-1.279 2.772-1.278 1.788 0 2.774 1.278m30.323 20.799V26.47c-1.73.943-4.353 1.431-6.966 1.431-2.611 0-5.234-.488-6.964-1.431v3.534c0 .629 2.37 2.103 6.964 2.103 4.596 0 6.966-1.474 6.966-2.103m0 6.097v-3.425c-1.73.943-4.353 1.431-6.966 1.431-2.611 0-5.234-.488-6.964-1.431v3.425c0 .629 2.37 2.104 6.964 2.104 4.596 0 6.966-1.475 6.966-2.104m0 5.445v-2.773c-1.73.944-4.353 1.432-6.966 1.432-2.611 0-5.234-.488-6.964-1.432v2.773c0 .629 2.37 2.103 6.964 2.103 4.596 0 6.966-1.474 6.966-2.103M30.07 23.798c0 .629 2.37 2.103 6.964 2.103 4.596 0 6.966-1.474 6.966-2.103s-2.37-2.104-6.966-2.104c-4.594 0-6.964 1.475-6.964 2.104m15.93 0v17.748c0 2.694-4.511 4.103-8.966 4.103s-8.964-1.409-8.964-4.103V23.798c0-2.695 4.509-4.104 8.964-4.104S46 21.103 46 23.798M7.755 43.89h19.68v2H7.756A5.76 5.76 0 0 1 2 40.136V7.755A5.76 5.76 0 0 1 7.755 2h32.38a5.76 5.76 0 0 1 5.755 5.755v12.699h-2V7.755A3.76 3.76 0 0 0 40.136 4H7.754A3.76 3.76 0 0 0 4 7.755v32.381a3.76 3.76 0 0 0 3.755 3.754"/></svg>