<svg xmlns="http://www.w3.org/2000/svg" fill="none" viewBox="0 0 48 48"><path fill="#7aa116" d="M27.5 35.25c-.965 0-1.75-.785-1.75-1.75s.785-1.75 1.75-1.75 1.75.785 1.75 1.75-.785 1.75-1.75 1.75m15.75 1.25c0-.965-.785-1.75-1.75-1.75s-1.75.785-1.75 1.75.785 1.75 1.75 1.75 1.75-.785 1.75-1.75m-8.75 6.25c-.965 0-1.75.785-1.75 1.75s.785 1.75 1.75 1.75 1.75-.785 1.75-1.75-.785-1.75-1.75-1.75m10.08-15.075c-.392.467-1.117.672-2.086.672-4.105 0-12.58-3.674-18.668-6.594a2.08 2.08 0 0 1-1.216.395 2.1 2.1 0 0 1-2.095-2.095c0-1.155.94-2.096 2.095-2.096 1.12 0 2.03.886 2.085 1.992 4.834 2.3 9.943 4.414 13.58 5.581l.38-2.817v-.002l1.411-10.483c-3.619 2.107-10.71 3.197-17.457 3.197-6.745 0-13.836-1.09-17.455-3.198l3.84 28.513q.008.067.008.133c0 .83 3.901 2.66 11.054 3.056.846.047 1.706.071 2.553.071v2c-.884 0-1.78-.025-2.665-.074-5.921-.328-12.83-1.828-12.941-4.975L2.773 9.536v-.002l-.051-.389a1 1 0 0 1-.01-.132c0-4.167 10.486-7.07 19.897-7.07s19.898 2.903 19.898 7.07a1 1 0 0 1-.009.13l-.05.389v.004L40.73 22.289c2.7 1.543 4.025 2.761 4.239 3.91.098.535-.04 1.06-.389 1.476M40.478 9.17l.027-.208c-.136-1.792-7.477-5.02-17.896-5.02-10.416 0-17.755 3.227-17.894 5.019l.028.209c.514 1.783 7.523 4.254 17.866 4.254s17.354-2.47 17.869-4.254m2.458 17.246c-.16-.266-.711-.894-2.495-1.98l-.224 1.663c1.292.331 2.247.458 2.719.317M36 29h-2v9.077l-8.53 5.063 1.022 1.72L35 39.81l8.508 5.05 1.021-1.72L36 38.077z"/></svg>