<svg xmlns="http://www.w3.org/2000/svg" viewBox="0 0 48 48"><title>Icon-Resource/Networking-and-Content-Delivery/Res_Amazon-VPC_Traffic-Mirroring_48</title><path fill="#8c4fff" fill-rule="evenodd" d="M10.09 26.916a.999.999 0 1 1-1.414 1.414L5.94 25.595a1 1 0 0 1 0-1.414l2.736-2.737a1 1 0 0 1 1.414 1.414l-1.029 1.03h4.882v2h-4.88zm31.92-1.321-2.737 2.735a1 1 0 0 1-1.414-1.414l1.03-1.028h-1.236v-2h1.235l-1.029-1.03a.999.999 0 1 1 1.414-1.414l2.736 2.737a1 1 0 0 1 0 1.414m-8.004.293h2.735v-2h-2.735zM30.208 14.14l-1.934 1.934-1.414-1.414 1.934-1.934zm-4.498 5.275h2V16.68h-2zm0 3.648h2v-2.736h-2zm0 3.648h2v-2.735h-2zm0 3.648h2v-2.736h-2zm0 3.647h2v-2.735h-2zm0 3.649h2v-2.736h-2zm5.472-25.447h-5.365v-2h7.365v7.384h-2zm-13 0 4.056 4.058v21.389h-2V17.094l-3.454-3.454v3.952h-2v-7.384h7.367v2zm15.736 17.239h2v6.472h-6.472v-2h3.058l-1.94-1.941 1.413-1.414 1.941 1.941zm1.693-9.311-1.414-1.414 2.75-2.749 1.414 1.414zm-5.048 2.22 2.71-2.709 1.413 1.415-2.709 2.708zm-.293 4.355h2v-2.682h-2zm0 3.648h2v-2.655h-2zm-14.825 3.56h3.057v2H12.03v-6.472h2v3.058l1.65-1.648v-7.379l-6.092-6.091 1.414-1.414 6.677 6.676v9.037zm8.53 10.031c-11.015 0-19.976-8.961-19.976-19.974C4 12.961 12.96 4 23.974 4S43.95 12.961 43.95 23.976c0 11.013-8.96 19.974-19.975 19.974m0-41.95C11.856 2 1.998 11.858 1.998 23.976S11.857 45.95 23.974 45.95 45.95 36.093 45.95 23.976 36.091 2 23.974 2"/></svg>