<svg xmlns="http://www.w3.org/2000/svg" viewBox="0 0 48 48"><title>Icon-Resource/Networking-and-Content-Delivery/Res_Amazon-CloudFront_Streaming-Distribution_48</title><path fill="#8c4fff" fill-rule="evenodd" d="m31.13 28.509 1.415 1.414-7.865 7.864a1 1 0 0 1-.707.293 1 1 0 0 1-.707-.293l-7.864-7.864 1.414-1.414 6.157 6.157V9.116h2v25.55zm-7.157 15.436C12.96 43.945 4 34.985 4 23.973S12.96 4 23.973 4s19.972 8.96 19.972 19.973-8.96 19.972-19.972 19.972m0-41.945C11.857 2 2 11.857 2 23.973s9.857 21.972 21.973 21.972 21.972-9.857 21.972-21.972S36.089 2 23.973 2"/></svg>