<svg xmlns="http://www.w3.org/2000/svg" viewBox="0 0 48 48"><title>Icon-Resource/Networking-and-Content-Delivery/Res_Amazon-Route-53_Resolver-Query-Logging_48</title><path fill="#8c4fff" fill-rule="evenodd" d="M17.002 24.965h14v-2h-14zm0 6h14v-2h-14zm0-12h14v-2h-14zm-1 16h16v-22h-16zm17-24h-18a1 1 0 0 0-1 1v24a1 1 0 0 0 1 1h18a1 1 0 0 0 1-1v-24a1 1 0 0 0-1-1m1.053 28.46c-4.663.838-8.596 3.294-10.064 4.306-1.468-1.012-5.399-3.468-10.062-4.306C11.6 39.009 4 37.15 4 30.8c0-2.654 1.004-4.382 2.066-6.213.998-1.72 2.03-3.497 2.03-5.927 0-3.665-2.026-6.297-3.156-7.482 1.154-1.403 3.694-4.5 5.085-6.283 2.121 1.934 4.569 2.986 6.994 2.986 2.699 0 4.94-1.065 6.972-3.333 2.032 2.268 4.274 3.332 6.974 3.332 2.424 0 4.872-1.051 6.992-2.984 1.393 1.782 3.932 4.88 5.086 6.283-1.13 1.184-3.155 3.816-3.155 7.48 0 2.432 1.031 4.209 2.029 5.928 1.062 1.83 2.066 3.56 2.066 6.212 0 6.35-7.599 8.209-9.928 8.627m9.591-15.842c-.943-1.626-1.758-3.03-1.758-4.923 0-3.998 3.119-6.597 3.148-6.62a1.004 1.004 0 0 0 .143-1.415c-.052-.062-5.145-6.232-6.309-7.828a1.002 1.002 0 0 0-1.538-.095c-1.916 2.05-4.177 3.178-6.367 3.178-2.415 0-4.321-1.082-6.18-3.51-.379-.494-1.209-.494-1.588 0-1.858 2.428-3.763 3.51-6.178 3.51-2.191 0-4.453-1.127-6.369-3.177a1.01 1.01 0 0 0-.791-.315 1 1 0 0 0-.747.409c-1.163 1.596-6.256 7.765-6.307 7.827a1.006 1.006 0 0 0 .14 1.413c.032.026 3.151 2.624 3.151 6.623 0 1.892-.816 3.296-1.759 4.922C3.241 25.47 2 27.609 2 30.8c0 5.333 4.327 9.294 11.575 10.595 5.313.953 9.763 4.328 9.808 4.361a1 1 0 0 0 1.217 0c.045-.034 4.495-3.408 9.808-4.361 7.248-1.301 11.575-5.262 11.575-10.594 0-3.192-1.241-5.33-2.337-7.218"/></svg>