<svg xmlns="http://www.w3.org/2000/svg" viewBox="0 0 48 48"><title>Icon-Resource/Database/Res_Amazon-RDS-Proxy-Instance-Alternate_48</title><path fill="#c925d1" fill-rule="evenodd" d="m28.33 26.61-1.805-5.699h1.586l.843 4.113.82-4.113h1.542l-1.848 6.443q-.23.81-.613 1.171-.382.36-1.006.36-.47 0-.962-.164v-1.006q.295.044.524.043.415 0 .624-.218.208-.22.274-.733zm-3.828-.109-.907-1.773-.779 1.773H21.34l1.564-2.812-1.542-2.778h1.609l.82 1.718.755-1.718h1.476l-1.543 2.778 1.631 2.812zm-5.766-.995q.406 0 .586-.433.18-.432.18-1.361 0-.932-.18-1.368t-.586-.437q-.404 0-.584.437-.182.436-.181 1.368-.001.929.181 1.361.18.433.584.433m0 1.137q-1.082 0-1.673-.766t-.591-2.165q0-1.413.591-2.177.591-.767 1.673-.766 1.084-.001 1.674.766.592.765.591 2.177 0 1.399-.591 2.165-.59.766-1.674.766m-5.775-.142v-5.59h1.225l.165.721q.327-.403.651-.589.322-.186.683-.187.175 0 .35.032v1.325a3.3 3.3 0 0 0-.58-.055q-.526 0-.995.262v4.081zm-4.2-3.95h.711q.427 0 .65-.316.225-.317.225-.931 0-.612-.225-.929-.223-.317-.65-.317h-.711zm0 1.138v2.812H7.263V18.92h2.394q1.007 0 1.604.639.595.64.595 1.745 0 1.107-.595 1.745-.597.64-1.604.64zm11.88-11.945q-.81-.438-1.161-.942-.348-.503-.348-1.224 0-.668.305-1.165.306-.498.837-.767.53-.267 1.219-.267.865-.001 1.718.394v1.159q-.886-.327-1.564-.328-.459 0-.722.23t-.262.634q0 .34.169.558.17.22.651.481l.59.318q.569.306.903.612.333.307.492.684t.159.914q0 1.038-.673 1.645-.672.609-1.853.608-.515 0-1.03-.12a3.3 3.3 0 0 1-.864-.318v-1.148q.404.152.914.258.509.103.87.103.524 0 .798-.247.274-.245.273-.704a.88.88 0 0 0-.191-.575q-.192-.236-.64-.476zm-6.017-3.03v5.24h.645q.713 0 1.061-.618.351-.619.351-1.899v-.219q0-1.29-.345-1.898-.345-.606-1.078-.606zm-1.531 6.41V7.543h2.286q1.41 0 2.144.963.733.963.733 2.822 0 1.871-.723 2.833-.721.962-2.099.963zm-4.332-3.95h.711q.427 0 .65-.317.225-.317.225-.93 0-.611-.225-.929-.223-.318-.65-.318h-.711zm1.914 3.95-1.324-2.812h-.59v2.812H7.263V7.543h2.394q1.007 0 1.604.64.595.64.595 1.744 0 .767-.295 1.325a1.9 1.9 0 0 1-.842.831l1.531 3.041zM7.643 3.75A3.897 3.897 0 0 0 3.75 7.642v32.471a3.897 3.897 0 0 0 3.893 3.893h32.47a3.897 3.897 0 0 0 3.893-3.893V7.642a3.897 3.897 0 0 0-3.893-3.892zm32.47 42.006H7.643A5.65 5.65 0 0 1 2 40.113V7.642A5.65 5.65 0 0 1 7.643 2h32.47a5.65 5.65 0 0 1 5.643 5.642v32.471a5.65 5.65 0 0 1-5.643 5.643"/></svg>