<svg xmlns="http://www.w3.org/2000/svg" viewBox="0 0 48 48"><title>Icon-Resource/Containers/Res_Amazon-Elastic-Container-Service_Task_48</title><path fill="#ed7100" fill-rule="evenodd" d="M20.25 36.375H36v-2H20.25zm0-12.25H36v-2H20.25zm0-12.25H36v-2H20.25zM13.375 37h3.25v-3.25h-3.25zm-1 2h5.25a1 1 0 0 0 1-1v-5.25a1 1 0 0 0-1-1h-5.25a1 1 0 0 0-1 1V38a1 1 0 0 0 1 1m1-14.25h3.25V21.5h-3.25zm-1 2h5.25a1 1 0 0 0 1-1V20.5a1 1 0 0 0-1-1h-5.25a1 1 0 0 0-1 1v5.25a1 1 0 0 0 1 1m1-14.25h3.25V9.25h-3.25zm-1 2h5.25a1 1 0 0 0 1-1V8.25a1 1 0 0 0-1-1h-5.25a1 1 0 0 0-1 1v5.25a1 1 0 0 0 1 1M9 44h29.5V4H9zM39.5 2H8a1 1 0 0 0-1 1v42a1 1 0 0 0 1 1h31.5a1 1 0 0 0 1-1V3a1 1 0 0 0-1-1"/></svg>