<svg xmlns="http://www.w3.org/2000/svg" viewBox="0 0 48 48"><title>Icon-Resource/Machine-Learning/Res_Amazon-Rekognition_Image_48</title><path fill="#01a88d" fill-rule="evenodd" d="M17.06 34.426a15.1 15.1 0 0 1-3.531-3.534l-8.8 8.8a2.5 2.5 0 0 0 0 3.533c.942.94 2.593.94 3.534 0zM12.75 22.23c0 7.159 5.826 12.984 12.986 12.984 7.159 0 12.984-5.825 12.984-12.984 0-7.16-5.825-12.986-12.984-12.986-7.16 0-12.986 5.826-12.986 12.986m6.06 13.275-9.132 9.134a4.46 4.46 0 0 1-3.18 1.316 4.46 4.46 0 0 1-3.181-1.316 4.5 4.5 0 0 1 0-6.36l9.136-9.138a14.9 14.9 0 0 1-1.703-6.911c0-8.263 6.723-14.986 14.986-14.986s14.984 6.723 14.984 14.986c0 8.262-6.721 14.984-14.984 14.984-2.5 0-4.852-.623-6.925-1.71m-9.4-5.168c-1.263-2.51-1.904-5.237-1.904-8.107 0-3.127.805-6.21 2.327-8.915l-1.742-.981a20.2 20.2 0 0 0-2.585 9.896c0 3.14.732 6.255 2.117 9.006zm19.376-10.73a1.312 1.312 0 1 0-.001-2.624 1.312 1.312 0 0 0 0 2.624m-9.052-3.37v9.4l4.273-4.778c.258-.298.647-.45 1.057-.468.409.006.793.192 1.053.51l2.339 2.85 3.263-3.596v-3.918zm11.985 11.985V23.13l-2.253 2.482c-.24.287-.626.465-1.035.465h-.01a1.38 1.38 0 0 1-1.062-.508l-2.335-2.847-4.918 5.5zm-13.985.086V16.15c0-1.055.859-1.914 1.915-1.914h12.156c1.056 0 1.914.859 1.914 1.914v12.157a1.915 1.915 0 0 1-1.914 1.914H19.648a1.916 1.916 0 0 1-1.915-1.914m28.23-6.078c0 11.154-9.074 20.229-20.228 20.229-3.17 0-6.204-.712-9.022-2.115l.893-1.791a18.06 18.06 0 0 0 8.129 1.906c10.05 0 18.228-8.178 18.228-18.23S35.786 4 25.735 4c-2.525 0-4.967.509-7.257 1.509l-.801-1.833A20 20 0 0 1 25.735 2c11.154 0 20.228 9.075 20.228 20.23"/></svg>