<svg xmlns="http://www.w3.org/2000/svg" viewBox="0 0 48 48"><title>Icon-Resource/Storage/Res_Amazon-Simple-Storage-Service_VPC-Access-Points_48</title><path fill="#7aa116" fill-rule="evenodd" d="M32.228 25.465a2.49 2.49 0 0 0-2.486-2.485 2.49 2.49 0 0 0-2.486 2.485 2.49 2.49 0 0 0 2.486 2.484 2.487 2.487 0 0 0 2.485-2.484m2 0a4.49 4.49 0 0 1-4.486 4.484 4.49 4.49 0 0 1-4.486-4.484 4.49 4.49 0 0 1 4.486-4.485 4.49 4.49 0 0 1 4.485 4.485m-3.775-9.562-2.163-3.957-2.258 3.957zm2.564.52a.997.997 0 0 1-.878 1.48H24.31a1 1 0 0 1-.863-.498 1 1 0 0 1-.005-.997L27.44 9.4c.18-.315.532-.535.878-.505a1 1 0 0 1 .867.52zm-17.833 6.585h4.063v-4.063h-4.063zm5.063-6.063a1 1 0 0 1 1 1v6.064a1 1 0 0 1-1 1h-6.065a1 1 0 0 1-1-1v-6.064a1 1 0 0 1 1-1zm5.009 25.495V30.226h-2V42.52l-3.244-3.244-1.415 1.414 4.912 4.91a1.003 1.003 0 0 0 1.413 0l4.921-4.921-1.413-1.414zM39.468 8.694v14.234c0 8.474-4.602 13.95-12.387 15.025v-1.98c6.787-.938 10.387-5.571 10.387-13.045V8.694l-13.25-4.697-13.252 4.745L11 22.928c0 7.474 3.6 12.107 10.388 13.045v1.98C13.6 36.878 8.999 31.402 8.999 22.928V8.694c0-.824.521-1.561 1.297-1.835L23.58 2.114a1.94 1.94 0 0 1 1.312 0L38.173 6.86a1.95 1.95 0 0 1 1.294 1.834"/></svg>