<svg xmlns="http://www.w3.org/2000/svg" viewBox="0 0 48 48"><title>Icon-Resource/Database/Res_Amazon-ElastiCache_Cache-Node_48</title><path fill="#c925d1" fill-rule="evenodd" d="M33.889 7.289h3.972v.883h-2.874v2.467h2.376v.882h-2.376v2.727h2.874v.883h-3.972zm-2.795 0h1.098v7.842h-1.098v-3.565h-2.851v3.565h-1.098V7.289h1.098v3.384h2.85zm-6.643 6.993q.51 0 1.472-.283v.894a3.66 3.66 0 0 1-1.596.351q-3.032 0-3.032-4.006 0-1.979.78-3.01.781-1.029 2.297-1.029.725 0 1.46.306v.893q-.758-.237-1.335-.237-1.064 0-1.556.695-.492.696-.492 2.236v.271q0 1.539.475 2.229.476.69 1.527.69m-7.501-2.104.973-3.836.973 3.836zm.408-4.889-2.264 7.842h1.12l.532-2.116h2.366l.543 2.116h1.154l-2.264-7.842zm-4.21 6.993q.51 0 1.47-.283v.894a3.66 3.66 0 0 1-1.594.351q-3.033 0-3.032-4.006 0-1.979.78-3.01.78-1.029 2.297-1.029.723 0 1.46.306v.893q-.759-.237-1.335-.237-1.066 0-1.557.695-.492.696-.492 2.236v.271q0 1.539.475 2.229.477.69 1.528.69m30.63 25.049a4.45 4.45 0 0 1-4.447 4.447H8.449a4.453 4.453 0 0 1-4.45-4.447V8.448A4.453 4.453 0 0 1 8.45 4H39.33a4.453 4.453 0 0 1 4.448 4.448zM39.332 2H8.449a6.456 6.456 0 0 0-6.45 6.448v30.883a6.455 6.455 0 0 0 6.45 6.447H39.33a6.455 6.455 0 0 0 6.448-6.447V8.448A6.456 6.456 0 0 0 39.33 2"/></svg>