<svg xmlns="http://www.w3.org/2000/svg" viewBox="0 0 48 48"><title>Icon-Resource/Analytics/Res_Amazon-EMR_HDFS-Cluster_48</title><path fill="#8c4fff" fill-rule="evenodd" d="M36.931 26.479a.99.99 0 0 0-.87.974v2.978l-2.328-.776 2.685-3.925zm1.13 7.834h5.86v-5.86h-5.86zm-4.367 5.139v-2.393a1 1 0 0 0-1-1H29.35l3.208-4.688 3.503 1.169v2.773a1 1 0 0 0 1 1h.834a420 420 0 0 1-4.201 3.139m-7.859 4.467h5.859v-5.86h-5.859zM4 29.946h11.974V17.972H4zM25.834 9.859h5.859V4h-5.859zm12.062 1.747h-.835a1 1 0 0 0-1 1v2.772l-3.503 1.169-3.208-4.688h3.344a1 1 0 0 0 1-1V8.467c1.122.827 2.684 1.988 4.202 3.139m.165 7.86h5.86v-5.86h-5.86zm-4.329-1.203 2.329-.777v2.98c0 .507.382.908.87.974l-.513.749zM17.974 24.4v-.882l13.785-4.598 3.447 5.039-3.447 5.039zm6.269-12.757a.97.97 0 0 0 .591.216h2.093l3.658 5.346-12.611 4.205v-4.438c0-.071-.026-.134-.04-.2zm.591 24.416a.98.98 0 0 0-.592.216l-6.308-5.129c.014-.066.04-.129.04-.2v-4.439l12.611 4.206-3.658 5.346zm14.501-14.593h5.586a1 1 0 0 0 1-1v-7.86a1 1 0 0 0-1-1h-3.743c-2.621-2.048-6.278-4.737-7.484-5.621V3a1 1 0 0 0-1-1h-7.86a1 1 0 0 0-1 1v6.396l-8.089 6.576H3a1 1 0 0 0-1 1v13.974a1 1 0 0 0 1 1h12.745l8.089 6.577v6.396a1 1 0 0 0 1 1h7.86a1 1 0 0 0 1-1v-2.985c1.206-.885 4.862-3.574 7.484-5.621h3.743a1 1 0 0 0 1-1v-7.86a1 1 0 0 0-1-1h-5.586l-1.706-2.494z"/></svg>