<svg xmlns="http://www.w3.org/2000/svg" viewBox="0 0 48 48"><title>Icon-Resource/Database/Res_Amazon-ElastiCache_ElastiCache-for-Redis_48</title><path fill="#c925d1" fill-rule="evenodd" d="M43.508 11.472c0 .82.673 1.489 1.5 1.489a1 1 0 0 1 1 1v15.933a1 1 0 0 1-1 1h-7.78v-2h3.669v-1.89h-3.668v-2h4.668a1 1 0 0 1 1 1v2.89h1.11V14.816a3.5 3.5 0 0 1-2.5-3.344 3.5 3.5 0 0 1 2.5-3.344V6H4v2.127a3.5 3.5 0 0 1 2.5 3.345A3.5 3.5 0 0 1 4 14.817v14.077h1.112v-2.89a1 1 0 0 1 1-1h4.667v2H7.112v1.89h3.667v2h-7.78a1 1 0 0 1-1-1V13.96a1 1 0 0 1 1-1c.829 0 1.502-.668 1.502-1.49 0-.82-.673-1.488-1.501-1.488a1 1 0 0 1-1-1V5a1 1 0 0 1 1-1h42.008a1 1 0 0 1 1 1v3.983a1 1 0 0 1-1 1c-.827 0-1.5.668-1.5 1.489M24.196 33.056h-2.08v-3.937h2.129q1.946 0 1.946 1.969t-1.995 1.968m3.527-.034q.59-.84.59-2.002 0-1.608-1.053-2.56-1.052-.95-2.798-.95h-4.433v11.86h2.088v-4.705h2.088l2.773 4.706h2.088l-3.064-5.065q1.13-.446 1.72-1.284m-17.5-11.907h1.335v2H9.224a1 1 0 0 1-1-1V8.89a1 1 0 0 1 1-1h4.668a1 1 0 0 1 1 1v6.223h-2V9.89h-2.668zm27.562 0V9.89h-2.668v5.223h-2V8.89a1 1 0 0 1 1-1h4.668a1 1 0 0 1 1 1v13.225a1 1 0 0 1-1 1h-1.556v-2zm-7.78-6.78V9.89h-3.444v3.667h-2V8.89a1 1 0 0 1 1-1h5.445a1 1 0 0 1 1 1v5.445zm-8.557-.778V9.89h-3.445v4.445h-2V8.89a1 1 0 0 1 1-1h5.445a1 1 0 0 1 1 1v4.667zM31.733 30.36c.893-.283 1.6-.592 2.163-.915v4.274c0 .347-.737 1.094-2.765 1.733l.602 1.909c.893-.283 1.6-.592 2.163-.915v3.814c0 .93-3.755 2.636-9.89 2.636-6.137 0-9.893-1.706-9.893-2.636v-3.812c.568.325 1.284.637 2.19.92l.599-1.907c-2.046-.64-2.79-1.392-2.79-1.742v-4.273c.569.326 1.285.638 2.192.922l.598-1.908c-2.046-.64-2.79-1.392-2.79-1.742v-4.29c2.258 1.31 6.106 1.93 9.783 1.93 3.862 0 7.744-.68 10-1.992v4.352c0 .347-.736 1.094-2.764 1.733zm-7.838-13.347c6.187 0 9.974 1.73 9.974 2.673 0 .942-3.787 2.673-9.974 2.673-6.32 0-9.765-1.766-9.765-2.673s3.446-2.673 9.765-2.673m11.987 2.673c0-3.068-6.037-4.673-11.987-4.673-5.666 0-11.773 1.462-11.773 4.673v.105l-.01 20.469c0 3.043 5.984 4.636 11.894 4.636 5.908 0 11.89-1.593 11.89-4.636l-.014-20.47z"/></svg>