<svg xmlns="http://www.w3.org/2000/svg" viewBox="0 0 48 48"><title>Icon-Resource/Quantum-Technologies/Res_Amazon-Braket_Simulator-2_48</title><path fill="#ed7100" fill-rule="evenodd" d="M9 39h30V9H9zm32-26v4h5v2h-5v4h5v2h-5v4h5v2h-5v4h5v2h-5v3a1 1 0 0 1-1 1h-3v5h-2v-5h-4v5h-2v-5h-4v5h-2v-5h-4v5h-2v-5h-4v5h-2v-5H8a1 1 0 0 1-1-1v-3H2v-2h5v-4H2v-2h5v-4H2v-2h5v-4H2v-2h5v-4H2v-2h5V8a1 1 0 0 1 1-1h3V2h2v5h4V2h2v5h4V2h2v5h4V2h2v5h4V2h2v5h3a1 1 0 0 1 1 1v3h5v2zm-6.345 10.921c-1.102 0-2-.897-2-2s.898-2 2-2c1.103 0 2 .897 2 2s-.897 2-2 2m-10.509 9.988c-.203-2.017-1.89-3.604-3.96-3.604-1.1 0-2.096.446-2.82 1.166-2.202-1.904-3.467-4.617-3.467-7.55 0-1.684.44-3.307 1.236-4.767a4 4 0 0 0 1.619.349c2.206 0 4-1.795 4-4a4 4 0 0 0-.149-1.021 9.9 9.9 0 0 1 3.294-.561c3.5 0 6.655 1.796 8.473 4.724a4 4 0 0 0-1.717 3.276c0 1.881 1.31 3.453 3.062 3.877-.867 4.541-4.811 7.994-9.571 8.111m-1.999.784v.001a2 2 0 1 1-3.924-.776 2 2 0 0 1 3.924.775m-5.393-21.19c1.102 0 2 .897 2 2s-.898 2-2 2c-1.103 0-2-.897-2-2s.897-2 2-2m21.901 8.418c0-2.205-1.794-4-4-4-.118 0-.229.025-.344.035a11.93 11.93 0 0 0-10.412-6.035c-1.482 0-2.915.281-4.278.803a3.98 3.98 0 0 0-2.867-1.221c-2.206 0-4 1.794-4 4 0 .886.299 1.698.788 2.361a11.95 11.95 0 0 0-1.643 6.057c0 3.649 1.625 7.02 4.451 9.312a4 4 0 0 0-.164 1.072c0 2.206 1.793 4 4 4a4.01 4.01 0 0 0 3.713-2.519v.135c5.994 0 10.96-4.421 11.846-10.17 1.674-.478 2.91-2.004 2.91-3.83m-14.756 4c-1.102 0-2-.897-2-2s.898-2 2-2c1.103 0 2 .897 2 2s-.897 2-2 2m0-6c-2.206 0-4 1.795-4 4s1.794 4 4 4 4-1.794 4-4-1.794-4-4-4"/></svg>