<svg xmlns="http://www.w3.org/2000/svg" viewBox="0 0 48 48"><title>Icon-Resource/Analytics/Res_Amazon-OpenSearch-Service_UltraWarm-Node_48</title><path fill="#8c4fff" fill-rule="evenodd" d="m39.536 42.459 1.047-7.54c-2.559-.833-5.689-2.213-7.318-2.959a1.44 1.44 0 0 1-.735.206 1.462 1.462 0 0 1 0-2.922c.553 0 1.029.312 1.277.766 1.886.873 4.74 2.111 7.056 2.894l.86-6.196c-2.318 1.166-5.996 1.769-9.654 1.769-3.671 0-7.363-.607-9.68-1.781l2.065 15.771.005.045c.404.55 3.252 1.528 7.535 1.528s7.132-.978 7.536-1.528zM22.015 23.836l.007.058c.264.966 4.026 2.583 10.047 2.583 6.005 0 9.761-1.608 10.044-2.575l.01-.068c-.393-.642-3.626-2.737-10.054-2.737-6.433 0-9.666 2.099-10.054 2.739m23.743 9.993c.082.44-.032.871-.319 1.213-.331.394-.824.59-1.545.59-.384 0-.842-.062-1.367-.173l-1.003 7.221c-.126 2.654-6.266 3.36-9.53 3.36-3.265 0-9.411-.706-9.529-3.365l-2.456-18.758.007-.001c-.003-.044-.016-.085-.016-.129 0-2.219 4.957-4.69 12.069-4.69s12.07 2.471 12.07 4.69c0 .047-.015.09-.017.136l.007.001-1.021 7.348c1.691.969 2.498 1.746 2.65 2.557M46 7v10h-2V7c0-1.655-1.346-3-3-3H7C5.346 4 4 5.345 4 7v34c0 1.654 1.346 3 3 3h12v2H7c-2.757 0-5-2.244-5-5V7c0-2.757 2.243-5 5-5h34c2.757 0 5 2.243 5 5"/></svg>