<svg xmlns="http://www.w3.org/2000/svg" fill="none" viewBox="0 0 48 48"><path fill="#c925d1" fill-rule="evenodd" d="M23.895 14.658c-5.525 0-11.44 1.365-11.855 4.342H12v20.99c0 3.067 6.038 4.672 12.002 4.672C29.964 44.662 36 43.057 36 39.99V19h-.041c-.427-2.85-6.272-4.342-12.065-4.342m0 2C30.56 16.658 34 18.532 34 19.331c0 .8-3.439 2.673-10.105 2.673-6.403 0-9.895-1.766-9.895-2.673s3.492-2.673 9.895-2.673m7.369 13.358c1.109-.304 2.015-.655 2.736-1.05v4.399c0 .175-.554.982-3.264 1.722l.528 1.93c1.109-.303 2.015-.655 2.736-1.049v4.022c0 .942-3.796 2.672-9.998 2.672-6.204 0-10.002-1.73-10.002-2.672v-4.014c.721.395 1.627.747 2.736 1.05l.528-1.93c-2.71-.74-3.264-1.553-3.264-1.731v-4.39c.721.394 1.627.746 2.736 1.05l.528-1.93C14.554 27.355 14 26.54 14 26.363v-4.292c2.28 1.312 6.174 1.933 9.895 1.933 3.9 0 7.823-.68 10.105-1.99v4.35c0 .175-.554.982-3.264 1.722zM21.333 14v-4h-3v4h-2V9a1 1 0 0 1 1-1h5a1 1 0 0 1 1 1v5zm8.334 0v-4h-3v4h-2V9a1 1 0 0 1 1-1h5a1 1 0 0 1 1 1v5zM38 21V10h-3v5h-2V9a1 1 0 0 1 1-1h5a1 1 0 0 1 1 1v13a1 1 0 0 1-1 1h-2v-2zm-28 0h1v2H9a1 1 0 0 1-1-1V9a1 1 0 0 1 1-1h5a1 1 0 0 1 1 1v6h-2v-5h-3zm33.5-9.5c0 .827.673 1.5 1.5 1.5a1 1 0 0 1 1 1v16a1 1 0 0 1-1 1h-8v-2h4v-2h-4v-2h5a1 1 0 0 1 1 1v3h1V14.855a3.51 3.51 0 0 1-2.5-3.355A3.51 3.51 0 0 1 44 8.146V6H4v2.146A3.51 3.51 0 0 1 6.5 11.5 3.51 3.51 0 0 1 4 14.855V29h1v-3a1 1 0 0 1 1-1h5v2H7v2h4v2H3a1 1 0 0 1-1-1V14a1 1 0 0 1 1-1c.827 0 1.5-.673 1.5-1.5S3.827 10 3 10a1 1 0 0 1-1-1V5a1 1 0 0 1 1-1h42a1 1 0 0 1 1 1v4a1 1 0 0 1-1 1c-.827 0-1.5.673-1.5 1.5m-14 15.698v.397l-4.176 11.008c0 .298-.306.397-.51.397h-1.629c-.305 0-.407-.1-.51-.397L18.5 27.595v-.397c0-.198.102-.198.305-.198h1.528c.204 0 .408.1.51.297L24 36.819l3.157-9.52c0-.199.204-.298.51-.298h1.527c.204 0 .306 0 .306.198" clip-rule="evenodd"/></svg>