<svg xmlns="http://www.w3.org/2000/svg" viewBox="0 0 48 48"><title>Icon-Resource/Database/Res_Amazon-RDS_Blue-Green-Deployments_48</title><path fill="#c925d1" fill-rule="evenodd" d="m35.85 24.326-3.792 3.793-1.414-1.414 4.5-4.5a1 1 0 0 1 1.414 0l4.5 4.5-1.414 1.414zm-5.206 7.379 4.5-4.5a1 1 0 0 1 1.414 0l4.5 4.5-1.414 1.414-3.793-3.793-3.793 3.793zm-2.833-3.648-2.877 2.877-1.414-1.414 1.149-1.15h-8.651v-2h8.692l-1.19-1.19 1.414-1.414 2.877 2.877a1 1 0 0 1 0 1.414m7.97-12.465c-4.652 0-7.777-1.446-7.777-2.796S31.129 10 35.782 10c5.12 0 8.264 1.629 8.264 2.796 0 1.168-3.144 2.796-8.264 2.796m10.265-2.796C46.046 9.647 40.882 8 35.782 8c-5.848 0-9.778 1.928-9.778 4.796 0 .077.014.15.02.225h-.006v8.349h2v-5.482c1.714 1.073 4.424 1.704 7.764 1.704 3.124 0 6.265-.621 8.236-1.823v20.283c0 1.133-2.936 2.772-8.243 2.772-4.791 0-7.757-1.439-7.757-2.772V33.37h-2v2.682c0 2.854 3.92 4.772 9.757 4.772 4.933 0 10.243-1.494 10.243-4.772V13.07c.009-.091.028-.18.028-.274M12.26 10c4.65 0 7.773 1.446 7.773 2.796s-3.123 2.796-7.773 2.796c-5.117 0-8.26-1.628-8.26-2.796S7.143 10 12.26 10m7.758 26.052c0 1.333-2.966 2.772-7.757 2.772-5.307 0-8.243-1.639-8.243-2.772v-4.564c2.002 1.233 5.242 1.814 8.336 1.814v-2c-5.145 0-8.303-1.617-8.303-2.776h-.033v-4.603c2.002 1.233 5.242 1.814 8.336 1.814v-2c-5.145 0-8.303-1.617-8.303-2.776h-.033v-5.198c1.969 1.206 5.115 1.829 8.242 1.829 3.337 0 6.045-.63 7.758-1.703v5.481h2v-8.286h-.01c.009-.096.025-.19.025-.288C22.033 9.928 18.105 8 12.26 8 7.162 8 2 9.647 2 12.796c0 .059.014.113.018.17v23.086c0 3.278 5.31 4.772 10.243 4.772 5.836 0 9.757-1.918 9.757-4.772V33.37h-2z"/></svg>