<svg xmlns="http://www.w3.org/2000/svg" viewBox="0 0 48 48"><title>Icon-Resource/Front-End-Web-Mobile/Res_Amazon-Location-Service_Track _48</title><path fill="#dd344c" fill-rule="evenodd" d="M42 24c-1.103 0-2-.897-2-2s.897-2 2-2 2 .897 2 2-.897 2-2 2M30 37c-1.103 0-2-.897-2-2s.897-2 2-2 2 .897 2 2-.897 2-2 2M20 27c0-1.103.897-2 2-2s2 .897 2 2-.897 2-2 2-2-.897-2-2M6 44c-1.103 0-2-.897-2-2s.897-2 2-2 2 .897 2 2-.897 2-2 2M23 6c0-1.103.897-2 2-2s2 .897 2 2-.897 2-2 2-2-.897-2-2M6 8c-1.103 0-2-.897-2-2s.897-2 2-2 2 .897 2 2-.897 2-2 2m36 10a3.96 3.96 0 0 0-2.609.993L28.34 8.19c.415-.629.66-1.381.66-2.19 0-2.206-1.794-4-4-4-1.858 0-3.411 1.28-3.858 3H9.858c-.447-1.72-2-3-3.858-3-2.206 0-4 1.794-4 4s1.794 4 4 4c1.858 0 3.411-1.28 3.858-3h11.284c.447 1.72 2 3 3.858 3 .67 0 1.291-.181 1.847-.473l11.398 11.142A4 4 0 0 0 38 22c0 .792.238 1.526.637 2.147l-6.792 7.325A3.96 3.96 0 0 0 30 31c-.85 0-1.634.27-2.282.723l-2.626-2.217A3.96 3.96 0 0 0 26 27c0-2.206-1.794-4-4-4s-4 1.794-4 4c0 .661.177 1.275.461 1.825L8.05 38.583A3.96 3.96 0 0 0 6 38c-2.206 0-4 1.794-4 4s1.794 4 4 4 4-1.794 4-4c0-.727-.21-1.4-.55-1.989l10.333-9.685A4 4 0 0 0 22 31c.507 0 .986-.104 1.433-.277l2.989 2.524A3.95 3.95 0 0 0 26 35c0 2.206 1.794 4 4 4s4-1.794 4-4c0-.811-.246-1.564-.663-2.196l6.771-7.302A3.94 3.94 0 0 0 42 26c2.206 0 4-1.794 4-4s-1.794-4-4-4"/></svg>