<svg xmlns="http://www.w3.org/2000/svg" viewBox="0 0 48 48"><title>Icon-Resource/Application-Integration/Res_Amazon-EventBridge_Custom-Event-Bus_48</title><path fill="#e7157b" fill-rule="evenodd" d="m43.717 22.782-1.284-1.549-1.104.914 1.284 1.55zm-16.87 13.986-1.284-1.548-2.51 2.08-.478 1.703 1.762-.154zm.255-2.826 1.285 1.55 12.687-10.519-1.284-1.548zm18.662-10.259L25.373 40.588a1 1 0 0 1-.552.226l-3.512.307a1.002 1.002 0 0 1-1.05-1.266l.952-3.395a1 1 0 0 1 .324-.5l20.391-16.905a1 1 0 0 1 1.408.131l2.561 3.089a1 1 0 0 1-.131 1.408M31.1 6.91l-1.84-.785-2.587 6.065 1.84.785zm7.98 6.76-1.201-1.6-5.307 3.984 1.202 1.6zM13.466 43.154l1.84.785 2.587-6.065-1.84-.785zm-7.98-6.76 1.201 1.6 5.306-3.984-1.201-1.6zm3.118-10.639L2 26.591l.252 1.984 6.604-.836zm1.477-6.854L3.95 16.364l-.765 1.848 6.131 2.537zm4.751-5.213-4.015-5.229-1.586 1.219 4.015 5.229zm6.749-2.167L20.756 5l-1.984.252.825 6.521zM16.71 33.125l-4.707-8.153a1 1 0 0 1 0-1l4.707-8.152c.179-.309.509-.5.866-.5h9.413c.358 0 .688.191.867.5l4.707 8.152-1.733 1-4.418-7.652h-8.258l-4.13 7.152 4.13 7.153h3.879v2h-4.457c-.357 0-.687-.191-.866-.5"/></svg>