<svg xmlns="http://www.w3.org/2000/svg" viewBox="0 0 48 48"><title>Icon-Resource/Application-Integration/Res_Amazon-EventBridge-Event_48</title><path fill="#e7157b" fill-rule="evenodd" d="m30.58 10.58-1.84-.785 2.798-6.558 1.84.785zm5.715 5.025-1.201-1.599 5.737-4.308 1.201 1.6zm2.152 5.197 7.14-.904.252 1.985-7.14.903zm-.54 7.552 6.631 2.744-.765 1.847-6.63-2.743zm-4.282 6.29 4.343 5.656-1.586 1.218-4.343-5.655zm-6.882 3.351.892 7.051-1.985.25-.891-7.051zm-9.484-1.279 1.84.785-2.798 6.558-1.84-.785zm-5.715-5.026 1.201 1.6-5.737 4.308-1.201-1.6zm-2.152-5.196-7.14.904L2 25.414l7.14-.904zm.54-7.553-6.63-2.743.763-1.847 6.631 2.743zm4.282-6.29L9.871 6.997l1.586-1.219 4.343 5.655zm6.882-3.35-.892-7.051L22.188 2l.892 7.051zm6.943 21.698h-8.66l-4.331-7.5 4.331-7.5h8.66l4.33 7.5zm6.351-8-4.908-8.5a1 1 0 0 0-.866-.5h-9.814a1 1 0 0 0-.867.5l-4.908 8.5c-.178.31-.178.69 0 1l4.908 8.5a1 1 0 0 0 .867.5h9.814c.358 0 .688-.19.866-.5l4.908-8.5c.178-.31.178-.69 0-1"/></svg>