<svg xmlns="http://www.w3.org/2000/svg" viewBox="0 0 48 48"><title>Icon-Resource/Front-End-Web-Mobile/Res_Amazon-Location-Service_Routes_48</title><path fill="#dd344c" fill-rule="evenodd" d="M14.293 7h3.5V5h-3.5zm5.5 0h3.5V5h-3.5zm12.559 7.813 1.416-1.413 2.472 2.477-1.416 1.414zm-7.21-7.226a2 2 0 0 0-.417-.319l.994-1.736c.306.176.589.392.839.643l1.912 1.916-1.416 1.412zm3.325 3.332 1.416-1.413 2.472 2.478-1.416 1.413zM13.148 33.778l1.391 1.438-2.157 2.085-1.391-1.439zm16.105-.246q.09.082.197.142l-.967 1.75a3 3 0 0 1-.586-.422l-1.849-1.708 1.357-1.469zm-10.141-5.515a3.01 3.01 0 0 1 2.341-.831l-.168 1.993c-.328-.005-.596.095-.783.276l-.93.898-1.388-1.439zm4.62.416 2.205 2.035-1.358 1.469-2.204-2.035zm-6.986 1.871 1.389 1.438-2.158 2.085-1.389-1.439zM6 44c-1.103 0-2-.897-2-2s.897-2 2-2 2 .897 2 2-.897 2-2 2m3.553-6.748L8.13 38.627A3.96 3.96 0 0 0 6 38c-2.206 0-4 1.794-4 4s1.794 4 4 4 4-1.794 4-4c0-.695-.193-1.339-.507-1.909l1.45-1.401zm22.626-5.523 1.511 1.31-1.491 1.722q-.36.414-.839.674l-.953-1.758q.16-.087.281-.226zm3.273-3.78 1.512 1.309L35 31.526l-1.512-1.309zM6 4c1.103 0 2 .897 2 2s-.897 2-2 2-2-.897-2-2 .897-2 2-2m0 6c1.858 0 3.411-1.28 3.858-3h2.435V5H9.858c-.447-1.72-2-3-3.858-3-2.206 0-4 1.794-4 4s1.794 4 4 4m36 14c-1.103 0-2-.897-2-2s.897-2 2-2 2 .897 2 2-.897 2-2 2m0-6c-1.012 0-1.927.39-2.632 1.012l-1.716-1.719-1.416 1.413 1.997 2.001c-.14.408-.233.838-.233 1.293 0 .822.25 1.587.678 2.223l-1.917 2.214 1.511 1.31 1.91-2.205c.547.283 1.16.458 1.818.458 2.206 0 4-1.794 4-4s-1.794-4-4-4"/></svg>