<svg xmlns="http://www.w3.org/2000/svg" viewBox="0 0 48 48"><title>Icon-Resource/Application-Integration/Res_Amazon-Simple-Queue-Service_Message_48</title><path fill="#e7157b" fill-rule="evenodd" d="M36.5 4h2V2h-2zM33 2h1.5v2H34v.5h-2V3a1 1 0 0 1 1-1m-1 32.5h2v-3h-2zm0 6h2v-3h-2zm0-12h2v-3h-2zm0-18h2v-3h-2zm0 6h2v-3h-2zm0 6h2v-3h-2zM34 44h.5v2H33a1 1 0 0 1-1-1v-1.5h2zm2.5 2h2v-2h-2zm4.5-2.5h2V45a1 1 0 0 1-1 1h-1.5v-2h.5zm0-3h2v-3h-2zm0-6h2v-3h-2zm0-18h2v-3h-2zm0-6h2v-3h-2zm0 18h2v-3h-2zm0-6h2v-3h-2zM43 3v1.5h-2V4h-.5V2H42a1 1 0 0 1 1 1M23.5 4h2V2h-2zM20 2h1.5v2H21v.5h-2V3a1 1 0 0 1 1-1m-1 8.5h2v-3h-2zm0 24h2v-3h-2zm0-6h2v-3h-2zm0-6h2v-3h-2zm0 18h2v-3h-2zm0-24h2v-3h-2zM21 44h.5v2H20a1 1 0 0 1-1-1v-1.5h2zm2.5 2h2v-2h-2zm4.5-2.5h2V45a1 1 0 0 1-1 1h-1.5v-2h.5zm0-33h2v-3h-2zm0 6h2v-3h-2zm0 6h2v-3h-2zm0 18h2v-3h-2zm0-12h2v-3h-2zm0 6h2v-3h-2zM30 3v1.5h-2V4h-.5V2H29a1 1 0 0 1 1 1M7 44h8V4H7zm9-42H6a1 1 0 0 0-1 1v42a1 1 0 0 0 1 1h10a1 1 0 0 0 1-1V3a1 1 0 0 0-1-1"/></svg>