<svg xmlns="http://www.w3.org/2000/svg" viewBox="0 0 48 48"><title>Icon-Resource/Storage/Res_Amazon-Elastic-Block-Store_Amazon-Data-Lifecycle-Manager_48</title><path fill="#7aa116" fill-rule="evenodd" d="M41.8 34.55c-.606 0-1.1-.493-1.1-1.1 0-.606.494-1.1 1.1-1.1s1.1.494 1.1 1.1-.494 1.1-1.1 1.1m0-4.2a3.104 3.104 0 0 0-3.1 3.1c0 .87.363 1.654.942 2.218C36.105 40.9 30.31 44 23.95 44a18.8 18.8 0 0 1-13.546-5.7L8.974 39.7c3.975 4.063 9.294 6.3 14.976 6.3 7.14 0 13.634-3.535 17.524-9.482.109.012.214.033.326.033a3.104 3.104 0 0 0 3.1-3.1c0-1.71-1.39-3.1-3.1-3.1m-35.7 4.2a1.1 1.1 0 0 1-1.1-1.1c0-.606.494-1.1 1.1-1.1a1.101 1.101 0 0 1 0 2.2m0-4.2c-.11 0-.215.022-.323.033A19 19 0 0 1 5 25.05C5 17.19 9.944 10.056 17.3 7.3l-.7-1.874C8.465 8.475 3 16.36 3 25.05c0 2.112.33 4.184.946 6.179A3.1 3.1 0 0 0 3 33.449c0 1.71 1.39 3.1 3.1 3.1a3.103 3.103 0 0 0 3.1-3.1c0-1.708-1.39-3.1-3.1-3.1M23.95 4a1.1 1.1 0 1 1-1.099 1.1c0-.606.493-1.1 1.099-1.1m0 4.2a3.1 3.1 0 0 0 2.84-1.867A18.87 18.87 0 0 1 42.9 25.05c0 .617-.03 1.24-.09 1.853l1.99.194c.067-.677.1-1.366.1-2.047A20.86 20.86 0 0 0 26.944 4.335 3.1 3.1 0 0 0 23.95 2a3.103 3.103 0 0 0-3.1 3.1c0 1.71 1.39 3.1 3.1 3.1m9 7.946v17.809c0 .75-1.447 1.805-4.624 2.345l-.16.023c-.931.122-3.825.319-4.195.326-1.5-.093-3.88-.261-4.398-.35-3.175-.54-4.623-1.593-4.623-2.344v-17.81c0-.967 3.008-2.695 9-2.695 5.993 0 9 1.728 9 2.696m-20 0v17.809c0 2.064 2.292 3.638 6.288 4.317.824.14 4.278.378 4.712.378s3.889-.238 4.71-.378c3.998-.68 6.29-2.253 6.29-4.317v-17.81c0-2.764-4.523-4.695-11-4.695-6.476 0-11 1.93-11 4.696m10.342 8.27a.9.9 0 0 1 .64-.28h.019c.237 0 .46.09.632.256a.9.9 0 0 1 .28.64.9.9 0 0 1-.254.65.9.9 0 0 1-.641.28c-.227.039-.476-.084-.65-.253a.91.91 0 0 1-.026-1.292m-2.255.69c.016.779.333 1.505.894 2.044a2.9 2.9 0 0 0 2.018.812c.766 0 1.53-.3 2.1-.893a2.9 2.9 0 0 0 .814-2.076 2.9 2.9 0 0 0-.893-2.043 2.917 2.917 0 0 0-4.933 2.157m3.453-3.602a1 1 0 0 0 .73-.322l1.01-1.096 1.713 1.246-.74 1.316a1 1 0 0 0-.081.794l.314.983c.086.269.28.488.536.605l1.374.632-.655 2.014-1.487-.298a1 1 0 0 0-.787.173l-.836.612a1 1 0 0 0-.402.69l-.175 1.496-2.118-.002-.173-1.483a1 1 0 0 0-.398-.688l-.846-.626a1 1 0 0 0-.791-.176l-1.472.294-.652-2.015 1.38-.634a1 1 0 0 0 .535-.598l.317-.974a1 1 0 0 0-.08-.8l-.742-1.322 1.715-1.243 1.018 1.106a.98.98 0 0 0 .742.322zm-1.943-3.431a1 1 0 0 0-1.322-.132l-3.155 2.288a1 1 0 0 0-.286 1.3l.964 1.715-.046.14-1.791.822a1 1 0 0 0-.534 1.217l1.2 3.709c.158.482.648.768 1.149.672l1.91-.382.14.104.226 1.936a1 1 0 0 0 .992.884l3.899.004a1 1 0 0 0 .994-.883l.227-1.948.129-.094 1.927.387c.49.1.989-.19 1.148-.671l1.206-3.707a1 1 0 0 0-.535-1.218l-1.782-.82-.047-.147.962-1.713a1 1 0 0 0-.283-1.298l-3.151-2.293a1 1 0 0 0-1.325.13l-1.32 1.432h-.174z"/></svg>