<svg xmlns="http://www.w3.org/2000/svg" viewBox="0 0 48 48"><title>Icon-Resource/Database/Res_Amazon-Aurora_Amazon-RDS-Instance_48</title><path fill="#c925d1" fill-rule="evenodd" d="M21.24 25.383q-.374 0-.902-.107a6.4 6.4 0 0 1-.948-.267v1.19q.363.205.896.33t1.066.125q1.227 0 1.924-.63.698-.63.698-1.707 0-.556-.165-.948-.165-.39-.51-.71a4.7 4.7 0 0 0-.936-.634l-.613-.33q-.499-.27-.675-.5a.92.92 0 0 1-.177-.578q.001-.42.274-.657.27-.24.749-.24.702 0 1.623.342V18.86a4.2 4.2 0 0 0-1.782-.41q-.716 0-1.265.279a2.1 2.1 0 0 0-.869.794q-.316.516-.317 1.208 0 .75.363 1.27.363.523 1.204.977l.61.329q.466.249.665.493a.9.9 0 0 1 .198.596q.001.476-.284.73-.284.257-.828.257m-4.47-2.95q0-1.338-.358-1.97-.357-.628-1.117-.63h-.66v5.437h.67q.737 0 1.102-.641.361-.644.363-1.97zm.872-2.814q.761.998.76 2.927.001 1.941-.748 2.94-.75.998-2.178.998h-2.427V18.62h2.37q1.464 0 2.223.998m-7.441 1.475q-.001-.634-.232-.964-.234-.33-.676-.33h-.738v2.588h.738q.442 0 .676-.33.232-.329.232-.964m.385 2.236 1.588 3.154h-1.633l-1.373-2.916h-.613v2.916H7.002V18.62h2.484q1.043-.001 1.662.664.618.663.617 1.809 0 .794-.305 1.373a1.97 1.97 0 0 1-.874.863m31.007-8.192v-4.255q0-.828-.346-1.26-.347-.43-1.004-.43-.828 0-1.736.669l-.124-.522H37.11v5.798h1.555v-4.493q.42-.273.77-.273.33 0 .467.227.136.228.136.726v3.813zm-7.125-2.893q0-.964-.187-1.42-.187-.452-.606-.453-.42 0-.608.454-.187.455-.187 1.419 0 .965.186 1.412.188.449.608.449t.607-.45q.188-.446.188-1.411m.942-2.258q.613.794.613 2.258 0 1.452-.613 2.245-.611.795-1.735.795-1.123 0-1.737-.795-.613-.794-.612-2.245 0-1.465.611-2.258.615-.794 1.738-.794 1.124 0 1.736.794m-8.815 5.15h4.028v-1.191h-2.395l2.348-3.505V9.34h-3.892v1.19h2.258l-2.347 3.507zm-2.361-1.304V12.72a2 2 0 0 0-.59-.08q-.328 0-.504.21-.178.211-.177.607 0 .341.142.539a.44.44 0 0 0 .38.198q.375 0 .749-.362m-.465 1.266a1.6 1.6 0 0 1-.737.186q-.705.001-1.111-.46-.41-.458-.41-1.264 0-.852.5-1.345.499-.494 1.35-.493.35 0 .872.136v-.522q0-.59-.152-.8-.153-.21-.572-.21-.683 0-1.668.363V9.657q.327-.214.861-.34a4.8 4.8 0 0 1 1.09-.124q.986 0 1.43.448.441.448.442 1.435v4.062h-1.203l-.135-.522a1.45 1.45 0 0 1-.556.483m-3.358.039v-4.255q0-.817-.34-1.254-.342-.436-.977-.436-.794 0-1.724.692-.33-.692-1.134-.692-.796 0-1.702.669l-.126-.522h-1.27v5.798h1.555v-4.493q.42-.273.737-.273.306 0 .438.227.13.228.13.716v3.823h1.554V10.77a.6.6 0 0 0-.011-.125q.42-.273.749-.273.305 0 .437.227.129.228.13.716v3.823zm-10.403-3.006-.715-3.257-.692 3.257zm2.394 3.006h-1.747l-.41-1.872H8.364l-.397 1.872H6.297l2.178-7.862h1.758zm31.6 14.868V26.47c-1.73.943-4.354 1.432-6.966 1.432s-5.235-.49-6.965-1.432v3.535c0 .629 2.37 2.104 6.965 2.104 4.596 0 6.966-1.475 6.966-2.104m0 6.098v-3.426c-1.73.943-4.354 1.432-6.966 1.432s-5.235-.49-6.965-1.432v3.426c0 .629 2.37 2.103 6.965 2.103 4.596 0 6.966-1.474 6.966-2.103m0 5.444v-2.772c-1.73.943-4.354 1.43-6.966 1.43s-5.235-.487-6.965-1.43v2.772c0 .629 2.37 2.104 6.965 2.104 4.596 0 6.966-1.475 6.966-2.104m-13.93-17.75c0 .63 2.369 2.105 6.964 2.105s6.966-1.475 6.966-2.104c0-.63-2.37-2.104-6.966-2.104s-6.965 1.475-6.965 2.104m15.93 0v17.75c0 2.694-4.51 4.104-8.966 4.104s-8.965-1.41-8.965-4.104v-17.75c0-2.693 4.51-4.102 8.965-4.102 4.456 0 8.966 1.409 8.966 4.103M7.755 43.893h19.682v2H7.755A5.76 5.76 0 0 1 2 40.138V7.755A5.76 5.76 0 0 1 7.755 2h32.381a5.76 5.76 0 0 1 5.755 5.755v12.7h-2v-12.7A3.76 3.76 0 0 0 40.138 4H7.755A3.76 3.76 0 0 0 4 7.755v32.383a3.76 3.76 0 0 0 3.754 3.754"/></svg>