<svg xmlns="http://www.w3.org/2000/svg" viewBox="0 0 48 48"><title>Icon-Resource/Database/Res_Amazon-Aurora-MariaDB-Instance-Alternate_48</title><path fill="#c925d1" fill-rule="evenodd" d="M40.187 14.362q-.225.284-.64.284h-.874v-2.25h.787q.459 0 .705.296.246.295.246.84-.001.546-.224.83m-1.514-5.1h.71a.61.61 0 0 1 .532.28q.19.277.19.78 0 .491-.218.765a.73.73 0 0 1-.6.272h-.614zm2.011 2.501q.436-.206.665-.611.23-.404.231-.972-.001-.896-.58-1.453-.579-.556-1.485-.556h-2.282v7.567h2.348q1.058 0 1.692-.579.634-.578.634-1.55 0-.698-.312-1.169-.312-.469-.911-.677m-6.311.295q-.002 1.278-.35 1.895-.35.616-1.06.616h-.644v-5.23h.634q.731 0 1.075.606.344.605.345 1.895zm-1.301-3.887h-2.281v7.567h2.335q1.377 0 2.098-.961t.72-2.828q0-1.856-.732-2.817-.731-.961-2.14-.961m-5.023 6.311q-.36.35-.72.35a.43.43 0 0 1-.367-.192q-.135-.19-.136-.518 0-.382.17-.584.168-.202.485-.202.328 0 .568.076zm-.425-4.466q-.537 0-1.049.119-.513.121-.83.329v.994q.95-.35 1.605-.35.404 0 .552.201.146.202.147.771v.503a3.4 3.4 0 0 0-.841-.132q-.819 0-1.299.475-.481.476-.481 1.294 0 .775.394 1.218.392.441 1.069.442.362 0 .71-.18.35-.18.535-.464l.131.502h1.158v-3.909q0-.95-.426-1.382-.426-.43-1.375-.431m-4.805 5.722h1.495v-5.58h-1.495zm1.386-7.923q.241.225.241.607 0 .383-.241.606-.24.223-.633.224-.405-.001-.644-.224-.24-.223-.24-.606 0-.382.24-.607.239-.223.644-.224.393.001.633.224m-2.445 2.288q.174.001.349.032v1.323a3.3 3.3 0 0 0-.579-.055q-.524 0-.993.262v4.073h-1.496v-5.58h1.223l.163.721q.328-.405.651-.589.32-.187.682-.187m-5.362 4.379q-.359.35-.721.35a.43.43 0 0 1-.365-.192q-.137-.19-.136-.518 0-.382.169-.584.17-.202.486-.202.327 0 .567.076zm-.426-4.466q-.534 0-1.048.119-.512.121-.83.329v.994q.95-.35 1.606-.35.404 0 .55.201.149.202.148.771v.503a3.4 3.4 0 0 0-.84-.132q-.819 0-1.3.475-.48.476-.48 1.294 0 .775.392 1.218.394.441 1.071.442.36 0 .71-.18.349-.18.535-.464l.131.502h1.157v-3.909q0-.95-.426-1.382-.425-.43-1.376-.431m-5.077-1.845h1.703v7.567h-1.365v-5.307l-1.277 3.44H8.657l-1.268-3.407v5.274H6.025V8.171h1.747l1.561 4.237zm33.037 31.313a4.453 4.453 0 0 1-4.448 4.448H8.448A4.453 4.453 0 0 1 4 39.484V8.448A4.453 4.453 0 0 1 8.448 4h31.036a4.453 4.453 0 0 1 4.448 4.448zM39.484 2H8.448A6.455 6.455 0 0 0 2 8.448v31.036a6.455 6.455 0 0 0 6.448 6.448h31.036a6.455 6.455 0 0 0 6.448-6.448V8.448A6.455 6.455 0 0 0 39.484 2"/></svg>