<svg xmlns="http://www.w3.org/2000/svg" viewBox="0 0 48 48"><title>Icon-Resource/Management-Governance/Res_Amazon-CloudWatch_Event-Event-Based_48</title><path fill="#e7157b" fill-rule="evenodd" d="M34.522 40.526h6.756V19.76h-6.756zm-1-22.766a1 1 0 0 0-1 1v22.766a1 1 0 0 0 1 1h8.756a1 1 0 0 0 1-1V18.76a1 1 0 0 0-1-1zM32.77 4.417c0-.23.188-.417.418-.417h9.424c.23 0 .417.187.417.417v9.424c0 .23-.187.417-.417.417h-9.424a.42.42 0 0 1-.418-.417zm.418 11.841h9.424a2.42 2.42 0 0 0 2.417-2.417V4.417A2.42 2.42 0 0 0 42.612 2h-9.424a2.42 2.42 0 0 0-2.418 2.417v9.424a2.42 2.42 0 0 0 2.418 2.417M2 46.029h43.78v-2H2zm18.512-5.503h6.756V27.641h-6.756zm-1 2h8.756a1 1 0 0 0 1-1V26.641a1 1 0 0 0-1-1h-8.756a1 1 0 0 0-1 1v14.885a1 1 0 0 0 1 1m-13.009-2h6.756V23.263H6.503zm-1 2h8.756a1 1 0 0 0 1-1V22.263a1 1 0 0 0-1-1H5.503a1 1 0 0 0-1 1v19.263a1 1 0 0 0 1 1"/></svg>