<svg xmlns="http://www.w3.org/2000/svg" viewBox="0 0 48 48"><title>Icon-Resource/Storage/Res_Amazon-File-Cache_On-premises-NFS-linked-datasets_48</title><path fill="#7aa116" fill-rule="evenodd" d="M18 31c0-1.654-1.346-3-3-3v-2c2.757 0 5 2.243 5 5s-2.243 5-5 5h-2c-2.757 0-5-2.243-5-5h2c0 1.654 1.346 3 3 3h2c1.654 0 3-1.346 3-3M4 31c0 1.654 1.346 3 3 3v2c-2.757 0-5-2.243-5-5s2.243-5 5-5h2c2.757 0 5 2.243 5 5h-2c0-1.654-1.346-3-3-3H7c-1.654 0-3 1.346-3 3m28-8h2v-2h-2zm6 0h2v-2h-2zM20 9h2V7h-2zm-6 0h2V7h-2zm-1 7h28v-2H13zm-3-4h34V4H10zm24 32h7v-2h-7zm-21 0h7v-2h-7zm31.082-30A1.92 1.92 0 0 0 46 12.083V3.917A1.92 1.92 0 0 0 44.082 2H10c-1.103 0-2 .897-2 2v8.083A1.92 1.92 0 0 0 9.918 14H11v2H9.918A1.92 1.92 0 0 0 8 17.917V24h2v-6h34v8H22v2h19v2H22v2h22v8H10v-2H8v2c0 1.103.897 2 2 2h1v3a1 1 0 0 0 1 1h9a1 1 0 0 0 1-1v-3h10v3a1 1 0 0 0 1 1h9a1 1 0 0 0 1-1v-3h1c1.103 0 2-.897 2-2v-8c0-1.103-.897-2-2-2h-1v-2h1.082A1.92 1.92 0 0 0 46 26.083V18c0-1.103-.897-2-2-2h-1v-2z"/></svg>