<svg xmlns="http://www.w3.org/2000/svg" viewBox="0 0 48 48"><title>Icon-Resource/Database/Res_Amazon-DynamoDB_Item_48</title><path fill="#c925d1" fill-rule="evenodd" d="M30.18 12.6a5.115 5.115 0 0 1 5.11-5.109 5.115 5.115 0 0 1 5.109 5.108 5.115 5.115 0 0 1-5.11 5.11 5.115 5.115 0 0 1-5.108-5.11m-2 0a7.117 7.117 0 0 0 7.11 7.108 7.117 7.117 0 0 0 7.109-7.109c0-3.92-3.19-7.108-7.11-7.108S28.182 8.68 28.182 12.6M4 43.89h17.2v-17.2H4zm-2 2h21.2v-21.2H2zm24.69-2h17.2v-17.2h-17.2zm-2 2h21.2v-21.2h-21.2zM4 21.197h17.199V4h-17.2zM2 23.2h21.199V2h-21.2zm24.69-2h17.2V4h-17.2zm-2 2h21.2v-21.2h-21.2z"/></svg>