<svg xmlns="http://www.w3.org/2000/svg" viewBox="0 0 48 48"><title>Icon-Resource/Application-Integration/Res_Amazon-Simple-Notification-Service_Topic_48</title><path fill="#e7157b" fill-rule="evenodd" d="M44 38.5h2v-2h-2zm2-5.5v1.5h-2V34h-.5v-2H45a1 1 0 0 1 1 1m-32.5 1h3v-2h-3zm24 0h3v-2h-3zm-18 0h3v-2h-3zm-12 0h3v-2h-3zm24 0h3v-2h-3zm-6 0h3v-2h-3zM3 32h1.5v2H4v.5H2V33a1 1 0 0 1 1-1m-1 6.5h2v-2H2zM4 41h.5v2H3a1 1 0 0 1-1-1v-1.5h2zm15.5 2h3v-2h-3zm12 0h3v-2h-3zm6 0h3v-2h-3zm-30 0h3v-2h-3zm18 0h3v-2h-3zm-12 0h3v-2h-3zM44 40.5h2V42a1 1 0 0 1-1 1h-1.5v-2h.5zm0-15h2v-2h-2zm2-5.5v1.5h-2V21h-.5v-2H45a1 1 0 0 1 1 1m-14.5 1h3v-2h-3zm-24 0h3v-2h-3zm30 0h3v-2h-3zm-24 0h3v-2h-3zm6 0h3v-2h-3zm6 0h3v-2h-3zM3 19h1.5v2H4v.5H2V20a1 1 0 0 1 1-1m-1 6.5h2v-2H2zM4 28h.5v2H3a1 1 0 0 1-1-1v-1.5h2zm15.5 2h3v-2h-3zm12 0h3v-2h-3zm-24 0h3v-2h-3zm6 0h3v-2h-3zm24 0h3v-2h-3zm-12 0h3v-2h-3zM44 27.5h2V29a1 1 0 0 1-1 1h-1.5v-2h.5zM4 15h40V7H4zM45 5H3a1 1 0 0 0-1 1v10a1 1 0 0 0 1 1h42a1 1 0 0 0 1-1V6a1 1 0 0 0-1-1"/></svg>