<svg xmlns="http://www.w3.org/2000/svg" viewBox="0 0 48 48"><title>Icon-Resource/Business-Applications/Res_Amazon-Simple-Email-Service_Email_48</title><path fill="#dd344c" fill-rule="evenodd" d="M10.303 14.313a5 5 0 0 0-.038.661v.156q0 .082.02.174-.423.46-.957.46-.918 0-.918-1.874 0-1.58.451-2.609.45-1.028 1.111-1.029.367 0 .845.332zm-5.034 5.86Q6.628 21 8.54 21q1.561 0 2.792-.625v-1.617q-1.34.495-2.572.496-2.02 0-3.113-1.314-1.094-1.312-1.093-3.81 0-2.076.716-3.739.715-1.663 2.04-2.655a4.83 4.83 0 0 1 2.975-.99q2.13 0 3.243 1.201 1.11 1.204 1.111 3.518 0 1.121-.249 2.095-.247.974-.697 1.607-.45.634-.947.634a.48.48 0 0 1-.403-.193q-.148-.193-.147-.524-.001-.293.037-.514l.79-5.713h-1.709l-.22.643q-.68-.918-1.673-.918-.807 0-1.552.707-.744.707-1.22 1.983-.48 1.278-.479 2.82 0 1.617.588 2.48.587.864 1.727.864.532 0 1.112-.275a3.3 3.3 0 0 0 1.02-.754q.291.479.79.734.496.258 1.137.258 1.084 0 1.994-.735.909-.734 1.442-2.094t.533-3.123q0-2.002-.717-3.444a5.1 5.1 0 0 0-2.103-2.223Q12.305 5 10.358 5a7.2 7.2 0 0 0-3.94 1.14Q4.626 7.275 3.56 9.361q-1.065 2.085-1.066 4.804 0 2.132.707 3.655.708 1.525 2.067 2.352M23.354 31.98a1 1 0 0 0 1.281 0l3.033-2.527 14.557 12.131H5.763l14.56-12.132zm5.877-3.83L43.99 15.852v24.596zM44.99 12.716H18.545v2h23.68L23.995 29.91l-10.627-8.86-1.28 1.534 6.671 5.565L4 40.45V22.07H2v20.514a1 1 0 0 0 1 1h41.99a1 1 0 0 0 1-1V13.716a1 1 0 0 0-1-1"/></svg>