<svg xmlns="http://www.w3.org/2000/svg" viewBox="0 0 48 48"><title>Icon-Resource/Storage/Res_Amazon-Simple-Storage-Service_S3-Glacier-Instant-Retrieval_48</title><path fill="#7aa116" fill-rule="evenodd" d="M8.172 21.129a1 1 0 0 1 .99 1.147 289 289 0 0 0-.692 4.915 291 291 0 0 0 2.004-3.354l2.954-5.709-2.339.001a1 1 0 0 1-.959-1.284l1.99-6.716H5.526l-1.49 11zm-1.069 11a1.03 1.03 0 0 1-.769-.353c-.34-.396-.505-.585.68-8.647H3.776c-.49 0-1.016-.238-1.34-.606a1.73 1.73 0 0 1-.427-1.338L3.563 9.764c.094-.874.905-1.635 1.767-1.635h7.102c.575 0 1.115.282 1.446.755.326.468.408 1.069.22 1.609l-1.67 5.636h1.512c.478-.036.99.186 1.325.578.338.392.466.926.352 1.464a1 1 0 0 1-.09.252l-3.304 6.382c-4.31 7.324-4.418 7.324-5.12 7.324m38.736 4.306-1.396-1.432-2.18 2.126h-3.149l1.621-2.812 2.856-.765-.518-1.931-2.317.62-.582-2.284-1.938.493.741 2.912-1.58 2.741-1.609-2.782.766-2.859-1.932-.517-.62 2.317-2.27-.638-.54 1.925 2.888.813 1.601 2.767h-3.205l-2.116-2.117-1.415 1.414 1.697 1.697-1.688 1.646 1.397 1.431 2.123-2.071h3.175l-1.595 2.758-2.852.764.518 1.932 2.317-.621.582 2.284 1.938-.493-.742-2.917 1.582-2.735 1.607 2.786-.765 2.854 1.932.517.621-2.317 2.27.638.541-1.925-2.895-.814-1.563-2.711h3.226l2.063 2.062 1.414-1.414-1.697-1.696zm-4.235-12.006-.29 1.639c1.755.44 2.526.411 2.826.355-.18-.277-.762-.921-2.536-1.994M8.238 6.992l-.92-1.774C11.137 3.233 17.474 2 23.855 2c9.4 0 19.872 2.9 19.872 7.063a1 1 0 0 1-.009.132l-.052.388q-.006.034-.013.068l-1.703 12.666c2.695 1.535 4.021 2.752 4.237 3.904a1.76 1.76 0 0 1-.388 1.475c-.425.507-1.092.759-2.08.759-.919.001-2.115-.217-3.654-.649-4.752-1.323-11.538-4.398-14.902-5.985a2 2 0 0 1-1.054.308c-1.103 0-2-.897-2-2s.897-2 2-2c1.076 0 1.95.856 1.992 1.923 2.735 1.286 8.73 4.016 13.28 5.46l.503-2.834 1.4-10.409c-3.615 2.106-10.69 3.197-17.429 3.197-2.859 0-5.763-.201-8.399-.582l.285-1.979c2.544.367 5.35.561 8.114.561 10.278 0 17.262-2.441 17.838-4.22l.032-.235C41.587 7.222 34.258 4 23.856 4 17.868 4 11.738 5.174 8.238 6.992m21.427 36.639.254 1.984A48 48 0 0 1 23.86 46c-5.988 0-15.463-1.371-15.594-5.044l-.969-7.206 1.982-.267.977 7.262q.01.067.01.134C10.265 41.832 15.4 44 23.86 44c1.942 0 3.895-.124 5.805-.369"/></svg>