<svg xmlns="http://www.w3.org/2000/svg" viewBox="0 0 48 48"><title>Icon-Resource/Containers/Res_Amazon-Elastic-Container-Service_Container-2_48</title><path fill="#ed7100" fill-rule="evenodd" d="M18.863 29.233h10.239V18.994H18.863zm-1.126 1.781v1.843h2v-1.623h1.497v1.623h2v-1.623h1.497v1.623h2v-1.623h1.497v1.623h2v-1.843c.274-.153.5-.379.654-.654h1.843v-2h-1.623v-1.497h1.623v-2h-1.623v-1.498h1.623v-2h-1.623v-1.497h1.623v-2h-1.843a1.7 1.7 0 0 0-.654-.654v-1.843h-2v1.623h-1.497v-1.623h-2v1.623h-1.497v-1.623h-2v1.623h-1.497v-1.623h-2v1.843c-.276.153-.501.38-.655.654H15.24v2h1.623v1.497H15.24v2h1.623v1.498H15.24v2h1.623v1.497H15.24v2h1.842c.154.275.379.501.655.654m21.856 2.717h2V14.498h-2zm-5.246 0h2V14.498h-2zm-22.731 0h2V14.498h-2zm-5.245 0h2V14.498h-2zM4 36.228h39.964V12H4zM44.964 10H3a1 1 0 0 0-1 1v26.228a1 1 0 0 0 1 1h41.964a1 1 0 0 0 1-1V11a1 1 0 0 0-1-1"/></svg>