<svg xmlns="http://www.w3.org/2000/svg" viewBox="0 0 48 48"><title>Icon-Resource/Machine-Learning/Res_Amazon-Textract_Analyze-Lending_48</title><path fill="#01a88d" fill-rule="evenodd" d="M12 34c4.411 0 8-3.589 8-8s-3.589-8-8-8-8 3.589-8 8 3.589 8 8 8m8.338-2.491a10.1 10.1 0 0 1-2.829 2.828l5.077 5.077c.756.755 2.072.755 2.828 0 .378-.378.586-.88.586-1.414s-.208-1.037-.586-1.415zM12 36C6.486 36 2 31.514 2 26s4.486-10 10-10 10 4.486 10 10a9.9 9.9 0 0 1-.698 3.645l5.526 5.526A3.98 3.98 0 0 1 28 38a3.97 3.97 0 0 1-1.172 2.828A3.98 3.98 0 0 1 24 42a3.98 3.98 0 0 1-2.828-1.172l-5.526-5.526A9.9 9.9 0 0 1 12 36m17-10h7v-2h-7zm-5-5h12v-2H24zm6 15h6v-2h-6zm-3-5h9v-2h-9zm7-17h3.586L34 10.414zm6.707.293A1 1 0 0 1 41 15v30a1 1 0 0 1-1 1H12a1 1 0 0 1-1-1v-7h2v6h26V16h-6a1 1 0 0 1-1-1V9H13v5h-2V8a1 1 0 0 1 1-1h21c.266 0 .52.105.707.293zM46 12v28a1 1 0 0 1-1 1h-2v-2h1V12.414L35.586 4H18v1h-2V3a1 1 0 0 1 1-1h19c.266 0 .52.105.707.293l9 9A1 1 0 0 1 46 12"/></svg>