<svg xmlns="http://www.w3.org/2000/svg" viewBox="0 0 48 48"><title>Icon-Resource/Storage/Res_Amazon-Elastic-File-System_One-Zone_48</title><path fill="#7aa116" fill-rule="evenodd" d="M40 9a1.001 1.001 0 0 0-2 0 1.001 1.001 0 0 0 2 0m2 0c0 1.654-1.346 3-3 3s-3-1.346-3-3 1.346-3 3-3 3 1.346 3 3m1.992-.167c.069-1.283-.333-2.422-1.159-3.293C41.904 4.561 40.508 4 39 4c-1.419 0-2.785.58-3.749 1.592-.861.904-1.304 2.056-1.246 3.245.116 2.397 3.099 6.405 4.928 8.568.472-.636 1.141-1.53 1.921-2.544l.496-.661c.697-.953 1.274-1.851 1.707-2.661l.297-.589c.39-.824.608-1.544.638-2.117m1.998.105c-.045.847-.319 1.792-.839 2.89l-.314.622-.011.021c-.477.896-1.106 1.878-1.87 2.92l-.51.679c-1.533 1.996-2.633 3.513-2.636 3.517a1 1 0 0 1-.752.412L39 20c-.279 0-.547-.117-.737-.324-.619-.676-6.061-6.718-6.256-10.742-.084-1.741.554-3.417 1.796-4.722A7.2 7.2 0 0 1 39 2c2.054 0 3.979.789 5.283 2.163 1.214 1.279 1.804 2.931 1.707 4.775M14.885 18c0-.512.388-2.305.69-3h6.279c.249.71.492 2.408.492 3a1 1 0 0 0 1 1H25v-2h-.715c-.13-1.386-.53-3.748-1.761-3.982a1 1 0 0 0-.187-.018h-7.179c-1.379 0-1.949 2.541-2.161 4H12v2h1.885a1 1 0 0 0 1-1M31 19h4v-2h-4zm11.592.592c.266.364.408.919.408 1.607V44H4V21.199C4 19.555 4.544 19 6.154 19v-2C3.437 17 2 18.452 2 21.199V45a1 1 0 0 0 1 1h41a1 1 0 0 0 1-1V21.199c0-1.133-.269-2.072-.797-2.791zM33 37.5c0 1.378 1.121 2.5 2.5 2.5s2.5-1.122 2.5-2.5-1.121-2.5-2.5-2.5a2.503 2.503 0 0 0-2.5 2.5m2.5-4.5c2.481 0 4.5 2.019 4.5 4.5S37.981 42 35.5 42a4.505 4.505 0 0 1-4.5-4.5c0-2.481 2.019-4.5 4.5-4.5m-10.158 3-1.866-3.537L21.645 36zm-.989-6.162 3.532 6.695A1.003 1.003 0 0 1 27 38h-7a1 1 0 0 1-.888-1.46l3.468-6.695a1 1 0 0 1 .884-.54h.004c.371 0 .711.205.885.533M10 40h4v-4h-4zm5-6a1 1 0 0 1 1 1v6a1 1 0 0 1-1 1H9a1 1 0 0 1-1-1v-6a1 1 0 0 1 1-1zm9.293-11.293 3 3a.997.997 0 0 0 1.414 0l3-3-1.414-1.414L29 22.586V13h-2v9.586l-1.293-1.293zM18 5.415V11h2V5.414l1.293 1.293 1.414-1.414-2.999-3a.996.996 0 0 0-1.414 0l-3.001 3 1.414 1.414zM6.707 22.293 8 23.586V16h2v7.586l1.293-1.293 1.414 1.414-3 3a.997.997 0 0 1-1.414 0l-3-3z"/></svg>