<svg xmlns="http://www.w3.org/2000/svg" viewBox="0 0 48 48"><title>Icon-Resource/Quantum-Technologies/Res_Amazon-Braket_Simulator-1_48</title><path fill="#ed7100" fill-rule="evenodd" d="M39 39.94a.06.06 0 0 1-.061.06L8 39.94 8.061 9 39 9.06zM46 11V9h-5v.06C41 7.924 40.075 7 38.939 7H39V2h-2v5h-5V2h-2v5h-5V2h-2v5h-5V2h-2v5h-5V2H9v5h-.939a2.06 2.06 0 0 0-2.055 2H2v2h4v5H2v2h4v5H2v2h4v5H2v2h4v5H2v2h4v.94C6 41.076 6.925 42 8.061 42H9v4h2v-4h5v4h2v-4h5v4h2v-4h5v4h2v-4h5v4h2v-4.006a2.06 2.06 0 0 0 2-2.054V39h5v-2h-5v-5h5v-2h-5v-5h5v-2h-5v-5h5v-2h-5v-5zM20.742 29.085c.203.122.404.248.608.365.206.119.412.229.619.343q-.532.209-1.04.385-.102-.528-.187-1.093m-3.187-4.747q.413-.357.86-.71c-.005.238-.014.478-.014.716 0 .235.009.472.013.708q-.45-.359-.859-.714m-3.84-6.104c.462-.801 2.448-1 5.295-.296a31 31 0 0 0-.445 3.086 31 31 0 0 0-2.471 1.932c-2.024-2.109-2.84-3.923-2.379-4.722m8.254.661c-.206.114-.413.223-.619.342s-.405.244-.607.366q.084-.566.186-1.093.508.175 1.04.385m5.703-.396q.104.54.187 1.108c-.204-.124-.405-.25-.613-.37-.206-.119-.418-.231-.627-.346a26 26 0 0 1 1.053-.392m3.158-.842c2.088-.356 3.641-.134 4.05.577.411.711-.174 2.166-1.526 3.796-.256.31-.544.622-.844.933a31 31 0 0 0-2.473-1.934 31 31 0 0 0-.438-3.107c.42-.104.834-.197 1.231-.265m-.637 6.687c0-.241-.008-.478-.012-.717q.448.356.867.717-.419.36-.868.717c.005-.24.013-.479.013-.717m-7.843 3.374a35 35 0 0 1-1.873-1.168 35 35 0 0 1-.076-2.206c0-.768.031-1.5.076-2.208a34 34 0 0 1 3.819-2.205 34 34 0 0 1 1.95 1.039c.649.374 1.272.766 1.874 1.166.046.722.073 1.458.073 2.208 0 .768-.03 1.5-.075 2.209-.601.4-1.224.791-1.872 1.165a34 34 0 0 1-1.951 1.039 34 34 0 0 1-1.945-1.039m5.314 2.469a27 27 0 0 1-1.049-.392c.21-.115.424-.225.631-.345.206-.118.404-.243.606-.364q-.086.569-.188 1.101m-3.366 6.377c-.925 0-2.09-1.62-2.904-4.436a31 31 0 0 0 2.901-1.158c.982.452 1.956.85 2.902 1.172-.814 2.808-1.977 4.422-2.899 4.422m-12.167-8.797c-.845 1.797-.547 2.996-.149 3.687.703 1.215 2.136 1.733 3.966 1.733 1.064 0 2.267-.188 3.531-.503.976 3.412 2.599 5.88 4.819 5.88 2.215 0 3.836-2.458 4.812-5.86.454.113.902.214 1.332.289l.342-1.97a18 18 0 0 1-1.201-.261c.198-.994.344-2.037.446-3.098a31 31 0 0 0 2.481-1.94c.3.312.588.624.844.934 1.352 1.63 1.937 3.084 1.526 3.796-.255.442-.912.619-1.419.69l.279 1.981c1.715-.242 2.509-1.042 2.872-1.671.878-1.521.269-3.678-1.718-6.073a20 20 0 0 0-.939-1.037c.333-.346.652-.692.939-1.037 1.987-2.395 2.596-4.552 1.718-6.073s-3.05-2.071-6.118-1.548c-.442.075-.902.179-1.368.295a19 19 0 0 0-.431-1.336l-1.875.695c.141.379.268.785.388 1.202-.951.324-1.931.723-2.919 1.178a31 31 0 0 0-2.895-1.159c.814-2.817 1.979-4.437 2.904-4.437.498 0 .971.461 1.279.848l1.563-1.248c-1.056-1.323-2.128-1.6-2.842-1.6-2.22 0-3.842 2.466-4.819 5.876-3.441-.859-6.387-.686-7.497 1.234-1.107 1.919.211 4.552 2.668 7.098a20 20 0 0 0-.913 1.005l1.535 1.283a17 17 0 0 1 .825-.908 31 31 0 0 0 2.467 1.942c.102 1.06.248 2.103.446 3.096-2.848.703-4.834.504-5.295-.296-.306-.529.011-1.377.226-1.835z"/></svg>