<svg xmlns="http://www.w3.org/2000/svg" viewBox="0 0 48 48"><title>Icon-Resource/Analytics/Res_Amazon-Athena_Data-Source-Connectors_48</title><path fill="#8c4fff" fill-rule="evenodd" d="M4.984 24.002A.995.995 0 0 0 4 25c0 .551.448 1 1 1h8c.551 0 1-.449 1-1s-.449-1-1-1a1 1 0 0 1-1-1c0-.551-.449-1-1-1-.447.041-.971-.219-1.122-.652A2 2 0 0 0 8 20c-1.103 0-2 .897-2 2 0 .217.042.439.129.677a1.002 1.002 0 0 1-1.142 1.325zM13 28H5c-1.655 0-3-1.346-3-3 0-1.305.838-2.418 2.004-2.83A4.004 4.004 0 0 1 8 18c1.451 0 2.771.795 3.471 2.037a3.01 3.01 0 0 1 2.4 2.092A3.01 3.01 0 0 1 16 25c0 1.654-1.346 3-3 3m16 16c-1.385 0-2-.403-2-.556v-1.737A6.5 6.5 0 0 0 29 42c.75 0 1.422-.122 2.003-.325l.003 1.73c-.079.175-.767.595-2.006.595m0-5c1.171 0 1.796.298 1.971.457-.17.194-.842.543-1.971.543-1.298 0-1.913-.35-2-.456v-.039c.12-.147.768-.505 2-.505m4 .444C33 37.982 31.392 37 29 37s-4 .982-4 2.444c0 .019.006.037.007.056H25v3.944C25 44.997 26.57 46 29 46c2.317 0 4-1.075 4-2.556V39.5h-.008c0-.019.008-.037.008-.056M29 9c-1.385 0-2-.403-2-.556V6.707A6.5 6.5 0 0 0 29 7c.75 0 1.422-.122 2.003-.325l.003 1.73C30.927 8.58 30.239 9 29 9m0-5c1.171 0 1.796.298 1.971.457-.17.194-.842.543-1.971.543-1.298 0-1.913-.35-2-.456v-.039c.12-.147.768-.505 2-.505m4 .444C33 2.982 31.392 2 29 2s-4 .982-4 2.444c0 .019.006.037.007.056H25v3.944C25 9.997 26.57 11 29 11c2.317 0 4-1.075 4-2.556V4.5h-.008c0-.019.008-.037.008-.056M29 19c2.756 0 5 2.243 5 5s-2.244 5-5 5c-2.757 0-5-2.243-5-5s2.243-5 5-5m0 12c3.859 0 7-3.14 7-7s-3.141-7-7-7c-3.519 0-6.433 2.613-6.92 6H17v2h5.08c.487 3.387 3.401 6 6.92 6m14.535 7.535a1.59 1.59 0 0 1-2.246 0l-5.728-5.727a11 11 0 0 0 2.246-2.246l5.728 5.727c.3.299.465.698.465 1.123 0 .424-.165.823-.465 1.123m1.414-3.66-6.07-6.07A10.9 10.9 0 0 0 40 24c0-6.065-4.935-11-11-11-5.025 0-9.264 3.39-10.574 8h2.099c1.239-3.49 4.565-6 8.475-6 4.963 0 9 4.038 9 9s-4.037 9-9 9c-3.91 0-7.236-2.51-8.475-6h-2.099c1.31 4.61 5.549 8 10.574 8 1.724 0 3.351-.41 4.805-1.12l6.07 6.07a3.58 3.58 0 0 0 2.537 1.048c.919 0 1.838-.35 2.537-1.049a3.59 3.59 0 0 0 0-5.074M12.462 33.36c-.34-.6-.652-1.227-.926-1.863l1.838-.79c.244.569.523 1.129.828 1.667zm2.47 3.412a19 19 0 0 1-1.33-1.637l1.619-1.174c.369.509.77 1.002 1.192 1.466zm3.159 2.786a20 20 0 0 1-1.656-1.305l1.322-1.501c.47.414.97.808 1.485 1.17zm3.697 2.025a19 19 0 0 1-1.905-.909l.959-1.755c.553.303 1.126.576 1.705.814zM20.42 9.321l-1.012-1.726a19 19 0 0 1 1.878-.964l.812 1.828a17 17 0 0 0-1.678.862m-3.023 2.254-1.365-1.461a19 19 0 0 1 1.62-1.353l1.193 1.604c-.5.372-.987.78-1.448 1.21m-2.456 2.863-1.652-1.126a19 19 0 0 1 1.283-1.676l1.517 1.303c-.409.477-.795.981-1.148 1.499m-1.764 3.331-1.861-.733c.257-.653.554-1.298.884-1.918l1.765.937a17 17 0 0 0-.788 1.714"/></svg>