<svg xmlns="http://www.w3.org/2000/svg" viewBox="0 0 48 48"><title>Icon-Resource/Machine-Learning/Res_Amazon-SageMaker_Shadow-Testing_48</title><path fill="#01a88d" fill-rule="evenodd" d="m24 36.586-3.293-3.293-1.414 1.414 4 4a.997.997 0 0 0 1.414 0l8-8-1.414-1.414zm19.587 3.847L31.162 22.57a1 1 0 0 1-.179-.571V7a1 1 0 0 1 1-1H32a1.001 1.001 0 0 0 0-2H22a1.001 1.001 0 0 0 0 2 1 1 0 0 1 1 1v15a1 1 0 0 1-.179.57L10.396 40.434a2.23 2.23 0 0 0-.149 2.348A2.24 2.24 0 0 0 12.26 44h29.464c.861 0 1.613-.456 2.012-1.22a2.23 2.23 0 0 0-.149-2.347M8.275 40.21a4.3 4.3 0 0 1 .478-.92L14 31.75V8.999a1 1 0 0 1 1-1 1.001 1.001 0 0 0 0-2H5a1.001 1.001 0 0 0 0 2 1 1 0 0 1 1 1v28.204c0 1.399.948 2.625 2.275 3.007m37.234 3.497A4.26 4.26 0 0 1 41.724 46H12.26a4.26 4.26 0 0 1-3.785-2.292 4.3 4.3 0 0 1-.451-1.49A5.16 5.16 0 0 1 4 37.204V9.829a3.01 3.01 0 0 1-2-2.83c0-1.653 1.346-3 3-3h10c1.654 0 3 1.347 3 3a3.01 3.01 0 0 1-2 2.83v19.045l5-7.187V7.829a3.01 3.01 0 0 1-2-2.83c0-1.653 1.346-3 3-3h10c1.654 0 3 1.347 3 3 0 1.31-.844 2.427-2.017 2.836v13.852L45.229 39.29a4.26 4.26 0 0 1 .28 4.416M7.009 22.59l1.584-1.584-1.584-1.585 1.414-1.414 1.584 1.585 1.584-1.585 1.414 1.414-1.584 1.585 1.584 1.584-1.414 1.414-1.584-1.584-1.584 1.584z"/></svg>