<svg xmlns="http://www.w3.org/2000/svg" viewBox="0 0 48 48"><title>Icon-Resource/Database/Res_Amazon-Aurora-Instance_48</title><path fill="#c925d1" fill-rule="evenodd" d="M43.954 41.606v-2.717c-1.793.938-4.45 1.372-6.866 1.372-2.433 0-5.08-.436-6.866-1.372v2.717c0 .807 2.673 2.349 6.866 2.349s6.866-1.542 6.866-2.349M30.222 24.415c0 .615 2.336 2.059 6.866 2.059s6.866-1.444 6.866-2.059-2.336-2.06-6.866-2.06-6.866 1.444-6.866 2.06m13.732 2.655c-1.711.925-4.294 1.404-6.866 1.404s-5.155-.479-6.866-1.404v3.262c.538.815 3.092 1.872 6.866 1.872 3.499 0 6.134-.931 6.835-1.806.013-.017.019-.032.03-.048zm-13.732 9.319c.536.817 3.089 1.872 6.866 1.872 3.9 0 6.338-1.085 6.866-1.867v-3.575c-1.638.863-4.1 1.385-6.866 1.385-2.431 0-5.078-.437-6.866-1.372zm15.724-12.048h.008v17.265c0 2.438-3.895 4.349-8.866 4.349-4.972 0-8.866-1.911-8.866-4.349V24.341h.007c.084-2.616 4.495-3.986 8.859-3.986s8.775 1.37 8.858 3.986M27.42 18.695a1.4 1.4 0 0 0-.432-.058q-.24 0-.367.153-.13.154-.13.445 0 .248.105.394a.32.32 0 0 0 .277.145q.273 0 .547-.265zm1.043 1.768h-.877l-.1-.381a1.05 1.05 0 0 1-.405.352 1.2 1.2 0 0 1-.54.138q-.512 0-.811-.337-.299-.335-.298-.926 0-.622.365-.984.363-.36.985-.361.256 0 .638.1v-.383q0-.43-.113-.584-.11-.154-.417-.154-.499 0-1.217.266v-.756q.24-.158.629-.249.388-.092.795-.092.72 0 1.043.328t.323 1.051zm-4.58-3.097q.356-.2.755-.199.206 0 .438.042v-1.005a1.4 1.4 0 0 0-.265-.025q-.273 0-.518.141a1.9 1.9 0 0 0-.492.448l-.125-.548h-.927v4.243h1.134zm-4.223.98q0 .707.137 1.034.136.328.442.328.307 0 .443-.328.137-.327.137-1.034t-.137-1.038q-.137-.333-.443-.332-.306 0-.442.332-.137.331-.137 1.038m-.687 1.644q-.448-.58-.45-1.644.002-1.07.45-1.652.446-.582 1.266-.582t1.267.582.448 1.652q0 1.064-.448 1.644-.447.582-1.267.582t-1.266-.582m-1.972-2.624q.356-.2.754-.199.208 0 .439.042v-1.005a1.4 1.4 0 0 0-.265-.025q-.272 0-.518.141a1.9 1.9 0 0 0-.492.448l-.124-.548h-.928v4.243h1.134zm-5.3-1.146v3.089q0 .614.24.938.24.325.704.325.588 0 1.226-.49l.09.381h.929V16.22h-1.134v3.297q-.274.192-.523.191-.214 0-.306-.174-.09-.174-.091-.582V16.22zm-2.27 2.043-.521-2.384-.505 2.384zM9.6 14.71l1.582 5.753H9.905l-.298-1.37H8.232l-.29 1.37H6.725l1.59-5.753zm22.89-2.55V9.046q0-.606-.252-.922-.255-.315-.733-.315-.605 0-1.268.49l-.091-.382h-.926v4.243h1.133V8.872q.307-.2.564-.2.24 0 .339.166t.1.532v2.79zm-6.361-2.117q0 .705.138 1.034.136.327.443.327.305 0 .442-.327.136-.329.137-1.034 0-.707-.137-1.038-.136-.333-.442-.333-.307 0-.443.333-.138.332-.138 1.038m-.687 1.644q-.447-.581-.447-1.644 0-1.072.447-1.653.447-.582 1.268-.581.82 0 1.266.581.448.581.448 1.653 0 1.063-.448 1.644-.446.58-1.266.581-.82 0-1.268-.581m-.961-.399h-1.747l1.714-2.566v-.805h-2.84v.872h1.649l-1.715 2.566v.805h2.939zm-5.59-.357a.67.67 0 0 0 .104.395.33.33 0 0 0 .277.145q.274 0 .547-.265v-.815a1.4 1.4 0 0 0-.43-.058q-.241 0-.37.154-.127.154-.127.444m.05 1.337q-.512 0-.811-.336-.299-.337-.298-.927-.001-.622.364-.983.364-.362.987-.362.254 0 .636.1v-.382q0-.431-.111-.585t-.418-.153q-.497 0-1.218.265v-.756q.24-.157.629-.249.39-.091.795-.091.721 0 1.043.328.325.327.324 1.051v2.972h-.878l-.1-.382a1.05 1.05 0 0 1-.405.352 1.16 1.16 0 0 1-.54.138m-3.142-3.43q.095.167.095.524v2.798h1.134V9.046q0-.599-.248-.918-.249-.319-.712-.319-.58 0-1.26.506-.24-.506-.828-.506-.578 0-1.242.49l-.091-.382h-.927v4.243h1.134V8.872q.307-.2.539-.2.223 0 .319.166.094.167.095.524v2.798h1.134V8.963a.5.5 0 0 0-.007-.091q.306-.2.545-.2.224 0 .32.166M9.433 9.959 8.91 7.576l-.505 2.383zm1.748 2.201H9.905l-.298-1.37H8.232l-.29 1.37H6.725l1.59-5.754h1.284zm34.773-4.398v12.719h-2V7.762A3.766 3.766 0 0 0 40.192 4H7.762A3.766 3.766 0 0 0 4 7.762v32.431a3.766 3.766 0 0 0 3.762 3.762h19.712v2H7.762A5.77 5.77 0 0 1 2 40.193V7.762A5.77 5.77 0 0 1 7.762 2h32.43a5.77 5.77 0 0 1 5.762 5.762"/></svg>