<svg xmlns="http://www.w3.org/2000/svg" viewBox="0 0 48 48"><title>Icon-Resource/Database/Res_Amazon-RDS_Trusted-Language-Extensions-for-PostgreSQL_48</title><path fill="#c925d1" fill-rule="evenodd" d="M26.033 30h9v-2h-9zm-5.62-4.673q-2.023 0-2.022-2.856 0-1.41.501-2.091.501-.68 1.539-.68 1.002 0 1.886.612v4.352q-.9.663-1.904.663m1.326 3.239q-.578.586-1.852.586-1.258 0-2.84-.527v1.428a6.6 6.6 0 0 0 2.973.697q2.065 0 3.184-1.122t1.119-3.179v-8.058h-1.7l-.17.782q-1.088-1.037-2.566-1.037-1.089 0-1.888.561-.798.56-1.224 1.556-.424.995-.424 2.286 0 1.972.943 3.154.944 1.182 2.524 1.181 1.393 0 2.499-.952v.731q0 1.325-.578 1.913M9.007 20.363a3.5 3.5 0 0 1 2.039-.646q1.088 0 1.607.723t.518 2.218q0 1.514-.526 2.253-.527.738-1.616.739-1.071 0-2.022-.663zm0 5.933q.493.442 1.155.688.663.247 1.377.247 1.121 0 1.955-.595t1.276-1.64q.44-1.046.441-2.406 0-2.04-.96-3.247-.961-1.206-2.575-1.207-.783 0-1.505.289a4.3 4.3 0 0 0-1.317.833l-.188-.867H7v12.155h2.007zM32.033 4.65 36.88 9h-4.847zm7.668 4.194-7.342-6.588A1 1 0 0 0 31.691 2H8.033a1 1 0 0 0-1 1v12h2V4h21v6a1 1 0 0 0 1 1h7v33h-29V34h-2v11a1 1 0 0 0 1 1h31a1 1 0 0 0 1-1V9.588c0-.284-.121-.554-.332-.744"/></svg>