<svg xmlns="http://www.w3.org/2000/svg" viewBox="0 0 48 48"><title>Icon-Resource/Storage/Res_Amazon-Simple-Storage-Service-Glacier_Vault_48</title><path fill="#7aa116" fill-rule="evenodd" d="M26.372 4h7.906l4.172 6.748H26.372zm-1 8.748h14.872a.999.999 0 0 0 .851-1.525l-5.409-8.748a1 1 0 0 0-.85-.475h-9.464a1 1 0 0 0-1 1v8.748a1 1 0 0 0 1 1m-4.5-2H8.794L12.966 4h7.906zm1-8.748h-9.464a1 1 0 0 0-.85.475L6.15 11.223A1 1 0 0 0 7 12.748h14.872a1 1 0 0 0 1-1V3a1 1 0 0 0-1-1m4.5 41.992h12.872V16.248H26.372zm13.872-29.744H25.372a1 1 0 0 0-1 1v29.744a1 1 0 0 0 1 1h14.872a1 1 0 0 0 1-1V15.248a1 1 0 0 0-1-1M8 43.992h12.872V16.248H8zm13.872-29.744H7a1 1 0 0 0-1 1v29.744a1 1 0 0 0 1 1h14.872a1 1 0 0 0 1-1V15.248a1 1 0 0 0-1-1"/></svg>