<svg xmlns="http://www.w3.org/2000/svg" viewBox="0 0 48 48"><title>Icon-Resource/Database/Res_Amazon-Aurora-PIOPS-Instance_48</title><path fill="#c925d1" fill-rule="evenodd" d="M41.463 37.905q.165.391.164.947 0 1.078-.698 1.71-.698.627-1.923.628a4.6 4.6 0 0 1-1.067-.125 3.4 3.4 0 0 1-.898-.329v-1.19q.42.158.948.265.529.109.903.108.544 0 .828-.255.285-.255.284-.733a.9.9 0 0 0-.198-.595q-.2-.243-.664-.494l-.614-.33q-.839-.453-1.202-.975-.363-.524-.363-1.27 0-.695.316-1.21.318-.516.87-.795.552-.278 1.265-.278.897 0 1.782.408v1.203q-.92-.339-1.624-.339-.475 0-.749.237-.271.24-.272.658 0 .354.177.58.175.227.674.5l.613.328q.591.319.936.636.348.317.512.71m-7.23-1.312q-.233.33-.675.33h-.74v-2.588h.74q.443 0 .675.33t.232.965q0 .635-.232.963m-.483-3.438h-2.486v7.865h1.554v-2.917h.932q1.043.001 1.662-.664.62-.664.62-1.809 0-1.149-.62-1.812-.619-.663-1.662-.663m-5.846 6.038q-.386.715-1.133.715-.75 0-1.136-.715t-.386-2.112q0-1.43.374-2.122.375-.692 1.148-.693.769 0 1.145.693.375.694.374 2.122 0 1.397-.386 2.112m-1.133-6.209q-1.5 0-2.329 1.073t-.829 3.024q0 1.953.83 3.031.828 1.079 2.328 1.078 1.497 0 2.325-1.078.83-1.078.83-3.03 0-1.953-.83-3.025-.828-1.073-2.325-1.073m-6.13 8.036h1.59v-7.865h-1.59zm-3.093-4.427q-.232.33-.676.33h-.737v-2.588h.737q.444 0 .676.33.231.33.232.965 0 .635-.232.963m-.482-3.438H14.58v7.865h1.556v-2.917h.931q1.043.001 1.663-.664.618-.664.618-1.809 0-1.149-.618-1.812-.62-.663-1.663-.663m26.842 6.965a3.79 3.79 0 0 1-3.788 3.788H7.788A3.79 3.79 0 0 1 4 40.12V7.788A3.79 3.79 0 0 1 7.788 4H40.12a3.79 3.79 0 0 1 3.788 3.788zM40.12 2H7.788A5.795 5.795 0 0 0 2 7.788V40.12a5.795 5.795 0 0 0 5.788 5.788H40.12a5.795 5.795 0 0 0 5.788-5.788V7.788A5.794 5.794 0 0 0 40.12 2"/></svg>