<svg xmlns="http://www.w3.org/2000/svg" viewBox="0 0 48 48"><title>Icon-Resource/Analytics/Res_Amazon-MSK_Amazon-MSK-Connect_48</title><path fill="#8c4fff" fill-rule="evenodd" d="m29.035 38.38 1.098 1.023L23.998 46l-6.133-6.597 1.099-1.023L23 42.723v-15.62L7.961 19.387l2.02 5.57-1.412.512-3.068-8.47 8.669-2.445.409 1.444-5.708 1.609L24 25.369l15.126-7.761L33.422 16l.408-1.445 8.671 2.447-3.07 8.468-1.412-.51 2.022-5.575L25 27.103V42.72zM41.5 38a2.5 2.5 0 0 1-2.5-2.5c0-1.378 1.121-2.5 2.5-2.5s2.5 1.122 2.5 2.5c0 1.379-1.121 2.5-2.5 2.5m0-7c-.516 0-1.004.105-1.465.266l-4.562-7.296-1.695 1.06 4.552 7.28a4.5 4.5 0 0 0-1.208 2.185H27v2h10.119A4.5 4.5 0 0 0 41.5 40c2.481 0 4.5-2.018 4.5-4.5 0-2.481-2.019-4.5-4.5-4.5m-35 7A2.5 2.5 0 0 1 4 35.5C4 34.122 5.121 33 6.5 33S9 34.122 9 35.5C9 36.879 7.879 38 6.5 38M21 36.495v-2H10.878A4.5 4.5 0 0 0 9.67 32.31l4.552-7.281-1.696-1.06-4.561 7.296A4.4 4.4 0 0 0 6.5 31 4.505 4.505 0 0 0 2 35.5C2 37.982 4.018 40 6.5 40a4.5 4.5 0 0 0 4.381-3.505zM24 5c1.379 0 2.5 1.122 2.5 2.5 0 1.379-1.121 2.5-2.5 2.5a2.5 2.5 0 0 1-2.5-2.5C21.5 6.122 22.621 5 24 5m-6.547 14.863 5.083-8.128c.461.16.948.265 1.464.265.515 0 1.003-.105 1.465-.266l5.082 8.129 1.695-1.061-5.072-8.112A4.5 4.5 0 0 0 28.5 7.5C28.5 5.019 26.481 3 24 3a4.505 4.505 0 0 0-4.5 4.5c0 1.246.51 2.374 1.331 3.19l-5.073 8.112z"/></svg>