<svg xmlns="http://www.w3.org/2000/svg" viewBox="0 0 48 48"><title>Icon-Resource/Storage/Res_Amazon-Simple-Storage-Service_Bucket-With-Objects_48</title><path fill="#7aa116" fill-rule="evenodd" d="m40.354 26.059.222-1.647c1.76 1.072 2.311 1.695 2.473 1.96-.47.14-1.418.013-2.695-.313m-17.627-6.021c0-.049.04-.09.09-.09.015 0 .024.009.037.015l-.069.14c-.032-.009-.058-.027-.058-.065m13.646 20.599a1 1 0 0 0-.009.134c0 .152-.377.736-2.054 1.399-.748.295-1.631.561-2.626.789-2.566.594-5.716.921-8.868.921-8.428 0-13.545-2.159-13.545-3.109q0-.067-.009-.134L5.44 12.253c.245.143.51.28.786.413.069.034.146.066.218.099a17 17 0 0 0 1.101.459q.421.159.871.305.118.04.239.08.573.18 1.185.343.156.04.316.079.48.123.983.234l.4.088q.558.117 1.134.223.114.021.227.042.691.121 1.406.224.193.027.387.053.548.075 1.107.14l.44.05q.667.072 1.345.129l.158.015a58 58 0 0 0 1.942.124q.576.029 1.152.047.226.008.451.013.766.02 1.528.021a65 65 0 0 0 1.528-.021q.226-.005.45-.013a63 63 0 0 0 1.579-.069 58 58 0 0 0 1.518-.102l.15-.014q.682-.057 1.353-.131.22-.023.436-.048a53 53 0 0 0 1.116-.142q.19-.025.379-.052.718-.103 1.412-.224.105-.02.212-.04.585-.108 1.15-.226l.392-.086q.509-.112.995-.237.153-.038.306-.077a27 27 0 0 0 1.19-.344l.228-.076q.456-.149.883-.31.162-.06.319-.123.408-.163.784-.337c.069-.032.143-.062.211-.095q.417-.2.788-.414L38.413 25.49c-3.621-1.162-8.705-3.269-13.516-5.557a2.09 2.09 0 0 0-2.08-1.985c-1.152 0-2.09.937-2.09 2.09 0 1.154.938 2.091 2.09 2.091.452 0 .869-.147 1.211-.392 4.313 2.068 9.817 4.509 14.115 5.75zM22.816 4c10.372 0 17.68 3.212 17.816 4.995l-.026.207c-.019.061-.058.125-.091.188-.027.051-.046.102-.082.153-.045.064-.11.128-.17.193-.05.052-.09.105-.148.158-.072.065-.162.13-.247.195-.072.055-.134.109-.214.163-.096.065-.21.13-.32.195-.092.055-.177.111-.28.166-.117.063-.253.127-.383.189-.116.057-.223.113-.349.169-.139.062-.296.122-.447.184-.136.055-.266.112-.413.167-.161.06-.339.119-.511.177-.158.054-.307.11-.473.163-.18.056-.377.111-.567.167-.179.051-.349.105-.536.155-.198.054-.412.103-.619.154-.199.05-.391.102-.6.149-.215.048-.448.094-.672.14-.218.046-.428.093-.654.136-.242.046-.499.087-.75.13-.228.039-.448.081-.682.117-.266.041-.547.076-.822.114-.238.032-.468.069-.712.098-.286.035-.588.063-.884.095-.249.026-.49.055-.746.079-.324.029-.664.05-.998.075-.241.017-.475.039-.722.054-.38.023-.775.037-1.168.052-.215.009-.422.023-.64.029a65 65 0 0 1-3.78 0c-.211-.006-.412-.02-.62-.028-.399-.015-.802-.03-1.188-.053-.236-.014-.457-.035-.687-.051-.347-.026-.698-.048-1.034-.078-.241-.023-.469-.05-.704-.075-.31-.033-.626-.062-.926-.099-.229-.027-.444-.062-.668-.092-.291-.04-.587-.077-.866-.12-.22-.034-.425-.073-.638-.109-.265-.046-.538-.089-.794-.138-.214-.041-.412-.086-.618-.128-.237-.05-.481-.097-.708-.148-.197-.045-.379-.094-.568-.141-.219-.054-.444-.107-.651-.162-.177-.048-.339-.1-.509-.149-.2-.058-.406-.115-.593-.174-.16-.051-.304-.104-.455-.156-.178-.061-.363-.122-.529-.183-.141-.054-.265-.108-.398-.161-.155-.064-.318-.126-.461-.191-.122-.054-.227-.109-.34-.164-.133-.064-.272-.129-.391-.193-.102-.055-.185-.11-.277-.164-.11-.066-.226-.131-.323-.197-.079-.054-.142-.108-.212-.162-.085-.065-.177-.131-.248-.196-.059-.053-.1-.106-.148-.158-.06-.065-.125-.129-.17-.193-.037-.051-.056-.102-.082-.153-.034-.063-.074-.127-.091-.188l-.027-.207C5.139 7.212 12.446 4 22.816 4m22.268 22.158c-.212-1.145-1.531-2.358-4.219-3.895l1.71-12.696v-.004l.05-.388a1 1 0 0 0 .009-.13C42.634 4.894 32.19 2 22.816 2 13.444 2 3 4.894 3 9.045q0 .065.009.13l.051.388v.004l4.212 31.281c.132 3.664 9.576 5.032 15.544 5.032 3.299 0 6.608-.344 9.318-.971a20.5 20.5 0 0 0 2.911-.879c2.159-.854 3.274-1.924 3.318-3.182l1.732-12.869c.946.2 1.807.322 2.523.322.965 0 1.688-.204 2.079-.671.348-.415.486-.938.387-1.472m-32.43.272 2.596-4.327 2.596 4.327zm7.829 1.492a1 1 0 0 0-.013-1.007l-4.363-7.27c-.361-.602-1.354-.602-1.715 0l-4.362 7.27a.999.999 0 0 0 .857 1.515h8.726c.36 0 .692-.193.87-.508m9.163 1.38c1.613 0 2.926 1.323 2.926 2.95 0 1.626-1.313 2.95-2.926 2.95s-2.926-1.324-2.926-2.95 1.313-2.95 2.926-2.95m0 7.9c2.716 0 4.926-2.22 4.926-4.95s-2.21-4.95-4.926-4.95-4.926 2.221-4.926 4.95 2.21 4.95 4.926 4.95m-15.047 1.443h4.897v-4.979h-4.897zm5.897-6.98h-6.898a1 1 0 0 0-1 1v6.98a1 1 0 0 0 1 1h6.898a1 1 0 0 0 1-1v-6.98a1 1 0 0 0-1-1"/></svg>