<svg xmlns="http://www.w3.org/2000/svg" viewBox="0 0 48 48"><title>Icon-Resource/Storage/Res_Amazon-Simple-Storage-Service_S3-Standard-IA_48</title><path fill="#7aa116" fill-rule="evenodd" d="m44.001 40.793 1.414 1.414-3.5 3.5a.997.997 0 0 1-1.414 0l-3.5-3.5 1.414-1.414 1.793 1.793V32.539l-1.793 1.793-1.414-1.414 3.5-3.5a1 1 0 0 1 1.414 0l3.5 3.5-1.414 1.414-1.793-1.793v10.047zM22.87 4c10.402 0 17.732 3.222 17.87 5.012l-.026.198c-.023.08-.069.163-.117.246-.02.033-.031.066-.054.1-.055.079-.135.161-.214.242-.036.037-.062.073-.102.11-.088.08-.198.161-.307.242-.053.039-.096.079-.154.119-.119.081-.26.162-.4.243-.067.039-.126.079-.198.118-.154.083-.33.166-.505.249-.077.036-.143.073-.224.108-.197.088-.415.175-.634.262-.076.029-.144.06-.223.09-.252.095-.525.187-.805.279-.059.02-.113.04-.173.059q-.497.159-1.047.308l-.047.014c-3.108.844-7.451 1.464-12.636 1.464-8.416 0-14.624-1.637-16.913-3.206-.022-.016-.037-.03-.059-.045a4 4 0 0 1-.392-.311c-.031-.027-.051-.055-.078-.084a2 2 0 0 1-.234-.263c-.027-.038-.04-.075-.061-.114-.043-.076-.087-.152-.108-.226l-.027-.202C5.141 7.222 12.47 4 22.87 4m20.288 22.423c-.29.056-1.028.086-2.699-.321l.221-1.636c1.739 1.057 2.305 1.681 2.478 1.957M31.768 43.08c-2.591.593-5.75.92-8.894.92-8.459 0-13.595-2.168-13.595-3.121q0-.067-.008-.133l-3.83-28.474q.35.203.743.393c.142.069.296.135.445.201a18.264 18.264 0 0 0 1.038.424q.242.087.494.173.6.204 1.248.388c.113.031.218.065.332.095.246.067.501.129.756.191q.224.055.45.107.398.092.809.177l.389.076c.961.189 1.966.35 3.002.483q.181.023.362.045a54 54 0 0 0 1.241.137 61 61 0 0 0 4.832.287l.148.002c.381.007.762.016 1.14.016.366 0 .735-.009 1.103-.015q.1-.002.203-.003.518-.011 1.035-.031l.414-.017q.511-.021 1.019-.05l.229-.016a62 62 0 0 0 1.961-.157q.217-.021.433-.042a51 51 0 0 0 1.427-.169c.286-.037.574-.075.855-.116.177-.027.348-.056.523-.084a44 44 0 0 0 1.363-.239q.308-.058.611-.119.345-.072.682-.148.316-.073.624-.15.31-.073.608-.153.542-.144 1.053-.304c.161-.05.313-.104.469-.157a20 20 0 0 0 1.093-.4c.208-.083.405-.17.601-.257.121-.056.248-.109.364-.165q.401-.193.758-.401l-1.782 13.278c-4.557-1.432-10.635-4.199-13.397-5.498.001-.018.006-.035.006-.054 0-1.103-.897-2-2-2s-2 .897-2 2 .897 2 2 2c.336 0 .647-.091.926-.238 3.135 1.481 9.457 4.356 14.195 5.8l-.132.979 1.983.264.094-.71c1.02.24 1.858.361 2.541.361.991 0 1.658-.253 2.082-.759.35-.417.488-.94.388-1.476-.216-1.151-1.54-2.367-4.234-3.902l1.7-12.668a1 1 0 0 0 .014-.068l.051-.389a1 1 0 0 0 .009-.131C42.742 4.9 32.27 2 22.87 2 13.472 2 3 4.9 3 9.063q0 .065.009.131l.052.389.003.019L7.28 40.956C7.411 44.629 16.887 46 22.874 46c3.29 0 6.606-.345 9.343-.972 1.063-.246 1.996-.525 2.772-.829l-.728-1.863c-.688.269-1.527.52-2.493.744"/></svg>