<svg xmlns="http://www.w3.org/2000/svg" viewBox="0 0 48 48"><title>Icon-Resource/Storage/Res_Amazon-Simple-Storage-Service-Glacier_Archive_48</title><path fill="#7aa116" fill-rule="evenodd" d="M23.7 25.312a2.8 2.8 0 0 1 2.799 2.797 2.8 2.8 0 0 1-2.798 2.798 2.8 2.8 0 0 1-2.798-2.797A2.8 2.8 0 0 1 23.7 25.31m-4.797 2.797a4.806 4.806 0 0 0 3.828 4.7v7.04h2v-7.06c2.15-.474 3.768-2.389 3.768-4.68 0-.573-.118-1.115-.304-1.626l6.534-3.774-1-1.732-6.586 3.805a4.77 4.77 0 0 0-3.442-1.47 4.77 4.77 0 0 0-3.443 1.47l-6.585-3.805-1 1.732 6.533 3.774a4.7 4.7 0 0 0-.303 1.627m13.024-2.489a8.589 8.589 0 0 1-6.078 10.81l-.498-1.937a6.59 6.59 0 0 0 4.947-6.384c0-.652-.095-1.29-.284-1.902zm-9.875 8.873-.498 1.938a8.59 8.59 0 0 1-6.08-10.81l1.914.587a6.589 6.589 0 0 0 4.664 8.286m-2.954-11.109L17.7 21.957a8.53 8.53 0 0 1 6-2.443c2.26 0 4.39.866 6.003 2.442l-1.398 1.43a6.55 6.55 0 0 0-4.604-1.873 6.55 6.55 0 0 0-4.603 1.872M13.438 4h20.527l4.433 5.897H9.004zM7 11.897h33.4a1 1 0 0 0 .799-1.601L35.263 2.4a1 1 0 0 0-.8-.4H12.94a1 1 0 0 0-.8.4l-5.937 7.896A1 1 0 0 0 7 11.897m1.06 32.216H39.4V15.407H8.06zM40.4 13.407H7.06a1 1 0 0 0-1 1v30.708a1 1 0 0 0 1 1H40.4a1 1 0 0 0 1-1V14.406a1 1 0 0 0-1-1"/></svg>