<svg xmlns="http://www.w3.org/2000/svg" viewBox="0 0 48 48"><title>Icon-Resource/Analytics/Res_Amazon-Redshift_Dense-Storage-Node_48</title><path fill="#8c4fff" fill-rule="evenodd" d="M18.339 24.646q.163.393.163.949.001 1.08-.698 1.71t-1.926.63q-.535 0-1.068-.124a3.4 3.4 0 0 1-.898-.33v-1.192q.421.158.949.266.529.108.904.109.544 0 .829-.256.284-.255.284-.734a.9.9 0 0 0-.199-.595q-.199-.245-.665-.495l-.613-.33q-.84-.455-1.205-.977-.364-.523-.364-1.273.001-.694.32-1.21.315-.517.868-.795a2.8 2.8 0 0 1 1.267-.279q.898 0 1.783.409v1.205q-.92-.34-1.624-.341-.477 0-.75.239-.273.238-.273.659 0 .352.177.579.176.228.676.5l.613.33q.591.318.938.636t.512.71m-7.051-.71q0 1.33-.363 1.972-.364.64-1.104.641h-.67v-5.442h.66q.761 0 1.119.631.358.63.358 1.971zm-1.352-4.045H7.561v7.874h2.431q1.432 0 2.183-1 .749-1 .749-2.942 0-1.932-.761-2.932-.762-1-2.227-1M36.959 26.5a.99.99 0 0 0-.87.974v2.983l-2.333-.779 2.688-3.929zm1.13 7.84h5.867v-5.866h-5.867zm-4.37 5.145v-2.397a1 1 0 0 0-1-1H29.37l3.212-4.694 3.507 1.17v2.776a1 1 0 0 0 1 1h.839a414 414 0 0 1-4.209 3.145m-7.866 4.471h5.866v-5.867h-5.866zM23.104 31.97a1 1 0 0 0 1-1v-2.405l6.506 2.171-3.663 5.352h-2.094a.98.98 0 0 0-.594.216l-5.332-4.334zM4 29.97h18.104V17.985H4zm20.259-18.319a.98.98 0 0 0 .594.216h2.094l3.663 5.352-6.506 2.172v-2.406a1 1 0 0 0-1-1h-4.176zm1.594-1.785h5.866V4h-5.866zm12.075 1.749h-.839a1 1 0 0 0-1 1v2.776l-3.507 1.17-3.212-4.694h3.349a1 1 0 0 0 1-1V8.471c1.123.828 2.688 1.99 4.209 3.144m.161 7.867h5.867v-5.867h-5.867zm-4.333-1.205 2.333-.778v2.983c0 .507.382.908.87.974l-.515.752zm-9.652 3.222 7.679-2.564 3.451 5.043-3.451 5.042-7.679-2.562zm15.26-.017h5.592a1 1 0 0 0 1-1v-7.867a1 1 0 0 0-1-1h-3.747c-2.624-2.05-6.283-4.741-7.49-5.626V3a1 1 0 0 0-1-1h-7.866a1 1 0 0 0-1 1v6.403l-8.098 6.582H3a1 1 0 0 0-1 1V30.97a1 1 0 0 0 1 1h12.755l8.098 6.583v6.403a1 1 0 0 0 1 1h7.866a1 1 0 0 0 1-1v-2.989c1.207-.884 4.866-3.577 7.49-5.627h3.747a1 1 0 0 0 1-1v-7.866a1 1 0 0 0-1-1h-5.592l-1.708-2.496z"/></svg>