<svg xmlns="http://www.w3.org/2000/svg" viewBox="0 0 48 48"><title>Icon-Resource/Storage/Res_Amazon-File-Cache_Hybrid-NFS-linked-datasets_48</title><path fill="#7aa116" fill-rule="evenodd" d="M15 34h-2c-1.654 0-3-1.346-3-3H8c0 2.757 2.243 5 5 5h2c2.757 0 5-2.243 5-5s-2.243-5-5-5v2c1.654 0 3 1.346 3 3s-1.346 3-3 3m-8-6h2c1.654 0 3 1.346 3 3h2c0-2.757-2.243-5-5-5H7c-2.757 0-5 2.243-5 5s2.243 5 5 5v-2c-1.654 0-3-1.346-3-3s1.346-3 3-3m3-10h16l-3.6 2.7 1.2 1.6 6-4.5a1 1 0 0 0 0-1.6l-6-4.5-1.2 1.6L26 16H9a1 1 0 0 0-1 1v7h2zm26 26H10v-5.91H8V45a1 1 0 0 0 1 1h28a1 1 0 0 0 1-1V34h-2zM46 3v28a1 1 0 0 1-1 1H29l3.6 2.7-1.2 1.6-6-4.5a1 1 0 0 1 0-1.6l6-4.5 1.2 1.6L29 30h15V4H18v10h-2V3a1 1 0 0 1 1-1h28a1 1 0 0 1 1 1"/></svg>