<svg xmlns="http://www.w3.org/2000/svg" viewBox="0 0 48 48"><title>Icon-Resource/Containers/Res_Amazon-Elastic-Container-Service_Container-3_48</title><path fill="#ed7100" fill-rule="evenodd" d="M26.112 31.613h2.749v-1.875h-2.749zm-8.995-7.623h13.741v-7.619H17.117zm.876 7.872h11.991V29.49H17.993zm-1.876-5.87h6.872v1.497h-5.997a1 1 0 0 0-1 1v4.373a1 1 0 0 0 1 1h13.992a1 1 0 0 0 1-1V28.49a1 1 0 0 0-1-1h-5.995v-1.498h6.87a1 1 0 0 0 1-1v-9.62a1 1 0 0 0-1-1H16.117a1 1 0 0 0-1 1v9.62a1 1 0 0 0 1 1m23.486 7.744h2V14.498h-2zm-5.246 0h2V14.498h-2zm-22.737 0h2V14.498h-2zm-5.247 0h2V14.498h-2zM4 36.234h39.976V12H4zM44.976 10H3a1 1 0 0 0-1 1v26.235a1 1 0 0 0 1 1h41.976a1 1 0 0 0 1-1V11a1 1 0 0 0-1-1"/></svg>