<svg xmlns="http://www.w3.org/2000/svg" viewBox="0 0 48 48"><title>Icon-Resource/Networking-and-Content-Delivery/Res_Amazon-CloudFront_Download-Distribution_48</title><path fill="#8c4fff" fill-rule="evenodd" d="m15.958 27.67 1.414 1.413-1.414 1.414-1.414-1.414zm2.895 2.894 2.96 2.96L20.4 34.94l-2.96-2.96zm10.297 0 1.414 1.414-2.96 2.961-1.415-1.415zm2.895-2.895 1.414 1.414-1.414 1.414-1.414-1.414zm-7.044 7.63 1.121 1.12-1.414 1.415a.997.997 0 0 1-1.414 0L21.88 36.42l1.121-1.12v-1.047h2zm-2-18.837h2v-3.558h-2zm0 5.337h2v-3.558h-2zm0 5.337h2v-3.558h-2zm0 5.337h2v-3.558h-2zm0-21.348h2v-2h-2zm1 32.877c-11.028 0-20-8.973-20-20C4 12.971 12.972 4 24 4s20.001 8.972 20.001 20.001c0 11.028-8.973 20.001-20 20.001m0-42.002c-12.132 0-22 9.87-22 22.001s9.868 22.001 22 22.001 22.001-9.87 22.001-22c0-12.133-9.869-22.002-22-22.002"/></svg>