<svg xmlns="http://www.w3.org/2000/svg" viewBox="0 0 48 48"><title>Icon-Resource/Networking-and-Content-Delivery/Res_Amazon-Route-53_Route-Table_48</title><path fill="#8c4fff" fill-rule="evenodd" d="M4 43.07h39.944v-9.359H4zm41.944-10.359V44.07a1 1 0 0 1-1 1H3a1 1 0 0 1-1-1V32.711a1 1 0 0 1 1-1h41.944a1 1 0 0 1 1 1M4 28.214h39.944v-9.359H4zm41.944-10.359v11.36a1 1 0 0 1-1 1H3a1 1 0 0 1-1-1v-11.36a1 1 0 0 1 1-1h41.944a1 1 0 0 1 1 1M4 13.359h39.944V4H4zM45.944 3v11.359a1 1 0 0 1-1 1H3a1 1 0 0 1-1-1V3a1 1 0 0 1 1-1h41.944a1 1 0 0 1 1 1m-6.545 35.417q0 1.284.241 1.861.242.577.771.576.528 0 .77-.576.241-.577.241-1.861 0-1.276-.241-1.853-.242-.577-.77-.577-.53 0-.771.577t-.241 1.853m-.413 2.341q-.487-.804-.487-2.341 0-1.539.487-2.338t1.425-.8 1.424.8q.488.8.488 2.338 0 1.547-.488 2.345-.486.8-1.424.8t-1.425-.804m-1.879.778a.54.54 0 0 0 .403-.153.55.55 0 0 0 .154-.406.55.55 0 0 0-.154-.406.54.54 0 0 0-.403-.153.54.54 0 0 0-.404.153.55.55 0 0 0-.153.406q0 .254.153.406a.55.55 0 0 0 .404.153m-1.523-.813h-2.525q1.077-1.31 1.523-1.944t.612-1.062a2.3 2.3 0 0 0 .168-.83q0-.76-.401-1.184-.398-.423-1.112-.424-.41 0-.799.136-.39.135-.807.432v.744q.88-.56 1.457-.56.753 0 .752.909 0 .41-.213.865-.215.454-.706 1.14a45 45 0 0 1-1.43 1.849v.655h3.481zm-5.086.813a.55.55 0 0 0 .404-.153.55.55 0 0 0 .153-.406.55.55 0 0 0-.153-.406.54.54 0 0 0-.404-.153.54.54 0 0 0-.404.153.55.55 0 0 0-.153.406q0 .254.153.406a.55.55 0 0 0 .404.153m-4.243-2.752q0 1.084.247 1.586.245.502.774.502.883 0 .883-1.232 0-.569-.233-.87-.231-.301-.686-.302-.483 0-.985.246zm-.413 2.057q-.459-.72-.459-2.223 0-1.617.553-2.478.552-.861 1.572-.861a2.65 2.65 0 0 1 1.198.289v.638a2.6 2.6 0 0 0-.529-.17 2.6 2.6 0 0 0-.557-.067q-.659 0-.984.521-.326.52-.371 1.656.594-.35 1.226-.35.704 0 1.127.49.423.489.423 1.302-.001.909-.483 1.441-.484.533-1.308.533-.948 0-1.408-.721m-3.207.608h.882v-6.056h-.807l-1.458.83v.717l1.383-.656zm-3.258.087a.55.55 0 0 0 .405-.153.55.55 0 0 0 .153-.406.55.55 0 0 0-.153-.406.55.55 0 0 0-.405-.153.54.54 0 0 0-.403.153.55.55 0 0 0-.153.406q0 .254.153.406a.55.55 0 0 0 .403.153m-1.522-.813h-2.524q1.076-1.31 1.521-1.944.447-.633.613-1.062a2.3 2.3 0 0 0 .168-.83q0-.76-.4-1.184t-1.112-.424q-.41 0-.799.136-.39.135-.808.432v.744q.88-.56 1.457-.56.752 0 .752.909 0 .41-.213.865-.214.454-.706 1.14a45 45 0 0 1-1.429 1.849v.655h3.48zm-7.426.726h.91l1.941-5.409v-.647H9.734v.725h2.664zm-3.425 0h.882v-6.056h-.807l-1.458.83v.717l1.383-.656zm32.395-18.212q0 1.285.241 1.862.242.576.771.576.528 0 .77-.576.241-.577.241-1.862 0-1.276-.241-1.852-.242-.577-.77-.577-.53 0-.771.577-.241.576-.241 1.852m-.413 2.343q-.487-.804-.487-2.343 0-1.537.487-2.337t1.425-.8 1.424.8q.488.8.488 2.337 0 1.546-.488 2.347-.486.8-1.424.799-.937 0-1.425-.803m-1.879.777a.54.54 0 0 0 .403-.153.55.55 0 0 0 .154-.406.55.55 0 0 0-.154-.407.55.55 0 0 0-.403-.152.55.55 0 0 0-.404.152.55.55 0 0 0-.153.407q0 .253.153.406a.55.55 0 0 0 .404.153m-3.352-.087h.882v-6.056h-.807l-1.457.831v.715l1.382-.655zm-3.257.087a.55.55 0 0 0 .404-.153.55.55 0 0 0 .153-.406.56.56 0 0 0-.153-.407.55.55 0 0 0-.404-.152.55.55 0 0 0-.404.152.55.55 0 0 0-.153.407q0 .253.153.406a.55.55 0 0 0 .404.153m-4.243-2.752q0 1.083.247 1.586.245.502.774.502.883 0 .883-1.231 0-.568-.233-.871-.231-.301-.686-.301-.483 0-.985.245zm-.413 2.058q-.459-.721-.459-2.225 0-1.616.553-2.477.552-.861 1.572-.861a2.7 2.7 0 0 1 1.198.289v.638a2.7 2.7 0 0 0-.529-.171 2.6 2.6 0 0 0-.557-.065q-.659 0-.984.52-.326.52-.371 1.655a2.4 2.4 0 0 1 1.226-.349q.704 0 1.127.489.423.49.423 1.303-.001.908-.483 1.441-.484.534-1.308.533-.948 0-1.408-.72m-3.207.607h.882v-6.056h-.807l-1.458.831v.715l1.383-.655zm-3.258.087a.55.55 0 0 0 .405-.153.55.55 0 0 0 .153-.406.56.56 0 0 0-.153-.407.55.55 0 0 0-.405-.152.55.55 0 0 0-.403.152.55.55 0 0 0-.153.407q0 .253.153.406a.55.55 0 0 0 .403.153m-1.522-.812h-2.524q1.076-1.312 1.521-1.945.447-.633.613-1.061.168-.429.168-.831 0-.76-.4-1.184t-1.112-.424q-.41 0-.799.136-.39.135-.808.433v.742q.88-.559 1.457-.559.752 0 .752.908 0 .412-.213.866-.214.454-.706 1.14a44 44 0 0 1-1.429 1.849v.655h3.48zm-7.426.725h.91l1.941-5.409v-.647H9.734v.725h2.664zm-3.425 0h.882v-6.056h-.807l-1.458.831v.715l1.383-.655zM39.399 8.917q0 1.284.241 1.862.242.576.771.576.528 0 .77-.576.241-.578.241-1.862 0-1.275-.241-1.852-.242-.577-.77-.577-.53 0-.771.577t-.241 1.852m-.413 2.342q-.487-.803-.487-2.342 0-1.538.487-2.337t1.425-.8q.938 0 1.424.8.488.8.488 2.337 0 1.547-.488 2.346-.486.8-1.424.8t-1.425-.804m-1.879.778a.54.54 0 0 0 .403-.154.55.55 0 0 0 .154-.406.55.55 0 0 0-.154-.406.54.54 0 0 0-.403-.152.54.54 0 0 0-.404.152.55.55 0 0 0-.153.406q0 .254.153.406a.54.54 0 0 0 .404.154m-4.316-3.12q0 1.284.24 1.862.242.576.77.576.53 0 .771-.576.242-.578.241-1.862.001-1.275-.241-1.852-.24-.577-.771-.577-.528 0-.77.577-.24.577-.24 1.852m-.414 2.342q-.487-.803-.487-2.342 0-1.538.487-2.337.488-.8 1.424-.8.939 0 1.425.8.489.8.488 2.337 0 1.547-.488 2.346-.486.8-1.425.8-.936 0-1.424-.804m-1.879.778a.55.55 0 0 0 .404-.154.55.55 0 0 0 .153-.406.55.55 0 0 0-.153-.406.55.55 0 0 0-.404-.152.55.55 0 0 0-.404.152.55.55 0 0 0-.153.406q0 .254.153.406a.54.54 0 0 0 .404.154m-4.243-2.753q0 1.085.247 1.587.245.502.774.502.883 0 .883-1.233 0-.568-.233-.869-.231-.302-.686-.302-.483 0-.985.246zm-.413 2.058q-.459-.721-.459-2.224 0-1.616.553-2.478.552-.86 1.572-.86.316 0 .637.078.32.08.561.21v.639a2.7 2.7 0 0 0-.529-.171 2.6 2.6 0 0 0-.557-.066q-.659 0-.984.521-.326.52-.371 1.655a2.4 2.4 0 0 1 1.226-.349q.704 0 1.127.489.423.49.423 1.303-.001.907-.483 1.441-.484.533-1.308.533-.948 0-1.408-.721m-3.207.608h.882V5.893h-.807l-1.458.83v.717l1.383-.655zm-3.258.087a.55.55 0 0 0 .405-.154.55.55 0 0 0 .153-.406.55.55 0 0 0-.153-.406.55.55 0 0 0-.405-.152.55.55 0 0 0-.403.152.55.55 0 0 0-.153.406q0 .254.153.406a.54.54 0 0 0 .403.154m-1.522-.813h-2.524q1.076-1.311 1.521-1.944.447-.633.613-1.062.168-.428.168-.831 0-.758-.4-1.183-.4-.424-1.112-.424-.41 0-.799.136-.39.135-.808.432v.743q.88-.56 1.457-.559.752 0 .752.908 0 .412-.213.865-.214.455-.706 1.141a44 44 0 0 1-1.429 1.848v.656h3.48zm-7.426.726h.91l1.941-5.409v-.648H9.734v.726h2.664zM7.004 6.785l-1.383.655v-.717l1.458-.83h.807v6.057h-.882z"/></svg>