<svg xmlns="http://www.w3.org/2000/svg" viewBox="0 0 48 48"><title>Icon-Resource/Storage/Res_Amazon-Simple-Storage-Service_S3-Batch-Operations_48</title><path fill="#7aa116" fill-rule="evenodd" d="m9.584 39.43 3.837-3.837 1.414 1.414-4.533 4.533a1 1 0 0 1-1.404.012l-2.064-2 1.393-1.437zm5.251-12.09-4.533 4.533a1 1 0 0 1-1.404.012l-2.064-2 1.393-1.437 1.357 1.315 3.837-3.837zm0-9.666-4.533 4.533a1 1 0 0 1-1.404.011l-2.064-2 1.393-1.436 1.357 1.315 3.837-3.837zm0-9.667-4.533 4.533a1 1 0 0 1-1.404.012l-2.064-2 1.393-1.437 1.357 1.315 3.837-3.837zM34 37h2v8a1 1 0 0 1-1 1H3a1 1 0 0 1-1-1V3a1 1 0 0 1 1-1h32a1 1 0 0 1 1 1v11h-2V4H4v40h30zm-9-11h-1v-2h1v-4h2v4h1v2h-1v5h-2zm7 3h-1v-2h1v-7h2v7h1v2h-1v2h-2zm7-5h-1v-2h1v-2h2v2h1v2h-1v7h-2zm-17 9h22V18H22zm23-17H21a1 1 0 0 0-1 1v17a1 1 0 0 0 1 1h24a1 1 0 0 0 1-1V17a1 1 0 0 0-1-1"/></svg>