<svg xmlns="http://www.w3.org/2000/svg" viewBox="0 0 48 48"><title>Icon-Resource/Networking-and-Content-Delivery/Res_Amazon-Route-53_Routing-Controls_48</title><path fill="#8c4fff" fill-rule="evenodd" d="M34.055 39.446c-4.663.838-8.595 3.294-10.063 4.306-1.467-1.012-5.4-3.468-10.063-4.306-1.88-.338-7.188-1.617-9.168-5.435h11.703c.252 2.244 2.139 4 4.449 4s4.198-1.756 4.45-4h17.86c-1.98 3.818-7.288 5.097-9.168 5.435m-10.642-5.935c0 1.379-1.121 2.5-2.5 2.5a2.5 2.5 0 0 1-2.5-2.5c0-1.378 1.12-2.5 2.5-2.5s2.5 1.122 2.5 2.5m-18.134-7.5h23.185c.252 2.244 2.139 4 4.449 4s4.198-1.756 4.45-4h5.342c.722 1.374 1.279 2.836 1.279 4.809 0 .417-.036.813-.1 1.191H25.138c-.621-1.742-2.27-3-4.224-3-1.953 0-3.602 1.258-4.223 3H4.099a7 7 0 0 1-.1-1.191c0-1.973.558-3.435 1.28-4.809M4.94 11.199c1.154-1.403 3.693-4.501 5.086-6.283 2.12 1.933 4.568 2.986 6.992 2.986 2.7 0 4.94-1.065 6.973-3.333 2.032 2.268 4.273 3.333 6.973 3.333 2.424 0 4.87-1.053 6.992-2.986 1.393 1.782 3.932 4.88 5.086 6.283-.832.872-2.144 2.536-2.781 4.812H23.137c-.621-1.742-2.27-3-4.224-3-1.953 0-3.602 1.258-4.223 3H7.722c-.637-2.276-1.95-3.94-2.781-4.812m11.472 6.312c0-1.378 1.12-2.5 2.5-2.5s2.5 1.122 2.5 2.5c0 1.379-1.121 2.5-2.5 2.5a2.5 2.5 0 0 1-2.5-2.5m19 8c0 1.379-1.121 2.5-2.5 2.5a2.5 2.5 0 0 1-2.5-2.5c0-1.378 1.12-2.5 2.5-2.5s2.5 1.122 2.5 2.5m1.724-1.5c-.621-1.742-2.27-3-4.224-3-1.953 0-3.602 1.258-4.223 3H6.41c.877-1.54 1.686-3.179 1.686-5.331 0-.231-.03-.446-.045-.669h6.413c.252 2.244 2.139 4 4.449 4s4.198-1.756 4.45-4h16.57c-.016.223-.045.438-.045.669 0 2.152.809 3.791 1.686 5.331zm6.51-.408c-.944-1.626-1.76-3.03-1.76-4.923 0-3.998 3.12-6.596 3.149-6.62a1 1 0 0 0 .367-.677 1 1 0 0 0-.224-.737c-.052-.062-5.145-6.233-6.308-7.828a1 1 0 0 0-.747-.409 1.01 1.01 0 0 0-.791.315c-1.917 2.049-4.178 3.178-6.368 3.178-2.416 0-4.321-1.083-6.18-3.51a1 1 0 0 0-1.586 0c-1.86 2.427-3.765 3.51-6.18 3.51-2.19 0-4.451-1.129-6.368-3.178a1.01 1.01 0 0 0-.791-.315 1 1 0 0 0-.747.409c-1.163 1.595-6.256 7.766-6.308 7.828-.17.205-.248.47-.223.735.027.264.158.509.364.677.03.026 3.15 2.624 3.15 6.622 0 1.893-.815 3.297-1.76 4.923C3.243 25.49 2 27.629 2 30.82c0 5.332 4.327 9.293 11.576 10.595 5.313.954 9.763 4.327 9.808 4.362a1 1 0 0 0 1.217 0c.045-.035 4.495-3.408 9.808-4.362 7.248-1.302 11.575-5.263 11.575-10.595 0-3.191-1.241-5.33-2.337-7.217"/></svg>