<svg xmlns="http://www.w3.org/2000/svg" viewBox="0 0 48 48"><title>Icon-Resource/Analytics/Res_Amazon-OpenSearch-Service_Observability_48</title><path fill="#8c4fff" fill-rule="evenodd" d="M25 27h2v-7h-2zm-4-5v-5h2v10h-2zm-4 5h2v-4h-2zm11 2a1 1 0 0 0 1-1v-9a1 1 0 0 0-1-1h-3v-2a1 1 0 0 0-1-1h-4a1 1 0 0 0-1 1v5h-3a1 1 0 0 0-1 1v6a1 1 0 0 0 1 1zm11.37-11.737 1.93-.526c.465 1.707.7 3.478.7 5.263 0 2.545-.472 5.025-1.401 7.369l-1.86-.738A17.9 17.9 0 0 0 40 22c0-1.607-.212-3.202-.63-4.737M28.632 38.739l.736 1.86A19.9 19.9 0 0 1 22 42a19.98 19.98 0 0 1-16.301-8.42l-.354 1.615-1.953-.429.925-4.217a.997.997 0 0 1 1.192-.762l4.218.926-.43 1.953-2.119-.465A17.98 17.98 0 0 0 22 40a17.9 17.9 0 0 0 6.632-1.261M4.63 26.737l-1.93.526A20 20 0 0 1 2 22C2 10.972 10.972 2 22 2a19.98 19.98 0 0 1 16.301 8.419l.354-1.614 1.953.429-.925 4.217a1 1 0 0 1-1.192.762l-4.218-.926.43-1.953 2.119.465A17.98 17.98 0 0 0 22 4C12.075 4 4 12.075 4 22c0 1.607.212 3.202.63 4.737m38.641 16.488c-.942.941-2.592.941-3.534 0l-9.746-9.746a14.1 14.1 0 0 0 3.527-3.539l9.753 9.752a2.503 2.503 0 0 1 0 3.533M10 22c0-6.617 5.383-12 12-12s12 5.383 12 12-5.383 12-12 12-12-5.383-12-12m34.685 16.278L34.557 28.151A13.9 13.9 0 0 0 36 22c0-7.72-6.28-14-14-14S8 14.28 8 22s6.28 14 14 14c2.232 0 4.337-.539 6.212-1.472l10.111 10.111a4.47 4.47 0 0 0 3.181 1.316 4.47 4.47 0 0 0 3.181-1.316 4.504 4.504 0 0 0 0-6.361"/></svg>