<svg xmlns="http://www.w3.org/2000/svg" viewBox="0 0 48 48"><title>Icon-Resource/Application-Integration/Res_Amazon-MQ_Broker_48</title><path fill="#e7157b" fill-rule="evenodd" d="M7.078 33.755a19 19 0 0 1-1.534-3.313l1.887-.663a17 17 0 0 0 1.374 2.965zm.036-14.313-1.924-.545a19 19 0 0 1 1.839-4.346l1.731 1a17 17 0 0 0-1.646 3.89m9.472-10.957-.819-1.824c4.929-2.214 10.709-2.215 15.642 0l-.818 1.824c-4.416-1.981-9.595-1.98-14.005 0m21.831 7.067 1.73-1.001a19 19 0 0 1 1.838 4.346l-1.924.544a17 17 0 0 0-1.644-3.89m1.328 14.227 1.887.663a19 19 0 0 1-1.484 3.228l-1.732-1.001c.532-.92.978-1.892 1.329-2.89m-9.154 9.956.818 1.825a19 19 0 0 1-7.821 1.668c-2.725 0-5.356-.561-7.821-1.668l.819-1.825c4.411 1.98 9.59 1.98 14.005 0M11.5 40.11a2.5 2.5 0 0 1-2.5-2.5c0-1.378 1.121-2.5 2.5-2.5s2.5 1.122 2.5 2.5c0 1.379-1.121 2.5-2.5 2.5m0-7a4.505 4.505 0 0 0-4.5 4.5c0 2.482 2.018 4.5 4.5 4.5 2.481 0 4.5-2.018 4.5-4.5 0-2.481-2.019-4.5-4.5-4.5m24 7a2.5 2.5 0 0 1-2.5-2.5c0-1.378 1.121-2.5 2.5-2.5s2.5 1.122 2.5 2.5c0 1.379-1.121 2.5-2.5 2.5m0-7a4.505 4.505 0 0 0-4.5 4.5c0 2.482 2.018 4.5 4.5 4.5 2.481 0 4.5-2.018 4.5-4.5 0-2.481-2.019-4.5-4.5-4.5M4 24.61c0-1.378 1.121-2.5 2.5-2.5S9 23.232 9 24.61c0 1.379-1.121 2.5-2.5 2.5a2.5 2.5 0 0 1-2.5-2.5m6.949.5h3.187l-.967 1.444 1.662 1.113 2-2.986a1 1 0 0 0 .002-1.11l-2-3.013-1.666 1.105.96 1.447h-3.403c-.622-1.742-2.271-3-4.224-3a4.505 4.505 0 0 0-4.5 4.5c0 2.482 2.018 4.5 4.5 4.5 2.31 0 4.197-1.756 4.449-4m30.551 2a2.5 2.5 0 0 1-2.5-2.5c0-1.378 1.121-2.5 2.5-2.5s2.5 1.122 2.5 2.5c0 1.379-1.121 2.5-2.5 2.5m0-7a4.505 4.505 0 0 0-4.5 4.5c0 2.482 2.018 4.5 4.5 4.5 2.481 0 4.5-2.018 4.5-4.5 0-2.481-2.019-4.5-4.5-4.5m-30-12c1.379 0 2.5 1.122 2.5 2.5 0 1.379-1.121 2.5-2.5 2.5a2.5 2.5 0 0 1-2.5-2.5c0-1.378 1.121-2.5 2.5-2.5m0 7c2.481 0 4.5-2.018 4.5-4.5 0-2.481-2.019-4.5-4.5-4.5a4.505 4.505 0 0 0-4.5 4.5c0 2.482 2.018 4.5 4.5 4.5m24-7c1.379 0 2.5 1.122 2.5 2.5 0 1.379-1.121 2.5-2.5 2.5a2.5 2.5 0 0 1-2.5-2.5c0-1.378 1.121-2.5 2.5-2.5m0 7c2.481 0 4.5-2.018 4.5-4.5 0-2.481-2.019-4.5-4.5-4.5a4.505 4.505 0 0 0-4.5 4.5c0 2.482 2.018 4.5 4.5 4.5m-3.332 11.446.963-1.445H31v-2h2.132l-.964-1.446 1.664-1.11 2 3a1 1 0 0 1 0 1.109l-2 3zm-3.977 1.759c-1.31-.441-2.75-.662-4.189-.662s-2.879.22-4.19.662c.436-1.274.668-2.702.668-4.205 0-1.501-.232-2.93-.668-4.204 2.621.883 5.758.883 8.379 0-.435 1.274-.668 2.703-.668 4.204 0 1.503.233 2.93.668 4.205m3.525-10.504a.997.997 0 0 0 0-1.414 1 1 0 0 0-1.414 0c-2.944 2.943-9.657 2.943-12.6 0a.999.999 0 1 0-1.414 1.414c1.373 1.373 2.192 3.728 2.192 6.299s-.819 4.927-2.192 6.3a.999.999 0 1 0 1.414 1.414c2.943-2.943 9.656-2.943 12.6 0a1 1 0 0 0 .707.293.997.997 0 0 0 .707-1.707c-1.373-1.373-2.193-3.728-2.193-6.3s.82-4.926 2.193-6.3"/></svg>