<svg xmlns="http://www.w3.org/2000/svg" viewBox="0 0 48 48"><title>Icon-Resource/Networking-and-Content-Delivery/Res_Amazon-Route-53_Readiness-Checks_48</title><path fill="#8c4fff" fill-rule="evenodd" d="M43.983 30.82c0-2.652-1.004-4.382-2.066-6.213-.998-1.719-2.03-3.495-2.03-5.927 0-3.664 2.026-6.297 3.156-7.481-1.155-1.403-3.694-4.501-5.086-6.283-2.121 1.933-4.569 2.986-6.993 2.986-2.7 0-4.941-1.065-6.972-3.333-2.032 2.268-4.274 3.333-6.974 3.333-2.424 0-4.871-1.053-6.992-2.986-1.393 1.782-3.932 4.88-5.086 6.283 1.13 1.184 3.155 3.817 3.155 7.481 0 2.432-1.031 4.208-2.029 5.927C5.004 26.438 4 28.168 4 30.82c0 6.349 7.599 8.208 9.928 8.626 4.663.838 8.596 3.294 10.064 4.306 1.468-1.012 5.399-3.468 10.062-4.306 2.329-.418 9.929-2.277 9.929-8.626m2 0c0 5.332-4.327 9.292-11.575 10.595-5.313.954-9.763 4.327-9.808 4.362a1 1 0 0 1-1.217 0c-.045-.035-4.495-3.408-9.808-4.362C6.327 40.112 2 36.152 2 30.82c0-3.191 1.241-5.33 2.337-7.217.943-1.626 1.758-3.03 1.758-4.923 0-3.998-3.119-6.596-3.15-6.622a1 1 0 0 1-.141-1.412c.052-.062 5.145-6.233 6.308-7.828a.997.997 0 0 1 1.538-.094c1.917 2.049 4.179 3.178 6.368 3.178 2.415 0 4.321-1.083 6.18-3.51a1 1 0 0 1 1.588 0c1.857 2.427 3.762 3.51 6.178 3.51 2.19 0 4.452-1.129 6.369-3.178a.999.999 0 0 1 1.538.094c1.163 1.595 6.256 7.766 6.307 7.828a1.003 1.003 0 0 1-.142 1.414c-.03.024-3.149 2.622-3.149 6.62 0 1.893.816 3.297 1.759 4.923 1.096 1.887 2.337 4.026 2.337 7.217M34.898 16.37l1.414 1.414-14.484 14.485a1 1 0 0 1-1.414 0l-5.882-5.882 1.414-1.414 5.175 5.175z"/></svg>