<svg xmlns="http://www.w3.org/2000/svg" viewBox="0 0 48 48"><title>Icon-Resource/Business-Applications/Res_Amazon-Pinpoint_Journey_48</title><path fill="#dd344c" fill-rule="evenodd" d="M42.96 21c0-1.103-.897-2-2-2s-2 .897-2 2 .897 2 2 2 2-.897 2-2m-5 16c0-1.103-.897-2-2-2s-2 .897-2 2 .897 2 2 2 2-.897 2-2m-9-16.5c0-1.378-1.121-2.5-2.5-2.5a2.503 2.503 0 0 0-2.5 2.5c0 1.378 1.121 2.5 2.5 2.5s2.5-1.122 2.5-2.5m-10.829 9.508-3.609 3.601-1.413-1.416 3.541-3.532a4.4 4.4 0 0 0-2.215-.611 4.48 4.48 0 0 0-4.475 4.475A4.48 4.48 0 0 0 14.435 37a4.48 4.48 0 0 0 4.475-4.475c0-.933-.288-1.799-.779-2.517M21.46 10c1.379 0 2.5-1.122 2.5-2.5S22.839 5 21.46 5a2.503 2.503 0 0 0-2.5 2.5c0 1.378 1.121 2.5 2.5 2.5m23.5 11c0 2.206-1.794 4-4 4-.049 0-.094-.013-.143-.015l-2.668 8.674A4 4 0 0 1 39.96 37c0 2.206-1.794 4-4 4s-4-1.794-4-4 1.794-4 4-4c.1 0 .192.022.29.029l2.651-8.617a4 4 0 0 1-1.784-2.362h-6.449C30.033 23.767 28.395 25 26.46 25a4.47 4.47 0 0 1-2.526-.78l-4.374 4.363a6.43 6.43 0 0 1 1.35 3.942A6.483 6.483 0 0 1 14.435 39a6.48 6.48 0 0 1-6.475-6.475 6.48 6.48 0 0 1 6.475-6.475c1.366 0 2.631.428 3.677 1.152l4.47-4.459a4.45 4.45 0 0 1-.622-2.243c0-1.453.704-2.734 1.775-3.557l-2.124-4.958c-.051.001-.099.015-.151.015a4.505 4.505 0 0 1-4.5-4.5c0-2.481 2.019-4.5 4.5-4.5s4.5 2.019 4.5 4.5c0 1.719-.979 3.198-2.4 3.956l1.988 4.638A4.5 4.5 0 0 1 26.46 16c2.327 0 4.225 1.782 4.454 4.05h6.173c.429-1.746 1.996-3.05 3.873-3.05 2.206 0 4 1.794 4 4m-20.261 6.294a11.5 11.5 0 0 1 1.261 5.236c0 6.33-5.149 11.48-11.479 11.48C8.15 44.01 3 38.86 3 32.53s5.15-11.48 11.481-11.48c1.845 0 3.607.425 5.238 1.263l-.914 1.779a9.36 9.36 0 0 0-4.324-1.042C9.253 23.05 5 27.303 5 32.53s4.253 9.48 9.481 9.48c5.226 0 9.479-4.253 9.479-9.48 0-1.524-.35-2.978-1.04-4.322z"/></svg>