<svg xmlns="http://www.w3.org/2000/svg" viewBox="0 0 48 48"><title>Icon-Resource/Storage/Res_Amazon-Simple-Storage-Service_S3-Intelligent-Tiering_48</title><path fill="#7aa116" fill-rule="evenodd" d="M38.622 35.321c0 .967.636 1.32 1.971 1.703q.201.056.36.107.132.042.297.088c1.023.294 3.42.982 3.42 3.625 0 1.855-1.448 3.222-3.495 3.411V46h-2v-1.945a4.2 4.2 0 0 1-1.173-.578c-.89-.64-1.38-1.59-1.38-2.673h2c0 1.178 1.357 1.49 2.075 1.49.733 0 1.972-.306 1.972-1.45 0-.966-.636-1.319-1.97-1.703a14 14 0 0 1-.36-.106 10 10 0 0 0-.298-.089c-1.023-.294-3.419-.98-3.419-3.625 0-1.068.467-1.999 1.313-2.62a4 4 0 0 1 1.24-.596V30h2v1.961c1.792.231 3.494 1.43 3.494 3.48h-2c0-1.122-1.275-1.529-2.13-1.529-.555 0-1.072.146-1.42.402-.335.244-.497.574-.497 1.007m1.94-9.149.22-1.647c1.74 1.06 2.315 1.694 2.49 1.97-.29.055-1.033.087-2.71-.323m-17.638-12.67c-10.306 0-17.31-2.45-17.892-4.236l-.03-.235c.136-1.796 7.487-5.03 17.922-5.03C33.358 4 40.711 7.233 40.85 9.03l-.032.234c-.579 1.785-7.585 4.236-17.894 4.236m.25 6.5.001-1 .001.998zm22.144 6.29c-.216-1.155-1.544-2.373-4.247-3.913l1.706-12.704q.009-.035.014-.07l.052-.39a1 1 0 0 0 .008-.132c0-4.173-10.5-7.08-19.927-7.08C13.5 2 3 4.907 3 9.08q0 .064.01.13l.05.388.002.016 4.23 31.451c.131 3.682 9.633 5.057 15.637 5.057 3.295 0 6.621-.346 9.372-.975 1.132-.265 2.116-.564 2.925-.888q.488-.194.903-.39l-.848-1.812c-.247.116-.51.231-.798.346-.715.286-1.603.554-2.633.796-2.604.595-5.772.923-8.92.923-8.487 0-13.639-2.177-13.639-3.134a1 1 0 0 0-.009-.133L5.44 12.291c3.621 2.114 10.723 3.21 17.484 3.21 6.76 0 13.861-1.095 17.483-3.209l-1.79 13.33c-4.58-1.44-10.69-4.223-13.452-5.523.002-.033.01-.065.01-.099 0-1.103-.898-2-2-2-1.103 0-2 .897-2 2s.897 2 2 2c.316 0 .612-.08.88-.213 3.12 1.476 9.506 4.386 14.292 5.844l-.21 1.563 1.982.266.174-1.295c1.023.241 1.864.362 2.551.362.993 0 1.661-.253 2.087-.76a1.76 1.76 0 0 0 .387-1.477"/></svg>