<svg xmlns="http://www.w3.org/2000/svg" viewBox="0 0 48 48"><title>Icon-Resource/Storage/Res_Amazon-Elastic-Block-Store_Volume-gp3_48</title><path fill="#7aa116" fill-rule="evenodd" d="M30.009 32.759a5.1 5.1 0 0 1-2.068-.44v-1.034q1.203.407 2.023.407.776 0 1.197-.347t.421-.984q0-1.21-1.527-1.21-.49 0-1.058.066v-.847l2.167-2.354h-3.113v-1.045h4.543v1.001l-2.288 2.244a4 4 0 0 1 .304-.011 2.5 2.5 0 0 1 1.163.269q.52.27.83.765.31.494.31 1.133a2.2 2.2 0 0 1-.352 1.232q-.352.54-1.012.847-.66.308-1.54.308m-7.051-4.488a2.27 2.27 0 0 1 1.32-.418q.703 0 1.04.468.335.467.335 1.435 0 .979-.341 1.458-.341.477-1.045.478a2.25 2.25 0 0 1-1.309-.429zm0 3.839q.32.286.748.445.429.16.891.16.726 0 1.265-.385a2.44 2.44 0 0 0 .825-1.062q.286-.675.286-1.556 0-1.32-.622-2.101-.62-.78-1.666-.781-.506 0-.974.187a2.8 2.8 0 0 0-.852.539l-.121-.561H21.66v7.865h1.298zm-6.155-3.828q.326-.44.996-.44.65 0 1.221.396v2.816q-.584.429-1.232.429-1.31 0-1.309-1.848 0-.913.324-1.353m.6 4.202q.901 0 1.617-.616v.473q0 .858-.374 1.237t-1.199.38q-.814 0-1.837-.341v.924a4.25 4.25 0 0 0 1.923.451q1.338 0 2.061-.726.724-.726.724-2.057v-5.214h-1.1l-.11.506a2.33 2.33 0 0 0-1.661-.671q-.703 0-1.221.363a2.3 2.3 0 0 0-.792 1.006q-.275.645-.275 1.48 0 1.276.611 2.04.61.765 1.633.765M8.069 44h32V15h-32zm33-31h-34a1 1 0 0 0-1 1v31a1 1 0 0 0 1 1h34a1 1 0 0 0 1-1V14a1 1 0 0 0-1-1M13.533 4l20.935.002L38.993 10H9.007zM7 12h34a1 1 0 0 0 .799-1.602L35.765 2.4a1 1 0 0 0-.798-.398L13.035 2a1 1 0 0 0-.798.398l-6.035 8A.999.999 0 0 0 7 12"/></svg>