<svg xmlns="http://www.w3.org/2000/svg" viewBox="0 0 48 48"><title>Icon-Resource/Database/Res_Amazon-DynamoDB_Standard-Infrequent-Access-Table-Class_48</title><path fill="#c925d1" fill-rule="evenodd" d="m12.714 35.707-3 3a.997.997 0 0 1-1.414 0l-3-3 1.414-1.414 1.293 1.293v-9.172l-1.293 1.293L5.3 26.293l3-3a1 1 0 0 1 1.414 0l3 3-1.414 1.414-1.293-1.293v9.172l1.293-1.293zM23.602 4c8.489 0 14.405 2.442 14.405 4.635s-5.916 4.635-14.405 4.635c-8.398 0-13.595-2.406-13.595-4.635S15.204 4 23.602 4M10.007 20.143v-8.017c2.552 1.959 7.389 3.144 13.595 3.144 5.716 0 11.469-1.125 14.405-3.296V17.5h2V8.635C40.007 4.279 31.754 2 23.602 2 14.274 2 8.007 4.666 8.007 8.635v11.508a4 4 0 0 1 2 0M23.602 40c3.137 0 5.919-.335 8.185-.866l-.391 1.899c-.016.077-.017.154-.027.231-2.405.485-5.088.736-7.767.736-4.177 0-7.861-.552-10.654-1.596-.171-.064-.322-.136-.485-.204l1.547-1.547C16.516 39.52 19.895 40 23.602 40m11.651.265 2.071-10.063A1 1 0 0 0 36.345 29h-3.47l4-8h5.615l-3.89 6.485A.999.999 0 0 0 39.457 29h3.416zM45.64 27.531a1 1 0 0 0-.883-.531h-3.533l3.89-6.485A.999.999 0 0 0 44.257 19h-8c-.379 0-.725.214-.895.553l-5 10A1 1 0 0 0 31.257 31h3.861l-2.841 13.798a1 1 0 0 0 1.808.763l11.5-17c.207-.307.229-.703.055-1.03"/></svg>