<svg xmlns="http://www.w3.org/2000/svg" viewBox="0 0 48 48"><title>Icon-Resource/Storage/Res_Amazon-Simple-Storage-Service_S3-Object-Lambda_48</title><path fill="#7aa116" fill-rule="evenodd" d="m36.128 31.985.041-.312q.378.249.611.433a9 9 0 0 1-.652-.12M31.556 42.86c-.491.194-1.074.37-1.733.521-1.716.396-3.822.615-5.932.615-5.146 0-8.554-1.229-8.849-1.782a1 1 0 0 0-.009-.134l-2.508-18.62c.028.011.061.022.088.034q.482.225 1.03.42c.078.03.163.053.243.08a18 18 0 0 0 1.307.386q.577.15 1.185.274l.09.02a30 30 0 0 0 1.721.291q.543.08 1.087.142l.314.037q.68.073 1.35.122l.292.018q.54.037 1.064.058l.357.014c.425.014.842.024 1.238.024q.7-.001 1.408-.026l.399-.016a50 50 0 0 0 1.097-.06l.362-.024q.706-.054 1.4-.13l.216-.028a35 35 0 0 0 1.543-.216q.541-.09 1.063-.195l.257-.05q.626-.134 1.21-.293c.093-.025.18-.053.272-.079q.448-.128.864-.273.157-.054.308-.109.47-.175.887-.37c.024-.01.055-.02.08-.033l-1.067 7.958c-2.827-.928-6.387-2.527-8.292-3.414a1.5 1.5 0 0 0-1.413-1.015c-.827 0-1.5.673-1.5 1.5s.673 1.5 1.5 1.5c.226 0 .438-.054.63-.144 2.19 1.021 5.884 2.668 8.805 3.588l-1.165 8.685c-.042.087-.34.385-1.199.724m7.733-10.604c-.162-.86-1.023-1.699-2.828-2.748l1.129-8.38v-.002l.035-.262a1 1 0 0 0 .009-.133c0-1.202-1.008-2.265-2.995-3.16l-.821 1.824c1.387.625 1.764 1.153 1.811 1.308l-.008.057c-.01.03-.03.061-.048.092-.016.03-.03.057-.054.087-.026.031-.061.065-.094.098-.032.031-.062.062-.101.095s-.091.068-.138.102-.093.068-.149.104c-.054.034-.118.068-.179.103-.063.036-.125.072-.196.11-.068.035-.147.07-.222.105-.079.037-.154.075-.241.112-.081.035-.173.07-.26.105-.095.037-.186.075-.289.112-.094.036-.199.07-.3.104-.109.037-.214.075-.33.111-.109.035-.229.068-.344.101-.122.036-.24.072-.369.107-.122.033-.255.064-.384.096-.136.034-.267.068-.41.101-.135.031-.281.06-.423.09-.149.031-.292.063-.447.093-.153.03-.317.056-.475.084-.157.027-.309.055-.471.081-.173.027-.356.051-.535.076-.162.022-.318.047-.485.067-.193.024-.396.044-.595.065-.166.018-.327.038-.498.053-.218.021-.448.036-.674.052-.164.012-.321.027-.489.037-.256.016-.523.026-.788.036-.15.007-.292.016-.444.021a42 42 0 0 1-2.595 0c-.157-.005-.306-.015-.46-.02-.259-.012-.522-.02-.773-.037-.169-.01-.328-.025-.493-.037-.224-.016-.452-.03-.67-.052-.169-.015-.329-.035-.494-.052-.2-.022-.405-.04-.598-.066-.166-.02-.323-.045-.484-.067-.179-.025-.363-.048-.536-.076-.163-.026-.316-.054-.474-.082-.158-.027-.319-.053-.47-.082-.158-.03-.303-.063-.453-.095-.14-.029-.285-.058-.417-.088-.145-.034-.278-.068-.415-.102-.126-.032-.258-.063-.379-.096-.132-.035-.252-.072-.377-.109-.113-.032-.229-.064-.335-.098-.119-.038-.228-.076-.34-.114-.098-.034-.199-.067-.291-.1-.105-.039-.196-.077-.293-.115-.086-.035-.177-.069-.257-.104-.087-.037-.163-.075-.243-.112-.074-.035-.152-.07-.22-.105-.071-.037-.132-.073-.196-.109-.061-.035-.125-.07-.18-.104-.055-.035-.099-.069-.147-.103s-.099-.069-.139-.103c-.039-.032-.068-.063-.1-.094-.034-.033-.07-.067-.095-.099-.024-.029-.037-.056-.053-.084-.02-.032-.04-.064-.05-.095l-.007-.057c.045-.154.426-.688 1.833-1.319l-.816-1.825c-2.005.898-3.022 1.965-3.022 3.172q0 .066.009.13l.034.262v.004l2.851 21.166c.124 2.926 7.128 3.703 10.847 3.703 2.257 0 4.524-.237 6.383-.666a14 14 0 0 0 2.016-.609c1.584-.627 2.407-1.443 2.449-2.428l1.121-8.324c.552.113 1.036.177 1.442.177.775 0 1.305-.207 1.655-.625.3-.357.418-.806.332-1.265m-21.401-.249.941-1.569.942 1.57zm4.518 1.493a1 1 0 0 0-.012-1.008l-2.707-4.512a1 1 0 0 0-1.715 0l-2.708 4.512a.999.999 0 0 0 .857 1.515h5.415a1 1 0 0 0 .87-.507m6.079 4.507c-.827 0-1.5-.673-1.5-1.5s.673-1.5 1.5-1.5a1.501 1.501 0 0 1 0 3m0-5c-1.929 0-3.5 1.57-3.5 3.5s1.571 3.5 3.5 3.5 3.5-1.57 3.5-3.5-1.57-3.5-3.5-3.5m-9.5 7h2v-2h-2zm3-4h-4a1 1 0 0 0-1 1v4a1 1 0 0 0 1 1h4a1 1 0 0 0 1-1v-4a1 1 0 0 0-1-1m.857-25.105c.294-.306.687-.46 1.081-.46a1.501 1.501 0 0 1 .029 2.999 1.55 1.55 0 0 1-1.069-.419 1.5 1.5 0 0 1-.46-1.05 1.5 1.5 0 0 1 .419-1.07m1.08 4.538a3.5 3.5 0 0 0 2.523-1.073 3.505 3.505 0 0 0-.096-4.949 3.506 3.506 0 0 0-4.949.097 3.47 3.47 0 0 0-.976 2.494 3.47 3.47 0 0 0 1.073 2.455 3.49 3.49 0 0 0 2.425.976m-5.709-3.535c.254-.116.447-.334.534-.599l.439-1.346a1 1 0 0 0-.079-.8l-1.196-2.127 2.925-2.12 1.641 1.78a1 1 0 0 0 .735.323h.006l1.455-.009a1 1 0 0 0 .729-.322l1.63-1.768 2.921 2.126-1.19 2.118a1 1 0 0 0-.081.793l.433 1.361c.086.268.281.487.535.605l2.213 1.017-1.118 3.435-2.39-.48a1 1 0 0 0-.788.174l-1.156.846a1 1 0 0 0-.402.691l-.282 2.408-3.613-.003-.278-2.39a1 1 0 0 0-.398-.689l-1.17-.865a1 1 0 0 0-.791-.177l-2.372.474-1.113-3.437zm-2.736 5.92a1 1 0 0 0 1.147.672l2.811-.562.464.344.332 2.844a1 1 0 0 0 .992.884l5.392.005h.001a1 1 0 0 0 .993-.883l.335-2.86.45-.329 2.831.567c.49.098.989-.188 1.147-.67l1.669-5.128a1 1 0 0 0-.533-1.218l-2.621-1.204-.167-.526 1.413-2.514c.248-.442.126-1-.284-1.299l-4.361-3.172a1 1 0 0 0-1.323.131L24.227 5.01l-.578.004-1.945-2.11a.997.997 0 0 0-1.322-.132l-4.365 3.166a1 1 0 0 0-.285 1.3l1.416 2.52-.167.513-2.631 1.207a1 1 0 0 0-.534 1.217z"/></svg>