<svg xmlns="http://www.w3.org/2000/svg" viewBox="0 0 48 48"><title>Icon-Resource/Analytics/Res_Amazon-Redshift_Data-Sharing-Governance_48</title><path fill="#8c4fff" fill-rule="evenodd" d="M23.065 43.818v2c-1.417 0-2.684-.754-3.511-1.931-.827 1.177-2.093 1.931-3.51 1.931s-2.684-.754-3.511-1.931c-.828 1.177-2.095 1.931-3.512 1.931s-2.684-.754-3.511-1.931c-.827 1.177-2.093 1.931-3.51 1.931v-2c1.384 0 2.51-1.426 2.51-3.179h2c0 1.753 1.126 3.179 2.511 3.179s2.512-1.426 2.512-3.179h2c0 1.753 1.126 3.179 2.511 3.179 1.384 0 2.51-1.426 2.51-3.179h2c0 1.753 1.126 3.179 2.511 3.179m7.435-6c-1.572 0-3.032-.793-3.976-1.982-.836 1.211-2.174 1.982-3.709 1.982-1.568 0-2.995-.785-3.907-1.98-.867 1.203-2.238 1.98-3.778 1.98-1.538 0-2.935-.793-3.826-1.999-.897 1.206-2.307 1.999-3.859 1.999v-2c1.525 0 2.864-1.402 2.864-3h2c0 1.626 1.292 3 2.821 3 1.512 0 2.743-1.346 2.743-3h2c0 1.598 1.375 3 2.942 3 1.641 0 2.621-1.525 2.621-3h2c0 1.542 1.489 3 3.064 3 1.624 0 2.5-1.546 2.5-3h2c0 2.851-1.935 5-4.5 5M2 29.996v-2c1.384 0 2.51-1.426 2.51-3.178h2c0 1.752 1.126 3.178 2.511 3.178s2.512-1.426 2.512-3.178h2c0 1.752 1.126 3.178 2.511 3.178 1.384 0 2.51-1.426 2.51-3.178h2c0 1.752 1.126 3.178 2.511 3.178v2c-1.417 0-2.684-.754-3.511-1.93-.827 1.176-2.093 1.93-3.51 1.93s-2.684-.754-3.511-1.93c-.828 1.176-2.095 1.93-3.512 1.93s-2.684-.754-3.511-1.93c-.827 1.176-2.093 1.93-3.51 1.93m39.387-19.469A3.5 3.5 0 0 0 38.5 9a3.5 3.5 0 0 0-3.437 2.87c-.986.079-2.013.13-3.084.13C24.367 12 19.215 10.018 19 8.123V8h-.021c0-1.932 5.171-4 12.868-4 7.594 0 12.132 2.033 12.132 4v.001h-.021v.124c-.103 1.135-1.51 1.95-2.571 2.402M38.5 14a1.501 1.501 0 0 1 0-3 1.501 1.501 0 0 1 0 3m-4 10a1.501 1.501 0 0 1 0-3 1.501 1.501 0 0 1 0 3m-10-2a1.501 1.501 0 0 1 0-3 1.501 1.501 0 0 1 0 3M45.958 8.363q.02-.188.021-.363c0-3.645-5.547-6-14.132-6-7.4 0-14.868 1.855-14.868 6 0 .059.017.113.021.172V23h2V11.215C21.781 13.111 27.01 14 31.979 14c1.143 0 2.24-.054 3.296-.141.273.646.738 1.19 1.319 1.569l-1.434 3.638A3.5 3.5 0 0 0 34.5 19a3.49 3.49 0 0 0-3.272 2.291l-3.234-.736c0-.019.006-.036.006-.055 0-1.93-1.571-3.5-3.5-3.5S21 18.57 21 20.5s1.57 3.5 3.5 3.5a3.5 3.5 0 0 0 2.889-1.531l3.716.845A3.5 3.5 0 0 0 34.5 26c1.929 0 3.5-1.571 3.5-3.5 0-.98-.407-1.863-1.058-2.499l1.578-4.003A3.504 3.504 0 0 0 42 12.5c0-.021-.006-.04-.007-.061.8-.327 1.449-.68 1.969-1.048L44 39.818c0 1.939-4.206 4-12 4-.994 0-1.979-.035-2.928-.104l-.145 1.996a44 44 0 0 0 3.073.108c8.504 0 14-2.355 14-6.001z"/></svg>