<svg xmlns="http://www.w3.org/2000/svg" viewBox="0 0 48 48"><title>Icon-Resource/Quantum-Technologies/Res_Amazon-Braket_Tensor-Network_48</title><path fill="#ed7100" fill-rule="evenodd" d="M39.296 31.351q.416.331.805.667-.388.335-.805.666c.005-.222.013-.445.013-.666 0-.225-.009-.445-.013-.667m-2.501 6.374a26 26 0 0 1-.965-.359c.192-.106.383-.207.574-.318.192-.111.377-.226.565-.34q-.08.526-.174 1.017M33.5 44c-.899 0-2.032-1.573-2.828-4.312.921-.315 1.87-.701 2.826-1.141.961.443 1.909.823 2.831 1.137C35.533 42.425 34.4 44 33.5 44m-3.469-7.292c.188.114.373.229.565.34.194.113.388.215.584.323q-.492.193-.974.36-.095-.494-.175-1.023m-3.131-4.69q.387-.336.804-.667c-.005.223-.012.445-.012.667 0 .221.007.444.012.666a25 25 0 0 1-.804-.666m-3.777-5.992c.314-.543 1.523-.973 3.958-.557.39.066.795.157 1.207.259a31 31 0 0 0-.434 3.02 30 30 0 0 0-2.418 1.889c-.29-.302-.568-.603-.817-.903-1.581-1.906-1.809-3.165-1.496-3.708m8.056.639c-.195.107-.39.21-.583.322-.192.111-.377.227-.565.34q.08-.528.175-1.023.481.168.973.361m6.13 5.353c0 .75-.03 1.465-.074 2.158-.588.391-1.197.774-1.831 1.14a34 34 0 0 1-1.9 1.015 34 34 0 0 1-1.908-1.015 35 35 0 0 1-1.831-1.14 34 34 0 0 1-.073-2.158c0-.751.029-1.466.073-2.159a34 34 0 0 1 1.831-1.139c.635-.367 1.27-.703 1.904-1.017a33 33 0 0 1 3.734 2.155c.045.709.075 1.429.075 2.16m-.515-5.714q.096.5.174 1.022c-.189-.113-.372-.228-.564-.339-.193-.112-.388-.215-.583-.322q.492-.193.973-.361m3.125-.835c2.439-.416 3.646.016 3.958.557.314.543.085 1.802-1.496 3.708-.249.3-.527.602-.817.904a30 30 0 0 0-2.409-1.884 30 30 0 0 0-.431-3.028c.408-.102.809-.191 1.195-.257m3.09 6.549c.323-.336.633-.672.911-1.007 2.507-3.023 2.303-4.923 1.689-5.985-.613-1.061-2.157-2.188-6.027-1.529-.43.074-.875.174-1.328.286-.18-.62-.375-1.215-.598-1.76l-1.851.755c.195.479.369 1.011.529 1.568-.924.315-1.875.702-2.834 1.143a30 30 0 0 0-2.828-1.141c.796-2.74 1.929-4.313 2.828-4.313.483 0 .942.449 1.241.825l1.565-1.247c-1.041-1.304-2.101-1.578-2.806-1.578-2.181 0-3.776 2.412-4.739 5.752a19 19 0 0 0-1.343-.29c-3.867-.658-5.414.468-6.027 1.529-.614 1.062-.818 2.962 1.689 5.985.278.335.587.671.91 1.006-.309.322-.606.644-.875.965l1.535 1.282c.241-.288.507-.577.786-.867a30 30 0 0 0 2.418 1.891c.099 1.034.242 2.05.434 3.019-.412.102-.817.193-1.207.26-2.437.415-3.644-.016-3.958-.558-.296-.512.013-1.339.223-1.786l-1.811-.851c-.832 1.772-.538 2.956-.144 3.637.486.842 1.557 1.726 3.911 1.726.614 0 1.315-.06 2.116-.197a18 18 0 0 0 1.344-.29C29.724 43.588 31.319 46 33.5 46c2.18 0 3.776-2.412 4.738-5.751.641.158 1.265.287 1.859.368l.269-1.982a15 15 0 0 1-1.653-.331c.192-.968.334-1.983.434-3.016a30 30 0 0 0 2.417-1.89c.29.302.568.603.817.904 1.581 1.906 1.81 3.165 1.496 3.707-.247.427-.887.6-1.381.669l.279 1.981c1.692-.238 2.475-1.029 2.834-1.65.614-1.062.818-2.962-1.689-5.984a18 18 0 0 0-.911-1.007M14 43h2v-2h-2zM7 32h2v-2H7zm3-12h2v-2h-2zM21 6h2V4h-2zM4 6h2V4H4zm7 23a1 1 0 0 0-1-1h-.788l2.417-6H13a1 1 0 0 0 1-1v-3.745L21.924 8H24a1 1 0 0 0 1-1V3a1 1 0 0 0-1-1h-4a1 1 0 0 0-1 1v4c0 .345.186.634.45.814L12.442 16H9.774l-3.12-8H7a1 1 0 0 0 1-1V3a1 1 0 0 0-1-1H3a1 1 0 0 0-1 1v4a1 1 0 0 0 1 1h1.508l3.498 8.972c0 .01-.006.018-.006.028v4a1 1 0 0 0 1 1h.473l-2.418 6H6a1 1 0 0 0-1 1v4a1 1 0 0 0 1 1h2.023l3.985 5.959c0 .015-.008.027-.008.041v4a1 1 0 0 0 1 1h4a1 1 0 0 0 1-1v-4a1 1 0 0 0-1-1h-3.226l-3.396-5.076A1 1 0 0 0 11 33v-1h9v-2h-9zM36 6h2V4h-2zm-.496 10.247L37.77 8H39a1 1 0 0 0 1-1V3a1 1 0 0 0-1-1h-4a1 1 0 0 0-1 1v4a1 1 0 0 0 1 1h.696l-2.12 7.717z"/></svg>