<svg xmlns="http://www.w3.org/2000/svg" viewBox="0 0 48 48"><title>Icon-Resource/Database/Res_Amazon-RDS-Proxy-Instance_48</title><path fill="#c925d1" fill-rule="evenodd" d="M44.175 29.993v-3.758c-1.704 1-4.42 1.519-7.122 1.519-2.7 0-5.418-.518-7.122-1.52v3.759c0 .76 2.514 2.239 7.122 2.239s7.122-1.48 7.122-2.24m0 6.123v-3.648c-1.704 1-4.42 1.517-7.122 1.517-2.7 0-5.418-.516-7.122-1.517v3.648c0 .76 2.514 2.239 7.122 2.239s7.122-1.48 7.122-2.24m0 5.467V38.59c-1.704 1-4.42 1.517-7.122 1.517-2.7 0-5.418-.516-7.122-1.517v2.992c0 .76 2.514 2.239 7.122 2.239s7.122-1.48 7.122-2.24M29.931 23.76c0 .76 2.514 2.24 7.122 2.24s7.122-1.48 7.122-2.24-2.514-2.241-7.122-2.241-7.122 1.48-7.122 2.24m15.996 0v17.822c0 2.62-4.465 3.992-8.874 3.992s-8.875-1.371-8.875-3.992V23.76c0-2.622 4.465-3.993 8.875-3.993s8.874 1.37 8.874 3.993m-8.01-11.967q-.048.39-.207.557-.159.165-.473.166a3 3 0 0 1-.399-.034v.766q.375.125.731.125.473 0 .763-.275.292-.274.466-.89L40.2 7.313h-1.17l-.623 3.126-.639-3.126h-1.204l1.37 4.332zm-1.668-.233-1.237-2.136 1.171-2.113h-1.12l-.575 1.306-.623-1.306h-1.219l1.171 2.113-1.188 2.136h1.121l.59-1.347.69 1.347zm-6.04-1.085q-.139-.33-.138-1.035 0-.707.138-1.04.136-.332.444-.333.308 0 .444.333.137.333.138 1.04 0 .706-.138 1.035-.136.329-.444.329t-.444-.33m1.714.61q.449-.581.448-1.645 0-1.073-.448-1.655-.449-.582-1.27-.582-.822 0-1.27.582-.45.582-.449 1.655 0 1.064.448 1.646.45.582 1.271.582t1.27-.582m-4.518.475V8.46q.36-.2.756-.2.208 0 .441.042V7.296a1.4 1.4 0 0 0-.266-.026 1 1 0 0 0-.518.142q-.247.142-.496.449l-.124-.55h-.929v4.25zM23.08 6.664h.54q.323 0 .493.24.171.241.171.707t-.17.707a.57.57 0 0 1-.495.24h-.539zm.681 2.76q.765 0 1.216-.487.453-.485.453-1.326 0-.84-.453-1.326-.451-.486-1.216-.486h-1.818v5.762h1.137V9.425zm-6.244-.191q.34.182.485.362a.67.67 0 0 1 .146.436q0 .348-.207.536t-.607.188q-.273 0-.66-.08a4.6 4.6 0 0 1-.693-.195v.873q.265.15.656.242.39.09.78.09.898 0 1.407-.461.511-.46.511-1.252 0-.406-.12-.693a1.5 1.5 0 0 0-.374-.52 3.4 3.4 0 0 0-.685-.466l-.448-.241q-.366-.198-.494-.366a.67.67 0 0 1-.129-.424.61.61 0 0 1 .2-.482q.199-.175.547-.175.515 0 1.188.249v-.881a3.1 3.1 0 0 0-1.304-.3q-.523 0-.926.205-.402.204-.635.582a1.66 1.66 0 0 0-.232.886q0 .548.266.93.265.383.88.716zm-4.533-2.545q.556 0 .817.462.262.461.262 1.443v.166q0 .973-.266 1.443a.87.87 0 0 1-.806.47h-.49V6.688zm.132 4.873q1.048 0 1.594-.732.548-.73.548-2.153 0-1.414-.557-2.146-.555-.73-1.627-.731H11.34v5.762zM8.052 6.664h.54q.323 0 .493.24.17.241.171.707-.001.466-.17.707a.57.57 0 0 1-.495.24h-.539zM10.7 11.56 9.537 9.25q.417-.21.64-.632.225-.424.225-1.007 0-.84-.454-1.326-.452-.486-1.215-.486H6.914v5.762h1.138V9.425H8.5l1.005 2.136zm16.713 34.255H7.651a5.657 5.657 0 0 1-5.65-5.65V7.65A5.657 5.657 0 0 1 7.65 2h32.514a5.657 5.657 0 0 1 5.651 5.65v12.753h-1.752V7.65a3.9 3.9 0 0 0-3.899-3.897H7.651A3.9 3.9 0 0 0 3.752 7.65v32.516a3.9 3.9 0 0 0 3.9 3.897h19.761z"/></svg>