<svg xmlns="http://www.w3.org/2000/svg" viewBox="0 0 48 48"><title>Icon-Resource/Storage/Res_Amazon-Simple-Storage-Service_S3-Storage-Lens_48</title><path fill="#7aa116" fill-rule="evenodd" d="M10.604 25.036v-2a5.767 5.767 0 0 1 5.761 5.761h-2a3.766 3.766 0 0 0-3.761-3.761m30.209.98.284-1.75c2.048 1.2 2.674 1.892 2.859 2.187-.315.06-1.167.084-3.143-.437M23.641 13.481c-10.342 0-17.348-2.469-17.862-4.253l-.029-.209C5.889 7.227 13.227 4 23.641 4c10.415 0 17.754 3.227 17.893 5.019l-.029.209c-.514 1.784-7.521 4.253-17.864 4.253M17 28.5c0 3.584-2.917 6.5-6.5 6.5A6.51 6.51 0 0 1 4 28.5c0-3.584 2.916-6.5 6.5-6.5s6.5 2.916 6.5 6.5m28.999-2.251c-.225-1.198-1.639-2.464-4.561-4.089l2.033-12.541c.002-.009-.002-.019-.001-.028h.005l.052-.388a1 1 0 0 0 .009-.132C43.536 4.904 33.051 2 23.641 2S3.749 4.904 3.749 9.071q0 .066.008.132l.052.388.011-.001c.003.022-.005.044 0 .066l2.322 11.56C3.666 22.703 2 25.407 2 28.5c0 4.687 3.813 8.5 8.5 8.5a8.4 8.4 0 0 0 2.843-.5l4.765 9.165 1.775-.922-4.745-9.129C17.459 34.095 19 31.476 19 28.5c0-4.687-3.814-8.5-8.5-8.5-.866 0-1.7.132-2.487.373l-1.599-7.962c3.68 2.024 10.62 3.07 17.227 3.07 6.689 0 13.718-1.071 17.363-3.145L38.88 25.441c-4.461-1.45-10.172-4.044-12.892-5.321.002-.041.012-.079.012-.12 0-1.103-.898-2-2-2-1.103 0-2 .897-2 2s.897 2 2 2c.308 0 .597-.076.858-.201 3.043 1.437 9.027 4.157 13.698 5.64L36.35 41.046c-.432.59-3.835 3.005-12.709 3.005v2c9.271 0 14.481-2.734 14.686-4.696l2.165-13.358c1.239.319 2.248.488 3.036.488.99 0 1.658-.252 2.083-.759.349-.417.487-.941.388-1.477"/></svg>