<svg xmlns="http://www.w3.org/2000/svg" viewBox="0 0 48 48"><title>Icon-Resource/Analytics/Res_Amazon-Redshift_ML_48</title><path fill="#8c4fff" fill-rule="evenodd" d="M41.391 10.527A3.5 3.5 0 0 0 38.5 8.996a3.5 3.5 0 0 0-3.436 2.874c-.986.08-2.013.13-3.084.13-7.611 0-12.765-1.981-12.98-3.877v-.127h-.019C18.989 6.065 24.157 4 31.848 4c7.59 0 12.127 2.032 12.132 3.997h-.022v.129c-.102 1.133-1.507 1.948-2.567 2.401M38.5 13.996c-.827 0-1.5-.673-1.5-1.5s.673-1.5 1.5-1.5a1.501 1.501 0 0 1 0 3m-4 10c-.827 0-1.5-.673-1.5-1.5s.673-1.5 1.5-1.5a1.501 1.501 0 0 1 0 3m-10-2c-.827 0-1.5-.673-1.5-1.5s.673-1.5 1.5-1.5a1.501 1.501 0 0 1 0 3M22 32.506v3.868l-2.392 1.019a1 1 0 0 0-.608.92v3.014l-3.242 2.476L14 42.848V26.256l2.116-1.035L19 27.658v2.762a1 1 0 0 0 .563.899zm-10 10.34-1.766.955L7 41.33v-2.913a1 1 0 0 0-.608-.92L4 36.478l.001-2.074L4 32.506l2.438-1.187A1 1 0 0 0 7 30.42v-3.116l2.843-2.103L12 26.256zM45.959 8.363q.02-.187.021-.363c0-3.645-5.547-6-14.132-6-7.4 0-14.868 1.856-14.868 6 0 .059.017.114.02.172v12.824h2v-9.78C21.782 13.112 27.011 14 31.98 14c1.143 0 2.241-.054 3.298-.14a3.5 3.5 0 0 0 1.318 1.565l-1.434 3.638a3.4 3.4 0 0 0-.662-.067c-1.505 0-2.779.96-3.273 2.295l-3.232-.735c0-.02.005-.04.005-.06 0-1.93-1.57-3.5-3.5-3.5s-3.5 1.57-3.5 3.5c0 1.001.429 1.9 1.106 2.539l-2.322 2.667-2.875-2.429a1 1 0 0 0-1.085-.135L13 24.518l-2.824-1.38a1 1 0 0 0-1.034.094l-3.736 2.763a1 1 0 0 0-.406.804v2.995l-2.437 1.188a1 1 0 0 0-.563.899v5.258a1 1 0 0 0 .609.92L5 39.078v2.747c0 .311.146.605.393.794l4.14 3.163a1 1 0 0 0 1.083.086l2.383-1.288 2.373 1.29a1 1 0 0 0 1.084-.084l4.151-3.169c.248-.19.393-.484.393-.795v-2.848l2.393-1.02a1 1 0 0 0 .607-.92v-5.153a1 1 0 0 0-.562-.899L21 29.795v-2.444l2.967-3.409c.175.027.351.054.533.054a3.5 3.5 0 0 0 2.887-1.527l3.72.846a3.5 3.5 0 0 0 3.393 2.681c1.93 0 3.5-1.571 3.5-3.5 0-.979-.406-1.863-1.055-2.498l1.578-4.005A3.5 3.5 0 0 0 42 12.496c0-.02-.005-.037-.005-.057.798-.327 1.486-.68 2.005-1.047l.037 28.427c0 1.938-4.243 4-12.037 4-3.596 0-6.931-.452-9.39-1.272l-.633 1.897c2.657.887 6.217 1.375 10.023 1.375 8.505 0 14-2.355 14-6.002z"/></svg>