<svg xmlns="http://www.w3.org/2000/svg" viewBox="0 0 48 48"><title>Icon-Resource/Storage/Res_Amazon-Simple-Storage-Service_S3-Select_48</title><path fill="#7aa116" fill-rule="evenodd" d="M38.122 39.521c-.08.147-.122.312-.122.479v4h-3v-4c0-.167-.042-.332-.122-.479L29.684 30h13.631zM45.86 28.49A1 1 0 0 0 45 28H28a1 1 0 0 0-.878 1.479L33 40.255V45a1 1 0 0 0 1 1h5a1 1 0 0 0 1-1v-4.745l5.878-10.776a1 1 0 0 0-.018-.989M19.416 4c8.811 0 15.277 2.751 15.416 4.227l-.023.179c-.503 1.473-6.659 3.57-15.393 3.57S4.525 9.878 4.026 8.405l-.024-.179C4.143 6.75 10.607 4 19.416 4m17.711 18.16c.03.086.036.157-.022.272-.011.024-.075.067-.186.104-.45.149-1.139.133-1.994-.006l.263-1.95c.824.443 1.751 1.038 1.939 1.58M27.125 37.739c-2.231.515-4.968.8-7.709.8-7.309 0-11.564-1.838-11.69-2.585a1 1 0 0 0-.009-.133L4.413 11.282c3.239 1.773 9.259 2.694 15.003 2.694 5.745 0 11.766-.921 15.005-2.694l-1.454 10.8c-3.249-.903-7.618-2.742-10.994-4.353A2 2 0 0 0 20 16c-1.103 0-2 .897-2 2s.897 2 2 2c.456 0 .872-.159 1.209-.417 2.702 1.291 7.559 3.471 11.491 4.484l-.226 1.679 1.982.267.207-1.536c.546.083 1.068.14 1.529.14.519 0 .978-.057 1.358-.184.784-.261 1.164-.745 1.344-1.106a2.3 2.3 0 0 0 .122-1.825c-.493-1.414-2.268-2.407-3.545-3.026l1.31-9.73-.001-.001.001-.004.044-.338a1 1 0 0 0 .009-.129C36.834 4.521 27.828 2 19.416 2S2 4.521 2 8.274q0 .066.009.132l.045.338v.002l3.673 27.286c.125 3.304 8.228 4.507 13.689 4.507 2.888 0 5.786-.303 8.159-.851.958-.221 1.818-.48 2.556-.772l-.735-1.86c-.645.255-1.409.484-2.271.683M10.724 24 13 20.016 15.276 24zm7.141 1.502a1 1 0 0 0 .003-.998l-4-7c-.355-.623-1.381-.623-1.736 0l-4 7A1 1 0 0 0 9 26h8c.356 0 .685-.19.865-.498m5.329 2.695a2.493 2.493 0 0 0 2.49 2.49v2a4.496 4.496 0 0 1-4.49-4.49 4.495 4.495 0 0 1 4.49-4.49c1.281 0 2.504.549 3.357 1.508l-1.494 1.329a2.493 2.493 0 0 0-4.353 1.653M13 34h4v-4h-4zm-1 2h6a1 1 0 0 0 1-1v-6a1 1 0 0 0-1-1h-6a1 1 0 0 0-1 1v6a1 1 0 0 0 1 1"/></svg>