<svg xmlns="http://www.w3.org/2000/svg" viewBox="0 0 48 48"><title>Icon-Resource/Management-Governance/Res_Amazon-CloudWatch_Evidently_48</title><path fill="#e7157b" fill-rule="evenodd" d="M9.5 21c1.379 0 2.5 1.122 2.5 2.5S10.879 26 9.5 26A2.503 2.503 0 0 1 7 23.5C7 22.122 8.121 21 9.5 21m14-9c1.379 0 2.5 1.122 2.5 2.5S24.879 17 23.5 17a2.503 2.503 0 0 1-2.5-2.5c0-1.378 1.121-2.5 2.5-2.5m16-8C40.879 4 42 5.122 42 6.5S40.879 9 39.5 9A2.503 2.503 0 0 1 37 6.5C37 5.122 38.121 4 39.5 4m-30 24c2.481 0 4.5-2.019 4.5-4.5a4.5 4.5 0 0 0-.346-1.722l6.842-3.91-.045-.079A4.47 4.47 0 0 0 23.5 19c2.481 0 4.5-2.019 4.5-4.5 0-.447-.086-.87-.207-1.278l8.105-4.053A4.48 4.48 0 0 0 39.5 11c2.481 0 4.5-2.019 4.5-4.5S41.981 2 39.5 2A4.505 4.505 0 0 0 35 6.5c0 .287.033.567.085.839l-8.275 4.138A4.47 4.47 0 0 0 23.5 10a4.505 4.505 0 0 0-4.5 4.5c0 .61.125 1.191.346 1.722l-6.842 3.91.045.079A4.47 4.47 0 0 0 9.5 19 4.505 4.505 0 0 0 5 23.5C5 25.981 7.019 28 9.5 28M42 41c0 1.654-1.346 3-3 3s-3-1.346-3-3V15h6zm4-28H32v2h2v26c0 2.757 2.243 5 5 5s5-2.243 5-5V15h2zM27 41c0 1.654-1.346 3-3 3s-3-1.346-3-3V23h6zM17 23h2v18c0 2.757 2.243 5 5 5s5-2.243 5-5V23h2v-2H17zm-5 18c0 1.654-1.346 3-3 3s-3-1.346-3-3V31h6zM2 31h2v10c0 2.757 2.243 5 5 5s5-2.243 5-5V31h2v-2H2z"/></svg>