<svg xmlns="http://www.w3.org/2000/svg" viewBox="0 0 48 48"><title>Icon-Resource/Compute/Res_Amazon-EC2_Instance-with-CloudWatch_48</title><path fill="#ed7100" fill-rule="evenodd" d="M37.545 37.089a.56.56 0 0 1-.792 0l-3.819-3.817c.282-.253.546-.526.784-.821l3.829 3.847a.56.56 0 0 1-.002.791m-14.127-8.966a4.92 4.92 0 0 1 4.915-4.915 4.92 4.92 0 0 1 4.915 4.915 4.92 4.92 0 0 1-4.915 4.915 4.92 4.92 0 0 1-4.915-4.915m11.341 2.539a6.9 6.9 0 0 0 .489-2.539 6.923 6.923 0 0 0-6.915-6.915c-3.812 0-6.915 3.103-6.915 6.915a6.923 6.923 0 0 0 6.915 6.915 6.9 6.9 0 0 0 2.896-.643l4.11 4.108a2.55 2.55 0 0 0 1.81.749c.656 0 1.311-.25 1.81-.749a2.56 2.56 0 0 0 .005-3.616zm-4.505-5.717-1.189 1.608a1.698 1.698 0 0 0-2.69 1.612c.066.448.304.844.668 1.113l-1.191 1.608a3.67 3.67 0 0 1-1.455-2.427 3.67 3.67 0 0 1 .686-2.745 3.7 3.7 0 0 1 5.171-.769m9.506.498c0 3.117-1.694 4.718-3.113 5.513l-.977-1.746c1.387-.775 2.09-2.043 2.09-3.767 0-3.336-2.785-4.169-3.983-4.373a1 1 0 0 1-.826-1.095c-.173-1.965-1.287-2.847-2.332-2.847-.65 0-1.264.325-1.684.892a.998.998 0 0 1-1.745-.26c-.433-1.21-1.054-2.225-1.846-3.018-.966-.965-3.614-3.038-7.353-1.459-2.153.908-3.84 3.527-3.84 5.962 0 .275.016.549.048.814a1 1 0 0 1-.796 1.098c-1.242.327-3.27 1.31-3.27 4.242 0 2.243 1.222 3.479 2.247 4.121.314.2.686.306 1.078.31l6.786.007-.002 2-6.796-.007a4.03 4.03 0 0 1-2.134-.619c-1.184-.741-3.179-2.487-3.179-5.812 0-2.823 1.486-4.991 4.021-5.941l-.003-.213c0-3.233 2.176-6.589 5.062-7.804 3.374-1.424 6.94-.718 9.545 1.887a9.5 9.5 0 0 1 1.736 2.413 4 4 0 0 1 2.125-.613c1.791 0 3.798 1.301 4.258 4.138 2.483.67 4.883 2.576 4.883 6.177m4.067 13.937a4.45 4.45 0 0 1-4.448 4.447H8.448A4.45 4.45 0 0 1 4 39.38V8.448A4.453 4.453 0 0 1 8.448 4h30.931a4.453 4.453 0 0 1 4.448 4.448zM39.379 2H8.448A6.456 6.456 0 0 0 2 8.448V39.38a6.455 6.455 0 0 0 6.448 6.447h30.931a6.454 6.454 0 0 0 6.448-6.447V8.448A6.455 6.455 0 0 0 39.379 2"/></svg>