<svg xmlns="http://www.w3.org/2000/svg" viewBox="0 0 48 48"><title>Icon-Resource/Storage/Res_Amazon-Simple-Storage-Service_S3-Glacier-Deep-Archive_48</title><path fill="#7aa116" fill-rule="evenodd" d="m43.858 39.766 1.157 1.156-1.414 1.414-1.447-1.446v.02h-2.049l.91 1.58 2.16.607-.54 1.926-1.545-.435-.423 1.58-1.932-.517.57-2.126-1.007-1.746-.989 1.71.554 2.173-1.938.495-.395-1.554-1.58.423-.518-1.932 2.124-.568.935-1.616h-2.033l-1.473 1.435-1.397-1.432 1.15-1.12-1.158-1.156 1.414-1.414 1.686 1.687h1.961l-1.065-1.841-2.156-.607.542-1.925 1.542.434.424-1.58 1.932.518-.57 2.128 1.008 1.744.987-1.712-.553-2.172 1.938-.494.395 1.554 1.581-.423.518 1.93-2.128.572-1.08 1.874h1.917l1.737-1.696 1.396 1.432zm-14.303 0 1.157 1.156-1.415 1.414-1.426-1.426h-2.069l.911 1.58 2.16.607-.542 1.926-1.543-.435-.424 1.58-1.932-.517.57-2.124-1.008-1.748-.989 1.709.554 2.175-1.937.493-.396-1.553-1.58.423-.517-1.932 2.124-.568.934-1.616h-2.032l-1.473 1.435-1.396-1.432 1.148-1.12-1.157-1.156 1.414-1.414 1.687 1.687h1.96l-1.066-1.842-2.155-.606.541-1.925 1.544.434.423-1.58 1.931.518-.57 2.129 1.008 1.743.988-1.713-.553-2.171 1.938-.494.395 1.553 1.58-.422.518 1.93-2.126.572-1.082 1.874h1.918l1.736-1.696 1.397 1.432zM22.885 4c10.411 0 17.748 3.227 17.884 5.019l-.025.192a1.1 1.1 0 0 1-.13.277c-.015.023-.022.045-.038.068a2 2 0 0 1-.246.279c-.026.026-.042.05-.069.075a4 4 0 0 1-.36.285c-.035.025-.062.05-.099.075a7 7 0 0 1-.48.293c-.04.022-.073.046-.115.068-.19.103-.4.205-.62.307-.039.016-.07.034-.107.052-.245.109-.512.217-.792.325l-.063.025c-3.082 1.162-8.253 2.132-14.737 2.132-8.43 0-14.649-1.642-16.935-3.214l-.004-.004a4 4 0 0 1-.445-.35c-.017-.016-.028-.032-.044-.048a2 2 0 0 1-.266-.301c-.019-.027-.027-.054-.044-.082a1 1 0 0 1-.123-.257l-.025-.197c.135-1.792 7.471-5.02 17.882-5.02m20.3 22.444c-.29.054-1.034.083-2.703-.324l.221-1.638c1.732 1.053 2.305 1.687 2.482 1.962m-20.03-6.535h1l-1 .002zm-13.873 21a1 1 0 0 0-.009-.132l-3.832-28.5q.347.203.735.39c.156.077.323.149.487.22q.22.1.452.195.28.114.572.222.214.078.434.152 1.137.39 2.444.706l.345.082q.438.1.89.194.12.023.24.047a46 46 0 0 0 3.404.542c1.567.192 3.192.323 4.83.39l.15.006a63 63 0 0 0 2.46.054c.81 0 1.623-.022 2.437-.053l.218-.01a60 60 0 0 0 3.521-.247l.168-.015q.519-.054 1.028-.117l.365-.046q.5-.064.988-.135l.041-.007a45 45 0 0 0 1.918-.33q.233-.045.463-.091.386-.08.76-.166.265-.061.524-.125c.233-.057.466-.113.69-.175q.494-.132.956-.275c.203-.063.396-.13.591-.194a22 22 0 0 0 1.066-.392q.285-.117.554-.238c.136-.061.275-.12.404-.183q.396-.193.751-.397L38.538 25.57c-4.559-1.434-10.636-4.201-13.4-5.5.004-.054.016-.106.016-.16 0-1.103-.898-2-2-2-1.103 0-2 .897-2 2s.897 2 2 2c.291 0 .566-.067.816-.18 3.1 1.468 9.505 4.388 14.297 5.849l-.563 4.185 1.982.27.527-3.92c1.023.24 1.864.362 2.55.362.99 0 1.657-.253 2.082-.76.35-.416.488-.94.388-1.476-.216-1.153-1.542-2.37-4.24-3.907l1.702-12.658q.01-.044.017-.088l.05-.388a1 1 0 0 0 .01-.13c0-4.165-10.48-7.07-19.888-7.07C13.48 2 3 4.905 3 9.07q0 .065.008.13l.051.388q.003.018.007.035l4.217 31.365c.097 2.822 5.56 4.063 8.828 4.554l.297-1.978c-5.438-.816-7.126-2.231-7.126-2.653"/></svg>