<svg xmlns="http://www.w3.org/2000/svg" viewBox="0 0 48 48"><title>Icon-Resource/Storage/Res_Amazon-Simple-Storage-Service_S3-Object-Lambda-Access-Points_48</title><path fill="#7aa116" fill-rule="evenodd" d="m26.512 41.141 1.389 1.438-3.267 3.156a.996.996 0 0 1-1.413-.024l-3.158-3.264 1.437-1.39 1.5 1.55V34h2v8.6zm.717-3.263-.428-1.954c5.705-1.25 9.846-6.403 9.846-12.253 0-6.916-5.627-12.543-12.543-12.543-6.917 0-12.544 5.627-12.544 12.543 0 5.83 3.954 10.847 9.615 12.2l-.465 1.946A14.49 14.49 0 0 1 9.56 23.671c0-8.019 6.524-14.543 14.544-14.543 8.018 0 14.543 6.524 14.543 14.543 0 6.783-4.802 12.758-11.418 14.207M46 19.826v8.347a1 1 0 0 1-1.056.999l-2.659-.152a18.8 18.8 0 0 1-1.804 4.36l1.986 1.772a1 1 0 0 1 .041 1.453l-5.902 5.902a.95.95 0 0 1-.736.293 1 1 0 0 1-.717-.334l-1.767-1.98a19 19 0 0 1-3.955 1.692l-.572-1.917a16.8 16.8 0 0 0 4.188-1.904.996.996 0 0 1 1.28.18l1.613 1.808 4.405-4.406-1.813-1.617a1 1 0 0 1-.18-1.28 16.9 16.9 0 0 0 2.188-5.287c.108-.478.57-.81 1.033-.779l2.427.139v-6.23l-2.429.138a1.025 1.025 0 0 1-1.033-.778 16.8 16.8 0 0 0-2.191-5.283 1 1 0 0 1 .18-1.28l1.818-1.622-4.405-4.405-1.627 1.824a1 1 0 0 1-1.28.18 16.8 16.8 0 0 0-5.279-2.188 1 1 0 0 1-.777-1.033L27.116 4h-6.231l.139 2.436a1 1 0 0 1-.778 1.033 16.8 16.8 0 0 0-5.282 2.186 1 1 0 0 1-1.279-.18l-1.624-1.82-4.405 4.405 1.821 1.625c.364.326.44.867.18 1.281a16.8 16.8 0 0 0-2.193 5.28 1.03 1.03 0 0 1-1.032.777L4 20.885v6.23l2.425-.139c.46-.031.925.301 1.032.779a16.8 16.8 0 0 0 2.189 5.29c.261.414.184.955-.181 1.281l-1.809 1.613 4.405 4.406 1.615-1.811a1 1 0 0 1 1.28-.181 17 17 0 0 0 4.066 1.87l-.586 1.912a19 19 0 0 1-3.819-1.652l-1.769 1.983a1 1 0 0 1-.718.334h-.028a1 1 0 0 1-.707-.293l-5.903-5.902a1 1 0 0 1 .042-1.454l1.983-1.767a18.8 18.8 0 0 1-1.805-4.364l-2.655.152A1.001 1.001 0 0 1 2 28.173v-8.347a1 1 0 0 1 1.057-.998l2.663.151a18.7 18.7 0 0 1 1.808-4.353l-1.995-1.778a.997.997 0 0 1-.041-1.453l5.903-5.902a.998.998 0 0 1 1.453.041l1.778 1.992a18.8 18.8 0 0 1 4.354-1.802l-.152-2.667A1 1 0 0 1 19.826 2h8.348a1 1 0 0 1 .998 1.057l-.151 2.669a18.8 18.8 0 0 1 4.35 1.804l1.782-1.996a.996.996 0 0 1 1.453-.041l5.902 5.902a1 1 0 0 1-.041 1.453l-1.99 1.775a18.8 18.8 0 0 1 1.806 4.356l2.661-.151a1 1 0 0 1 1.056.998M27 26c1.103 0 2 .897 2 2s-.897 2-2 2-2-.897-2-2 .898-2 2-2m0 6c2.206 0 4-1.795 4-4s-1.794-4-4-4-4 1.794-4 4 1.794 4 4 4m1.438-14.91L30.03 20h-3.251zM25.057 22h6.659a.998.998 0 0 0 .877-1.48l-3.26-5.96a1 1 0 0 0-.868-.52c-.327.011-.697.19-.877.504l-3.399 5.96a1 1 0 0 0 .004.998 1 1 0 0 0 .864.498M16 25h3v-3h-3zm-1-5a1 1 0 0 0-1 1v5a1 1 0 0 0 1 1h5a1 1 0 0 0 1-1v-5a1 1 0 0 0-1-1z"/></svg>