<svg xmlns="http://www.w3.org/2000/svg" viewBox="0 0 48 48"><title>Icon-Resource/Quantum-Technologies/Res_Amazon-Braket_Noise-Simulator_48</title><path fill="#ed7100" fill-rule="evenodd" d="m19.537 29.474.549 1.923c-1.332.38-2.717.573-4.115.573-2.865 0-5.663-.839-8.059-2.369v7.155C7.912 40.074 5.936 46 2 46v-2c2.232 0 3.912-4.394 3.912-7.244V2h2v2.397a14.95 14.95 0 0 1 8.059-2.367C24.224 2.03 30.94 8.745 30.94 17q0 .248-.008.495l-1.999-.063q.007-.216.007-.432c0-7.152-5.818-12.97-12.969-12.97a12.94 12.94 0 0 0-8.059 2.823v20.302a13 13 0 0 0 11.625 2.319m19.75 1.863q.418.333.799.663-.38.33-.799.663c.005-.221.013-.442.013-.663 0-.223-.009-.442-.013-.663m-2.502 6.38q-.48-.167-.971-.361c.193-.106.386-.209.578-.32.191-.11.379-.228.568-.341q-.08.527-.175 1.022M33.484 44c-.901 0-2.036-1.576-2.833-4.32a30 30 0 0 0 2.831-1.143c.963.444 1.912.825 2.837 1.14C35.521 42.422 34.386 44 33.484 44m-3.474-7.305c.189.113.375.23.567.341.195.113.392.216.587.325q-.494.194-.979.363a25 25 0 0 1-.175-1.029M26.873 32q.39-.336.81-.67c-.005.224-.013.448-.013.67s.008.447.013.671q-.42-.333-.81-.671m-3.78-6c.312-.543 1.518-.974 3.965-.559.391.067.797.158 1.209.261-.193.97-.334 1.989-.435 3.025a30 30 0 0 0-2.422 1.893 17 17 0 0 1-.819-.906c-1.583-1.909-1.813-3.17-1.498-3.714m8.071.64c-.196.108-.394.213-.587.324q-.287.17-.567.342.08-.531.175-1.029.485.169.979.363M37.3 32c0 .752-.03 1.467-.074 2.161-.578.385-1.183.768-1.834 1.143q-.952.547-1.904 1.017a33 33 0 0 1-1.911-1.017 33 33 0 0 1-1.834-1.142A34 34 0 0 1 29.67 32c0-.752.029-1.468.073-2.162.59-.392 1.199-.775 1.834-1.141a34 34 0 0 1 1.91-1.018 32.61 32.61 0 0 1 3.737 2.16c.046.71.076 1.43.076 2.161m-.514-5.716q.095.5.173 1.022c-.19-.114-.376-.232-.567-.342-.192-.111-.386-.214-.58-.321q.498-.194.974-.359M43.877 26c.451.782-.351 2.558-2.335 4.625a31 31 0 0 0-2.395-1.882 30 30 0 0 0-.431-3.035c2.777-.682 4.711-.488 5.161.292m1.732-1c-1.093-1.89-3.982-2.067-7.36-1.229a18 18 0 0 0-.604-1.778l-1.851.755c.197.484.373 1.021.534 1.585-.936.318-1.888.704-2.835 1.135a30 30 0 0 0-2.842-1.147C31.448 21.577 32.583 20 33.484 20c.485 0 .944.45 1.244.827l1.565-1.246C35.253 18.275 34.191 18 33.484 18c-2.182 0-3.78 2.416-4.744 5.76-.458-.114-.91-.216-1.346-.29-3.876-.662-5.42.468-6.034 1.53s-.818 2.965 1.692 5.991c.278.336.589.673.912 1.009-.31.323-.608.645-.876.967l1.535 1.282c.241-.289.508-.579.787-.869a30 30 0 0 0 2.422 1.894c.101 1.036.242 2.055.435 3.025-.412.103-.818.194-1.209.26-2.447.417-3.652-.015-3.965-.559-.297-.513.012-1.341.223-1.79l-1.81-.85c-.833 1.773-.539 2.958-.146 3.64.487.844 1.559 1.728 3.916 1.727.615 0 1.317-.06 2.118-.196a19 19 0 0 0 1.346-.29C29.704 43.585 31.302 46 33.484 46s3.782-2.415 4.744-5.759c.642.159 1.268.288 1.864.369l.267-1.982a16 16 0 0 1-1.657-.332c.194-.972.336-1.993.436-3.031a31 31 0 0 0 2.404-1.89c1.984 2.067 2.786 3.844 2.335 4.625-.247.429-.889.601-1.383.671l.277 1.98c1.695-.238 2.479-1.029 2.838-1.651 1.093-1.893-.206-4.49-2.627-7 2.421-2.509 3.72-5.106 2.627-7"/></svg>