<svg xmlns="http://www.w3.org/2000/svg" viewBox="0 0 48 48"><title>Icon-Resource/Database/Res_Amazon-Aurora-MariaDB-Instance_48</title><path fill="#c925d1" fill-rule="evenodd" d="M40.347 13.515q0-.545-.245-.84-.246-.294-.703-.294h-.785v2.246h.872q.413 0 .638-.284.223-.283.223-.828m-1.733-2.17h.61a.73.73 0 0 0 .6-.272q.218-.272.218-.763 0-.502-.19-.78a.61.61 0 0 0-.53-.278h-.708zm2.005.404q.601.207.91.675.313.47.312 1.167 0 .97-.633 1.548t-1.69.578h-2.343V8.162h2.278q.904 0 1.483.556.578.556.578 1.45 0 .566-.23.97a1.46 1.46 0 0 1-.665.61m-6.3.076q0-1.287-.344-1.891t-1.072-.606h-.633v5.222h.642q.708 0 1.058-.615c.23-.411.35-1.041.35-1.892zm.84-2.704q.729.961.729 2.813 0 1.864-.72 2.823-.718.96-2.092.96h-2.333V8.162h2.279q1.405 0 2.137.959m-7.152 4.274a1.9 1.9 0 0 0-.567-.076q-.315 0-.485.202t-.17.582q0 .327.137.518a.43.43 0 0 0 .365.19q.36 0 .72-.348zm.087 1.82a1.37 1.37 0 0 1-.534.464q-.35.18-.71.18-.676 0-1.066-.442-.393-.443-.393-1.215 0-.818.479-1.291.48-.475 1.297-.475.339 0 .84.13v-.501q0-.567-.147-.77-.148-.2-.55-.2-.655 0-1.604.349v-.992q.316-.209.829-.328a4.6 4.6 0 0 1 1.047-.12q.948 0 1.373.43.426.432.425 1.38v3.903h-1.155zm-5.31.502h1.494v-5.57h-1.493zm1.385-7.91q-.24-.222-.632-.223-.404.001-.642.224-.24.222-.24.605 0 .382.24.605.239.224.642.224.394 0 .632-.224.24-.224.24-.605 0-.382-.24-.605m-3.77 3.059-.164-.72h-1.221v5.57h1.493v-4.065a2 2 0 0 1 .99-.262q.275 0 .579.055v-1.32a2 2 0 0 0-.347-.032q-.36 0-.682.186-.322.184-.648.588m-4.023 2.529a1.9 1.9 0 0 0-.566-.076q-.317 0-.485.202-.17.202-.17.582 0 .327.137.518.135.19.365.19.36 0 .719-.348zm0-.828v-.502q0-.567-.147-.77-.146-.2-.551-.2-.654 0-1.602.349v-.992q.316-.209.829-.328.511-.12 1.046-.12.948 0 1.373.43.426.432.425 1.38v3.903h-1.155l-.131-.502a1.37 1.37 0 0 1-.534.464 1.5 1.5 0 0 1-.71.18q-.675 0-1.066-.442-.394-.443-.393-1.215 0-.818.48-1.291.48-.475 1.297-.475.337 0 .839.13m-3.794 3.15V8.162h-1.7l-1.558 4.23-1.56-4.23H6.02v7.555h1.362v-5.265l1.265 3.4h1.298l1.274-3.433v5.298zM43.97 29.986v-3.532c-1.728.944-4.35 1.43-6.96 1.43-2.608 0-5.23-.487-6.96-1.43v3.532c0 .629 2.369 2.1 6.96 2.1 4.593 0 6.96-1.471 6.96-2.1m0 6.093v-3.422c-1.728.943-4.35 1.43-6.96 1.43-2.608 0-5.23-.487-6.96-1.43v3.422c0 .628 2.369 2.1 6.96 2.1 4.593 0 6.96-1.472 6.96-2.1m0 5.44v-2.77c-1.728.944-4.35 1.43-6.96 1.43-2.608 0-5.23-.486-6.96-1.43v2.77c0 .629 2.369 2.1 6.96 2.1 4.593 0 6.96-1.471 6.96-2.1M30.05 23.785c0 .628 2.369 2.1 6.96 2.1 4.593 0 6.96-1.472 6.96-2.1s-2.367-2.101-6.96-2.101c-4.591 0-6.96 1.473-6.96 2.1m15.92 0V41.52c0 2.692-4.507 4.1-8.96 4.1-4.451 0-8.96-1.408-8.96-4.1V23.784c0-2.693 4.509-4.101 8.96-4.101 4.453 0 8.96 1.408 8.96 4.1M7.75 43.86h19.668v2H7.75A5.76 5.76 0 0 1 2 40.11V7.75A5.76 5.76 0 0 1 7.75 2h32.36a5.76 5.76 0 0 1 5.75 5.75v12.693h-2V7.75A3.756 3.756 0 0 0 40.11 4H7.75A3.756 3.756 0 0 0 4 7.75v32.36a3.756 3.756 0 0 0 3.75 3.75"/></svg>