<svg xmlns="http://www.w3.org/2000/svg" viewBox="0 0 48 48"><title>Icon-Resource/Containers/Res_Amazon-Elastic-Container-Registry_Registry_48</title><path fill="#ed7100" fill-rule="evenodd" d="M35.207 37.954h2v-3.495h-2zm-3.496 0h2v-3.495h-2zm-3.495 0h2v-3.495h-2zm-1.495 1.622h11.981v-6.739H26.721zm12.981-8.739H25.72a1 1 0 0 0-1 1v8.739a1 1 0 0 0 1 1h13.982a1 1 0 0 0 1-1v-8.739a1 1 0 0 0-1-1m-4.495-5.116h2v-3.496h-2zm-3.496 0h2v-3.496h-2zm-3.495 0h2v-3.496h-2zm-1.495 1.621h11.981v-6.738H26.721zm12.981-8.738H25.72a1 1 0 0 0-1 1v8.738a1 1 0 0 0 1 1h13.982a1 1 0 0 0 1-1v-8.738a1 1 0 0 0-1-1m-4.495-5.118h2V9.991h-2zm-3.496 0h2V9.991h-2zm-3.495 0h2V9.991h-2zm-1.495 1.622h11.981V8.369H26.721zm12.981-8.739H25.72a1 1 0 0 0-1 1v8.739a1 1 0 0 0 1 1h13.982a1 1 0 0 0 1-1V7.369a1 1 0 0 0-1-1M17.729 37.954h2v-3.495h-2zm-3.495 0h2v-3.495h-2zm-3.496 0h2v-3.495h-2zm-1.495 1.622h11.981v-6.739H9.243zm12.981-8.739H8.243a1 1 0 0 0-1 1v8.739a1 1 0 0 0 1 1h13.981a1 1 0 0 0 1-1v-8.739a1 1 0 0 0-1-1m-4.495-5.116h2v-3.496h-2zm-3.495 0h2v-3.496h-2zm-3.496 0h2v-3.496h-2zm-1.495 1.621h11.981v-6.738H9.243zm12.981-8.738H8.243a1 1 0 0 0-1 1v8.738a1 1 0 0 0 1 1h13.981a1 1 0 0 0 1-1v-8.738a1 1 0 0 0-1-1m-4.495-5.118h2V9.991h-2zm-3.495 0h2V9.991h-2zm-3.496 0h2V9.991h-2zm-1.495 1.622h11.981V8.369H9.243zm12.981-8.739H8.243a1 1 0 0 0-1 1v8.739a1 1 0 0 0 1 1h13.981a1 1 0 0 0 1-1V7.369a1 1 0 0 0-1-1m21.721 33.128a4.453 4.453 0 0 1-4.448 4.448H8.448A4.453 4.453 0 0 1 4 39.497V8.448A4.453 4.453 0 0 1 8.448 4h31.049a4.453 4.453 0 0 1 4.448 4.448zM39.497 2H8.448A6.455 6.455 0 0 0 2 8.448v31.049a6.455 6.455 0 0 0 6.448 6.448h31.049a6.455 6.455 0 0 0 6.448-6.448V8.448A6.455 6.455 0 0 0 39.497 2"/></svg>