<svg xmlns="http://www.w3.org/2000/svg" viewBox="0 0 48 48"><title>Icon-Resource/Analytics/Res_Amazon-Redshift_Auto-copy_48</title><path fill="#8c4fff" fill-rule="evenodd" d="M12.688 43.972c-5.324 0-5.885-.975-5.89-.992L4.47 29.559c2.45.924 6.048 1.03 7.53 1.03 1.238 0 5.791-.083 8.638-1.188l-1.024 7.157c-2.018-.667-4.328-1.627-5.63-2.208A1.496 1.496 0 0 0 12.502 33a1.501 1.501 0 0 0 0 3c.079 0 .155-.011.23-.023 1.296.599 4.159 1.812 6.595 2.59l-.63 4.41c-.005.01-.636.995-6.009.995m-.686-18.622c5.18 0 8.414.999 8.958 1.62-.544.62-3.777 1.619-8.958 1.619-5.72 0-7.895-1.21-8.001-1.613.106-.417 2.28-1.626 8-1.626m11.078 14.025c.695 0 1.053-.194 1.306-.492a1.31 1.31 0 0 0 .294-1.12c-.152-.792-.94-1.478-2.86-2.495l1.172-8.185-.01-.001c.003-.04.02-.072.02-.112 0-3.446-9.163-3.62-11-3.62-2.345 0-10 .26-10 3.62 0 .142.033.27.059.4l2.766 15.94c.292 1.816 2.79 2.662 7.863 2.662 5.152 0 7.687-.846 7.981-2.68l.6-4.18c.782.183 1.365.263 1.81.263M41.41 10.563A3.5 3.5 0 0 0 38.5 9a3.5 3.5 0 0 0-3.44 2.915c-.978.079-1.995.129-3.06.129-7.775 0-13-2.08-13-4.022S24.172 4 31.87 4c7.593 0 12.13 2.045 12.13 4.022 0 1.209-1.488 2.069-2.588 2.54M38.5 14c-.827 0-1.5-.673-1.5-1.5s.673-1.5 1.5-1.5a1.501 1.501 0 0 1 0 3m-4 10c-.827 0-1.5-.673-1.5-1.5s.673-1.5 1.5-1.5a1.501 1.501 0 0 1 0 3M24.5 22a1.501 1.501 0 0 1 0-3c.828 0 1.5.673 1.5 1.5s-.672 1.5-1.5 1.5M31.87 2c-7.401 0-14.87 1.862-14.87 6.022V22h2V11.233c2.777 1.914 8.018 2.81 13 2.81 1.146 0 2.244-.054 3.3-.141a3.5 3.5 0 0 0 1.331 1.546l-1.422 3.624a3.5 3.5 0 0 0-.709-.072c-1.53 0-2.82.994-3.294 2.365l-3.218-.735c.002-.044.014-.085.014-.13 0-1.93-1.572-3.5-3.5-3.5-1.93 0-3.5 1.57-3.5 3.5s1.57 3.5 3.5 3.5a3.49 3.49 0 0 0 2.836-1.467l3.796.867c.4 1.492 1.75 2.6 3.366 2.6 1.93 0 3.5-1.57 3.5-3.5 0-.962-.39-1.834-1.02-2.467l1.584-4.04A3.5 3.5 0 0 0 42 12.5v-.017c.816-.333 1.474-.695 2-1.071v28.566c0 1.949-4.202 4.02-11.99 4.022-3.247-.001-6.34-.38-8.71-1.068l-.556 1.92c2.58.75 5.78 1.146 9.257 1.148h.02C40.514 45.996 46 43.633 46 39.978V8.022C46 4.364 40.454 2 31.87 2"/></svg>