<svg xmlns="http://www.w3.org/2000/svg" viewBox="0 0 48 48"><title>Icon-Resource/Containers/Res_Amazon-Elastic-Container-Service_Service_48</title><path fill="#ed7100" fill-rule="evenodd" d="M24.933 38.213h12.741v-2H24.933zm0-9.91h12.741v-2H24.933zm0-9.91h12.741v-2H24.933zm-5.372 19.944h2.247V36.09h-2.247zm-1 2h4.247a1 1 0 0 0 1-1V35.09a1 1 0 0 0-1-1h-4.247a1 1 0 0 0-1 1v4.247a1 1 0 0 0 1 1m1-11.91h2.247V26.18h-2.247zm-1 2h4.247a1 1 0 0 0 1-1V25.18a1 1 0 0 0-1-1h-4.247a1 1 0 0 0-1 1v4.247a1 1 0 0 0 1 1m1-11.91h2.247V16.27h-2.247zm-1 2h4.247a1 1 0 0 0 1-1V15.27a1 1 0 0 0-1-1h-4.247a1 1 0 0 0-1 1v4.247a1 1 0 0 0 1 1M16.023 44h23.483V12.022H16.023zm-2.001-32.977v28.73h-2.247V7.776h23.484v2.247H15.022a1 1 0 0 0-1 1M9.775 6.776v29.202H8V4h23.483v1.776H10.775a1 1 0 0 0-1 1m30.731 3.247h-3.247V6.776a1 1 0 0 0-1-1h-2.776V3a1 1 0 0 0-1-1H7a1 1 0 0 0-1 1v33.978a1 1 0 0 0 1 1h2.775v2.775a1 1 0 0 0 1 1h3.247V45a1 1 0 0 0 1 1h25.484a1 1 0 0 0 1-1V11.023a1 1 0 0 0-1-1"/></svg>