<svg xmlns="http://www.w3.org/2000/svg" viewBox="0 0 48 48"><title>Icon-Resource/Quantum-Technologies/Res_Amazon-Braket_Chandelier_48</title><path fill="#ed7100" fill-rule="evenodd" d="M22 44h4v-3h-4zm6-4v5a1 1 0 0 1-1 1h-6a1 1 0 0 1-1-1v-5a1 1 0 0 1 1-1h6a1 1 0 0 1 1 1M11 2H9v5a1 1 0 0 0 1 1h3V6h-2zm26 0v4h-2v2h3a1 1 0 0 0 1-1V2zM14 31h20v-2H14zm0-15h20v-2H14zm16 11h2v-9h-2zm-4 0h2v-9h-2zm-6 0h2v-9h-2zm-4 0h2v-9h-2zm16-15V3h-2v10h2zm-6 1h2V3h-2zm-1 24h2v-5h-2zm-4 0h2v-5h-2zm-1-24h2V3h-2zm-2 0h-2V3h2v10"/></svg>