<svg xmlns="http://www.w3.org/2000/svg" viewBox="0 0 48 48"><title>Icon-Resource/Quantum-Technologies/Res_Amazon-Braket_Managed-Simulator_48</title><path fill="#ed7100" fill-rule="evenodd" d="M24 20.769A3.234 3.234 0 0 1 27.23 24 3.234 3.234 0 0 1 24 27.231 3.234 3.234 0 0 1 20.77 24 3.234 3.234 0 0 1 24 20.769m0 8.462A5.237 5.237 0 0 0 29.23 24 5.237 5.237 0 0 0 24 18.769 5.237 5.237 0 0 0 18.77 24 5.237 5.237 0 0 0 24 29.231m-10-6.523h1.36a1 1 0 0 0 .967-.744c.18-.679.451-1.334.809-1.949a1 1 0 0 0-.157-1.209l-.963-.964 1.826-1.826.964.963a1 1 0 0 0 1.21.157 8 8 0 0 1 1.948-.809 1 1 0 0 0 .744-.967V14h2.584v1.36a1 1 0 0 0 .744.967c.679.18 1.334.452 1.948.809a1 1 0 0 0 1.21-.157l.964-.963 1.826 1.826-.963.964a1 1 0 0 0-.157 1.209c.358.615.629 1.27.809 1.949a1 1 0 0 0 .967.744H34v2.583h-1.36a1 1 0 0 0-.967.745 8 8 0 0 1-.809 1.949 1 1 0 0 0 .157 1.209l.963.964-1.826 1.826-.964-.963a1 1 0 0 0-1.21-.157 8 8 0 0 1-1.948.809 1 1 0 0 0-.744.967V34h-2.584v-1.36a1 1 0 0 0-.744-.967 8 8 0 0 1-1.948-.809 1 1 0 0 0-1.21.157l-.964.963-1.826-1.826.963-.964a1 1 0 0 0 .157-1.209 8 8 0 0 1-.809-1.949 1 1 0 0 0-.967-.745H14zm-.542 4.583h1.164q.182.517.42 1.012l-.822.822a1.45 1.45 0 0 0-.429 1.033c0 .39.152.757.428 1.031l2.593 2.593c.569.57 1.494.568 2.061 0l.824-.825q.495.238 1.011.42v1.164A1.46 1.46 0 0 0 22.167 36h3.666a1.46 1.46 0 0 0 1.459-1.459v-1.164a10 10 0 0 0 1.011-.42l.824.825c.568.568 1.493.57 2.061 0l2.592-2.592c.277-.275.429-.642.429-1.032s-.152-.757-.428-1.032l-.823-.823q.238-.495.42-1.012h1.164A1.46 1.46 0 0 0 36 25.833v-3.667a1.46 1.46 0 0 0-1.458-1.458h-1.164a10 10 0 0 0-.42-1.011l.822-.823c.277-.275.429-.642.429-1.032s-.152-.757-.428-1.031l-2.593-2.593a1.46 1.46 0 0 0-2.061 0l-.824.824q-.495-.237-1.011-.419v-1.165A1.46 1.46 0 0 0 25.833 12h-3.666a1.46 1.46 0 0 0-1.459 1.458v1.165q-.516.182-1.011.419l-.824-.824a1.46 1.46 0 0 0-2.061 0L14.22 16.81a1.44 1.44 0 0 0-.429 1.032c0 .39.152.757.428 1.031l.823.824q-.238.496-.42 1.011h-1.164A1.46 1.46 0 0 0 12 22.166v3.667a1.46 1.46 0 0 0 1.458 1.458M9 39h30V9H9zm37-26v-2h-5V8a1 1 0 0 0-1-1h-3V2h-2v5h-4V2h-2v5h-4V2h-2v5h-4V2h-2v5h-4V2h-2v5H8a1 1 0 0 0-1 1v3H2v2h5v4H2v2h5v4H2v2h5v4H2v2h5v4H2v2h5v3a1 1 0 0 0 1 1h3v5h2v-5h4v5h2v-5h4v5h2v-5h4v5h2v-5h4v5h2v-5h3a1 1 0 0 0 1-1v-3h5v-2h-5v-4h5v-2h-5v-4h5v-2h-5v-4h5v-2h-5v-4z"/></svg>