<svg xmlns="http://www.w3.org/2000/svg" viewBox="0 0 48 48"><title>Icon-Resource/Storage/Res_Amazon-Simple-Storage-Service_S3-Multi-Region-Access-Points_48</title><path fill="#7aa116" fill-rule="evenodd" d="m28.001 15 1.407-2.814L30.814 15zm2.302-5.497a1.001 1.001 0 0 0-1.789 0l-3.026 6.05A1 1 0 0 0 26.383 17h6.05a1 1 0 0 0 .894-1.447zM27 26c-1.103 0-2-.897-2-2s.897-2 2-2 2 .897 2 2-.897 2-2 2m0-6c-2.206 0-4 1.794-4 4s1.794 4 4 4 4-1.794 4-4-1.794-4-4-4m-9-2h3v-3h-3zm5-4a1 1 0 0 0-1-1h-5a1 1 0 0 0-1 1v5a1 1 0 0 0 1 1h5a1 1 0 0 0 1-1zm18.5 30a2.503 2.503 0 0 1-2.5-2.5c0-1.378 1.121-2.5 2.5-2.5s2.5 1.122 2.5 2.5-1.121 2.5-2.5 2.5m-16.505-9.324c-2.536-2.233-11.731-10.807-12.055-17.982-.162-3.592.973-6.852 3.197-9.178C18.335 5.216 21.4 4 25 4c3.744 0 6.836 1.168 8.938 3.377 2.139 2.246 3.169 5.466 2.98 9.313-.352 7.168-9.415 15.746-11.923 17.986M27 41.5c0 1.378-1.121 2.5-2.5 2.5a2.503 2.503 0 0 1-2.5-2.5c0-1.378 1.121-2.5 2.5-2.5s2.5 1.122 2.5 2.5m-17 0c0 1.378-1.121 2.5-2.5 2.5A2.503 2.503 0 0 1 5 41.5C5 40.122 6.121 39 7.5 39s2.5 1.122 2.5 2.5m33-4.224V30a1 1 0 0 0-1-1h-8.838c2.888-3.623 5.55-8.044 5.754-12.212.216-4.407-1.004-8.139-3.528-10.79C32.897 3.382 29.306 2 25 2c-4.159 0-7.725 1.43-10.31 4.134-2.604 2.725-3.935 6.508-3.748 10.65.188 4.17 2.877 8.592 5.8 12.216H8a1 1 0 0 0-1 1v7.051c-2.244.252-4 2.139-4 4.449C3 43.981 5.019 46 7.5 46s4.5-2.019 4.5-4.5c0-1.953-1.258-3.602-3-4.224V31h9.441a62 62 0 0 0 5.295 5.236l-.024.844C21.606 37.455 20 39.288 20 41.5c0 2.481 2.019 4.5 4.5 4.5s4.5-2.019 4.5-4.5c0-2.059-1.398-3.781-3.29-4.314l.014-.489c.526-.445 3.053-2.634 5.758-5.697H41v6.051c-2.244.252-4 2.139-4 4.449 0 2.481 2.019 4.5 4.5 4.5s4.5-2.019 4.5-4.5c0-1.953-1.258-3.602-3-4.224"/></svg>