<svg xmlns="http://www.w3.org/2000/svg" viewBox="0 0 48 48"><title>Icon-Resource/Storage/Res_Amazon-Elastic-Block-Store_Multiple-Volumes_48</title><path fill="#7aa116" fill-rule="evenodd" d="M7.917 7 2 14.836l28.607-.137L25.475 7zm.995 2.001h15.493l2.478 3.715-20.851.101zm20.258.735v2h3.973l2.055 2.72-3.602-.015-.007 2 7.638.032-5.088-6.737zm9.105 2.779v2h2.947l1.236 1.636-2.312-.01-.007 2 6.348.025v-.001l-4.268-5.65zM2.379 41.101h27.902V15.6H2.379zm2.001-2h23.901V17.6H4.38zm27.266-21.888v2h5.272v17.496h-5.272v2.001h7.272V17.213zm8.589 1.735v2.001h3.962v13.426h-3.962v2h5.962V18.948z"/></svg>