<svg xmlns="http://www.w3.org/2000/svg" viewBox="0 0 48 48"><title>Icon-Resource/Database/Res_Amazon-Aurora_Amazon-RDS-Instance-Aternate_48</title><path fill="#c925d1" fill-rule="evenodd" d="M23.818 23.376q.164.392.165.948 0 1.078-.698 1.708-.699.63-1.924.63-.534 0-1.067-.125a3.4 3.4 0 0 1-.897-.329v-1.191q.421.158.947.266.53.108.904.109.544 0 .828-.256.284-.255.284-.733a.9.9 0 0 0-.2-.595q-.197-.245-.663-.494l-.613-.329q-.84-.454-1.204-.976-.363-.522-.363-1.272 0-.691.318-1.209.316-.515.87-.795a2.8 2.8 0 0 1 1.264-.277q.898 0 1.782.409v1.203q-.92-.34-1.623-.34-.476 0-.75.238-.27.238-.271.658 0 .351.176.579.175.227.675.499l.613.329q.59.318.936.636t.51.709m-7.042-.709q0 1.327-.363 1.97-.365.64-1.102.64h-.67v-5.436h.658q.76 0 1.119.63.358.63.358 1.969zm-1.352-4.041h-2.372v7.866h2.429q1.43 0 2.18-.999.75-.998.749-2.939 0-1.93-.76-2.929-.762-.998-2.226-.999M9.97 22.065q-.232.33-.674.33h-.738v-2.588h.738q.442 0 .674.33.234.328.234.964t-.234.964m1.494.41q.306-.58.306-1.374 0-1.146-.618-1.811-.62-.663-1.663-.664H7.003v7.866h1.555v-2.917h.613l1.374 2.917h1.633l-1.59-3.155q.568-.286.876-.862m29.799-12.85q.346.432.347 1.26v4.257h-1.556v-3.814q0-.5-.136-.726-.136-.228-.465-.228-.352 0-.773.273v4.495h-1.554v-5.8h1.27l.126.521q.909-.669 1.737-.669.657 0 1.004.431m-6.97 4.035q-.186.45-.606.449-.42 0-.607-.449-.187-.447-.188-1.412.001-.966.188-1.42t.607-.454.607.454.187 1.42q.001.965-.187 1.412m-.606-4.466q-1.124 0-1.737.794-.612.796-.612 2.26 0 1.452.612 2.246.614.795 1.737.795t1.736-.795.614-2.246q0-1.465-.614-2.26-.612-.794-1.736-.794m-5.448 4.755h2.395v1.193h-4.03v-1.101l2.35-3.508h-2.26V9.342h3.895v1.1zm-3.996-.113q-.374.363-.748.363a.44.44 0 0 1-.381-.198q-.143-.2-.143-.539 0-.397.177-.607.176-.21.505-.209.34 0 .59.079zM23.8 9.194q-.556 0-1.09.125-.532.125-.861.34v1.033q.987-.363 1.667-.363.42 0 .574.21t.153.8v.522a3.7 3.7 0 0 0-.874-.136q-.85 0-1.351.494-.499.493-.5 1.345 0 .806.41 1.265.408.461 1.112.46.375 0 .738-.186a1.45 1.45 0 0 0 .557-.483l.135.522h1.203v-4.064q0-.988-.442-1.435-.443-.449-1.431-.449m-4.936 5.948v-3.826q-.001-.487-.131-.714-.13-.228-.437-.228-.33 0-.75.273.012.057.012.125v4.37h-1.554v-3.826q0-.487-.131-.714-.13-.228-.438-.228-.317 0-.737.273v4.495h-1.556v-5.8h1.272l.126.521q.906-.669 1.702-.669.805 0 1.135.693.93-.693 1.724-.693.636 0 .977.437.34.438.34 1.254v4.257zM8.603 12.134l.693-3.258.714 3.258zm-.124-4.858-2.18 7.866h1.669l.397-1.872h1.884l.409 1.872h1.748l-2.168-7.866zm35.43 32.185a4.45 4.45 0 0 1-4.447 4.447H8.448A4.45 4.45 0 0 1 4 39.461V8.447A4.45 4.45 0 0 1 8.448 4h31.014a4.45 4.45 0 0 1 4.447 4.447zM39.462 2H8.448A6.455 6.455 0 0 0 2 8.447v31.014a6.454 6.454 0 0 0 6.447 6.447h31.014a6.455 6.455 0 0 0 6.447-6.447V8.447A6.455 6.455 0 0 0 39.462 2"/></svg>