<svg xmlns="http://www.w3.org/2000/svg" viewBox="0 0 48 48"><title>Icon-Resource/Database/Res_Amazon-Aurora-MySQL-Instance-Alternate_48</title><path fill="#c925d1" fill-rule="evenodd" d="M36.61 15.872h2.68v1.26H35.02V9.265h1.59zm-4.948-.568q-.387.714-1.135.715-.749 0-1.136-.715-.385-.715-.385-2.112 0-1.43.375-2.122.374-.692 1.146-.692t1.146.692q.375.694.375 2.122 0 1.397-.386 2.112m1.504.421q.515-1.011.516-2.533 0-1.95-.829-3.024-.828-1.072-2.326-1.072T28.2 10.168t-.829 3.024q0 1.908.784 2.98.783 1.073 2.213 1.13.59.702 1.42 1.17.827.465 1.723.6v-1.294a4.5 4.5 0 0 1-1.055-.226 2.8 2.8 0 0 1-.783-.444q.976-.373 1.493-1.383m-6.924-1.709q.165.39.165.948-.001 1.079-.698 1.708-.7.63-1.924.63-.533 0-1.067-.125a3.4 3.4 0 0 1-.897-.33v-1.19q.42.158.947.266.53.107.904.107.545 0 .828-.256.283-.255.284-.73a.92.92 0 0 0-.199-.597q-.199-.244-.663-.494l-.614-.329q-.84-.454-1.203-.977-.363-.52-.363-1.27 0-.692.317-1.209.318-.515.868-.795a2.8 2.8 0 0 1 1.267-.277q.895 0 1.782.408v1.203q-.92-.34-1.624-.34-.476 0-.749.237-.271.24-.272.66a.92.92 0 0 0 .175.578q.178.227.676.5l.614.33q.589.316.935.634.347.319.511.71m-6.6-2.685h1.6l-1.918 6.686q-.238.84-.636 1.214-.397.375-1.044.374-.488 0-.999-.17v-1.043q.306.045.545.044.43 0 .647-.226.217-.228.284-.76l.022-.206-1.873-5.913h1.647l.873 4.268zm-5.96-2.065h1.772v7.865h-1.419v-5.516l-1.327 3.575h-1.35l-1.318-3.54v5.481H8.621V9.266h1.816l1.623 4.403zM43.91 40.121a3.79 3.79 0 0 1-3.788 3.788H7.788A3.79 3.79 0 0 1 4 40.121V7.788A3.79 3.79 0 0 1 7.788 4h32.333a3.79 3.79 0 0 1 3.788 3.788zm-3.788-38.12H7.788A5.795 5.795 0 0 0 2 7.787v32.333a5.795 5.795 0 0 0 5.788 5.788h32.333a5.795 5.795 0 0 0 5.788-5.788V7.788A5.795 5.795 0 0 0 40.121 2"/></svg>