<svg xmlns="http://www.w3.org/2000/svg" viewBox="0 0 48 48"><title>Icon-Resource/Database/Res_Amazon-Aurora-SQL-Server-Instance-Alternate_48</title><path fill="#c925d1" fill-rule="evenodd" d="M42.469 9.57q.14.001.279.025v1.057a2.6 2.6 0 0 0-.463-.044q-.42 0-.794.21v3.257h-1.197v-4.46h.979l.131.574q.26-.322.518-.472a1.1 1.1 0 0 1 .547-.148m-4.008 1.824h-1.17q.035-1.081.663-1.082.262 0 .385.204.121.206.122.677zm1.013-.079q0-1.815-1.484-1.815-.866 0-1.324.602-.457.603-.458 1.746 0 2.34 1.869 2.34.358 0 .715-.087a2 2 0 0 0 .603-.245v-.795a5 5 0 0 1-.58.171 2.3 2.3 0 0 1-.493.066q-.535 0-.769-.262-.234-.263-.262-.89h2.096q.086-.376.087-.83m-4.845-1.7h1.23l-1.336 4.46h-1.126l-1.344-4.46h1.267l.645 3.177zm-3.265-.046q.137.001.278.026v1.057a2.7 2.7 0 0 0-.462-.044q-.421 0-.794.21v3.257h-1.197v-4.46h.977l.131.574q.264-.322.52-.472.258-.147.546-.148m-4.009 1.825h-1.169q.035-1.081.663-1.082.262 0 .384.204.122.206.122.677zm1.014-.079q0-1.815-1.485-1.815-.865 0-1.323.602-.457.603-.457 1.746 0 2.34 1.869 2.34.357 0 .715-.087.358-.086.602-.245v-.795a5 5 0 0 1-.58.171q-.293.066-.495.066-.531 0-.767-.262-.236-.263-.262-.89h2.096q.087-.376.087-.83m-4.012.362q.126.303.126.73 0 .83-.537 1.314-.538.485-1.48.485-.41 0-.822-.097a2.6 2.6 0 0 1-.688-.253v-.916q.323.122.73.205c.268.056.502.083.692.083q.42 0 .637-.196.22-.197.22-.564a.7.7 0 0 0-.154-.459q-.15-.187-.51-.379l-.472-.253q-.645-.35-.925-.75-.28-.403-.28-.979 0-.533.246-.93.243-.397.666-.61.423-.215.974-.215.69 0 1.371.315v.924q-.707-.26-1.247-.26-.368 0-.578.182a.64.64 0 0 0-.21.506q0 .272.136.446.136.175.52.384l.47.253q.454.244.721.49.266.244.393.544m-7.758 1.43h2.06v.968h-3.282v-6.05h1.222zm-3.806-.437q-.298.55-.873.55-.579 0-.873-.55-.298-.552-.298-1.624 0-1.1.288-1.633.29-.533.882-.533.594 0 .883.533.286.533.287 1.633 0 1.072-.296 1.624m1.156.322q.397-.777.398-1.946 0-1.503-.637-2.328-.64-.824-1.79-.825-1.154 0-1.791.825t-.637 2.328q0 1.466.602 2.291.603.825 1.703.87.454.54 1.092.898t1.327.462v-.994a3.4 3.4 0 0 1-.812-.176 2.1 2.1 0 0 1-.602-.34q.75-.288 1.146-1.065m-5.325-1.315q.125.303.125.73 0 .83-.536 1.314-.537.485-1.478.485-.413 0-.824-.097a2.6 2.6 0 0 1-.687-.253v-.916q.322.122.728.205t.694.083q.42 0 .636-.196.22-.197.22-.564a.7.7 0 0 0-.154-.459q-.152-.187-.51-.379l-.473-.253q-.646-.35-.924-.75-.28-.403-.28-.979.001-.533.245-.93.245-.397.668-.61.423-.215.974-.215.69 0 1.37.315v.924q-.707-.26-1.247-.26-.369 0-.577.182-.21.184-.21.506 0 .272.135.446.135.175.52.384l.47.253a3.6 3.6 0 0 1 .723.49 1.6 1.6 0 0 1 .392.544m35.284 28.44a3.795 3.795 0 0 1-3.791 3.791H7.79a3.794 3.794 0 0 1-3.792-3.79V7.79c0-2.09 1.7-3.79 3.791-3.79h32.327c2.09 0 3.791 1.7 3.791 3.79zM40.118 2H7.79A5.797 5.797 0 0 0 2 7.791v32.326a5.8 5.8 0 0 0 5.79 5.791h32.327a5.8 5.8 0 0 0 5.791-5.79V7.79a5.797 5.797 0 0 0-5.791-5.79"/></svg>