<svg xmlns="http://www.w3.org/2000/svg" viewBox="0 0 48 48"><title>Icon-Resource/Database/Res_Amazon-Aurora-SQL-Server-Instance_48</title><path fill="#c925d1" fill-rule="evenodd" d="M43.964 29.98v-3.53c-1.73.942-4.35 1.43-6.958 1.43s-5.23-.488-6.958-1.43v3.53c0 .628 2.367 2.101 6.958 2.101 4.59 0 6.958-1.473 6.958-2.1m0 6.094v-3.422c-1.73.941-4.35 1.43-6.958 1.43s-5.23-.489-6.958-1.43v3.422c0 .628 2.367 2.1 6.958 2.1 4.59 0 6.958-1.472 6.958-2.1m0 5.439v-2.768c-1.73.942-4.35 1.428-6.958 1.428s-5.23-.486-6.958-1.428v2.768c0 .628 2.367 2.1 6.958 2.1 4.59 0 6.958-1.472 6.958-2.1M30.048 23.78c0 .627 2.367 2.1 6.958 2.1 4.59 0 6.958-1.473 6.958-2.1 0-.629-2.367-2.102-6.958-2.102s-6.958 1.473-6.958 2.101m15.916 0v17.733c0 2.693-4.507 4.1-8.958 4.1s-8.958-1.407-8.958-4.1V23.78c0-2.693 4.507-4.102 8.958-4.102 4.45 0 8.958 1.409 8.958 4.101M4 40.103V7.752A3.755 3.755 0 0 1 7.75 4h32.354a3.755 3.755 0 0 1 3.75 3.75v12.688h2V7.75A5.756 5.756 0 0 0 40.104 2H7.75A5.756 5.756 0 0 0 2 7.75v32.353a5.756 5.756 0 0 0 5.75 5.75h19.664v-2H7.75A3.755 3.755 0 0 1 4 40.104m37.353-29.922-.131-.575h-.976v4.454h1.194V10.81q.375-.21.794-.21.218 0 .46.043V9.589a1.5 1.5 0 0 0-.277-.026q-.289 0-.545.148a1.9 1.9 0 0 0-.52.47m-2.94 1.003q0-.472-.121-.676-.122-.204-.384-.205-.628 0-.662 1.08h1.168zm.925.95h-2.092q.027.627.26.89.236.262.769.262.2-.001.493-.067.292-.065.579-.17v.793a1.9 1.9 0 0 1-.602.244 3 3 0 0 1-.715.088q-1.865 0-1.866-2.336 0-1.141.458-1.744.458-.602 1.32-.602 1.484 0 1.484 1.813 0 .454-.088.829m-6.06-2.529h-1.263l1.343 4.455h1.124l1.335-4.455h-1.23l-.663 3.175zm-3.016.575-.13-.575h-.978v4.455h1.196V10.81q.374-.21.794-.21.217 0 .46.043V9.589a1.6 1.6 0 0 0-.28-.026q-.286 0-.544.148-.255.147-.518.47m-4.107 1.204h1.168v-.2q0-.472-.122-.676-.121-.204-.383-.205-.628 0-.663 1.08m2.102 2.458a2 2 0 0 1-.602.244 3 3 0 0 1-.714.088q-1.868 0-1.868-2.336.001-1.141.458-1.744.458-.602 1.323-.602 1.48 0 1.48 1.813 0 .454-.086.829h-2.093q.027.627.262.89.235.262.767.262.2-.001.494-.067a4.4 4.4 0 0 0 .579-.17zm-5.903-.628q-.289 0-.693-.082a4.6 4.6 0 0 1-.73-.205v.915q.28.158.69.253.41.096.82.096.94-.001 1.478-.482.536-.486.535-1.314 0-.427-.126-.727a1.56 1.56 0 0 0-.392-.545 3.6 3.6 0 0 0-.72-.49l-.471-.252q-.383-.209-.518-.383a.7.7 0 0 1-.135-.445q0-.324.209-.507.208-.181.576-.181.54 0 1.246.26v-.924a3.2 3.2 0 0 0-1.37-.314q-.547.001-.972.215-.422.213-.665.61a1.73 1.73 0 0 0-.246.928q0 .576.28.976.279.402.924.75l.47.254q.358.193.512.379a.7.7 0 0 1 .152.457q0 .366-.218.563-.218.195-.636.195M15.36 8.018v6.042h3.279v-.968h-2.06V8.018zm-2.285 3.018q0-1.1-.288-1.631-.287-.532-.881-.531-.59-.001-.88.53-.288.533-.288 1.632 0 1.072.296 1.622.299.549.872.549.577 0 .872-.55.297-.549.297-1.621m-.288 3.007q.271.219.602.34.332.123.81.175v.994a3.9 3.9 0 0 1-1.324-.463 3.9 3.9 0 0 1-1.09-.898q-1.1-.043-1.701-.867-.6-.825-.6-2.288-.001-1.5.635-2.325.637-.824 1.787-.824 1.153.001 1.788.824.637.825.637 2.325 0 1.167-.397 1.943-.397.777-1.147 1.064m-5.51-1.024q.218-.198.218-.562a.7.7 0 0 0-.152-.459q-.154-.185-.511-.378l-.471-.253q-.646-.35-.924-.75-.28-.402-.28-.977 0-.531.245-.929.245-.395.666-.61.425-.213.973-.214.69.001 1.369.314v.925q-.705-.262-1.246-.261-.367 0-.576.181-.21.184-.21.507 0 .27.136.444.135.176.518.383l.472.253q.453.246.719.49t.392.545.126.727q.001.829-.535 1.314-.536.481-1.478.482-.41 0-.821-.096a2.6 2.6 0 0 1-.688-.253v-.915q.324.123.728.205.404.083.694.082.417 0 .636-.196"/></svg>