<svg xmlns="http://www.w3.org/2000/svg" viewBox="0 0 48 48"><title>Icon-Resource/Storage/Res_Amazon-Elastic-File-System_Intelligent-Tiering_48</title><path fill="#7aa116" fill-rule="evenodd" d="M21.954 12.8a2.777 2.777 0 0 1-2.774 2.774 2.777 2.777 0 0 1-2.775-2.774 2.777 2.777 0 0 1 2.775-2.774 2.777 2.777 0 0 1 2.774 2.774m2 0a4.78 4.78 0 0 0-4.774-4.774 4.78 4.78 0 0 0-4.775 4.774 4.78 4.78 0 0 0 4.775 4.774 4.78 4.78 0 0 0 4.774-4.774m-5.807 6.292-.742-.197c-.522-.139-.913-.355-1.407-.645l-.669-.392-1.2 1.208-1.235-1.244.663-.667.49-.628-.383-.663c-.281-.486-.467-.809-.593-1.286l-.195-.746H11.18v-2.064h1.708l.197-.744c.14-.531.366-.939.645-1.417l.391-.668-1.209-1.204 1.244-1.239.666.663.617.499.664-.385c.493-.285.818-.474 1.299-.601l.745-.197V4.8h2.065v1.7l.741.198c.469.126.787.314 1.343.642l.672.397 1.185-1.202 1.213 1.229-1.19 1.206.378.659c.29.508.501.874.635 1.392l.197.747h1.794v2.064h-1.71l-.198.743c-.13.496-.321.833-.645 1.388l-.391.669 1.208 1.201-1.245 1.237-1.212-1.204-.751.435c-.483.281-.803.467-1.278.592l-.746.196V20.8h-2.065zm4.065 2.333v-.854q.233-.1.446-.213l.57.567a1.377 1.377 0 0 0 1.941.001l2.132-2.118c.261-.26.405-.607.405-.976 0-.368-.144-.715-.405-.975l-.567-.562q.115-.221.218-.463h.853c.757 0 1.375-.616 1.375-1.375v-3.314c0-.759-.618-1.375-1.375-1.375h-.932a6 6 0 0 0-.216-.465l.567-.574a1.38 1.38 0 0 0-.001-1.93l-2.092-2.121a1.37 1.37 0 0 0-.979-.408h-.002a1.36 1.36 0 0 0-.976.409l-.542.55a7 7 0 0 0-.42-.203v-.851c0-.758-.617-1.375-1.375-1.375h-3.315c-.757 0-1.375.617-1.375 1.375v.819a7 7 0 0 0-.449.214l-.569-.567c-.517-.52-1.428-.518-1.943-.002L11.057 6.76c-.262.26-.406.606-.406.975s.144.715.405.974l.571.569a7 7 0 0 0-.225.49h-.847c-.758 0-1.375.616-1.375 1.375v3.314c0 .759.617 1.375 1.375 1.375h.838q.099.23.214.448l-.571.575c-.527.532-.527 1.4.002 1.936l2.114 2.129c.522.525 1.435.526 1.952.001l.564-.567q.23.118.479.222v.849c0 .758.618 1.375 1.375 1.375h3.315c.758 0 1.375-.617 1.375-1.375M41 39.98V17.633c0-1.759-.891-3.653-2.846-3.653h-3.383c-.188-1.306-.645-3.478-1.63-3.914a1 1 0 0 0-.406-.086H31v2h1.234c.29.698.651 2.378.651 3a1 1 0 0 0 1 1h4.269c.796 0 .846 1.641.846 1.653V38.98H4V17.643c.008-.39.166-1.663 1.846-1.663H7v-2H5.846C3.024 13.98 2 16.165 2 17.633V39.98a1 1 0 0 0 1 1h37a1 1 0 0 0 1-1m-6-7c0 1.103-.898 2-2 2-1.103 0-2-.897-2-2s.897-2 2-2 2 .897 2 2m2 0c0-2.206-1.794-4-4-4s-4 1.794-4 4 1.794 4 4 4 4-1.795 4-4m-15.5-5.391 1.826 3.391h-3.652zm4.358 4.903a1 1 0 0 0 .023-.986l-3.5-6.5c-.35-.648-1.412-.648-1.762 0l-3.5 6.5A1 1 0 0 0 18 32.98h7a1 1 0 0 0 .858-.488M8 34.98h3v-3H8zm5 1v-5a1 1 0 0 0-1-1H7a1 1 0 0 0-1 1v5a1 1 0 0 0 1 1h5a1 1 0 0 0 1-1m32 10H8a1 1 0 0 1-1-.999V42.98h2v1h35V23.053c0-.563-.458-1.044-1.021-1.072l.1-1.997A3.07 3.07 0 0 1 46 23.053V44.98a1 1 0 0 1-1 1"/></svg>