<svg xmlns="http://www.w3.org/2000/svg" viewBox="0 0 48 48"><title>Icon-Resource/Quantum-Technologies/Res_Amazon-Braket_Embedded-Simulator_48</title><path fill="#ed7100" fill-rule="evenodd" d="M33 25.999h2V22h-2zm-19.999 0h2V22h-2zm9 9H26v-2h-3.999zm0-19.999H26v-2h-3.999zM33 31.899h2v-3.9h-2zm-5 3.1h4v-2h-4zm-11.899 0h3.9v-2h-3.9zm-3.1-3h2v-4h-2zM28 15h4v-2h-4zm5 5h2v-4h-2zm-19.999 0h2v-4h-2zm3-5h4v-2h-4zM9 39h30V9H9zm37-26v-2h-5V8a1 1 0 0 0-1-1h-3V2h-2v5h-4V2h-2v5h-4V2h-2v5h-4V2h-2v5h-4V2h-2v5H8a1 1 0 0 0-1 1v3H2v2h5v4H2v2h5v4H2v2h5v4H2v2h5v4H2v2h5v3a1 1 0 0 0 1 1h3v5h2v-5h4v5h2v-5h4v5h2v-5h4v5h2v-5h4v5h2v-5h3a1 1 0 0 0 1-1v-3h5v-2h-5v-4h5v-2h-5v-4h5v-2h-5v-4h5v-2h-5v-4z"/></svg>