<svg xmlns="http://www.w3.org/2000/svg" viewBox="0 0 48 48"><title>Icon-Resource/Compute/Res_Amazon-EC2_AWS-Microservice-Extractor-for-.NET_48</title><path fill="#ed7100" fill-rule="evenodd" d="m24 4.113 13.621 6.65L24 16.74l-13.621-5.975zM8 25.4c.283 0 .554-.121.743-.331l4.5-5-1.486-1.338L9 21.795v-9.451l14 6.14v10.364l-2.757-3.064-1.486 1.338 4.5 5a1 1 0 0 0 1.486 0l4.5-5-1.486-1.338L25 28.848V18.485l14-6.141v9.45l-2.757-3.062-1.486 1.338 4.5 5a1 1 0 0 0 1.486 0l4.5-5-1.486-1.338L41 21.795V10.813a1 1 0 0 0-.562-.898l-16-7.813a.99.99 0 0 0-.876 0l-16 7.813a1 1 0 0 0-.562.898v10.982l-2.757-3.063-1.486 1.338 4.5 5c.189.21.46.33.743.33m32 11.535c-2.206 0-4-1.794-4-4s1.794-4 4-4 4 1.795 4 4-1.794 4-4 4m-16 7.017c-2.206 0-4-1.794-4-4s1.794-4 4-4 4 1.795 4 4-1.794 4-4 4M8 36.936c-2.206 0-4-1.794-4-4s1.794-4 4-4 4 1.795 4 4-1.794 4-4 4m32-10c-3.309 0-6 2.692-6 6 0 .504.069.99.187 1.458l-5.175 2.27A6 6 0 0 0 24 33.953a6 6 0 0 0-5.012 2.71l-5.175-2.27c.118-.466.187-.953.187-1.457 0-3.308-2.691-6-6-6s-6 2.692-6 6c0 3.309 2.691 6 6 6a6 6 0 0 0 5.012-2.71l5.174 2.27A6 6 0 0 0 18 39.954c0 3.309 2.691 6 6 6s6-2.691 6-6a6 6 0 0 0-.186-1.457l5.174-2.27A6 6 0 0 0 40 38.936c3.309 0 6-2.691 6-6 0-3.308-2.691-6-6-6"/></svg>