<svg xmlns="http://www.w3.org/2000/svg" viewBox="0 0 48 48"><title>Icon-Resource/Networking-and-Content-Delivery/Res_AWS-App-Mesh_Mesh_48</title><path fill="#8c4fff" fill-rule="evenodd" d="M42.521 33.852c-.963.963-2.645.963-3.607 0a2.552 2.552 0 0 1 3.607-3.608c.481.481.747 1.123.747 1.804 0 .682-.266 1.323-.747 1.804m-17.226 9.402a2.555 2.555 0 0 1-3.608 0 2.54 2.54 0 0 1-.747-1.804c0-.682.266-1.323.747-1.804a2.53 2.53 0 0 1 1.804-.747c.681 0 1.323.265 1.804.747a2.554 2.554 0 0 1 0 3.608m-3.608-20.517a2.54 2.54 0 0 1 1.804-.746c.653 0 1.306.249 1.804.746a2.554 2.554 0 0 1 0 3.608c-.962.963-2.645.963-3.608 0a2.554 2.554 0 0 1 0-3.608M20.94 6.551c0-.681.266-1.322.747-1.803A2.53 2.53 0 0 1 23.491 4a2.554 2.554 0 0 1 1.804 4.356 2.555 2.555 0 0 1-3.608 0 2.54 2.54 0 0 1-.747-1.805M5.745 36.852a2.554 2.554 0 0 1 0-3.608 2.54 2.54 0 0 1 1.804-.746c.654 0 1.307.249 1.804.746.72.719.91 1.763.59 2.664l-.15.33a2.5 2.5 0 0 1-.44.614 2.555 2.555 0 0 1-3.608 0m0-21.703a2.54 2.54 0 0 1 1.804-.745c.654 0 1.307.248 1.804.745a2.555 2.555 0 0 1 0 3.608 2.555 2.555 0 0 1-3.608 0 2.554 2.554 0 0 1 0-3.608m33.17-4a2.54 2.54 0 0 1 1.802-.746c.654 0 1.307.249 1.804.746a2.554 2.554 0 0 1 0 3.608c-.963.963-2.645.963-3.607 0a2.55 2.55 0 0 1 0-3.608m5.021 17.681a4.55 4.55 0 0 0-6.435 0 4.55 4.55 0 0 0-1.013 4.884l-8.95 5.696a4.5 4.5 0 0 0-.828-1.178 4.5 4.5 0 0 0-2.193-1.206v-8.061a4.5 4.5 0 0 0 2.193-1.206c1.153-1.152 1.543-2.773 1.198-4.255l9.822-7.143a4.516 4.516 0 0 0 6.206-.19 4.557 4.557 0 0 0 0-6.436 4.55 4.55 0 0 0-6.435 0 4.55 4.55 0 0 0-.955 5.014l-9.539 6.938c-.098-.122-.183-.251-.297-.364a4.5 4.5 0 0 0-2.193-1.202v-9.15A4.5 4.5 0 0 0 26.71 9.77a4.56 4.56 0 0 0 0-6.437A4.52 4.52 0 0 0 23.491 2a4.52 4.52 0 0 0-3.218 1.333 4.52 4.52 0 0 0-1.333 3.218 4.524 4.524 0 0 0 3.576 4.435v9.12a4.5 4.5 0 0 0-2.243 1.217 4.557 4.557 0 0 0 0 6.436 4.5 4.5 0 0 0 2.243 1.222v8.029a4.5 4.5 0 0 0-2.243 1.222c-.312.31-.553.669-.759 1.045l-7.494-3.41a4.55 4.55 0 0 0-1.253-4.037 4.5 4.5 0 0 0-2.25-1.218V21.39a4.5 4.5 0 0 0 2.25-1.219 4.557 4.557 0 0 0 0-6.436 4.56 4.56 0 0 0-6.436 0 4.555 4.555 0 0 0 0 6.436 4.5 4.5 0 0 0 2.185 1.2v9.26a4.5 4.5 0 0 0-2.185 1.199 4.555 4.555 0 0 0 0 6.436 4.53 4.53 0 0 0 3.218 1.331c1.165 0 2.33-.443 3.218-1.331.175-.175.32-.368.46-.563l7.735 3.519c-.003.076-.022.151-.022.228 0 1.215.474 2.359 1.333 3.218a4.54 4.54 0 0 0 3.218 1.331 4.54 4.54 0 0 0 3.218-1.331 4.54 4.54 0 0 0 1.331-3.207l9.58-6.096a4.5 4.5 0 0 0 3.097 1.234 4.52 4.52 0 0 0 3.218-1.333 4.52 4.52 0 0 0 1.333-3.218 4.52 4.52 0 0 0-1.333-3.218"/></svg>