<svg xmlns="http://www.w3.org/2000/svg" viewBox="0 0 48 48"><title>Icon-Resource/Networking-and-Content-Delivery/Res_AWS-App-Mesh_Virtual-Node_48</title><path fill="#8c4fff" fill-rule="evenodd" d="M4 44h40V4H4zM45 2H3a1 1 0 0 0-1 1v42a1 1 0 0 0 1 1h42a1 1 0 0 0 1-1V3a1 1 0 0 0-1-1M8.494 16.742a1.95 1.95 0 0 1 1.386-.573c.502 0 1.004.191 1.386.573a1.963 1.963 0 0 1 0 2.771 1.965 1.965 0 0 1-2.772 0 1.96 1.96 0 0 1 0-2.771m2.772 17.85a1.965 1.965 0 0 1-2.772 0 1.96 1.96 0 0 1 0-2.771 1.95 1.95 0 0 1 1.386-.573c.502 0 1.004.191 1.386.573a1.963 1.963 0 0 1 0 2.771m11.414 2.564a1.95 1.95 0 0 1 1.385-.573c.502 0 1.004.191 1.386.573a1.96 1.96 0 0 1 0 2.771 1.963 1.963 0 0 1-2.771 0 1.96 1.96 0 0 1 0-2.771m0-14.091a1.958 1.958 0 1 1 0 2.771 1.96 1.96 0 0 1 0-2.771m0-14.991a1.95 1.95 0 0 1 1.385-.573c.502 0 1.004.191 1.386.573a1.96 1.96 0 0 1 0 2.771 1.963 1.963 0 0 1-2.771 0 1.96 1.96 0 0 1 0-2.771m14.055 5.334a1.95 1.95 0 0 1 1.385-.572c.502 0 1.004.19 1.386.572a1.963 1.963 0 0 1 0 2.772 1.963 1.963 0 0 1-2.771 0 1.965 1.965 0 0 1 0-2.772m0 15.913a1.95 1.95 0 0 1 1.386-.573c.501 0 1.003.191 1.385.573a1.96 1.96 0 0 1 0 2.771 1.963 1.963 0 0 1-2.771 0 1.963 1.963 0 0 1 0-2.771M7.08 30.407a3.963 3.963 0 0 0 0 5.599 3.95 3.95 0 0 0 2.8 1.158 3.95 3.95 0 0 0 2.8-1.158q.269-.275.475-.582l6.957 3.162a3.945 3.945 0 0 0 3.953 3.913 3.946 3.946 0 0 0 3.95-4.043l7.513-4.781a3.94 3.94 0 0 0 2.593.989 3.95 3.95 0 0 0 2.799-1.158 3.963 3.963 0 0 0 0-5.599 3.965 3.965 0 0 0-5.599 0 3.95 3.95 0 0 0-.92 4.114l-6.977 4.44a4 4 0 0 0-.559-.719A3.9 3.9 0 0 0 25 34.709v-6.426a3.9 3.9 0 0 0 1.865-1.033c1.023-1.023 1.353-2.468 1.021-3.777l7.74-5.63a3.94 3.94 0 0 0 2.495.909 3.95 3.95 0 0 0 2.799-1.158 3.966 3.966 0 0 0 0-5.6 3.965 3.965 0 0 0-5.599 0 3.96 3.96 0 0 0-.883 4.24l-7.526 5.475c-.017-.019-.029-.04-.047-.058A3.93 3.93 0 0 0 25 20.617v-7.325a3.9 3.9 0 0 0 1.865-1.033 3.963 3.963 0 0 0 0-5.599 3.96 3.96 0 0 0-5.599 0 3.963 3.963 0 0 0 0 5.599c.497.498 1.1.817 1.734.995v7.402a3.9 3.9 0 0 0-1.734.995 3.963 3.963 0 0 0 0 5.599c.497.498 1.1.817 1.734.994v6.503a3.9 3.9 0 0 0-1.734.995 4 4 0 0 0-.643.879l-6.815-3.098c.088-1.117-.276-2.263-1.128-3.116a3.9 3.9 0 0 0-1.68-.978v-7.524a3.9 3.9 0 0 0 1.68-.978 3.963 3.963 0 0 0 0-5.599 3.96 3.96 0 0 0-5.6 0 3.963 3.963 0 0 0 0 5.599A3.93 3.93 0 0 0 9 21.977v7.38a3.93 3.93 0 0 0-1.92 1.05"/></svg>