<svg xmlns="http://www.w3.org/2000/svg" viewBox="0 0 48 48"><title>Icon-Resource/Networking-and-Content-Delivery/Res_AWS-App-Mesh_Virtual-Gateway_48</title><path fill="#8c4fff" fill-rule="evenodd" d="M26.081 37.303a1.86 1.86 0 0 0-.549-1.326 1.86 1.86 0 0 0-1.326-.55c-.5 0-.972.196-1.325.55a1.86 1.86 0 0 0-.549 1.326c0 .5.195.972.55 1.325.707.708 1.944.706 2.65 0 .354-.353.55-.824.55-1.325m-3.2-12.362c.708.708 1.945.706 2.651 0 .354-.354.55-.825.55-1.326s-.196-.972-.55-1.326a1.86 1.86 0 0 0-1.326-.55c-.5 0-.97.196-1.325.55a1.86 1.86 0 0 0-.549 1.326c0 .5.195.972.55 1.326m0-14.564c.708.708 1.945.706 2.651 0a1.86 1.86 0 0 0 .55-1.326c0-.501-.196-.972-.55-1.325a1.86 1.86 0 0 0-1.326-.55c-.5 0-.972.196-1.325.55a1.86 1.86 0 0 0-.549 1.325c0 .502.195.973.55 1.326M12.302 32.119a1.87 1.87 0 0 0-1.875-1.873 1.87 1.87 0 0 0-1.326.548 1.88 1.88 0 0 0 0 2.652c.73.73 1.921.73 2.652 0 .353-.354.55-.825.55-1.327m-3.75-14.646a1.878 1.878 0 0 0 3.201 1.325c.353-.353.55-.824.55-1.325a1.87 1.87 0 0 0-1.875-1.874 1.87 1.87 0 0 0-1.876 1.874m27.433-3.238c0 .5.196.97.55 1.325a1.88 1.88 0 0 0 2.651 0 1.86 1.86 0 0 0 .55-1.325 1.867 1.867 0 0 0-1.876-1.874 1.87 1.87 0 0 0-1.875 1.874m.55 16.783a1.88 1.88 0 0 0 2.651 0 1.88 1.88 0 0 0 0-2.653 1.88 1.88 0 0 0-2.652 0 1.88 1.88 0 0 0 0 2.653m-8.463 6.217a3.858 3.858 0 0 1-3.866 3.94 3.86 3.86 0 0 1-3.866-3.81l-6.724-3.055a4 4 0 0 1-.449.55 3.86 3.86 0 0 1-2.74 1.133 3.86 3.86 0 0 1-2.74-1.133 3.88 3.88 0 0 1 0-5.48c.385-.386.834-.67 1.313-.86v-7.448a3.9 3.9 0 0 1-1.314-.86 3.88 3.88 0 0 1 0-5.48 3.88 3.88 0 0 1 5.481 0 3.88 3.88 0 0 1 0 5.48A3.84 3.84 0 0 1 11 21.29v7.013a3.84 3.84 0 0 1 2.167 1.077 3.86 3.86 0 0 1 1.105 3.03l6.578 2.99a3.8 3.8 0 0 1 .617-.837A3.8 3.8 0 0 1 23 33.638V27.28a3.8 3.8 0 0 1-1.533-.925 3.88 3.88 0 0 1 0-5.48c.432-.433.966-.722 1.533-.9v-7.26a3.8 3.8 0 0 1-1.533-.924 3.88 3.88 0 0 1 0-5.48 3.88 3.88 0 0 1 5.48 0 3.88 3.88 0 0 1 0 5.48A3.83 3.83 0 0 1 25 12.837v7.022a3.75 3.75 0 0 1 1.946 1.016q.016.02.031.037l7.273-5.29a3.88 3.88 0 0 1 .87-4.128 3.884 3.884 0 0 1 5.481 0 3.88 3.88 0 0 1 0 5.48 3.87 3.87 0 0 1-2.74 1.133 3.87 3.87 0 0 1-2.425-.875l-7.487 5.444a3.86 3.86 0 0 1-1.003 3.679A3.85 3.85 0 0 1 25 27.402v6.114a3.83 3.83 0 0 1 1.946 1.047c.21.209.382.438.533.678l6.734-4.285c-.467-1.357-.174-2.923.907-4.005a3.884 3.884 0 0 1 5.481 0 3.884 3.884 0 0 1 0 5.48 3.87 3.87 0 0 1-2.74 1.134 3.86 3.86 0 0 1-2.52-.954zM14 43.448 4 38.903V9.359l10-4.774v5.592h2V3a1 1 0 0 0-.467-.845 1 1 0 0 0-.964-.057l-12 5.727A1 1 0 0 0 2 8.728v30.818c0 .393.23.748.586.91l12 5.454a.995.995 0 0 0 .955-.069 1 1 0 0 0 .46-.841v-6.823h-2zM46 8.905v30.818a1 1 0 0 1-.586.91l-12 5.454a1 1 0 0 1-1.414-.91v-7h2v5.447l10-4.545V9.535L34 4.762v5.415h-2v-7a.998.998 0 0 1 1.431-.902l12 5.727c.347.166.57.517.57.903"/></svg>