<svg xmlns="http://www.w3.org/2000/svg" viewBox="0 0 48 48"><title>Icon-Resource/Migration-and-Transfer/Res_AWS-Application-Discovery-Service_Migration-Evaluator-Collector_48</title><path fill="#01a88d" fill-rule="evenodd" d="M14.859 18.116 13 16.22v6.776a1 1 0 0 1-1 1H7.363c-.851 0-1.553-.18-2.15-.55C4.014 22.704 2 20.962 2 17.64c0-2.818 1.503-4.982 4.065-5.928l-.009-.146c-.002-3.288 2.195-6.637 5.108-7.85 3.399-1.415 6.996-.71 9.626 1.884a9.4 9.4 0 0 1 1.759 2.422 4.22 4.22 0 0 1 3.563-.42c1.58.528 2.617 1.88 2.887 3.702 1.51.002 3.13.298 3.841 1.406l-1.681 1.08c-.162-.25-1.124-.593-3.026-.453a1.001 1.001 0 0 1-1.063-1.143c-.002-1.344-.581-2.357-1.592-2.695a2.24 2.24 0 0 0-2.495.792 1.002 1.002 0 0 1-1.741-.262c-.433-1.206-1.058-2.217-1.857-3.005-.978-.965-3.667-3.04-7.452-1.461-2.138.89-3.879 3.556-3.879 5.943l.054.868a1 1 0 0 1-.754 1.03C6.101 13.72 4 14.69 4 17.64c0 2.233 1.233 3.465 2.267 4.104.272.169.63.25 1.097.25H11V16.24l-1.867 1.866-1.414-1.414 3.6-3.6a1 1 0 0 1 .707-.293h.005c.266.002.522.11.709.3l3.547 3.618zM27 32.996c-3.309 0-6-2.692-6-6.002a6.01 6.01 0 0 1 6-6.003c3.308 0 6 2.693 6 6.003a6.01 6.01 0 0 1-6 6.002m0-14.005c-4.412 0-8 3.59-8 8.003s3.588 8.002 8 8.002c4.411 0 8-3.59 8-8.002s-3.589-8.003-8-8.003m16.496 24.5a1.66 1.66 0 0 1-1.187.505c-.416 0-.804-.161-1.095-.455l-6.947-7.022c.9-.69 1.698-1.503 2.372-2.417l6.908 7.038c.624.635.6 1.689-.051 2.35M17.008 26.996c0-5.514 4.483-10 9.992-10 5.508 0 9.99 4.486 9.99 10s-4.482 10-9.99 10c-5.509 0-9.992-4.485-9.992-10m27.967 12.743-7.257-7.395a11.9 11.9 0 0 0 1.272-5.348c0-6.616-5.379-12-11.99-12-6.613 0-11.992 5.384-11.992 12 0 6.617 5.379 12 11.992 12 2.001 0 3.886-.5 5.547-1.371l7.245 7.32a3.5 3.5 0 0 0 2.516 1.05h.001c.983 0 1.91-.39 2.611-1.101 1.413-1.434 1.437-3.746.055-5.155"/></svg>