<svg xmlns="http://www.w3.org/2000/svg" viewBox="0 0 48 48"><title>Icon-Resource/Front-End-Web-Mobile/Res_AWS-Amplify_AWS-Amplify-Studio_48</title><path fill="#dd344c" fill-rule="evenodd" d="M6 11h25V9H6zm27 0h8V9h-8zM14.213 27.861a3.06 3.06 0 0 1 3.352 1.129l2.8 3.878a.999.999 0 1 0 1.621-1.171l-2.792-3.868-.008-.012-8.034-11.129a1.03 1.03 0 0 1 1.67-1.204l3.984 5.519.022.032 4.31 5.971a1 1 0 0 0 1.621-1.171l-4.322-5.99a1.03 1.03 0 0 1 .245-1.418 1.033 1.033 0 0 1 1.437.232l.96 1.331.028.04 3.321 4.601a1 1 0 0 0 1.621-1.171l-3.336-4.623a1.02 1.02 0 0 1-.166-.744c.044-.272.191-.51.414-.671a1.04 1.04 0 0 1 .767-.181c.27.044.508.191.669.414l1.311 1.816.01.013 2.617 3.626a1 1 0 1 0 1.621-1.171l-2.622-3.634a1.03 1.03 0 0 1 .237-1.429 1.026 1.026 0 0 1 1.437.233l3.907 5.411c.019.029 1.874 2.924 2.346 4.861.444 1.823 3.023 5.846 4.198 7.617l-9.036 6.523c-.842-1.042-2.534-2.63-5.224-3.004-2.906-.403-4.9-2.328-5.18-2.611zm16.558 15.875 10.642-7.682a1 1 0 0 0 .241-1.375c-1.105-1.619-4.06-6.172-4.45-7.772-.552-2.265-2.524-5.341-2.638-5.514l-3.936-5.454a3 3 0 0 0-1.973-1.218c-.802-.129-1.6.06-2.256.534a3 3 0 0 0-.761.796 3 3 0 0 0-1.593-.784 3 3 0 0 0-2.256.533 3 3 0 0 0-.846.929 3.034 3.034 0 0 0-4.163.825l-2.339-3.241a3.03 3.03 0 0 0-4.228-.683 3.033 3.033 0 0 0-.684 4.229l5.686 7.877c-1.092-.047-2.154.281-3.083.952a1 1 0 0 0-.226 1.396l6.53 9.049a1 1 0 0 0 .075.092c.102.111 2.555 2.739 6.411 3.274 2.972.412 4.328 2.804 4.382 2.902a.998.998 0 0 0 1.465.335M45 18H35v-2h9V6L4 5.925V16h3v2H3a1 1 0 0 1-1-1V5a1 1 0 0 1 1-1h42a1 1 0 0 1 1 1v12a1 1 0 0 1-1 1"/></svg>