<svg xmlns="http://www.w3.org/2000/svg" viewBox="0 0 48 48"><title>Icon-Resource/Storage/Res_AWS-Backup_Audit-Manager_48</title><path fill="#7aa116" fill-rule="evenodd" d="M44 19c0-1.103-.897-2-2-2s-2 .897-2 2 .897 2 2 2 2-.897 2-2m-4.08 3.4A3.99 3.99 0 0 1 38 19c0-.513.106-1 .282-1.451L26.537 9.066A3.96 3.96 0 0 1 24 10a3.96 3.96 0 0 1-2.537-.934L9.718 17.549C9.894 18 10 18.487 10 19a3.99 3.99 0 0 1-1.92 3.4l4.754 15.617c.056-.003.109-.017.166-.017 1.859 0 3.411 1.28 3.858 3h14.284c.447-1.72 1.999-3 3.858-3 .057 0 .11.014.166.017zM37 42c0-1.103-.897-2-2-2s-2 .897-2 2 .897 2 2 2 2-.897 2-2m-22 0c0-1.103-.897-2-2-2s-2 .897-2 2 .897 2 2 2 2-.897 2-2M6 21c1.103 0 2-.897 2-2s-.897-2-2-2-2 .897-2 2 .897 2 2 2M22 6c0 1.103.897 2 2 2s2-.897 2-2-.897-2-2-2-2 .897-2 2m24 13c0 2.206-1.794 4-4 4-.057 0-.11-.014-.167-.017L37.08 38.6A3.99 3.99 0 0 1 39 42c0 2.206-1.794 4-4 4-1.859 0-3.411-1.28-3.858-3H16.858c-.447 1.72-1.999 3-3.858 3-2.206 0-4-1.794-4-4 0-1.441.773-2.696 1.92-3.4L6.166 22.983C6.11 22.986 6.057 23 6 23c-2.206 0-4-1.794-4-4s1.794-4 4-4a3.96 3.96 0 0 1 2.538.934l11.744-8.483A4 4 0 0 1 20 6c0-2.206 1.794-4 4-4s4 1.794 4 4c0 .513-.106 1-.282 1.451l11.744 8.483A3.96 3.96 0 0 1 42 15c2.206 0 4 1.794 4 4m-11 7c0 6.065-4.935 11-11 11s-11-4.935-11-11h3.963l1.806-2.731a1 1 0 0 1 1.719.087l2.23 4.251 2.374-5.976a1 1 0 0 1 1.825-.075L29.12 26H31v2h-2.5a1 1 0 0 1-.896-.556l-1.482-2.989-2.349 5.914a1 1 0 0 1-.877.63l-.052.001c-.37 0-.712-.205-.886-.536l-2.455-4.68-1.169 1.768A1 1 0 0 1 17.5 28h-2.268c.913 4.002 4.493 7 8.768 7 4.963 0 9-4.038 9-9s-4.037-9-9-9c-2.574 0-4.991 1.125-6.681 3H19v2h-4a1 1 0 0 1-1-1v-4h2v1.477C18.056 16.297 20.939 15 24 15c6.065 0 11 4.935 11 11"/></svg>