<svg xmlns="http://www.w3.org/2000/svg" viewBox="0 0 48 48"><title>Icon-Resource/Storage/Res_AWS-Backup_Legal-Hold_48</title><path fill="#7aa116" fill-rule="evenodd" d="M25 30h2v-8h-2zm-4 0h2v-8h-2zm13-4c0 5.514-4.486 10-10 10s-10-4.486-10-10h2c0 4.411 3.589 8 8 8s8-3.589 8-8-3.589-8-8-8c-1.963 0-3.822.74-5.262 2H20v2h-2.926q-.011.016-.021.031L16.998 22H16a1 1 0 0 1-1-1v-4h2v1.87A10.03 10.03 0 0 1 24 16c5.514 0 10 4.486 10 10m8-5c-1.103 0-2-.897-2-2s.897-2 2-2 2 .897 2 2-.897 2-2 2m-6.834 17.017C35.11 38.014 35.057 38 35 38c-1.859 0-3.411 1.28-3.858 3H16.858c-.447-1.72-1.999-3-3.858-3-.057 0-.11.014-.166.017L8.08 22.4A3.99 3.99 0 0 0 10 19c0-.513-.106-1-.282-1.451l11.745-8.483A3.96 3.96 0 0 0 24 10c.968 0 1.845-.359 2.537-.934l11.745 8.483A4 4 0 0 0 38 19c0 1.441.773 2.696 1.92 3.4zM35 44c-1.103 0-2-.897-2-2s.897-2 2-2 2 .897 2 2-.897 2-2 2m-22 0c-1.103 0-2-.897-2-2s.897-2 2-2 2 .897 2 2-.897 2-2 2M4 19c0-1.103.897-2 2-2s2 .897 2 2-.897 2-2 2-2-.897-2-2M24 4c1.103 0 2 .897 2 2s-.897 2-2 2-2-.897-2-2 .897-2 2-2m18 11a3.96 3.96 0 0 0-2.538.934L27.718 7.451A4 4 0 0 0 28 6c0-2.206-1.794-4-4-4s-4 1.794-4 4c0 .513.106 1 .282 1.451L8.538 15.934A3.96 3.96 0 0 0 6 15c-2.206 0-4 1.794-4 4s1.794 4 4 4c.057 0 .11-.014.166-.017L10.92 38.6A3.99 3.99 0 0 0 9 42c0 2.206 1.794 4 4 4 1.859 0 3.411-1.28 3.858-3h14.284c.447 1.72 1.999 3 3.858 3 2.206 0 4-1.794 4-4a3.99 3.99 0 0 0-1.92-3.4l4.753-15.617c.057.003.11.017.167.017 2.206 0 4-1.794 4-4s-1.794-4-4-4"/></svg>