<svg xmlns="http://www.w3.org/2000/svg" viewBox="0 0 48 48"><title>Icon-Resource/Storage/Res_AWS-Backup_AWS-Backup-support-for-Amazon-FSx-for-NetApp-ONTAP_48</title><path fill="#7aa116" fill-rule="evenodd" d="M45.81 21.404A17.88 17.88 0 0 0 38.758 9.57a17.88 17.88 0 0 0-13.355-3.38 17.86 17.86 0 0 0-10.403 5.38v-3.57h-2v6a1 1 0 0 0 1 1h6v-2h-3.604a15.87 15.87 0 0 1 9.296-4.83 15.9 15.9 0 0 1 11.87 3.004 15.9 15.9 0 0 1 6.27 10.518 15.9 15.9 0 0 1-3.004 11.87c-3.046 4.089-7.722 6.435-12.827 6.439h-1v2h1c5.745-.004 11.002-2.644 14.43-7.244a17.88 17.88 0 0 0 3.38-13.354M23 35.514l-8.152-13.042a1 1 0 0 0-1.848.53v17h2V26.489l8.153 13.043a1 1 0 0 0 1.123.432 1 1 0 0 0 .724-.962v-17h-2zm5.808-16.238a1 1 0 0 0 .826 1.08c1.313.227 4.365 1.149 4.365 4.83 0 4.299-3.974 4.779-4.342 4.816H27v2l2.738-.003C31.905 31.823 36 30.173 36 25.187c0-3.881-2.595-5.927-5.265-6.635-.339-2.191-1.562-3.775-3.356-4.3a4.2 4.2 0 0 0-3.497.534q-.357-.717-.799-1.354l-1.642 1.14a9.5 9.5 0 0 1 1.136 2.25 1.001 1.001 0 0 0 1.747.262c.605-.82 1.587-1.18 2.494-.912 1.116.326 1.855 1.482 1.99 3.104m-20.472-.811q0 .453.054.892a1 1 0 0 1-.805 1.102C6.219 20.823 4 21.912 4 25.137q0 .311.027.598c.223 2.379 2.369 4.243 4.885 4.246l2.089.002-.002 2-2.09-.002c-3.537-.004-6.555-2.664-6.873-6.056A8 8 0 0 1 2 25.137c0-3.04 1.607-5.37 4.342-6.38a10 10 0 0 1-.005-.292c0-2.907 1.648-5.987 4.099-7.665l1.129 1.65c-1.9 1.3-3.229 3.774-3.229 6.015"/></svg>