<svg xmlns="http://www.w3.org/2000/svg" viewBox="0 0 48 48"><title>Icon-Resource/Storage/Res_AWS-Backup_AWS-Backup-support-for-Amazon-S3_48</title><path fill="#7aa116" fill-rule="evenodd" d="M39.523 40.883a1 1 0 0 0-.008.12c-.027.116-.394.558-1.67 1.057-.635.247-1.386.47-2.234.664-2.194.502-4.887.778-7.582.778-7.178 0-11.304-1.752-11.484-2.488a1 1 0 0 0-.009-.138l-1.103-7.88c.715.102 1.439.158 2.168.158 1.46 0 2.939-.214 4.396-.646l-1.713 3.255 1.769.932 2.792-5.305a1 1 0 0 0-.419-1.351l-5.304-2.792-.932 1.77 3.083 1.622a13.45 13.45 0 0 1-6.131.275l-2.054-14.677c3.327 1.677 9.535 2.33 15.102 2.33 5.369 0 11.352-.647 14.59-2.303zm5.648-27.448-.01-.001c.002-.045.019-.085.019-.13 0-3.74-8.123-5.082-10.613-5.404l-.256 1.983c6.558.849 8.812 2.664 8.864 3.394l-.013.097c-.186 1.182-5.18 3.194-14.972 3.194-9.993 0-15.3-2.041-15.503-3.194l-.014-.097c.062-.833 3.125-2.735 10.125-3.488l-.214-1.99c-5.761.622-11.916 2.393-11.916 5.505 0 .048.018.09.021.137l-.012.002 2.367 16.91c-3.586-1.276-6.625-4.031-8.111-7.847-2.715-6.975.75-14.858 7.725-17.573a13.48 13.48 0 0 1 10.386.222 13.48 13.48 0 0 1 7.184 7.496l.078.205 1.869-.711-.082-.215a15.47 15.47 0 0 0-8.245-8.606 15.47 15.47 0 0 0-11.917-.254 15.47 15.47 0 0 0-8.606 8.245A15.47 15.47 0 0 0 3.07 23.23c1.839 4.723 5.746 8.034 10.282 9.322l1.195 8.543c.132 3.23 8.107 4.406 13.482 4.406 2.841 0 5.692-.294 8.026-.828a18 18 0 0 0 2.518-.751c1.909-.747 2.897-1.7 2.94-2.832z"/></svg>