<svg xmlns="http://www.w3.org/2000/svg" viewBox="0 0 48 48"><title>Icon-Resource/Storage/Res_AWS-Backup_AWS-Backup-Support-for-VMware-Workloads_48</title><path fill="#7aa116" fill-rule="evenodd" d="M24 29.033c0 .737-.405 1.375-1 1.722v4.278h-2v-4.278c-.595-.347-1-.985-1-1.722 0-1.103.897-2 2-2s2 .897 2 2m-11 9h18v-15H13zm24 5H7v-3h30zm-10-22H17v-4.865c0-1.905.993-3.135 2.529-3.135h4.942c1.536 0 2.529 1.23 2.529 3.135zm-16.35 7.971c-3.507-.003-6.461-2.637-6.723-5.996a9 9 0 0 1-.027-.69c0-4.479 3.098-5.974 4.983-6.469a1.003 1.003 0 0 0 .79-1.125 11 11 0 0 1-.068-1.186c0-3.636 2.51-7.547 5.714-8.904 5.549-2.35 9.483.74 10.918 2.178 1.17 1.175 2.083 2.676 2.714 4.462a1.003 1.003 0 0 0 1.748.261c.876-1.187 2.302-1.703 3.624-1.316 1.605.47 2.664 2.107 2.847 4.392a1 1 0 0 0 .823 1.106c1.806.311 6.007 1.581 6.007 6.666 0 6.05-5.863 6.632-6.027 6.65L33 29.028v-6.267a1.73 1.73 0 0 0-1.728-1.728H29v-4.865c0-3.023-1.862-5.135-4.53-5.135H19.53c-2.667 0-4.53 2.112-4.53 5.135v4.865h-2.271A1.73 1.73 0 0 0 11 22.761v6.243zm27.403 2.026C40.802 30.806 46 28.712 46 22.383c0-5.022-3.431-7.625-6.895-8.475-.381-2.865-1.928-4.939-4.221-5.609-1.613-.472-3.307-.13-4.633.871-.678-1.453-1.548-2.717-2.598-3.77C24.07 1.807 19.168.835 14.54 2.792c-3.953 1.675-6.935 6.294-6.935 10.746q0 .303.016.607c-2.19.762-5.721 2.822-5.721 8.172q0 .438.033.847c.343 4.392 4.17 7.836 8.717 7.84H11v7.03H6a1 1 0 0 0-1 1v5a1 1 0 0 0 1 1h32a1 1 0 0 0 1-1v-5a1 1 0 0 0-1-1h-5v-7.007z"/></svg>