<svg xmlns="http://www.w3.org/2000/svg" viewBox="0 0 48 48"><title>Icon-Resource/Storage/Res_AWS-Backup_AWS-Backup-for-AWS-CloudFormation_48</title><path fill="#7aa116" fill-rule="evenodd" d="M43.118 33.733q.283-.437.54-.888.17-.302.329-.612.25-.48.47-.972a21 21 0 0 0 .638-1.658q.093-.286.176-.576a17 17 0 0 0 .411-1.722 18 18 0 0 0 .241-1.796q.046-.558.057-1.122c.003-.13.02-.257.02-.387 0-.122-.016-.24-.019-.362a18 18 0 0 0-.049-.976q-.033-.456-.088-.906c-.015-.118-.017-.236-.034-.355-.023-.158-.064-.309-.091-.466a19 19 0 0 0-.186-.948q-.1-.424-.217-.842c-.076-.27-.153-.539-.242-.804a17 17 0 0 0-.36-.982 16 16 0 0 0-.238-.58 17 17 0 0 0-.542-1.123q-.097-.188-.198-.374-.338-.608-.722-1.186-.085-.13-.171-.258a18 18 0 0 0-1.057-1.389 18 18 0 0 0-1.223-1.315 18 18 0 0 0-1.368-1.205c-.149-.118-.286-.247-.439-.361-.142-.106-.293-.193-.438-.294a18.297 18.297 0 0 0-1.486-.941 20 20 0 0 0-1.581-.795q-.284-.125-.572-.239a15.588 15.588 0 0 0-1.649-.57q-.562-.165-1.134-.293a20 20 0 0 0-1.74-.295 18 18 0 0 0-1.759-.121C28.264 6.017 28.134 6 28 6c-.213 0-.423.011-.634.018q-.133.003-.265.007-.841.043-1.665.161l-.035.003-.034.007a17.73 17.73 0 0 0-9.331 4.355l-.128.113c-.311.284-.615.576-.908.884V8h-2v6a1 1 0 0 0 1 1h6v-2h-3.605c.114-.121.235-.235.353-.352.254-.253.511-.502.78-.736.194-.169.395-.329.597-.488a16 16 0 0 1 1.44-1.017c.226-.14.458-.269.69-.397.271-.15.541-.303.821-.437.199-.095.405-.174.608-.261a16 16 0 0 1 3.336-1.013c.282-.052.561-.11.847-.148.244-.033.488-.049.733-.071.369-.031.74-.057 1.114-.064a17 17 0 0 1 2.198.109 16 16 0 0 1 1.552.263q.507.113 1 .258.26.075.517.158.48.159.946.347a14 14 0 0 1 1.397.64q.267.138.532.286a16.4 16.4 0 0 1 3.312 2.487q.14.137.277.278.422.43.812.893.09.107.176.216.402.495.763 1.019.075.11.147.222.343.518.646 1.062.088.161.173.324.258.494.484 1.005.11.255.211.512.172.431.32.874.116.356.216.72.103.366.191.739.095.425.168.859.062.352.108.709.05.414.08.826.033.421.043.848a17 17 0 0 1-.051 1.665 16 16 0 0 1-.321 2.128q-.113.509-.259 1.004-.074.258-.157.513-.158.48-.347.948-.105.264-.219.525-.197.44-.419.867-.14.273-.291.541a17 17 0 0 1-.839 1.323 16 16 0 0 1-1.085 1.368c-.201.228-.399.458-.613.674-.129.132-.267.252-.401.379a16 16 0 0 1-3.2 2.362c-.072.04-.141.085-.214.124-.353.19-.718.36-1.086.524a16 16 0 0 1-.468.202q-.493.199-1 .366-.345.112-.697.208c-.29.082-.582.162-.879.227-.332.072-.669.126-1.007.177-.222.034-.442.077-.667.102a15.888 15.888 0 0 1-8.032-1.172l-.785 1.84A17.8 17.8 0 0 0 27 41.95V42h1.001a19 19 0 0 0 1.69-.086q.114-.01.228-.02.838-.09 1.655-.253l.098-.02c4.276-.877 8.078-3.269 10.758-6.865.103-.138.188-.286.287-.426q.207-.294.401-.597m-23.583-8.497-3 11 1.929.527 3-11zm-5.242 1.057-4 4a1 1 0 0 0 0 1.414l4 4 1.414-1.414L12.414 31l3.293-3.293zm9.414 9.414 4-4a1 1 0 0 0 0-1.414l-4-4-1.414 1.414L25.586 31l-3.293 3.293zM30 29.948v2.017c2.216-.28 6-1.985 6-6.78 0-3.882-2.596-5.928-5.266-6.635-.339-2.192-1.562-3.776-3.356-4.3a4.2 4.2 0 0 0-3.496.532A10.2 10.2 0 0 0 22 12.126v3.394c.213.41.412.837.576 1.301a.999.999 0 0 0 1.747.261c.605-.82 1.586-1.18 2.494-.912 1.115.325 1.854 1.482 1.99 3.103a1 1 0 0 0 .826 1.082c1.313.225 4.367 1.148 4.367 4.83 0 3.706-2.951 4.571-4 4.763M8.337 18.462q0 .454.053.892a1 1 0 0 1-.804 1.103C6.218 20.82 4 21.909 4 25.135q0 .31.027.598c.196 2.085 1.868 3.773 3.973 4.161v2.017c-3.131-.413-5.674-2.893-5.964-5.989A8 8 0 0 1 2 25.135c0-3.039 1.606-5.371 4.341-6.381a10 10 0 0 1-.004-.292c0-3.182 1.962-6.453 4.663-7.989v2.421c-1.571 1.349-2.663 3.513-2.663 5.568"/></svg>