<svg xmlns="http://www.w3.org/2000/svg" viewBox="0 0 48 48"><title>Icon-Resource/Storage/Res_AWS-Backup_Recovery-Point-Objective_48</title><path fill="#7aa116" fill-rule="evenodd" d="m23.111 16.853.434 14.92h.873l.432-14.92a3.25 3.25 0 0 0-1.739 0m-1.538 15.949-.482-16.592c-.01-.389.206-.749.554-.923a5.23 5.23 0 0 1 4.671 0 1 1 0 0 1 .554.923l-.481 16.592a1 1 0 0 1-1 .971h-2.816a1 1 0 0 1-1-.971m1.175 5.749c0 .529.191.787.336.936.137.141.381.331.897.331.515 0 .759-.19.899-.333.142-.147.334-.405.334-.934s-.192-.786-.335-.934c-.139-.143-.384-.333-.898-.333-.515 0-.76.19-.899.333-.228.235-.334.532-.334.934m-2 0c0-.929.302-1.712.9-2.328.6-.615 1.405-.939 2.333-.939.927 0 1.733.324 2.33.938.6.615.903 1.399.903 2.329s-.303 1.714-.902 2.329c-.597.614-1.403.938-2.331.938s-1.734-.324-2.331-.937c-.6-.617-.902-1.401-.902-2.33m24.715 1.522c-.407-.687-1.628-2.802-2.544-4.387l-1.733 1c.92 1.592 2.148 3.715 2.559 4.411.3.499.284 1.141-.042 1.716-.34.601-.919.96-1.548.96H5.806c-.629 0-1.208-.359-1.548-.96-.326-.575-.34-1.217-.038-1.722l8.933-15.106q.084-.141.143-.272l.013.008 9.082-15.359c.31-.516.905-.824 1.589-.824.686 0 1.28.308 1.587.818l7.048 11.919c1.06 1.794 1.679 2.84 2.101 3.413l-.061.038 2.098 3.546.9 1.458 1.701-1.05-.89-1.442c-1.091-1.845-1.723-2.914-2.153-3.496l.064-.038-9.09-15.371c-.675-1.124-1.91-1.795-3.305-1.795-1.393 0-2.629.671-3.307 1.801l-8.932 15.105a3 3 0 0 0-.143.273l-.013-.009-9.082 15.359c-.676 1.125-.67 2.52.014 3.731.69 1.218 1.95 1.975 3.289 1.975h36.349c1.339 0 2.599-.757 3.289-1.975.685-1.211.691-2.605.019-3.725M5.042 21.605l-2.568-3.783 1.655-1.123 1.188 1.751a19.97 19.97 0 0 1 6.184-11.172c3.968-3.63 9.112-5.494 14.486-5.258 11.091.494 19.712 9.918 19.219 21.01-.28 6.28-3.393 11.959-8.54 15.581l-1.151-1.636c4.637-3.262 7.441-8.377 7.693-14.034.444-9.99-7.322-18.479-17.311-18.923A18 18 0 0 0 12.85 8.754a17.97 17.97 0 0 0-5.583 10.133l1.823-1.238 1.124 1.656-3.784 2.567a1 1 0 0 1-1.388-.267"/></svg>