<svg xmlns="http://www.w3.org/2000/svg" viewBox="0 0 48 48"><title>Icon-Resource/Management-Governance/Res_AWS-CloudTrail_CloudTrail-Lake_48</title><path fill="#e7157b" fill-rule="evenodd" d="m3.592 31.842 1.975.316c.464-2.904 3.296-4.589 5.117-5.027a1 1 0 0 0 .807-1.139 8 8 0 0 1-.061-.957c0-.839.199-1.754.575-2.647l-1.844-.776c-.478 1.136-.731 2.32-.731 3.423q0 .189.008.378c-2.592.887-5.319 3.134-5.846 6.429M2 36h6v-2H2zm0 8h5v-2H2zm4-4h4v-2H6zm-4 0h2v-2H2zm24.332-6c-1.734 0-2.664.656-3.41 1.183-.673.474-1.158.817-2.258.817-1.098 0-1.584-.343-2.255-.817C17.662 34.656 16.734 34 15 34h-5v2h5c1.099 0 1.584.343 2.255.817.747.527 1.676 1.183 3.409 1.183 1.735 0 2.664-.656 3.41-1.183.673-.474 1.159-.817 2.258-.817 1.1 0 1.585.343 2.258.817C29.336 37.344 30.266 38 32 38v-2c-1.099 0-1.585-.343-2.258-.817-.746-.527-1.675-1.183-3.41-1.183m0 8c-1.734 0-2.664.656-3.41 1.183-.673.474-1.158.817-2.258.817-1.098 0-1.584-.343-2.255-.817C17.662 42.656 16.734 42 15 42H9v2h6c1.099 0 1.584.343 2.255.817.747.527 1.676 1.183 3.409 1.183 1.735 0 2.664-.656 3.41-1.183.673-.474 1.159-.817 2.258-.817 1.1 0 1.585.343 2.258.817C29.336 45.344 30.266 46 32 46v-2c-1.099 0-1.585-.343-2.258-.817-.746-.527-1.675-1.183-3.41-1.183m0-4c-1.734 0-2.664.656-3.41 1.183-.673.474-1.158.817-2.258.817-1.098 0-1.584-.343-2.255-.817C17.662 38.656 16.734 38 15 38h-3v2h3c1.099 0 1.584.343 2.255.817.747.527 1.676 1.183 3.409 1.183 1.735 0 2.664-.656 3.41-1.183.673-.474 1.159-.817 2.258-.817 1.1 0 1.585.343 2.258.817C29.336 41.344 30.266 42 32 42v-2c-1.099 0-1.585-.343-2.258-.817-.746-.527-1.675-1.183-3.41-1.183M21 4h2V2h-2zm-4 3h2V5h-2zm-5-1h2V4h-2zm-.231 5 4.088 6.792c.093.156.143.334.143.516V21h2v-2.692a1 1 0 0 1 .144-.516L22.232 11zm-2.625-.484A.999.999 0 0 1 10 9h14a.999.999 0 0 1 .857 1.516L20 18.586V22a1 1 0 0 1-1 1h-4a1 1 0 0 1-1-1v-3.414zm36.069 23.449c0 5.878-4.829 7.824-7.382 8.032L34 42v-2h3.75c.143-.016 5.463-.548 5.463-6.035 0-4.614-3.815-5.768-5.456-6.05a1 1 0 0 1-.824-1.098c-.167-2.062-1.119-3.538-2.56-3.959-1.183-.348-2.46.116-3.245 1.18a1 1 0 0 1-1.747-.261c-.577-1.633-1.411-3.003-2.478-4.073-1.077-1.079-2.361-1.885-3.716-2.333l.627-1.899c1.651.545 3.209 1.52 4.505 2.82.95.953 1.742 2.092 2.363 3.401 1.228-.889 2.774-1.187 4.253-.755 2.125.621 3.563 2.53 3.93 5.169 3.198.803 6.348 3.219 6.348 7.858"/></svg>