<svg xmlns="http://www.w3.org/2000/svg" viewBox="0 0 48 48"><title>Icon-Resource/Networking-and-Content-Delivery/Res_AWS-Cloud-WAN_Transit-Gateway-Route-Table-Attachment_48</title><path fill="#8c4fff" fill-rule="evenodd" d="M42 26c-1.103 0-2-.897-2-2s.897-2 2-2 2 .897 2 2-.897 2-2 2m-29 0h22v-4H13zm-7 0c-1.103 0-2-.897-2-2s.897-2 2-2 2 .897 2 2-.897 2-2 2m36-6c-1.859 0-3.411 1.28-3.858 3H37v-2a1 1 0 0 0-1-1H12a1 1 0 0 0-1 1v2H9.858C9.411 21.28 7.859 20 6 20c-2.206 0-4 1.794-4 4s1.794 4 4 4c1.859 0 3.411-1.28 3.858-3H11v2a1 1 0 0 0 1 1h24a1 1 0 0 0 1-1v-2h1.142c.447 1.72 1.999 3 3.858 3 2.206 0 4-1.794 4-4s-1.794-4-4-4m-29-3h22v-4H13zm9-11c0-1.103.897-2 2-2s2 .897 2 2-.897 2-2 2-2-.897-2-2M12 19h24a1 1 0 0 0 1-1v-6a1 1 0 0 0-1-1H25V9.858c1.721-.447 3-2 3-3.858 0-2.206-1.794-4-4-4s-4 1.794-4 4c0 1.858 1.279 3.411 3 3.858V11H12a1 1 0 0 0-1 1v6a1 1 0 0 0 1 1m1 16h22v-4H13zm13 7c0 1.103-.897 2-2 2s-2-.897-2-2 .897-2 2-2 2 .897 2 2m10-13H12a1 1 0 0 0-1 1v6a1 1 0 0 0 1 1h11v1.142c-1.721.447-3 2-3 3.858 0 2.206 1.794 4 4 4s4-1.794 4-4c0-1.858-1.279-3.411-3-3.858V37h11a1 1 0 0 0 1-1v-6a1 1 0 0 0-1-1"/></svg>