<svg xmlns="http://www.w3.org/2000/svg" viewBox="0 0 48 48"><title>Icon-Resource/Networking-and-Content-Delivery/Res_AWS-Cloud-Map_Namespace_48</title><path fill="#8c4fff" fill-rule="evenodd" d="M26.994 42.02a27 27 0 0 0-3 1.852c-.183-.133-.53-.377-1-.68v-5.246h4zm-11-2.049a19 19 0 0 0-1.831-.425 19.6 19.6 0 0 1-3.775-1.06l5.606-5.664zM4.698 33.682A7.3 7.3 0 0 1 4 30.524c0-2.75 1.062-4.58 2.091-6.353.428-.738.841-1.462 1.173-2.225h8.73v1.151zm-.047-22.027c.808-.98 4.535-5.51 5.797-7.182 1.673 1.714 3.599 2.78 5.546 3.111v7.362H7.051a11.2 11.2 0 0 0-2.4-3.29m18.343-6.449c.339-.336.673-.697 1-1.107.947 1.187 1.938 2.06 3 2.654v13.193h-4zm20.919 24.135c.045.377.075.766.075 1.183 0 4.506-3.8 7.88-10.163 9.022-1.75.315-3.395.881-4.831 1.505v-4.105a1 1 0 0 0-1-1h-6a1 1 0 0 0-1 1v5.073a27 27 0 0 0-3-1.377V30.39c0-.405-.245-.77-.619-.925a1 1 0 0 0-1.092.222l-7.801 7.88c-1.074-.626-1.969-1.36-2.671-2.188L17.678 24.26a1 1 0 0 0 .316-.729v-2.585a1 1 0 0 0-1-1h-9.14c.057-.362.096-.733.096-1.13 0-.66-.08-1.283-.21-1.87h9.254a1 1 0 0 0 1-1v-8.28a7.3 7.3 0 0 0 3-.913v14.193a1 1 0 0 0 1 1h6a1 1 0 0 0 1-1V7.516c.554.123 1.126.19 1.725.19 2.372 0 4.784-1.145 6.821-3.233 1.263 1.673 4.99 6.203 5.795 7.18-.25.228-.719.692-1.225 1.353.62.281 1.2.632 1.734 1.043.51-.639.933-1 .94-1.008.359-.292.593-.722.641-1.187a1.77 1.77 0 0 0-.394-1.288c-.63-.76-5.041-6.123-6.054-7.51a1.74 1.74 0 0 0-1.295-.716 1.73 1.73 0 0 0-1.396.551c-1.697 1.815-3.675 2.815-5.567 2.815-2.088 0-3.684-.919-5.335-3.077-.645-.839-2.135-.839-2.78 0-1.651 2.158-3.247 3.077-5.335 3.077-1.892 0-3.87-1-5.568-2.816-.371-.396-.884-.6-1.385-.55a1.75 1.75 0 0 0-1.305.715c-1.013 1.388-5.424 6.75-6.056 7.513a1.76 1.76 0 0 0-.391 1.285c.045.461.277.893.631 1.182.028.022 2.755 2.338 2.755 5.781 0 1.613-.701 2.822-1.591 4.353C3.308 24.98 2 27.234 2 30.524c0 5.553 4.415 9.662 11.809 10.991 4.909.881 9.08 4.025 9.117 4.054a1.755 1.755 0 0 0 2.131.004c.041-.032 4.216-3.178 9.122-4.058 7.394-1.329 11.809-5.438 11.809-10.99 0-1.446-.26-2.683-.632-3.778-.45.878-.941 1.756-1.443 2.594m-20.919 1.605h4v-4h-4zm5-6h-6a1 1 0 0 0-1 1v6a1 1 0 0 0 1 1h6a1 1 0 0 0 1-1v-6a1 1 0 0 0-1-1m10.841-5.97c-.995 0-1.805.81-1.805 1.805 0 .996.81 1.805 1.805 1.805s1.805-.809 1.805-1.805-.81-1.805-1.805-1.805m0 5.61a3.81 3.81 0 0 1-3.805-3.805 3.81 3.81 0 0 1 3.805-3.805 3.81 3.81 0 0 1 3.805 3.805 3.81 3.81 0 0 1-3.805 3.805m-.309-8.858a5.233 5.233 0 0 0-5.227 5.228c0 2.208 3.26 7.396 5.227 10.246 1.967-2.85 5.229-8.038 5.229-10.246a5.234 5.234 0 0 0-5.229-5.228m0 18.204a1 1 0 0 1-.807-.41c-.658-.9-6.42-8.906-6.42-12.566 0-3.986 3.242-7.228 7.227-7.228s7.229 3.242 7.229 7.228c0 3.66-5.764 11.665-6.421 12.566a1 1 0 0 1-.808.41"/></svg>