<svg xmlns="http://www.w3.org/2000/svg" viewBox="0 0 48 48"><title>Icon-Resource/Management-Governance/Res_AWS-CloudFormation_Change-Set_48</title><path fill="#e7157b" fill-rule="evenodd" d="M24.607 39.912h-6.345v-2h6.345l-.92-.92 1.413-1.415 2.628 2.628a1 1 0 0 1 0 1.414L25.1 42.247l-1.414-1.414zm0-14.015h-6.345v-2h6.345l-.92-.92 1.413-1.415 2.628 2.628a1 1 0 0 1 0 1.414L25.1 28.232l-1.414-1.414zm0-14.014h-6.345v-2h6.345l-.92-.92L25.1 7.547l2.628 2.628a1 1 0 0 1 0 1.414L25.1 14.218l-1.414-1.414zM38.24 36.115l-2.359 2.36 2.36 2.358-1.415 1.414-2.359-2.358-2.358 2.358-1.414-1.414 2.358-2.358-2.358-2.36 1.414-1.414 2.358 2.358 2.36-2.358zM33.59 9.42l2.232 3.967H31.36zm-3.94 5.967h7.882a1 1 0 0 0 .871-1.49L34.461 6.89c-.353-.629-1.388-.629-1.742 0l-3.94 7.006a1 1 0 0 0 .871 1.491m7.758 9.073c0 .42-1.117 1.19-2.942 1.19-1.824 0-2.94-.77-2.94-1.19s1.116-1.19 2.94-1.19c1.825 0 2.942.77 2.942 1.19m-7.883 0c0 1.818 2.124 3.19 4.941 3.19 2.818 0 4.942-1.372 4.942-3.19 0-1.819-2.124-3.19-4.942-3.19s-4.94 1.371-4.94 3.19M12.57 34.656c1.1 0 2.065 1.58 2.065 3.38 0 1.801-.965 3.38-2.065 3.38s-2.066-1.579-2.066-3.38.965-3.38 2.066-3.38m0 8.76c2.28 0 4.065-2.363 4.065-5.38s-1.786-5.38-4.065-5.38-4.066 2.363-4.066 5.38 1.786 5.38 4.066 5.38m0-21.023a2.067 2.067 0 0 1 0 4.132 2.067 2.067 0 0 1 0-4.132m0 6.132a4.07 4.07 0 0 0 4.065-4.065 4.07 4.07 0 0 0-4.065-4.067 4.07 4.07 0 0 0-4.066 4.067 4.07 4.07 0 0 0 4.066 4.065m-2.066-15.138h4.132V9.255h-4.132zm-1 2h6.131a1 1 0 0 0 1-1V8.255a1 1 0 0 0-1-1h-6.13a1 1 0 0 0-1 1v6.132a1 1 0 0 0 1 1M7 44.044h33.036V4H7zM41.036 2H6a1 1 0 0 0-1 1v42.044a1 1 0 0 0 1 1h35.036a1 1 0 0 0 1-1V3a1 1 0 0 0-1-1"/></svg>