<svg xmlns="http://www.w3.org/2000/svg" viewBox="0 0 48 48"><title>Icon-Resource/Developer-Tools/Res_AWS-Cloud9_Cloud9_48</title><path fill="#c925d1" fill-rule="evenodd" d="M37.862 36.12H9.11c-.726 0-1.296-.138-1.738-.417-1.538-.97-3.37-2.84-3.37-6.229 0-4.506 3.133-5.985 5.003-6.464.462-.119.777-.55.75-1.028l-.078-1.267c0-3.627 2.497-7.53 5.683-8.882 1.436-.61 2.762-.853 3.964-.853 3.421 0 5.836 1.963 6.891 3.025 1.163 1.17 2.071 2.667 2.7 4.451a.998.998 0 0 0 1.748.26c.91-1.235 2.476-1.747 3.895-1.284 1.614.53 2.538 2.13 2.536 4.327a1 1 0 0 0 .82 1.132c1.83.316 6.087 1.593 6.087 6.648 0 5.863-5.602 6.531-6.138 6.581m1.206-15.028c-.21-2.767-1.63-4.819-3.887-5.56a5.44 5.44 0 0 0-4.965.825c-.674-1.45-1.54-2.713-2.584-3.762-3.566-3.588-8.447-4.558-13.054-2.604-3.935 1.671-6.902 6.281-6.9 10.782l.032.54C5.532 22.068 2 24.122 2 29.473c0 4.527 2.696 6.906 4.302 7.92.772.488 1.69.725 2.806.726h28.797l.073-.003C40.753 37.915 46 35.861 46 29.54c0-4.982-3.444-7.582-6.932-8.447M26.78 26.037a6 6 0 0 1-1.409.56 6 6 0 0 1-1.53.2q-1.32 0-2-.73-.681-.73-.68-2.13 0-1.32.71-2.11.708-.79 1.89-.79 2.959 0 3.02 4.72zm-2.98-6.64q-1.379-.001-2.44.61a4.2 4.2 0 0 0-1.63 1.66q-.57 1.05-.57 2.39 0 2.02 1.131 3.18 1.13 1.16 3.07 1.16a6.1 6.1 0 0 0 1.8-.27 6.1 6.1 0 0 0 1.6-.75q-.14 2.48-1.13 3.66t-2.91 1.18q-1.38 0-3.02-.74v1.52q1.32.859 3.3.86 2.76 0 4.26-2.02t1.5-5.78q0-3.26-1.27-4.96t-3.69-1.7"/></svg>