<svg xmlns="http://www.w3.org/2000/svg" viewBox="0 0 48 48"><title>Icon-Resource/Security-Identity-and-Compliance/Res_AWS-Certificate-Manager_Certificate-Authority_48</title><path fill="#dd344c" fill-rule="evenodd" d="m29.07 20.547-5.826 6.118a.999.999 0 0 1-1.448 0l-2.914-3.058 1.448-1.38 2.189 2.299 5.104-5.358zm-8.464 11.547v5.755l2.737-2.24a1 1 0 0 1 1.266 0l2.737 2.24v-5.755h2v7.865a.997.997 0 0 1-1 1 1 1 0 0 1-.632-.225l-3.738-3.058-3.737 3.058a1 1 0 0 1-1.633-.775v-7.865zm3.37-2.748a6.874 6.874 0 0 1-6.866-6.866 6.874 6.874 0 0 1 6.866-6.866 6.874 6.874 0 0 1 6.866 6.866 6.874 6.874 0 0 1-6.866 6.866m8.866-6.866c0-4.89-3.977-8.866-8.866-8.866S15.11 17.59 15.11 22.48s3.978 8.866 8.866 8.866c4.889 0 8.866-3.978 8.866-8.866M4 9.244h39.9V6h-39.9zm41.9.998V5a1 1 0 0 0-1-1h-41.9a1 1 0 0 0-1 1v38.454a1 1 0 0 0 1 1h28.84v-2H4.002v-31.21h39.903l.046 31.21h-3.368v2h4.37a1 1 0 0 0 1-1.001z"/></svg>