<svg xmlns="http://www.w3.org/2000/svg" viewBox="0 0 48 48"><title>Icon-Resource/Management-Governance/Res_AWS-CloudFormation_Stack_48</title><path fill="#e7157b" fill-rule="evenodd" d="M2 15.353h43.92V2H2zm2-1.999h39.92V4H4zm20.706 16.847H45.92V16.847H24.706zm2-2.001H43.92v-9.353H26.706zM2 30.201h21.213V16.847H2zM4 28.2h17.213v-9.353H4zm28.567 16.847H45.92V31.694H32.567zm1.999-2h9.354v-9.354h-9.354zm-17.719 2h14.226V31.694H16.847zm2-2h10.227v-9.354H18.847zM2 45.047h13.352V31.694H2zm2-2h9.353v-9.354H4z"/></svg>