<svg xmlns="http://www.w3.org/2000/svg" viewBox="0 0 48 48"><title>Icon-Resource/Migration-and-Transfer/Res_AWS-DataSync_Discovery_48</title><path fill="#01a88d" fill-rule="evenodd" d="M13.008 28.037v-18h6v5a1 1 0 0 0 1 1h5v12zm8-16.586 2.586 2.586h-2.586zm-1-3.414h-8a1 1 0 0 0-1 1v20a1 1 0 0 0 1 1h14a1 1 0 0 0 1-1v-14a1 1 0 0 0-.293-.707l-6-6a1 1 0 0 0-.707-.293m13 4h13v-2h-13zm-4 4h8v-2h-8zm10 0h5v-2h-5zm-8 4h14v-2h-14zm12.082 23.08c-1.142 1.157-3.097 1.194-4.202.077L28.393 32.572a16.7 16.7 0 0 0 4.073-4.632l10.706 10.89c1.142 1.161 1.106 3.084-.082 4.286m-9.672-17.062c.413-.947.755-1.938.996-2.975l-1.947-.454c-1.439 6.178-6.507 10.72-12.608 11.303-7.928.754-15.002-5.329-15.789-13.56C3.285 12.133 9.09 4.82 17.008 4.063c4.526-.433 8.9 1.322 12.004 4.811l1.494-1.329c-3.53-3.97-8.53-5.964-13.687-5.473C7.802 2.934 1.19 11.226 2.08 20.558c.84 8.802 8.062 15.434 16.45 15.434q.752 0 1.518-.072a15.9 15.9 0 0 0 6.665-2.203L37.465 44.6a4.82 4.82 0 0 0 3.454 1.438h.001a5.03 5.03 0 0 0 3.594-1.516c1.95-1.975 1.988-5.157.084-7.094z"/></svg>