<svg xmlns="http://www.w3.org/2000/svg" viewBox="0 0 48 48"><title>Icon-Resource/Security-Identity-and-Compliance/Res_AWS-Directory-Service_AD-Connector_48</title><path fill="#dd344c" fill-rule="evenodd" d="M33.22 33.018a3.1 3.1 0 0 0 2.096 2.928v-5.857a3.1 3.1 0 0 0-2.095 2.929m-1.918.816H4.118a2.1 2.1 0 0 1-1.832-1.057 2.1 2.1 0 0 1 .002-2.115L17.07 5.058A2.1 2.1 0 0 1 18.902 4a2.1 2.1 0 0 1 1.83 1.058l9.02 15.623a1 1 0 1 1-1.732 1L19 6.058A.1.1 0 0 0 18.902 6c-.067 0-.091.042-.101.059L4.02 31.663a.1.1 0 0 0-.001.114.11.11 0 0 0 .099.057h27.255c.537-2.238 2.542-3.911 4.943-3.911a1 1 0 0 1 1 1v.786h3.062a1 1 0 1 1 0 2h-3.062v2.617h3.062a1 1 0 1 1 0 2h-3.062v.786a1 1 0 0 1-1 1c-2.531 0-4.618-1.858-5.013-4.278m14.639-.816c0 6.377-5.19 11.565-11.567 11.565a11.56 11.56 0 0 1-10.953-7.84 1.002 1.002 0 0 1 1.895-.645 9.56 9.56 0 0 0 9.058 6.485c5.276 0 9.567-4.291 9.567-9.565 0-5.275-4.291-9.566-9.567-9.566a9.6 9.6 0 0 0-8.994 6.298.999.999 0 1 1-1.879-.683 11.6 11.6 0 0 1 10.873-7.615c6.378 0 11.567 5.188 11.567 11.566"/></svg>