<svg xmlns="http://www.w3.org/2000/svg" viewBox="0 0 48 48"><title>Icon-Resource/Database/Res_AWS-Database-Migration-Service_Database-migration-workflow-or-job_48</title><path fill="#c925d1" fill-rule="evenodd" d="M24.036 41.068C16.631 41.068 12 39 12 37.083v-3.036c1.557 1.186 3.976 2.066 7 2.526v2.432h2v-2.192q1.451.123 3.036.125c1.028 0 2.02-.04 2.964-.118v4.126c-.93.077-1.915.122-2.964.122M12 26.066v-3.559c2.326 1.637 6.585 2.623 12.015 2.623 5.407 0 9.653-.976 11.985-2.6v3.536c0 .688-1.659 1.942-6.233 2.583-.98.138-2.017.24-3.08.303q-.653.039-1.325.058a44 44 0 0 1-2.725 0q-.673-.02-1.325-.058a39 39 0 0 1-3.08-.303C13.658 28.01 12 26.754 12 26.066M24 4c7.88 0 12.002 1.93 12.002 2.964v.273c0 .797-3.685 2.894-11.945 2.894s-12.05-1.985-12.05-2.782v-.385C12.006 5.93 16.12 4 24 4M12 16.631c2.562 1.66 7.29 2.431 11.995 2.431 4.711 0 9.444-.773 12.005-2.437l.002 2.574v.148c0 1.82-4.594 3.784-11.987 3.784s-12.013-1.964-12.013-3.784L12 19.15zm0-6.776c2.58 1.55 7.44 2.276 12.057 2.276 4.554 0 9.336-.709 11.943-2.213v3.73c0 1.396-4.312 3.414-12.005 3.414s-11.99-2.018-11.99-3.414l-.005-.16zm26 27.228v-.077h-2v.255c-.203 1.387-2.748 2.817-7 3.458v-4.135c3.01-.45 5.428-1.314 7-2.48v.902h2v-5.001h-2v.866c-.203 1.482-2.748 3.01-7 3.695v-1.56h-2v1.802a33.603 33.603 0 0 1-6-.008v-3.867q.098.008.194.015a47 47 0 0 0 4.23.062q.7-.021 1.381-.062a41 41 0 0 0 3.241-.318c5.13-.719 7.954-2.339 7.954-4.564V6.964C38 3.535 30.97 2 24 2S10 3.535 10 6.964v19.102c0 2.225 2.825 3.846 7.953 4.564.341.047.695.084 1.047.124v3.8c-4.389-.72-6.998-2.342-6.998-3.874v-.675H10v15.001h2v-4.655c2.328 1.696 6.596 2.717 12.036 2.717q1.549 0 2.964-.108v3.045h2v-3.262c3.028-.418 5.436-1.229 7-2.337v4.6h2v-7.658c-.002-.089 0-.128 0-.218z"/></svg>