<svg xmlns="http://www.w3.org/2000/svg" viewBox="0 0 48 48"><title>Icon-Resource/Security-Identity-and-Compliance/Res_AWS-Directory-Service_AWS-Managed-Microsoft-AD_48</title><path fill="#dd344c" fill-rule="evenodd" d="m40.986 34.486-.741-.273q-.532-.195-.741-.39a.65.65 0 0 1-.21-.495q0-.787 1.158-.787.696 0 1.54.265v-.858a4.7 4.7 0 0 0-1.654-.317q-.98 0-1.561.48-.58.483-.58 1.305 0 .593.333.986.33.394 1.062.677l.777.3q.506.195.707.389.2.195.2.495 0 .425-.332.65-.33.225-.95.226-.375 0-.841-.08a6 6 0 0 1-.893-.22v.857q.353.169.823.26.468.094.937.094 1.096 0 1.724-.508.628-.509.628-1.402-.001-.6-.326-.991-.329-.39-1.06-.663m-7.024.938-1.84-3.653h-1.201V37.9h.99v-4.572l1.538 3.033h.974l1.59-3.051v4.59h.992v-6.13h-1.168zM43.965 41.3l-.001-14.958c-1.85.91-4.717 1.338-7.46 1.338-2.741 0-5.61-.428-7.457-1.338V41.31c.12.485 2.599 1.786 7.458 1.786 4.858 0 7.337-1.301 7.46-1.797M29.047 23.895c.122.484 2.6 1.785 7.458 1.785 4.843 0 7.323-1.295 7.459-1.792V23.8c-.123-.483-2.603-1.785-7.46-1.785-4.843 0-7.323 1.295-7.457 1.792zm16.917-.097V41.31c0 2.603-4.904 3.787-9.46 3.787-4.555 0-9.457-1.184-9.457-3.786V23.798c0-2.6 4.904-3.783 9.458-3.783s9.457 1.184 9.459 3.783M26.139 35.277a1 1 0 0 1-1 1H3a1 1 0 0 1-.867-1.5L20.79 2.465c.357-.62 1.375-.62 1.732 0L31.41 17.86a1 1 0 1 1-1.733 1L21.656 4.965 4.733 34.277h20.406a1 1 0 0 1 1 1"/></svg>