<svg xmlns="http://www.w3.org/2000/svg" viewBox="0 0 48 48"><title>Icon-Resource/Media-Services/Res_AWS-Elemental-MediaConnect_Gateway_48</title><path fill="#ed7100" fill-rule="evenodd" d="m22 21.201 5.095 2.767L22 26.758zm-1.51-2.54a1 1 0 0 0-.49.858v8.926a1 1 0 0 0 1.48.877l8.183-4.48a1 1 0 0 0-.003-1.756l-8.181-4.446a1 1 0 0 0-.99.02m23.466 6.761a1.99 1.99 0 0 1-.872 1.258 1.98 1.98 0 0 1-1.506.274 2 2 0 0 1-1.258-.872 2 2 0 0 1-.274-1.506 2 2 0 0 1 .87-1.257h.002a1.99 1.99 0 0 1 1.506-.274c.52.113.969.423 1.258.871.29.45.386.984.274 1.506M33 29.18l-9 5.195-9-5.195V18.786l9-5.196 9 5.196zm2.423 10.866c.52.113.969.423 1.258.871.29.45.386.984.274 1.506a1.99 1.99 0 0 1-.872 1.258 1.997 1.997 0 0 1-2.764-.598 2 2 0 0 1-.274-1.506 2 2 0 0 1 .87-1.257h.002a1.99 1.99 0 0 1 1.506-.274m-21.742 3.037a2 2 0 0 1-1.258.872 1.99 1.99 0 0 1-1.507-.274 2 2 0 0 1-.871-1.258 2 2 0 0 1 .274-1.506A1.99 1.99 0 0 1 12.006 40a2 2 0 0 1 1.079.32c.448.29.758.736.87 1.257a2 2 0 0 1-.273 1.506m-5.726-17.66a1.99 1.99 0 0 1-.872 1.258 1.98 1.98 0 0 1-1.506.274 2 2 0 0 1-1.258-.872 2 2 0 0 1-.274-1.506 2 2 0 0 1 .87-1.257h.002a1.99 1.99 0 0 1 1.506-.274c.52.113.969.423 1.258.871.29.45.386.984.274 1.506m3.622-17.468a2 2 0 0 1-1.258-.872 2 2 0 0 1-.274-1.506 2 2 0 0 1 .87-1.257h.002a1.99 1.99 0 0 1 1.506-.274c.52.113.969.423 1.258.871.29.45.386.984.274 1.506a1.99 1.99 0 0 1-.872 1.258c-.45.29-.983.385-1.506.274M33.32 4.916A1.99 1.99 0 0 1 35.006 4a2 2 0 0 1 1.079.32c.448.29.758.736.87 1.257a2 2 0 0 1-.273 1.506 2 2 0 0 1-1.258.872 1.99 1.99 0 0 1-1.507-.274 2 2 0 0 1-.871-1.258 2 2 0 0 1 .274-1.506m12.043 17.917a4.003 4.003 0 0 0-5.53-1.195A3.96 3.96 0 0 0 38.142 24H35v-5.79a1 1 0 0 0-.5-.866l-3.905-2.255 3.346-5.235a4 4 0 1 0-1.738-.995l-3.342 5.23-4.361-2.519a1 1 0 0 0-1 0l-5.11 2.95-3.568-5.69a3.97 3.97 0 0 0 1.087-1.984 3.98 3.98 0 0 0-.547-3.012 4.003 4.003 0 0 0-5.53-1.195 3.97 3.97 0 0 0-1.741 2.516 4 4 0 0 0 5.008 4.69l3.56 5.675-3.16 1.824a1 1 0 0 0-.5.866V24H9.858a4 4 0 0 0-.494-1.166 4.004 4.004 0 0 0-5.53-1.195 3.97 3.97 0 0 0-1.741 2.516 4 4 0 0 0 6.075 4.208A3.96 3.96 0 0 0 9.86 26H13v3.757a1 1 0 0 0 .5.866l3.372 1.947-3.587 5.656a3.995 3.995 0 0 0-4.647 1.608 3.98 3.98 0 0 0-.547 3.012 3.97 3.97 0 0 0 1.742 2.516 4 4 0 0 0 6.076-4.207 3.95 3.95 0 0 0-.954-1.827l3.65-5.757 4.895 2.825a1 1 0 0 0 .5.134 1 1 0 0 0 .5-.134l4.195-2.422 3.41 5.282a3.974 3.974 0 0 0-.468 4.91 4 4 0 0 0 5.529 1.197 3.97 3.97 0 0 0 1.743-2.517 3.98 3.98 0 0 0-.547-3.012c-.996-1.545-2.881-2.159-4.557-1.633l-3.376-5.228 4.07-2.35a1 1 0 0 0 .5-.866V26h3.145c.106.407.26.803.494 1.166a4 4 0 0 0 5.528 1.197 3.97 3.97 0 0 0 1.743-2.517 3.98 3.98 0 0 0-.547-3.012"/></svg>