<svg xmlns="http://www.w3.org/2000/svg" viewBox="0 0 48 48"><title>Icon-Resource/Compute/Res_AWS-Elastic-Beanstalk_Deployment_48</title><path fill="#ed7100" fill-rule="evenodd" d="m13.302 5.892 3.599 3.598-1.414 1.414-1.892-1.891v10.379h-2V9.013l-1.891 1.891L8.29 9.49l3.598-3.598a1 1 0 0 1 1.414 0m-.707 15.299C7.856 21.191 4 17.334 4 12.595S7.856 4 12.595 4s8.596 3.856 8.596 8.595-3.857 8.596-8.596 8.596m10.596-8.596C23.191 6.753 18.438 2 12.595 2 6.753 2 2 6.753 2 12.595s4.753 10.596 10.595 10.596 10.596-4.753 10.596-10.596m15.496 10.212c-4.568 4.661-11.904 5.359-15.943 5.356 3.699-2.832 7.494-6.204 11.107-9.886 3.756-3.833 7.192-7.895 10.074-11.88.011 4.114-.65 11.724-5.238 16.41m7.097-19.504q-.003-.012-.006-.022a1 1 0 0 0-.078-.278l-.007-.011c-.009-.019-.022-.033-.032-.05a1 1 0 0 0-.139-.197c-.022-.023-.043-.041-.067-.062a1 1 0 0 0-.174-.127c-.027-.015-.05-.029-.078-.042a1 1 0 0 0-.291-.087c-.539-.07-13.325-1.539-20.506 5.798q-.02.02-.037.04l-.022.022a17 17 0 0 0-.665.738l-.003.003-.011.012.781.624.771.637c.189-.228.387-.449.607-.67.331-.339.68-.654 1.039-.953.115-.095.237-.178.353-.268.251-.196.503-.39.765-.568.141-.096.29-.183.434-.275.247-.156.494-.311.747-.453q.231-.126.464-.244c.256-.133.512-.264.772-.383q.232-.106.465-.205.404-.175.814-.329a21 21 0 0 1 1.704-.567q.485-.14.967-.257.145-.036.291-.071a26 26 0 0 1 1.118-.234q.062-.013.122-.025c2.572-.471 4.956-.544 6.59-.511l.104.002c.141.003.266.008.395.012-2.95 4.197-6.57 8.515-10.548 12.574-3.851 3.926-7.911 7.497-11.821 10.405a30 30 0 0 1-.016-.562q-.008-.347-.008-.737 0-.217.002-.445l.006-.45q.011-.457.035-.951l.013-.259q.032-.619.093-1.281l-.996-.092-.994-.111-.002.02-.002.017-.044.485c-.012.164-.021.317-.03.471a39 39 0 0 0-.056 4.038h-.03v18.318h2V30.095c.524.033 1.248.066 2.129.066 4.338 0 12.338-.776 17.413-5.955 7.169-7.322 5.734-20.352 5.669-20.903"/></svg>