<svg xmlns="http://www.w3.org/2000/svg" viewBox="0 0 48 48"><title>Icon-Resource/Analytics/Res_AWS-Glue_Data-Quality_48</title><path fill="#8c4fff" fill-rule="evenodd" d="m30.283 24.375 1.562 1.249-4 5a1 1 0 0 1-1.335.208l-3-2 1.109-1.665 2.237 1.492zm13.208 19.061c-.485.487-1.219.8-1.672.347l-6.463-6.615a12.6 12.6 0 0 0 1.869-1.87l6.621 6.443c.44.44.154 1.186-.355 1.695M17.054 27.472C17.054 21.698 21.753 17 27.527 17S38 21.698 38 27.472c0 5.775-4.698 10.472-10.473 10.472-5.774 0-10.473-4.697-10.473-10.472M45.25 40.317l-6.883-6.699A12.4 12.4 0 0 0 40 27.472C40 20.595 34.405 15 27.527 15s-12.473 5.595-12.473 12.472 5.595 12.472 12.473 12.472c2.237 0 4.332-.599 6.149-1.634l6.721 6.879a2.72 2.72 0 0 0 1.955.803c.875 0 1.797-.386 2.553-1.142 1.391-1.391 1.543-3.335.345-4.533m-17.723-5.628c-4.047 0-7.218-3.17-7.218-7.217s3.171-7.218 7.218-7.218 7.218 3.171 7.218 7.218-3.171 7.217-7.218 7.217m0-16.435c-5.169 0-9.218 4.049-9.218 9.218s4.049 9.217 9.218 9.217 9.218-4.048 9.218-9.217-4.049-9.218-9.218-9.218M16.064 4C23.687 4 29 6.107 29 8c0 1.966-4.465 4-11.936 4C9.365 12 4 9.892 4 8c0-1.967 4.512-4 12.064-4m.071 40C8.539 44 4 41.878 4 39.828v-7.319c2.288 1.858 6.329 3.137 11.039 3.259l.051-1.999C8.554 33.601 4 31.12 4 29v-6.535c1.92 1.506 5.093 2.586 8.981 2.91l.166-1.993C7.497 22.912 4 20.741 4 19v-7.807C6.785 13.104 12.055 14 17.064 14c5.377 0 9.604-1.008 11.936-2.684V13h2V8c0-4.123-7.742-6-14.936-6C7.652 2 2 4.411 2 8v31.828C2 43.52 7.68 46 16.135 46c6.092 0 11.284-1.32 13.549-3.445l-1.369-1.459C26.465 42.833 21.569 44 16.135 44"/></svg>