<svg xmlns="http://www.w3.org/2000/svg" viewBox="0 0 48 48"><title>Icon-Resource/Security-Identity-and-Compliance/Res_AWS-Identity-Access-Management_Encrypted-Data_48</title><path fill="#dd344c" fill-rule="evenodd" d="M22.835 28.14a1.05 1.05 0 0 1 .747-.31h.001a1.056 1.056 0 0 1 1.057 1.058c0 .284-.11.55-.31.749a1.05 1.05 0 0 1-.747.309h-.002a1.058 1.058 0 0 1-.746-1.806m-.253 3.624v3.527h2v-3.524c.43-.15.828-.383 1.16-.714a3.04 3.04 0 0 0 .898-2.163 3.04 3.04 0 0 0-.895-2.162 3.04 3.04 0 0 0-2.16-.897h-.004c-.815 0-1.583.318-2.16.895a3.04 3.04 0 0 0-.896 2.162c0 1.334.865 2.46 2.057 2.876m9.594 6.019-17.157-.008.004-13.701 17.16.007zM19.35 18.856a4.45 4.45 0 0 1 1.261-3.115 4.14 4.14 0 0 1 2.977-1.267h.015a4.1 4.1 0 0 1 2.966 1.292 4.5 4.5 0 0 1 1.234 3.142v3.17l-8.469-.002zm13.834 3.225-3.38-.001v-3.17a6.5 6.5 0 0 0-1.787-4.524 6.08 6.08 0 0 0-4.409-1.912h-.02a6.12 6.12 0 0 0-4.407 1.869 6.44 6.44 0 0 0-1.83 4.505l-.017 3.227-3.31-.001a1 1 0 0 0-1 1l-.004 15.7a1 1 0 0 0 1 1l19.157.009a1 1 0 0 0 1-1l.007-15.702a1.003 1.003 0 0 0-1-1m5.981 21.23c0 .32-.26.58-.579.58H8.58a.58.58 0 0 1-.58-.58V4.58c0-.32.26-.58.58-.58h20.984v8.6a1 1 0 0 0 1 1h8.6v29.712m-7.6-37.897L37.75 11.6h-6.186zM30.98 2H8.58A2.583 2.583 0 0 0 6 4.58v38.732a2.58 2.58 0 0 0 2.58 2.58h30.005a2.58 2.58 0 0 0 2.58-2.58V12.187z"/></svg>