<svg xmlns="http://www.w3.org/2000/svg" viewBox="0 0 48 48"><title>Icon-Resource/IoT/Res_AWS-IoT_Sensor_48</title><path fill="#7aa116" fill-rule="evenodd" d="M22.664 40.394h3.01l-1.505-2.04zm-2.785.406 3.485-4.724c.377-.512 1.233-.512 1.61 0l3.485 4.724a1.001 1.001 0 0 1-.805 1.594h-6.97a1.002 1.002 0 0 1-.805-1.594m-8.345-.168a1.354 1.354 0 0 0 0-2.705 1.354 1.354 0 0 0 0 2.705m0-4.705a3.357 3.357 0 0 1 3.353 3.353 3.356 3.356 0 0 1-3.353 3.352 3.356 3.356 0 0 1-3.352-3.352 3.356 3.356 0 0 1 3.352-3.353M6 43.943h36.338v-9.327H6zm38.338 1a1 1 0 0 1-1 1H5a1 1 0 0 1-1-1V33.616a1 1 0 0 1 1-1h18.169v-11.4l-1.778 1.78-1.415-1.414 3.486-3.486a1 1 0 0 1 1.414 0l3.485 3.486-1.414 1.414-1.778-1.78v11.4h18.169a1 1 0 0 1 1 1zM4.68 19.942c0-3.447 1.858-6.081 5.018-7.19a10 10 0 0 1-.009-.425c0-3.916 2.654-7.98 6.173-9.454 4.103-1.72 8.456-.868 11.641 2.287a11.6 11.6 0 0 1 2.242 3.177 4.77 4.77 0 0 1 2.754-.88c2.158 0 4.581 1.596 5.089 5.08 3.062.767 6.07 3.063 6.07 7.466 0 5.589-4.642 7.439-7.098 7.637l-9.779-.006.002-2 9.698.009c.13-.016 5.177-.516 5.177-5.64 0-4.315-3.615-5.391-5.169-5.653a1 1 0 0 1-.829-1.086c-.194-2.785-1.825-3.806-3.161-3.806-.895 0-1.736.44-2.31 1.209-.219.296-.58.442-.95.392a1 1 0 0 1-.793-.652c-.549-1.535-1.34-2.824-2.35-3.826-1.244-1.232-4.661-3.88-9.461-1.863-2.774 1.16-4.946 4.503-4.946 7.609 0 .353.025.698.063 1.036a1 1 0 0 1-.749 1.084c-1.614.407-4.323 1.662-4.323 5.495 0 .175.007.332.015.49.181 2.902 2.737 5.185 5.816 5.185l9.045.008-.002 2-9.044-.008c-4.132 0-7.564-3.107-7.812-7.072a11 11 0 0 1-.018-.603"/></svg>