<svg xmlns="http://www.w3.org/2000/svg" viewBox="0 0 48 48"><title>Icon-Resource/IoT/Res_AWS-IoT_Shadow_48</title><path fill="#7aa116" fill-rule="evenodd" d="M35.437 40.414h2.366V38.05h-2.366zm3.366 2a1 1 0 0 0 1-1V37.05a1 1 0 0 0-1-1h-4.366a1 1 0 0 0-1 1v4.365a1 1 0 0 0 1 1zM23.958 38.3l1.512 2.05h-3.024zm3.493 4.05a1 1 0 0 0 .804-1.593l-3.492-4.736a1 1 0 0 0-1.609 0l-3.493 4.736a1.001 1.001 0 0 0 .804 1.593zm-14.797-3.119a1.36 1.36 0 0 1-1.358 1.358 1.36 1.36 0 0 1-1.357-1.358c0-.748.609-1.357 1.357-1.357a1.36 1.36 0 0 1 1.358 1.357m2 0a3.36 3.36 0 0 0-3.358-3.357 3.36 3.36 0 0 0-3.357 3.357 3.36 3.36 0 0 0 3.357 3.358 3.36 3.36 0 0 0 3.358-3.358m-8.907 4.676h36.421v-9.352H5.747zm-1-11.352a1 1 0 0 0-1 1v11.352a1 1 0 0 0 1 1h38.421a1 1 0 0 0 1-1V33.555a1 1 0 0 0-1-1zm28.061-9.542h1.502v-1.5h-1.502zm-1-3.5a1 1 0 0 0-1 1v3.5a1 1 0 0 0 1 1h3.502a1 1 0 0 0 1-1v-3.5a1 1 0 0 0-1-1zM22.6 22.95l.776-.93.776.93zm1.545-3.133a1.003 1.003 0 0 0-1.537 0l-2.911 3.492a1.001 1.001 0 0 0 .768 1.641h5.822a1 1 0 0 0 .768-1.64zm-11.54 2.387a.875.875 0 0 1 1.749 0 .876.876 0 0 1-1.749 0m-2 0a2.88 2.88 0 0 0 2.875 2.874 2.877 2.877 0 0 0 2.874-2.874 2.88 2.88 0 0 0-2.874-2.875 2.88 2.88 0 0 0-2.875 2.875m-.491 3.365h26.815v-6.73H10.114zm27.815 2a1 1 0 0 0 1-1v-8.73a1 1 0 0 0-1-1H9.114a1 1 0 0 0-1 1v8.73a1 1 0 0 0 1 1zM9.007 15.964a1 1 0 0 0 .746-1.088c-.048-.4-.072-.805-.072-1.204 0-3.61 2.497-7.494 5.686-8.842 1.436-.608 2.764-.849 3.968-.849 3.424 0 5.842 1.955 6.898 3.013 1.164 1.165 2.072 2.655 2.701 4.431a1 1 0 0 0 .795.655c.361.05.731-.099.951-.395.873-1.179 2.291-1.687 3.608-1.304 1.594.466 2.646 2.091 2.828 4.356a1 1 0 0 0 .823 1.107c1.797.308 5.976 1.57 5.976 6.616 0 6.006-5.834 6.584-5.997 6.602l-27.174-.028c-3.558-.004-6.512-2.676-6.726-6.083A8 8 0 0 1 4 22.395c0-4.487 3.137-5.955 5.007-6.43M37.998 31.06c2.739-.222 7.917-2.305 7.917-8.599 0-4.99-3.415-7.579-6.864-8.426-.382-2.845-1.92-4.905-4.201-5.572-1.608-.474-3.295-.132-4.617.861-.676-1.443-1.541-2.698-2.585-3.743-3.568-3.57-8.449-4.54-13.061-2.592-3.937 1.664-6.906 6.257-6.906 10.684q0 .297.015.598C5.514 15.028 2 17.077 2 22.395q0 .35.022.681c.279 4.458 4.109 7.953 8.72 7.958z"/></svg>