<svg xmlns="http://www.w3.org/2000/svg" viewBox="0 0 48 48"><title>Icon-Resource/Security-Identity-and-Compliance/Res_AWS-Identity-Access-Management_AWS-STS_48</title><path fill="#dd344c" fill-rule="evenodd" d="M4 36.251h40V12H4zM45 10H3a1 1 0 0 0-1 1v26.251a1 1 0 0 0 1 1h42a1 1 0 0 0 1-1V11a1 1 0 0 0-1-1M12.169 22.481c.922 0 1.672.75 1.672 1.672s-.75 1.672-1.672 1.672-1.672-.75-1.672-1.672.75-1.672 1.672-1.672m0 5.344a3.676 3.676 0 0 0 3.672-3.672 3.676 3.676 0 0 0-3.672-3.672 3.677 3.677 0 0 0-3.672 3.672 3.676 3.676 0 0 0 3.672 3.672m2.672-11.45a7.73 7.73 0 0 1 7.405 5.408 1 1 0 0 0 .954.698h2.709c.265 0 .519-.105.707-.292l1.583-1.583 1.583 1.583a1 1 0 0 0 .707.292h1.526a1 1 0 0 0 .707-.292l1.583-1.583 1.583 1.583a1 1 0 0 0 .707.292h1.914l2.025 1.773-1.345 1.571H23.2a1 1 0 0 0-.954.698 7.73 7.73 0 0 1-7.405 5.409c-4.289 0-7.778-3.49-7.778-7.779s3.489-7.778 7.778-7.778m0 17.557a9.725 9.725 0 0 0 9.062-6.107h15.746c.292 0 .569-.128.76-.349l2.289-2.672a1 1 0 0 0-.102-1.404l-3.053-2.671a1 1 0 0 0-.658-.248h-1.876l-1.997-1.996a1 1 0 0 0-1.414 0l-1.997 1.996h-.698l-1.997-1.996a1 1 0 0 0-1.414 0l-1.998 1.996h-1.591a9.73 9.73 0 0 0-9.062-6.106c-5.391 0-9.778 4.387-9.778 9.778s4.387 9.779 9.778 9.779"/></svg>