<svg xmlns="http://www.w3.org/2000/svg" viewBox="0 0 48 48"><title>Icon-Resource/IoT/Res_AWS-IoT_Thing_Bank_48</title><path fill="#7aa116" fill-rule="evenodd" d="M25.693 27.425q0 .493-.33.868a1.26 1.26 0 0 1-.823.434v-2.56q.613.225.883.517.27.29.27.74m-2.261-3.384q-.6-.24-.861-.54a1.08 1.08 0 0 1-.261-.732q0-.525.299-.876.298-.352.823-.427zm0-6.018v1.81q-1.349.12-2.171.959-.824.84-.823 2.112 0 .958.569 1.609t1.826 1.115l.599.225v2.89a5 5 0 0 1-1.153-.255q-.63-.21-1.707-.704v1.676q1.228.795 2.86.914V32.2h1.108v-1.842q1.392-.165 2.223-.995t.83-2.074q.001-.957-.583-1.602-.585-.645-1.946-1.138l-.524-.194V21.48q1.018.135 2.26.778v-1.677a5.8 5.8 0 0 0-2.26-.733v-1.826zm11.914.59h-1.642a1 1 0 0 0-1 1v13.308a1 1 0 0 0 1 1h.694v.544H13.636v-.544h.693a1 1 0 0 0 1-1V19.614a1 1 0 0 0-1-1h-1.641v-1.092l11.329-3.897 11.329 3.897zm-11.004-6.991a1 1 0 0 0-.65 0l-12.33 4.24a1 1 0 0 0-.674.946v2.806a1 1 0 0 0 1 1h1.64V31.92h-.692a1 1 0 0 0-1 1v2.544a1 1 0 0 0 1 1h22.762a1 1 0 0 0 1-1V32.92a1 1 0 0 0-1-1h-.694V20.614h1.642a1 1 0 0 0 1-1v-2.806a1 1 0 0 0-.675-.945zm15.405 26.993c0 .626-.51 1.134-1.135 1.134H9.42a1.135 1.135 0 0 1-1.135-1.134V9.434c0-.626.509-1.135 1.135-1.135h29.192c.626 0 1.135.509 1.135 1.135zm6.286-24.166v-2h-4.286V9.434a3.14 3.14 0 0 0-3.135-3.135h-3.028v-4.3h-2v4.3H30.3v-4.3h-2v4.3h-3.284v-4.3h-2v4.3h-3.284v-4.3h-2v4.3h-3.285v-4.3h-2v4.3H9.42a3.14 3.14 0 0 0-3.135 3.135v3.015H2v2h4.285v3.284H2v2h4.285v3.284H2v2h4.285V28.3H2v2h4.285v3.284H2v2h4.285v3.03A3.14 3.14 0 0 0 9.42 41.75h3.028v4.285h2v-4.285h3.285v4.285h2v-4.285h3.284v4.285h2v-4.285H28.3v4.285h2v-4.285h3.283v4.285h2v-4.285h3.028a3.14 3.14 0 0 0 3.135-3.134v-3.031h4.286v-2h-4.286V30.3h4.286v-2h-4.286v-3.283h4.286v-2h-4.286v-3.284h4.286v-2h-4.286v-3.284z"/></svg>