<svg xmlns="http://www.w3.org/2000/svg" viewBox="0 0 48 48"><title>Icon-Resource/IoT/Res_AWS-IoT_Fire_TV_48</title><path fill="#7aa116" fill-rule="evenodd" d="M40.398 18.776c.398.492-.105 3.907-2.052 5.536-.3.25-.585.117-.452-.214.438-1.094 1.42-3.544.954-4.139-.464-.595-3.069-.282-4.239-.142-.355.043-.41-.267-.09-.492 2.078-1.459 5.483-1.038 5.88-.549m-32.516.267c4.67 2.718 10.446 4.354 16.41 4.354 4.025 0 8.448-.836 12.518-2.562.613-.26 1.128.404.527.848-3.63 2.68-8.893 4.105-13.425 4.105-6.353 0-12.074-2.349-16.402-6.257-.34-.308-.037-.727.372-.488M4 32.563h39.89V11H3.998zM3 9a1 1 0 0 0-1 1v23.562a1 1 0 0 0 1 1h19.945V37.8h-5.109v2h12.217v-2h-5.108v-3.237h19.944a1 1 0 0 0 1-1V10a1 1 0 0 0-1-1z"/></svg>