<svg xmlns="http://www.w3.org/2000/svg" viewBox="0 0 48 48"><title>Icon-Resource/IoT/Res_AWS-IoT_Thing_Bicycle_48</title><path fill="#7aa116" fill-rule="evenodd" d="M27.606 29.242c0-1.364.653-2.566 1.651-3.35l1.711 3.764 1.82-.83-1.717-3.775c.262-.051.531-.082.807-.082a4.28 4.28 0 0 1 4.272 4.273 4.28 4.28 0 0 1-4.272 4.272 4.28 4.28 0 0 1-4.272-4.272m.021-6.935.78 1.715a6.3 6.3 0 0 0-2.212 2.58zm-3.177 3.207-4.324-4.938h5.971zm-8.389 8a4.28 4.28 0 0 1-4.273-4.272c0-2.288 1.811-4.146 4.071-4.252l-.78 4.062 1.964.379.782-4.07a4.27 4.27 0 0 1 2.508 3.88 4.28 4.28 0 0 1-4.272 4.273M30.23 23.197l-1.689-3.715.393-1.542h.891v-2h-3.529v2h.574l-.162.636h-7.986l-.522-2.39 2.257-.004-.004-2-3.07.005a1 1 0 0 0-.286.043 1.47 1.47 0 0 0-.926.816c-.139.316-.234.83.065 1.523l.663 3.029-.65 3.38c-.063-.001-.125-.01-.187-.01a6.28 6.28 0 0 0-6.273 6.274 6.28 6.28 0 0 0 6.273 6.272 6.28 6.28 0 0 0 6.272-6.272c0-2.703-1.72-5.004-4.122-5.885l.306-1.584 5.58 6.37c.234.27.598.39.948.322a1 1 0 0 0 .715-.59 6.2 6.2 0 0 0-.154 1.367 6.28 6.28 0 0 0 6.272 6.272 6.28 6.28 0 0 0 6.272-6.272 6.28 6.28 0 0 0-6.272-6.273c-.572 0-1.123.084-1.649.228m9.435 15.334c0 .626-.509 1.134-1.135 1.134H9.41a1.135 1.135 0 0 1-1.135-1.134V9.423c0-.626.51-1.135 1.135-1.135h29.12c.626 0 1.135.509 1.135 1.135zm6.275-24.107v-2h-4.275V9.423a3.14 3.14 0 0 0-3.135-3.135h-3.014V2h-2v4.288h-3.273V2h-2v4.288H24.97V2h-2v4.288h-3.273V2h-2v4.288h-3.272V2h-2v4.288H9.41a3.14 3.14 0 0 0-3.135 3.135v3H2v2h4.274v3.274H2v2h4.274v3.272H2v2h4.274v3.273H2v2h4.274v3.272H2v2h4.274v3.017a3.14 3.14 0 0 0 3.135 3.134h3.015v4.273h2v-4.273h3.272v4.273h2v-4.273h3.273v4.273h2v-4.273h3.273v4.273h2v-4.273h3.273v4.273h2v-4.273h3.014a3.14 3.14 0 0 0 3.135-3.134v-3.017h4.275v-2h-4.275v-3.272h4.275v-2h-4.275v-3.273h4.275v-2h-4.275v-3.272h4.275v-2h-4.275v-3.273z"/></svg>