<svg xmlns="http://www.w3.org/2000/svg" viewBox="0 0 48 48"><title>Icon-Resource/Security-Identity-and-Compliance/Res_AWS-Identity-Access-Management_IAM-Access-Analyzer_48</title><path fill="#dd344c" fill-rule="evenodd" d="M15 25.001h4v-2h-4zm-11 2h7v-7H4zm8 2H3a1 1 0 0 1-1-1v-9a1 1 0 0 1 1-1h9a1 1 0 0 1 1 1v9a1 1 0 0 1-1 1m31.2-2-3.2-5.11-3.2 5.11zm2.67 1.48a1 1 0 0 1-.87.52H35a1 1 0 0 1-.851-1.53l5-8a1 1 0 0 1 1.702 0l5 8c.187.308.195.694.019 1.01M43 41.001a3 3 0 1 0-6 0 3 3 0 0 0 6 0m2 0a5 5 0 0 1-9.899 1H7a1 1 0 0 1-1-1v-10h2v9h27.101a5 5 0 0 1 5.894-3.905A5 5 0 0 1 45 41.001m-23-16h4v-2h-4zm15-18a3 3 0 1 0 6 0 3 3 0 0 0-6 0m-29 9H6v-9a1 1 0 0 1 1-1h28.101a4.999 4.999 0 1 1 9.796 2 5 5 0 0 1-9.796 0H8zm21 9h4v-2h-4z"/></svg>