<svg xmlns="http://www.w3.org/2000/svg" viewBox="0 0 48 48"><title>Icon-Resource/Security-Identity-and-Compliance/Res_AWS-Identity-Access-Management_AWS-STS-Alternate_48</title><path fill="#dd344c" fill-rule="evenodd" d="M24.582 17.09h-6.236v-2h4.236V9.11h2zm-1-9.6c4.261 0 7.728 3.467 7.728 7.728s-3.467 7.727-7.728 7.727-7.727-3.466-7.727-7.727 3.466-7.727 7.727-7.727m0 17.455c5.364 0 9.728-4.363 9.728-9.727S28.946 5.49 23.582 5.49s-9.727 4.364-9.727 9.727 4.364 9.727 9.727 9.727M33.843 36.83q.434.52.433 1.338 0 1.173-.837 1.869-.837.697-2.254.697-1.404 0-2.444-.501v-.977q1.284.428 2.42.428.867 0 1.361-.38.496-.378.496-1.026 0-.45-.287-.751-.287-.3-.972-.568l-1.185-.453q-1.002-.377-1.454-.916-.453-.537-.452-1.356a2.2 2.2 0 0 1 .342-1.216q.342-.531.984-.837.641-.304 1.51-.306 1.097.001 2.26.44v.99q-1.235-.379-2.176-.38-.794 0-1.228.325-.433.324-.433.923 0 .489.293.776.293.286 1.088.58l1.111.415q.99.368 1.424.886M21.13 32.06h6.647v1.026h-2.7v7.442H23.83v-7.442h-2.7zm-1.264 4.77q.434.522.434 1.339 0 1.173-.837 1.869-.838.697-2.255.697-1.405 0-2.443-.501v-.977q1.283.428 2.42.428.867 0 1.361-.38.495-.378.495-1.026 0-.45-.286-.751-.289-.3-.972-.568l-1.185-.453q-1.003-.377-1.454-.916-.453-.537-.453-1.356 0-.684.342-1.216.344-.531.985-.837.64-.304 1.508-.306 1.1.001 2.26.44v.99q-1.233-.379-2.175-.38-.793 0-1.227.325-.434.324-.434.923 0 .489.293.776.294.286 1.088.58l1.111.415q.99.368 1.424.886m19.3 6.256a.807.807 0 0 1-.806.806H8.806A.807.807 0 0 1 8 43.086V4.806C8 4.362 8.361 4 8.806 4H38.36c.444 0 .805.362.805.806zM38.358 2H8.806A2.81 2.81 0 0 0 6 4.806v38.28a2.81 2.81 0 0 0 2.806 2.806H38.36a2.81 2.81 0 0 0 2.805-2.806V4.806A2.81 2.81 0 0 0 38.36 2"/></svg>