<svg xmlns="http://www.w3.org/2000/svg" viewBox="0 0 48 48"><title>Icon-Resource/IoT/Res_AWS-IoT-Device-Defender_IoT-Device-Jobs_48</title><path fill="#7aa116" fill-rule="evenodd" d="M10 17h11v-2H10zm0-5h17v-2H10zm20.5 21c-1.929 0-3.5-1.57-3.5-3.5s1.571-3.5 3.5-3.5 3.5 1.57 3.5 3.5-1.57 3.5-3.5 3.5m0-9a5.506 5.506 0 0 0-5.5 5.5c0 3.033 2.467 5.5 5.5 5.5s5.5-2.467 5.5-5.5-2.468-5.5-5.5-5.5m9.5 6.528-.685-.04a1.02 1.02 0 0 0-1.033.78 7.9 7.9 0 0 1-1.03 2.486c-.259.414-.183.955.18 1.279l.512.457-1.453 1.454-.453-.508a1 1 0 0 0-1.282-.18 7.9 7.9 0 0 1-2.488 1.031 1 1 0 0 0-.779 1.033l.039.68h-2.057l.039-.682a1 1 0 0 0-.777-1.032 8 8 0 0 1-2.488-1.032 1 1 0 0 0-1.28.18l-.457.511-1.453-1.455.51-.454c.365-.325.441-.866.182-1.28a8 8 0 0 1-1.032-2.488 1.01 1.01 0 0 0-1.033-.78l-.682.039v-2.055l.687.04c.462.019.923-.301 1.032-.778a7.9 7.9 0 0 1 1.031-2.484 1 1 0 0 0-.179-1.28l-.516-.46 1.455-1.455.459.515a1 1 0 0 0 1.281.18 7.9 7.9 0 0 1 2.483-1.027 1 1 0 0 0 .777-1.034L29.471 20h2.057l-.039.69a1 1 0 0 0 .777 1.033 8 8 0 0 1 2.484 1.029 1 1 0 0 0 1.28-.18l.461-.517 1.455 1.455-.516.459a1 1 0 0 0-.18 1.279 7.9 7.9 0 0 1 1.032 2.485c.107.478.568.798 1.031.779l.687-.04zm1.686-3.842a1.03 1.03 0 0 0-.742-.272l-.936.055a10 10 0 0 0-.64-1.548l.699-.624c.205-.184.326-.443.334-.718s-.1-.541-.293-.735l-2.951-2.951a1 1 0 0 0-.737-.293 1 1 0 0 0-.716.334l-.627.703a10 10 0 0 0-1.545-.641l.052-.939A1 1 0 0 0 32.586 18h-4.173a1 1 0 0 0-.998 1.057l.052.937a10 10 0 0 0-1.545.641l-.625-.701a1 1 0 0 0-1.453-.041l-2.951 2.951a.997.997 0 0 0 .041 1.453l.701.625a10 10 0 0 0-.642 1.547l-.936-.055a1.02 1.02 0 0 0-.744.272 1 1 0 0 0-.313.727v4.174c0 .274.114.538.313.727a1 1 0 0 0 .744.272l.932-.054q.255.802.64 1.55l-.695.621a1 1 0 0 0-.041 1.453l2.951 2.951a.96.96 0 0 0 .735.293 1 1 0 0 0 .718-.334l.621-.696q.749.387 1.549.644l-.052.929A1 1 0 0 0 28.413 41h4.173c.276 0 .539-.113.729-.313.187-.201.285-.47.269-.744l-.052-.928a10 10 0 0 0 1.552-.644l.62.695a1.002 1.002 0 0 0 1.453.041l2.951-2.951c.193-.194.301-.461.293-.735a1 1 0 0 0-.334-.718l-.699-.623a10 10 0 0 0 .642-1.549l.934.055A.999.999 0 0 0 42 31.587v-4.174a1 1 0 0 0-.314-.727M32 5.414 36.586 10H32zM38 44H8V4h22v7a1 1 0 0 0 1 1h7v5h2v-6h-.009a1 1 0 0 0-.283-.707l-8-8A1 1 0 0 0 31 2.01V2H7a1 1 0 0 0-1 1v42a1 1 0 0 0 1 1h32a1 1 0 0 0 1-1v-4h-2z"/></svg>