<svg xmlns="http://www.w3.org/2000/svg" viewBox="0 0 48 48"><title>Icon-Resource/IoT/Res_AWS-IoT-Greengrass_Component-Public_48</title><path fill="#7aa116" fill-rule="evenodd" d="M4 24c0-1.103.897-2 2-2s2 .897 2 2-.897 2-2 2-2-.897-2-2M24 4c1.103 0 2 .897 2 2s-.897 2-2 2-2-.897-2-2 .897-2 2-2M10.961 35.532a17.4 17.4 0 0 1-3.901-7.693C8.749 27.372 10 25.836 10 24c0-1.821-1.23-3.344-2.897-3.826 1.501-6.412 6.654-11.528 13.103-12.969C20.721 8.819 22.217 10 24 10c1.78 0 3.274-1.177 3.792-2.787 1.8.403 3.518 1.08 5.114 2.042l1.031-1.713a19.1 19.1 0 0 0-6.017-2.338A4.006 4.006 0 0 0 24 2a4.006 4.006 0 0 0-3.917 3.189C12.612 6.728 6.647 12.679 5.071 20.12A4 4 0 0 0 2 24c0 1.866 1.29 3.426 3.022 3.865a19.4 19.4 0 0 0 4.541 9.098l-2.547-.039-.032 2 4.924.076h.016a1 1 0 0 0 1-.985l.076-5-2-.03zM42 26c-1.103 0-2-.897-2-2s.897-2 2-2 2 .897 2 2-.897 2-2 2M24 44c-1.103 0-2-.897-2-2s.897-2 2-2 2 .897 2 2-.897 2-2 2m22-20a4 4 0 0 0-3.126-3.897 19.16 19.16 0 0 0-4.673-9.06L41.016 11l-.032-2-5 .076A1.003 1.003 0 0 0 35 10.092l.076 4.924 2-.032-.035-2.253a17.2 17.2 0 0 1 3.807 7.458C39.206 20.687 38 22.198 38 24c0 1.82 1.229 3.342 2.896 3.825-1.427 6.48-6.542 11.67-13.042 13.162C27.402 39.273 25.854 38 24 38c-1.856 0-3.406 1.276-3.855 2.993a17.2 17.2 0 0 1-5.146-2.06l-1.037 1.71a19.1 19.1 0 0 0 6.192 2.398C20.616 44.74 22.156 46 24 46c1.847 0 3.39-1.264 3.848-2.967 7.589-1.55 13.579-7.601 15.083-15.154A4 4 0 0 0 46 24m-22 4a1.001 1.001 0 0 1 0 2 1.001 1.001 0 0 1 0-2m0 4c1.654 0 3-1.346 3-3a3 3 0 0 0-2-2.816V24h-2v2.184A3 3 0 0 0 21 29c0 1.654 1.346 3 3 3m7-7.933v7.866c0 .588-.479 1.067-1.066 1.067H18.066A1.07 1.07 0 0 1 17 31.933v-7.866c0-.588.479-1.067 1.066-1.067h11.868c.587 0 1.066.479 1.066 1.067M21.631 14h4.401c1.166 0 2.078.457 2.442 1.223l1.806-.857C29.578 12.885 27.99 12 26.032 12h-4.401A4.636 4.636 0 0 0 17 16.631v4.571c-1.164.436-2 1.55-2 2.865v7.866A3.07 3.07 0 0 0 18.066 35h11.868A3.07 3.07 0 0 0 33 31.933v-7.866A3.07 3.07 0 0 0 29.934 21H19v-4.369A2.634 2.634 0 0 1 21.631 14"/></svg>