<svg xmlns="http://www.w3.org/2000/svg" viewBox="0 0 48 48"><title>Icon-Resource/IoT/Res_AWS-IoT_Servo_48</title><path fill="#7aa116" fill-rule="evenodd" d="m22.342 25.474 1.627-2.44 1.626 2.44zm2.46-4.797a1 1 0 0 0-1.665 0l-3.495 5.242a1.002 1.002 0 0 0 .832 1.555h6.99a1 1 0 0 0 .831-1.555zm-14.249 3.176c0-.894.727-1.621 1.621-1.621s1.621.727 1.621 1.62-.727 1.622-1.62 1.622a1.623 1.623 0 0 1-1.622-1.621m-2 0a3.625 3.625 0 0 0 3.621 3.62 3.625 3.625 0 0 0 3.621-3.62 3.625 3.625 0 0 0-3.62-3.621 3.625 3.625 0 0 0-3.622 3.62m35.384 13.852H23.095a1 1 0 0 0 .001-.647l-1.093-2.884a1 1 0 0 0-.566-.575 1 1 0 0 0-.806.03l-.74.36a7 7 0 0 0-.472-.5l.411-.717a1 1 0 0 0-.455-1.408l-2.812-1.276a1.003 1.003 0 0 0-1.36.589l-.267.784a8 8 0 0 0-.688-.022l-.219-.8a1 1 0 0 0-1.319-.671L9.827 31.06a1.003 1.003 0 0 0-.544 1.374l.363.743a8 8 0 0 0-.503.468l-.718-.411a.997.997 0 0 0-1.408.454L5.741 36.5a1 1 0 0 0-.007.808c.07.165.193.292.335.396H4V10h20.843a1 1 0 0 0 0 .648l1.091 2.883a1 1 0 0 0 1.372.545l.74-.36q.224.263.472.5l-.41.717a1 1 0 0 0 .454 1.408l2.813 1.277a1.004 1.004 0 0 0 1.36-.59l.265-.78c.23.019.463.028.69.023l.218.797a1 1 0 0 0 1.316.67l2.883-1.082a.997.997 0 0 0 .548-1.371l-.359-.747a7 7 0 0 0 .507-.474l.706.407a1 1 0 0 0 1.411-.453l1.276-2.814a1 1 0 0 0 .007-.81 1 1 0 0 0-.335-.394h2.07zm-34.75 0 .011-.061a1 1 0 0 0-.655-1.133l-.527-.183.37-.813.477.274a1 1 0 0 0 1.294-.263 5.2 5.2 0 0 1 1.3-1.21 1 1 0 0 0 .35-1.274l-.245-.5.83-.314.145.538c.136.49.624.805 1.115.725a5.2 5.2 0 0 1 1.77.053.99.99 0 0 0 1.141-.658l.177-.52.808.366-.275.479a1 1 0 0 0 .264 1.295c.481.364.892.799 1.222 1.294a1 1 0 0 0 1.27.345l.491-.24.316.834-.53.146c-.393.108-.67.437-.727.82zM38.753 10l-.01.053a1 1 0 0 0 .656 1.15l.52.179-.365.806-.469-.271a1 1 0 0 0-1.297.263 5.2 5.2 0 0 1-1.299 1.218 1 1 0 0 0-.35 1.27l.24.5-.833.313-.147-.534a1 1 0 0 0-1.102-.725 5.2 5.2 0 0 1-1.77-.06.997.997 0 0 0-1.153.658l-.178.52-.807-.366.274-.48A1 1 0 0 0 30.4 13.2a5.3 5.3 0 0 1-1.222-1.294.996.996 0 0 0-1.269-.345l-.492.238-.314-.831.537-.146c.392-.108.67-.437.726-.822zm1.1-2H3a1 1 0 0 0-1 1v29.705a1 1 0 0 0 1 1h41.937a1 1 0 0 0 1-1V9a1 1 0 0 0-1-1z"/></svg>