<svg xmlns="http://www.w3.org/2000/svg" viewBox="0 0 48 48"><title>Icon-Resource/IoT/Res_AWS-IoT_Thing_Industrial-PC_48</title><path fill="#7aa116" fill-rule="evenodd" d="M17 29h4v-2h-4zm10 0h6v-2h-6zm0-3h6v-2h-6zm-7 0h3v-2h-3zm-5 0h3v-2h-3zm18-6v-3h1.632c.199 0 .368.168.368.368V20zm2 10.632c0 .2-.169.368-.368.368H13.368a.373.373 0 0 1-.368-.368V22h22zM13.368 17H15v3h-2v-2.632c0-.2.169-.368.368-.368M17 20h2v-3h-2zm4 0h2v-3h-2zm4 0h2v-3h-2zm4 0h2v-3h-2zm5.632-5H13.368A2.37 2.37 0 0 0 11 17.368v13.264A2.37 2.37 0 0 0 13.368 33h21.264A2.37 2.37 0 0 0 37 30.632V17.368A2.37 2.37 0 0 0 34.632 15M39 37.865c0 .626-.509 1.135-1.135 1.135h-27.73A1.136 1.136 0 0 1 9 37.865v-27.73C9 9.509 9.509 9 10.135 9h27.73C38.491 9 39 9.509 39 10.135zM46 15v-2h-5v-2.865A3.14 3.14 0 0 0 37.865 7H35V2h-2v5h-3V2h-2v5h-3V2h-2v5h-3V2h-2v5h-3V2h-2v5h-2.865A3.14 3.14 0 0 0 7 10.135V13H2v2h5v3H2v2h5v3H2v2h5v3H2v2h5v3H2v2h5v2.865A3.14 3.14 0 0 0 10.135 41H13v5h2v-5h3v5h2v-5h3v5h2v-5h3v5h2v-5h3v5h2v-5h2.865A3.14 3.14 0 0 0 41 37.865V35h5v-2h-5v-3h5v-2h-5v-3h5v-2h-5v-3h5v-2h-5v-3z"/></svg>