<svg xmlns="http://www.w3.org/2000/svg" viewBox="0 0 48 48"><title>Icon-Resource/Security-Identity-and-Compliance/Res_AWS-Identity-Access-Management_Long-Term-Security-Credential_48</title><path fill="#dd344c" fill-rule="evenodd" d="M43.96 37.772h2v4.37a1 1 0 0 1-1 1H3a1 1 0 0 1-1-1v-4.37h2v3.37h39.96zm-4.622-26.15a1.46 1.46 0 1 1-1.46 1.46c0-.806.655-1.46 1.46-1.46m0 4.919a3.463 3.463 0 0 0 3.46-3.46 3.463 3.463 0 0 0-3.46-3.46 3.463 3.463 0 0 0-3.46 3.46 3.464 3.464 0 0 0 3.46 3.46M14.5 11.62h14.684c.435 0 .821-.283.953-.699A7.04 7.04 0 0 1 36.878 6a7.09 7.09 0 0 1 7.081 7.082c0 3.903-3.177 7.08-7.08 7.08a7.04 7.04 0 0 1-6.742-4.923 1 1 0 0 0-.953-.699h-2.496a1 1 0 0 0-.707.294l-1.4 1.4-1.4-1.4a1 1 0 0 0-.708-.293h-1.407a1 1 0 0 0-.707.293l-1.4 1.4-1.4-1.4a1 1 0 0 0-.708-.293h-1.733l-1.783-1.56zm-.416 4.672c.182.16.416.248.658.248h1.695l1.815 1.814a1.03 1.03 0 0 0 1.414 0l1.814-1.814h.58l1.813 1.814a1 1 0 0 0 1.414 0l1.816-1.814h1.38a9.03 9.03 0 0 0 8.395 5.622c5.007 0 9.081-4.076 9.081-9.081C45.96 8.075 41.885 4 36.88 4a9.03 9.03 0 0 0-8.397 5.62H14.04c-.292 0-.569.128-.759.35l-2.109 2.46a1 1 0 0 0 .101 1.404zM8.622 27.785a1.46 1.46 0 1 1-.002 2.92 1.46 1.46 0 0 1 .002-2.92m0 4.918a3.464 3.464 0 0 0 3.46-3.46 3.463 3.463 0 0 0-3.46-3.458 3.463 3.463 0 0 0-3.46 3.459 3.464 3.464 0 0 0 3.46 3.46m2.46-10.54c3.1 0 5.808 1.977 6.741 4.922.132.416.518.7.953.7h2.495c.265 0 .52-.107.707-.294l1.401-1.401 1.401 1.401c.188.188.442.294.707.294h1.406c.265 0 .52-.107.707-.294l1.401-1.401 1.4 1.401c.188.188.442.294.707.294h1.733l1.783 1.558-1.164 1.36H18.776a1 1 0 0 0-.953.698 7.04 7.04 0 0 1-6.742 4.924c-3.904 0-7.08-3.177-7.08-7.082a7.09 7.09 0 0 1 7.08-7.08m0 16.162a9.03 9.03 0 0 0 8.396-5.622H33.92c.292 0 .57-.128.76-.35l2.107-2.46a1 1 0 0 0-.1-1.402l-2.812-2.46a1 1 0 0 0-.658-.246h-1.695l-1.814-1.817a1 1 0 0 0-1.414 0l-1.815 1.817h-.578l-1.815-1.817a1 1 0 0 0-1.414 0l-1.816 1.817h-1.378a9.03 9.03 0 0 0-8.397-5.622c-5.007 0-9.08 4.073-9.08 9.08 0 5.008 4.073 9.083 9.08 9.083"/></svg>