<svg xmlns="http://www.w3.org/2000/svg" viewBox="0 0 48 48"><title>Icon-Resource/IoT/Res_AWS-IoT-Greengrass_Stream-Manager_48</title><path fill="#7aa116" fill-rule="evenodd" d="M13 38h18v-2H13zM2 25h19v-2H2zm0-11h13v-2H2zm5 15h10v-2H7zm34-3h3v-3h-3zm4-5h-5a1 1 0 0 0-1 1v5a1 1 0 0 0 1 1h5a1 1 0 0 0 1-1v-5a1 1 0 0 0-1-1m-25-6h6V9h-6zm-1 2h8a1 1 0 0 0 1-1V8a1 1 0 0 0-1-1h-8a1 1 0 0 0-1 1v8a1 1 0 0 0 1 1m16 22h4v-4h-4zm5-6h-6a1 1 0 0 0-1 1v6a1 1 0 0 0 1 1h6a1 1 0 0 0 1-1v-6a1 1 0 0 0-1-1m-4-17h3v-3h-3zm-1 2h5a1 1 0 0 0 1-1v-5a1 1 0 0 0-1-1h-5a1 1 0 0 0-1 1v5a1 1 0 0 0 1 1m-9 11h7v-7h-7zm-2-8v9a1 1 0 0 0 1 1h9a1 1 0 0 0 1-1v-9a1 1 0 0 0-1-1h-9a1 1 0 0 0-1 1"/></svg>