<svg xmlns="http://www.w3.org/2000/svg" viewBox="0 0 48 48"><title>Icon-Resource/IoT/Res_AWS-IoT_Actuator_48</title><path fill="#7aa116" fill-rule="evenodd" d="M35.573 40.454h2.349v-2.35h-2.349zm-2-3.35a1 1 0 0 1 1-1h4.349a1 1 0 0 1 1 1v4.35a1 1 0 0 1-1 1h-4.349a1 1 0 0 1-1-1zM22.637 40.39h2.998l-1.499-2.032zm-2.786.406 3.48-4.717c.377-.511 1.232-.511 1.609 0l3.48 4.717a1.002 1.002 0 0 1-.805 1.594h-6.959a1 1 0 0 1-.805-1.594m-8.328-.188c.768 0 1.393-.624 1.393-1.392s-.625-1.392-1.393-1.392a1.393 1.393 0 0 0 0 2.784m0-4.784a3.396 3.396 0 0 1 3.393 3.392 3.397 3.397 0 0 1-3.393 3.392 3.395 3.395 0 0 1-3.391-3.392 3.395 3.395 0 0 1 3.391-3.392M6 43.933h36.271v-9.308H6zm38.271 1a1 1 0 0 1-1 1H5a1 1 0 0 1-1-1V33.625a1 1 0 0 1 1-1h38.271a1 1 0 0 1 1 1zM26.18 17.906a2.046 2.046 0 0 0-2.044-2.044 2.046 2.046 0 0 0-2.044 2.044c0 1.128.917 2.045 2.044 2.045a2.047 2.047 0 0 0 2.044-2.045m-3.044 10.632V21.81c-1.744-.448-3.044-2.022-3.044-3.904a4.05 4.05 0 0 1 4.044-4.044 4.05 4.05 0 0 1 4.044 4.044c0 1.882-1.299 3.456-3.044 3.904v6.728l1.772-1.771 1.414 1.414-3.479 3.479a1 1 0 0 1-1.414 0l-3.48-3.48 1.414-1.413zM4.679 19.915c0-3.442 1.855-6.071 5.01-7.178a11 11 0 0 1-.009-.433c0-3.91 2.649-7.967 6.164-9.437 4.097-1.712 8.442-.856 11.622 2.29.896.883 1.646 1.945 2.239 3.168a4.73 4.73 0 0 1 4.075-.681c2.019.597 3.39 2.394 3.753 4.872 3.056.775 6.06 3.074 6.06 7.46 0 5.58-4.636 7.428-7.087 7.625l-6.282-.006.001-2 6.202.009c.13-.016 5.166-.515 5.166-5.628 0-4.296-3.612-5.383-5.163-5.651a1 1 0 0 1-.827-1.078c-.156-1.914-1.044-3.288-2.39-3.685-1.107-.33-2.299.088-3.045 1.06a.998.998 0 0 1-1.787-.297c-.548-1.507-1.328-2.767-2.321-3.744-1.243-1.232-4.653-3.874-9.445-1.87-2.767 1.159-4.935 4.494-4.935 7.593 0 .353.024.706.062 1.043a1 1 0 0 1-.749 1.084c-1.611.406-4.314 1.659-4.314 5.484 0 .165.008.33.016.489.181 2.896 2.73 5.174 5.803 5.174l5.551.008-.004 2-5.549-.008c-4.125 0-7.551-3.102-7.798-7.061a11 11 0 0 1-.019-.602"/></svg>