<svg xmlns="http://www.w3.org/2000/svg" viewBox="0 0 48 48"><title>Icon-Resource/IoT/Res_AWS-IoT-Core_Device-Advisor_48</title><path fill="#7aa116" fill-rule="evenodd" d="M24.068 40.778c-2.035 0-3.857-.754-4.756-1.97l1.608-1.19c.426.578 1.566 1.16 3.148 1.16 1.585 0 2.724-.583 3.15-1.16l1.61 1.188c-.899 1.217-2.723 1.972-4.76 1.972m6.022.983 1.61 1.189c-1.417 1.917-4.34 3.108-7.632 3.108-3.288 0-6.212-1.19-7.629-3.105l1.608-1.19c1.015 1.373 3.435 2.295 6.021 2.295 2.588 0 5.008-.923 6.022-2.297M24.068 20.6c2.037 0 3.86.755 4.76 1.97l-1.61 1.189c-.426-.577-1.566-1.16-3.15-1.16-1.582 0-2.722.583-3.148 1.159l-1.608-1.19c.9-1.214 2.721-1.968 4.756-1.968m0-3.281c-2.586 0-5.006.923-6.02 2.295l-1.609-1.19c1.418-1.915 4.341-3.105 7.63-3.105 3.29 0 6.214 1.19 7.631 3.108l-1.61 1.189c-1.014-1.374-3.434-2.297-6.022-2.297M4.065 22.51h-2c0-5.362 3.54-7.418 5.721-8.174l-.03-.542c-.003-4.51 2.968-9.126 6.91-10.8 4.615-1.96 9.503-.986 13.075 2.608 1.047 1.052 1.915 2.317 2.591 3.77a5.46 5.46 0 0 1 4.974-.827c2.261.742 3.682 2.798 3.893 5.57 3.494.866 6.943 3.47 6.943 8.46h-2c0-5.064-4.265-6.345-6.099-6.661a1 1 0 0 1-.818-1.143c.001-2.192-.927-3.795-2.544-4.326-1.419-.467-2.99.049-3.904 1.287a1 1 0 0 1-.952.396 1 1 0 0 1-.796-.657c-.629-1.786-1.54-3.286-2.706-4.46-1.429-1.437-5.347-4.525-10.877-2.176-3.192 1.356-5.693 5.266-5.693 8.9l.076 1.27a1 1 0 0 1-.75 1.028c-1.872.48-5.014 1.96-5.014 6.478m35.58 14.036a4.85 4.85 0 0 1-4.424-2.898 1 1 0 0 0-.914-.596H13.841c-.395 0-.753.234-.914.596a4.85 4.85 0 0 1-4.423 2.898c-1.59 0-3.022-1.136-3.902-2.494H8.07a1 1 0 0 0 1-1v-5a1 1 0 0 0-1-1h-3.4c.885-1.4 2.321-2.575 3.896-2.575 1.946 0 3.635 1.136 4.406 2.964a1 1 0 0 0 .921.61H34.32c.402 0 .766-.24.922-.61.77-1.828 2.458-2.964 4.405-2.964 1.576 0 3.011 1.175 3.898 2.575H40.07a1 1 0 0 0-1 1v5a1 1 0 0 0 1 1h3.477c-.879 1.358-2.31 2.494-3.9 2.494m6.318-4.073a1 1 0 0 0-.816-.421H41.07v-3h4.07c.324 0 .628-.157.816-.421.187-.265.234-.604.127-.91-.916-2.606-3.42-5.244-6.436-5.244-2.499 0-4.769 1.383-5.955 3.575h-19.17c-1.187-2.192-3.458-3.575-5.956-3.575-3.014 0-5.518 2.638-6.436 5.243a.998.998 0 0 0 .943 1.332H7.07v3H3a1 1 0 0 0-.945 1.33c.896 2.566 3.4 5.164 6.45 5.164a6.85 6.85 0 0 0 5.953-3.494h19.233a6.85 6.85 0 0 0 5.954 3.494c3.05 0 5.552-2.598 6.447-5.164a1 1 0 0 0-.128-.91"/></svg>