<svg xmlns="http://www.w3.org/2000/svg" viewBox="0 0 48 48"><title>Icon-Resource/IoT/Res_AWS-IoT_Thing_PLC_48</title><path fill="#7aa116" fill-rule="evenodd" d="M39 10.135C39 9.51 38.491 9 37.865 9h-27.73C9.509 9 9 9.51 9 10.135v27.73C9 38.49 9.509 39 10.135 39h27.73c.626 0 1.135-.51 1.135-1.135zM41 15v3h5v2h-5v3h5v2h-5v3h5v2h-5v3h5v2h-5v2.865A3.14 3.14 0 0 1 37.865 41H35v5h-2v-5h-3v5h-2v-5h-3v5h-2v-5h-3v5h-2v-5h-3v5h-2v-5h-2.865A3.14 3.14 0 0 1 7 37.865V35H2v-2h5v-3H2v-2h5v-3H2v-2h5v-3H2v-2h5v-3H2v-2h5v-2.865A3.14 3.14 0 0 1 10.135 7H13V2h2v5h3V2h2v5h3V2h2v5h3V2h2v5h3V2h2v5h2.865A3.14 3.14 0 0 1 41 10.135V13h5v2zM28 35h4V13h-4zm-6 0h4V13h-4zm-6 0h4V13h-4zm18-23v24a1 1 0 0 1-1 1H15a1 1 0 0 1-1-1V12a1 1 0 0 1 1-1h18a1 1 0 0 1 1 1m-5 4h2v-2h-2zm-6 0h2v-2h-2zm-6 0h2v-2h-2z"/></svg>