<svg xmlns="http://www.w3.org/2000/svg" viewBox="0 0 48 48"><title>Icon-Resource/IoT/Res_AWS-IoT-Device-Tester_48</title><path fill="#7aa116" fill-rule="evenodd" d="M21 4.523v2.509a1 1 0 0 0 1 1h4a1 1 0 0 0 1-1V4.576c.869.697 1.545 1.69 1.545 2.765 0 1.672-1.007 2.942-2.005 3.459a1 1 0 0 0-.54.888v16.668c0 .373.208.715.54.887.998.518 2.005 1.788 2.005 3.459 0 1.074-.676 2.069-1.545 2.766v-2.436a1 1 0 0 0-1-1h-4a1 1 0 0 0-1 1v2.438c-.842-.692-1.493-1.684-1.493-2.768 0-1.662.99-2.944 1.971-3.477a1 1 0 0 0 .522-.88V11.648a1 1 0 0 0-.522-.88c-.981-.533-1.971-1.815-1.971-3.476 0-1.084.651-2.076 1.493-2.768m-1 7.675v15.596c-1.512 1.075-2.493 2.973-2.493 4.908 0 2.557 2.086 4.667 4.146 5.428a1 1 0 0 0 .918-.117 1 1 0 0 0 .429-.821v-3.16h2v3.152a1 1 0 0 0 1.352.936c2.084-.783 4.193-2.895 4.193-5.418 0-1.988-.982-3.852-2.545-4.912V12.254c1.563-1.061 2.545-2.924 2.545-4.913 0-2.523-2.109-4.635-4.193-5.418A1.002 1.002 0 0 0 25 2.859v3.173h-2V2.8a.999.999 0 0 0-1.347-.938c-2.06.762-4.146 2.87-4.146 5.429 0 1.935.981 3.832 2.493 4.907m-2.746 10.084c-.408.305-.845 1.178-.838 2.375.006 1.197.451 2.065.863 2.366L16.1 28.638c-1.031-.752-1.676-2.274-1.684-3.971-.01-1.695.619-3.223 1.639-3.986zm-6.21 2.355c.011 2.147.831 3.703 1.638 4.294l-1.18 1.614c-1.503-1.1-2.445-3.358-2.458-5.897s.904-4.81 2.394-5.922l1.198 1.6c-.8.6-1.603 2.164-1.592 4.31m19.523 2.386c.412-.3.857-1.17.864-2.366.006-1.196-.431-2.07-.839-2.375l1.199-1.601c1.02.763 1.647 2.29 1.64 3.986-.01 1.698-.655 3.22-1.684 3.97zm6.235-2.386c.011-2.146-.791-3.711-1.591-4.31l1.197-1.601c1.491 1.115 2.408 3.384 2.394 5.922-.013 2.54-.955 4.799-2.458 5.897l-1.18-1.615c.808-.59 1.627-2.145 1.638-4.293M44 43.032c0 .678-.27 1-1.803 1H5.803c-1.621 0-1.79-.784-1.803-1v-1h40zm1-3h-2V17.435c0-2.091-1.509-2.403-2.408-2.403H30v2h10.592c.275 0 .383.056.377.045.031.066.031.262.031.358v22.597H7V17.435c0-.098 0-.3.016-.342.001 0 .095-.061.392-.061H18v-2H7.408c-.899 0-2.408.312-2.408 2.403v22.597H3a1 1 0 0 0-1 1v2c0 1.038.795 3 3.803 3h36.394c3.143 0 3.803-1.631 3.803-3v-2a1 1 0 0 0-1-1"/></svg>