<svg xmlns="http://www.w3.org/2000/svg" viewBox="0 0 48 48"><title>Icon-Resource/IoT/Res_AWS-IoT_Sailboat_48</title><path fill="#7aa116" fill-rule="evenodd" d="M21.841 26.881c-1.329-1.329-3.113-2.061-5.024-2.061v2c1.377 0 2.659.524 3.61 1.475a5.06 5.06 0 0 1 1.475 3.611h2c0-1.912-.732-3.696-2.061-5.025m-5.05-10.61-.008 2c7.521.027 13.639 6.144 13.639 13.635h2c0-8.59-7.012-15.604-15.631-15.635m-.004-8.52v2c12.216 0 22.155 9.939 22.155 22.155h2c0-13.319-10.836-24.155-24.155-24.155M17 42h14v-2H17zM6 32h2V16H6zm1 6c-1.654 0-3 1.345-3 3 0 1.654 1.346 3 3 3s3-1.346 3-3c0-1.655-1.346-3-3-3m0 8c-2.757 0-5-2.244-5-5 0-2.757 2.243-5 5-5s5 2.243 5 5c0 2.756-2.243 5-5 5M7 4C5.346 4 4 5.345 4 7c0 1.654 1.346 3 3 3s3-1.346 3-3c0-1.655-1.346-3-3-3m0 8c-2.757 0-5-2.244-5-5 0-2.757 2.243-5 5-5s5 2.243 5 5c0 2.756-2.243 5-5 5m34 26c-1.654 0-3 1.345-3 3 0 1.654 1.346 3 3 3s3-1.346 3-3c0-1.655-1.346-3-3-3m0 8c-2.757 0-5-2.244-5-5 0-2.757 2.243-5 5-5s5 2.243 5 5c0 2.756-2.243 5-5 5"/></svg>