<svg xmlns="http://www.w3.org/2000/svg" viewBox="0 0 48 48"><title>Icon-Resource/IoT/Res_AWS-IoT_HTTP2-Protocol_48</title><path fill="#7aa116" fill-rule="evenodd" d="M12.742 43.96h31.219V32.85H12.742zm-2-13.111h35.22V45.96h-35.22zM7.764 1.999A5.77 5.77 0 0 0 2 7.766v32.432a5.77 5.77 0 0 0 5.764 5.764H9.12v-2H7.764A3.77 3.77 0 0 1 4 40.197V7.765A3.77 3.77 0 0 1 7.764 4h32.433a3.77 3.77 0 0 1 3.764 3.765v21.46h2V7.766A5.77 5.77 0 0 0 40.197 2zM43.05 41.469h-2.854q1.217-1.573 1.72-2.334.504-.76.693-1.275.19-.512.19-.996-.001-.912-.452-1.422-.45-.508-1.259-.508-.462 0-.902.163a3.6 3.6 0 0 0-.913.518v.893q.996-.672 1.648-.672.849 0 .848 1.09 0 .495-.24 1.04t-.798 1.368-1.616 2.219v.787h3.935zm-8.57 2.382h.986l2.842-9.421h-.986zm-1.349-7.601q-.279-.372-.77-.372h-1.04v2.832h1.04q.492 0 .77-.378.276-.377.277-1.038 0-.671-.277-1.044m1.284 1.044q0 1.007-.539 1.616-.54.609-1.41.608H31.32v2.822h-.986v-7.27h2.13q.585 0 1.033.283.445.284.682.787.236.503.235 1.154m-9.65-1.374h1.805v6.42h1.017v-6.42h1.815v-.85h-4.637zm-5.246 0h1.805v6.42h1.018v-6.42h1.814v-.85h-4.637zm-1.95-.85h1.018v7.27h-1.018v-3.305h-2.643v3.305h-1.018v-7.27h1.018v3.137h2.643z"/></svg>