<svg xmlns="http://www.w3.org/2000/svg" viewBox="0 0 48 48"><title>Icon-Resource/IoT/Res_AWS-IoT_Thing_Travel_48</title><path fill="#7aa116" fill-rule="evenodd" d="M34.515 24.177a.32.32 0 0 1 .453.453l-1.661 1.66-.17-.736zm-2.828 10.052-4.505-9.91a1 1 0 0 0-.713-.566 1.01 1.01 0 0 0-.877.247l-4.906 4.552a1 1 0 0 0-.32.733v5.746l-.28.277-1.526-5.242a1 1 0 0 0-.687-.683l-5.164-1.47.27-.268h5.746c.283 0 .553-.12.742-.33l4.486-4.972c.214-.236.302-.562.238-.873a1 1 0 0 0-.566-.707l-9.909-4.505 1.139-1.14 12.514 2.892c.343.076.71-.031.955-.291l3.655-3.91c.843-.843 2.801-1.392 3.176-1.021.104.106.189.555-.032 1.324-.228.824-.671 1.539-.963 1.832l-3.933 3.677a1 1 0 0 0-.292.955l2.891 12.514zM23.329 12.99a.322.322 0 0 1 .454.454l-1.369 1.368-.737-.17zm12.22 4.39c.625-.625 1.215-1.7 1.499-2.726.404-1.402.234-2.567-.477-3.28-1.549-1.548-4.768-.217-6.03 1.044l-3.285 3.512-2.545-.588.486-.484a2.325 2.325 0 0 0 0-3.282 2.325 2.325 0 0 0-3.282 0l-2.536 2.536-4.615-1.067a1 1 0 0 0-.932.268l-2.55 2.55a1 1 0 0 0-.278.886c.059.323.273.596.571.732l9.978 4.536-3.272 3.627h-5.717a1 1 0 0 0-.708.294l-1.763 1.766a1.002 1.002 0 0 0 .435 1.668l6.266 1.783 1.843 6.33a1 1 0 0 0 .96.72 1 1 0 0 0 .705-.291l1.769-1.76c.188-.188.295-.444.295-.71v-5.723l3.569-3.313 4.528 9.96c.136.3.409.513.732.572a1 1 0 0 0 .885-.278l2.551-2.55c.244-.245.345-.596.268-.932l-1.061-4.593 2.544-2.544a2.324 2.324 0 0 0 0-3.281 2.324 2.324 0 0 0-3.281 0l-.494.494-.593-2.568zm4.176 21.21c0 .627-.509 1.136-1.135 1.136H9.417a1.135 1.135 0 0 1-1.134-1.135V9.43c0-.626.508-1.135 1.134-1.135H38.59c.626 0 1.135.509 1.135 1.135zm6.282-24.148v-2h-4.282V9.43a3.14 3.14 0 0 0-3.135-3.135h-3.024V2h-2v4.296h-3.281V2h-2v4.296h-3.281V2h-2v4.296h-3.281V2h-2v4.296h-3.281V2h-2v4.296H9.417A3.14 3.14 0 0 0 6.283 9.43v3.012H2v2h4.283v3.28H2v2h4.283v3.28H2v2h4.283v3.282H2v2h4.283v3.28H2v2h4.283v3.027a3.14 3.14 0 0 0 3.134 3.135h3.025v4.28h2v-4.28h3.281v4.28h2v-4.28h3.281v4.28h2v-4.28h3.281v4.28h2v-4.28h3.281v4.28h2v-4.28h3.024a3.14 3.14 0 0 0 3.135-3.135v-3.026h4.282v-2h-4.282v-3.281h4.282v-2h-4.282v-3.281h4.282v-2h-4.282v-3.281h4.282v-2h-4.282v-3.28z"/></svg>