<svg xmlns="http://www.w3.org/2000/svg" viewBox="0 0 48 48"><title>Icon-Resource/IoT/Res_AWS-IoT-SiteWise_Asset-Properties_48</title><path fill="#7aa116" fill-rule="evenodd" d="M20 32c-1.654 0-3 1.346-3 3s1.346 3 3 3 3-1.346 3-3-1.346-3-3-3m0 8c-2.757 0-5-2.243-5-5s2.243-5 5-5 5 2.243 5 5-2.243 5-5 5m9-19c-1.654 0-3 1.346-3 3s1.346 3 3 3 3-1.346 3-3-1.346-3-3-3m0 8c-2.757 0-5-2.243-5-5s2.243-5 5-5 5 2.243 5 5-2.243 5-5 5M17 10c-1.654 0-3 1.346-3 3s1.346 3 3 3 3-1.346 3-3-1.346-3-3-3m0 8c-2.757 0-5-2.243-5-5s2.243-5 5-5 5 2.243 5 5-2.243 5-5 5M6 36h7v-2H6zm21 0h15v-2H27zM6 25h16v-2H6zm30 0h6v-2h-6zM6 14h4v-2H6zm18 0h18v-2H24zM4 44h40V4H4zm41 2H3a1 1 0 0 1-1-1V3a1 1 0 0 1 1-1h42a1 1 0 0 1 1 1v42a1 1 0 0 1-1 1"/></svg>