<svg xmlns="http://www.w3.org/2000/svg" viewBox="0 0 48 48"><title>Icon-Resource/IoT/Res_AWS-IoT_Thing_Temperature-Sensor_48</title><path fill="#7aa116" fill-rule="evenodd" d="M24 32.978a1.001 1.001 0 0 1 0-2 1.001 1.001 0 0 1 0 2m1-3.817V18h-2v11.162a3 3 0 0 0-2 2.816c0 1.654 1.346 3 3 3s3-1.346 3-3a3 3 0 0 0-2-2.817m1.522 5.92c-.953.776-2.158 1.061-3.39.806-1.544-.32-2.776-1.589-3.063-3.156-.279-1.526.294-2.997 1.534-3.934l.397-.3V14c0-1.104.897-2 2-2s2 .896 2 2v14.499l.397.299c1.019.77 1.603 1.929 1.603 3.18 0 1.209-.538 2.34-1.478 3.103M28 27.528V14c0-2.206-1.794-4-4-4s-4 1.794-4 4v13.53a5.99 5.99 0 0 0-1.897 5.563c.432 2.358 2.29 4.268 4.623 4.752q.633.133 1.265.132a6 6 0 0 0 3.794-1.344A5.98 5.98 0 0 0 30 31.977a5.93 5.93 0 0 0-2-4.448M30 27h4v-2h-4zm0-4h5v-2h-5zm0-4h4v-2h-4zm0-4h5v-2h-5zm9 22.865C39 38.49 38.491 39 37.865 39h-27.73A1.136 1.136 0 0 1 9 37.866v-27.73c0-.626.509-1.136 1.135-1.136h27.73C38.491 9 39 9.51 39 10.135zM46 15v-2h-5v-2.865A3.14 3.14 0 0 0 37.865 7H35V2h-2v5h-3V2h-2v5h-3V2h-2v5h-3V2h-2v5h-3V2h-2v5h-2.865A3.14 3.14 0 0 0 7 10.134V13H2v2h5v3H2v2h5v3H2v2h5v3H2v2h5v3H2v2h5v2.866A3.14 3.14 0 0 0 10.135 41H13v5h2v-5h3v5h2v-5h3v5h2v-5h3v5h2v-5h3v5h2v-5h2.865A3.14 3.14 0 0 0 41 37.866V35h5v-2h-5v-3h5v-2h-5v-3h5v-2h-5v-3h5v-2h-5v-3z"/></svg>