<svg xmlns="http://www.w3.org/2000/svg" viewBox="0 0 48 48"><title>Icon-Resource/IoT/Res_AWS-IoT-Core_Device-Location_48</title><path fill="#7aa116" fill-rule="evenodd" d="m35.834 43.976-.997-5.481 5.22-.845 3.295 6.326zm-30.848-.648 27.878-4.514.938 5.162H4.648zm5.108-9.805 5.74 6.022-9.695 1.569zm23.74-.547h3.787l1.461 2.805-4.603.745zm12.053 11.538-6.773-13a1 1 0 0 0-.887-.538H29v2h2.802l.704 3.87-14.279 2.311-5.892-6.181H18v-2H9.772a1 1 0 0 0-.886.538l-6.773 13c-.162.31-.149.682.031.981.182.298.506.481.856.481h42a1 1 0 0 0 .887-1.462M31.128 7.885l-.483-1.941c1.238-.307 2.82.173 4.126 1.252 1.31 1.081 2.08 2.543 2.01 3.816l-1.998-.108c.028-.509-.362-1.404-1.285-2.166-.924-.762-1.88-.978-2.37-.853m.408-3.813-.482-1.941c1.803-.45 4.142.276 6.1 1.892 1.96 1.618 3.113 3.777 3.013 5.636L38.17 9.55c.055-.998-.632-2.617-2.288-3.985-1.654-1.365-3.369-1.735-4.345-1.493M22 18.976c0-1.103.897-2 2-2s2 .897 2 2-.898 2-2 2c-1.103 0-2-.897-2-2m6 0c0-2.206-1.794-4-4-4s-4 1.794-4 4 1.794 4 4 4 4-1.794 4-4m-9.93-6.026a8.23 8.23 0 0 1 5.928-2.535c2.368 0 4.577.897 6.063 2.461 1.371 1.445 2.038 3.338 1.926 5.474-.208 4.023-5.637 10.804-8.504 13.969-1.955-2.471-7.264-9.564-7.474-13.965-.096-1.99.636-3.91 2.061-5.404m5.33 21.894h.032a1 1 0 0 0 .722-.308c.39-.406 9.517-10.011 9.831-16.082.14-2.697-.716-5.103-2.474-6.955-1.86-1.96-4.599-3.084-7.513-3.084a10.23 10.23 0 0 0-7.375 3.155c-1.807 1.894-2.733 4.338-2.612 6.88.288 6.038 8.314 15.633 8.656 16.038a1 1 0 0 0 .733.356"/></svg>