<svg xmlns="http://www.w3.org/2000/svg" viewBox="0 0 48 48"><title>Icon-Resource/IoT/Res_AWS-IoT_Lambda_Function_48</title><path fill="#7aa116" fill-rule="evenodd" d="M4 23.981C4 12.963 12.962 4 23.98 4s19.98 8.963 19.98 19.981c0 11.017-8.962 19.98-19.98 19.98S4 34.998 4 23.981m-2 0c0 12.12 9.86 21.98 21.98 21.98s21.98-9.86 21.98-21.98S36.1 2 23.98 2 2 11.86 2 23.981m15.218 11.238H11.87l6.337-13.276 2.678 5.527zM19.099 19.2a1 1 0 0 0-.899-.563h-.003a1 1 0 0 0-.9.569L9.382 35.788a.998.998 0 0 0 .903 1.431h7.566a1 1 0 0 0 .904-.572l4.143-8.754a1 1 0 0 0-.005-.865zm16.994 16.019h-5.445l-9.902-21.277a1 1 0 0 0-.907-.578H16.24l.004-4.119h7.211L33.31 30.52c.164.353.518.58.907.58h1.876zM34.856 29.1 25.001 7.825a1 1 0 0 0-.908-.58h-8.848a1 1 0 0 0-1 .999l-.006 6.119a1 1 0 0 0 1 1.001h3.963l9.902 21.277a1 1 0 0 0 .906.578h7.083a1 1 0 0 0 1-1V30.1a1 1 0 0 0-1-1z"/></svg>