<svg xmlns="http://www.w3.org/2000/svg" viewBox="0 0 48 48"><title>Icon-Resource/IoT/Res_AWS-IoT-Greengrass_Connector_48</title><path fill="#7aa116" fill-rule="evenodd" d="M29.227 30.45V18h3.99a6.23 6.23 0 0 1 6.226 6.225 6.23 6.23 0 0 1-6.225 6.224zM46 23.223h-4.625C40.879 19.16 37.413 16 33.218 16h-4.991a1 1 0 0 0-1 1v14.45a1 1 0 0 0 1 1h4.99c4.197 0 7.663-3.162 8.159-7.226H46zM18.774 30.45h-3.992a6.23 6.23 0 0 1-6.225-6.225A6.23 6.23 0 0 1 14.782 18h3.992zm2-13.449a1 1 0 0 0-1-1h-4.992c-4.196 0-7.662 3.16-8.158 7.224H2v2h4.624c.496 4.065 3.962 7.225 8.158 7.225h4.992a1 1 0 0 0 1-1v-3.836h4.082v-2h-4.082v-2.776h4.082v-2h-4.082z"/></svg>