<svg xmlns="http://www.w3.org/2000/svg" viewBox="0 0 48 48"><title>Icon-Resource/IoT/Res_AWS-IoT-Device-Management_Fleet-Hub_48</title><path fill="#7aa116" fill-rule="evenodd" d="M29.06 44c-1.007 0-2.116-.283-3.357-.85 1.734-1.485 3.357-3.733 4.14-5.811 1.524-.566 2.617-2.022 2.617-3.739 0-.342-.056-.668-.137-.985a11.1 11.1 0 0 0 2.433-5.625 9.38 9.38 0 0 1 3.58 7.348c0 5.238-4.247 9.662-9.276 9.662m-19.4-9.662c0-2.91 1.065-5.398 2.944-7.08A11.13 11.13 0 0 0 15 32.607c-.083.319-.14.648-.14.993 0 1.719 1.095 3.175 2.62 3.74.775 1.985 2.527 4.262 4.402 5.8-1.133.481-2.443.86-3.623.86-4.902 0-8.6-4.154-8.6-9.662M23.666 16c4.32 0 8.102 3.342 8.994 7.606a11.4 11.4 0 0 0-5.573-.44c-.698-1.171-1.965-1.966-3.425-1.966a3.99 3.99 0 0 0-3.398 1.916 11.4 11.4 0 0 0-5.62.614c.849-4.328 4.66-7.73 9.022-7.73m7.575 14.734a3.97 3.97 0 0 0-2.28-1.083 11.4 11.4 0 0 0-1.723-2.696 3.94 3.94 0 0 0 .424-1.755c0-.036-.01-.069-.011-.105a9.35 9.35 0 0 1 5.197.731 9.1 9.1 0 0 1-1.607 4.908M28.46 35.6c-1.102 0-2-.897-2-2s.898-2 2-2c1.103 0 2 .897 2 2s-.897 2-2 2m-9.6-4c1.103 0 2 .897 2 2s-.897 2-2 2-2-.897-2-2 .898-2 2-2m1.349-4.415a11.4 11.4 0 0 0-1.52 2.432 3.98 3.98 0 0 0-2.602 1.112 9.13 9.13 0 0 1-1.606-4.75 9.33 9.33 0 0 1 5.194-.922c-.002.048-.014.094-.014.143 0 .726.209 1.398.548 1.985m3.452.015c-1.103 0-2-.897-2-2s.897-2 2-2 2 .897 2 2-.898 2-2 2m.799 6.4c0 .443.09.862.223 1.261a9.4 9.4 0 0 1-2.035-.033c.127-.389.213-.797.213-1.228 0-1.542-.886-2.867-2.168-3.535q.393-.761.922-1.446c.6.361 1.295.581 2.046.581.838 0 1.615-.261 2.258-.703.363.451.686.929.957 1.434A4 4 0 0 0 24.46 33.6m-.645 8.498c-1.54-1.062-3.158-2.915-4.065-4.606a3.96 3.96 0 0 0 1.676-.849c.773.174 1.576.268 2.395.268.732 0 1.44-.085 2.128-.223a3.96 3.96 0 0 0 1.65.813c-.871 1.77-2.35 3.58-3.784 4.597m10.998-17.486C34.343 18.698 29.493 14 23.665 14c-5.9 0-10.8 4.808-11.17 10.833-3.03 1.991-4.834 5.488-4.834 9.505C7.66 40.877 12.317 46 18.26 46c2.25 0 4.462-.99 5.555-1.562C25.745 45.484 27.468 46 29.06 46c6.113 0 11.277-5.34 11.277-11.662 0-3.976-2.116-7.682-5.524-9.726M13.999 8.001h1.999v-2h-2zm-4 0h1.999v-2H10zm-3.998 0h1.998v-2H6zm-2.001 2h40V4H4zM45 2H3a1 1 0 0 0-1 1v31a1 1 0 0 0 1 1h3v-2H4V12.001h40V33h-2v2h3a1 1 0 0 0 1-1V3a1 1 0 0 0-1-1"/></svg>