<svg xmlns="http://www.w3.org/2000/svg" viewBox="0 0 48 48"><title>Icon-Resource/IoT/Res_AWS-IoT_Thing_Cart_48</title><path fill="#7aa116" fill-rule="evenodd" d="M31.26 27.367H19.04l-2.962-9.426H34.22zm1.38 6.273a1.199 1.199 0 0 1-2.394 0 1.199 1.199 0 0 1 2.395 0m-14.698 0c0-.66.537-1.197 1.197-1.197a1.198 1.198 0 0 1 0 2.395c-.66 0-1.197-.537-1.197-1.198M15.96 15.941l-.586-2.298c-.177-.643-.73-1.127-1.353-1.206l-2.954-.85-.555 1.921 2.983.86.607 2.377a1.44 1.44 0 0 0-.133 1.156l3.263 10.382c.204.648.819 1.084 1.53 1.084h.957l-.526 1.082c-.02 0-.036-.006-.054-.006a3.2 3.2 0 0 0-3.197 3.197 3.2 3.2 0 0 0 3.197 3.198 3.19 3.19 0 0 0 3.02-2.198h6.263c.423 1.272 1.61 2.198 3.022 2.198a3.2 3.2 0 0 0 3.197-3.198 3.2 3.2 0 0 0-3.197-3.197c-1.412 0-2.6.926-3.022 2.197H22.16a3.2 3.2 0 0 0-1.072-1.515l.856-1.758h9.593c.712 0 1.327-.436 1.532-1.084l3.26-10.382a1.45 1.45 0 0 0-.22-1.31 1.62 1.62 0 0 0-1.31-.65zm23.71 22.596c0 .626-.51 1.135-1.135 1.135H9.409a1.135 1.135 0 0 1-1.134-1.135V9.424c0-.626.508-1.135 1.134-1.135h29.126c.626 0 1.135.51 1.135 1.135zm6.276-24.11v-2H41.67V9.423a3.14 3.14 0 0 0-3.135-3.135H35.52V2h-2v4.29h-3.274V2h-2v4.29h-3.273V2h-2v4.29h-3.274V2h-2v4.29h-3.273V2h-2v4.29H9.409a3.14 3.14 0 0 0-3.134 3.134v3.002H2v2h4.275V17.7H2v2h4.275v3.273H2v2h4.275v3.274H2v2h4.275v3.273H2v2h4.275v3.018a3.14 3.14 0 0 0 3.134 3.135h3.017v4.273h2v-4.273h3.273v4.273h2v-4.273h3.274v4.273h2v-4.273h3.273v4.273h2v-4.273h3.274v4.273h2v-4.273h3.015a3.14 3.14 0 0 0 3.135-3.135V35.52h4.276v-2H41.67v-3.273h4.276v-2H41.67v-3.274h4.276v-2H41.67V19.7h4.276v-2H41.67v-3.273z"/></svg>