<svg xmlns="http://www.w3.org/2000/svg" viewBox="0 0 48 48"><title>Icon-Resource/IoT/Res_AWS-IoT_Thing_Medical-Emergency_48</title><path fill="#7aa116" fill-rule="evenodd" d="M18.854 23.258h3.404a1 1 0 0 0 1-1v-3.403h1.523v3.403a1 1 0 0 0 1 1h3.404v1.523h-3.404a1 1 0 0 0-1 1v3.404h-1.523V25.78a1 1 0 0 0-1-1h-3.404zm2.404 3.523v3.404a1 1 0 0 0 1 1h3.523a1 1 0 0 0 1-1V26.78h3.404a1 1 0 0 0 1-1v-3.523a1 1 0 0 0-1-1h-3.404v-3.403a1 1 0 0 0-1-1h-3.523a1 1 0 0 0-1 1v3.403h-3.404a1 1 0 0 0-1 1v3.523a1 1 0 0 0 1 1zm-5.927 5.927h17.377V15.33H15.331zm-1-19.377a1 1 0 0 0-1 1v19.377a1 1 0 0 0 1 1h19.377a1 1 0 0 0 1-1V14.33a1 1 0 0 0-1-1zm25.421 25.288c0 .626-.508 1.135-1.134 1.135H9.421a1.135 1.135 0 0 1-1.134-1.135V9.435c0-.626.508-1.135 1.134-1.135h29.197c.626 0 1.134.509 1.134 1.135zm6.287-24.17v-2h-4.287V9.436A3.14 3.14 0 0 0 38.618 6.3h-3.03V2h-2v4.3h-3.284V2h-2v4.3H25.02V2h-2v4.3h-3.284V2h-2v4.3H14.45V2h-2v4.3H9.421a3.14 3.14 0 0 0-3.134 3.135v3.015H2v2h4.287v3.285H2v2h4.287v3.285H2v2h4.287v3.284H2v2h4.287v3.285H2v2h4.287v3.03a3.14 3.14 0 0 0 3.134 3.135h3.03v4.285h2v-4.285h3.284v4.285h2v-4.285h3.284v4.285h2v-4.285h3.285v4.285h2v-4.285h3.284v4.285h2v-4.285h3.03a3.14 3.14 0 0 0 3.134-3.135v-3.03h4.287v-2h-4.287v-3.285h4.287v-2h-4.287V25.02h4.287v-2h-4.287v-3.285h4.287v-2h-4.287V14.45z"/></svg>