<svg xmlns="http://www.w3.org/2000/svg" viewBox="0 0 48 48"><title>Icon-Resource/IoT/Res_AWS-IoT_Thing_FreeRTOS-Device_48</title><path fill="#7aa116" fill-rule="evenodd" d="M33.572 25.29a1.754 1.754 0 0 1-1.752-1.751c0-.966.786-1.752 1.752-1.752s1.752.786 1.752 1.752c0 .965-.786 1.751-1.752 1.751M29 30.325V24h.867a3.74 3.74 0 0 0 1.998 2.86A8.6 8.6 0 0 1 29 30.325m-4 1.525V17.6a3.75 3.75 0 0 0 2.464-2.003 8.47 8.47 0 0 1 4.489 4.572A3.76 3.76 0 0 0 30.159 22H28a1 1 0 0 0-1 1v8.375a8.2 8.2 0 0 1-2 .475m-4-.546V23a1 1 0 0 0-1-1h-1.962a3.76 3.76 0 0 0-1.792-1.83 8.48 8.48 0 0 1 4.488-4.571A3.75 3.75 0 0 0 23 17.539V31.82a8 8 0 0 1-2-.516m-3.42-2.459c-.032-.037-.066-.074-.129-.16a8.5 8.5 0 0 1-1.112-1.829A3.73 3.73 0 0 0 18.33 24H19v6.186c-.521-.391-1-.836-1.42-1.341m-4.706-5.306c0-.966.786-1.752 1.752-1.752s1.751.786 1.751 1.752c0 .965-.785 1.751-1.751 1.751a1.754 1.754 0 0 1-1.752-1.751m11.224-11.321c.966 0 1.752.786 1.752 1.752s-.786 1.752-1.752 1.752a1.755 1.755 0 0 1-1.752-1.752c0-.966.787-1.752 1.752-1.752m9.856 7.607a10.45 10.45 0 0 0-6.142-6.227c-.189-1.892-1.773-3.38-3.714-3.38s-3.525 1.489-3.714 3.382a10.46 10.46 0 0 0-6.139 6.225c-1.888.194-3.371 1.775-3.371 3.714 0 1.97 1.532 3.572 3.465 3.722.379.958.889 1.851 1.517 2.628.061.086.133.172.195.246.822.989 1.83 1.816 2.949 2.436V37h2v-3.574a10 10 0 0 0 2 .416V37h2v-3.141c.685-.058 1.355-.18 2-.369V37h2v-4.326a10.6 10.6 0 0 0 4.85-5.412c1.937-.145 3.474-1.75 3.474-3.723 0-1.938-1.482-3.519-3.37-3.714M39 37.865c0 .626-.509 1.135-1.135 1.135h-27.73A1.136 1.136 0 0 1 9 37.865v-27.73C9 9.509 9.509 9 10.135 9h27.73C38.491 9 39 9.509 39 10.135zM46 15v-2h-5v-2.865A3.14 3.14 0 0 0 37.865 7H35V2h-2v5h-3V2h-2v5h-3V2h-2v5h-3V2h-2v5h-3V2h-2v5h-2.865A3.14 3.14 0 0 0 7 10.135V13H2v2h5v3H2v2h5v3H2v2h5v3H2v2h5v3H2v2h5v2.865A3.14 3.14 0 0 0 10.135 41H13v5h2v-5h3v5h2v-5h3v5h2v-5h3v5h2v-5h3v5h2v-5h2.865A3.14 3.14 0 0 0 41 37.865V35h5v-2h-5v-3h5v-2h-5v-3h5v-2h-5v-3h5v-2h-5v-3z"/></svg>