<svg xmlns="http://www.w3.org/2000/svg" viewBox="0 0 48 48"><title>Icon-Resource/IoT/Res_AWS-IoT_Alexa_Voice-Service_48</title><path fill="#7aa116" fill-rule="evenodd" d="M38.926 43.259c2.47-2.129 4.005-5.11 4.005-8.234 0-4.36-3.547-7.906-7.906-7.906-4.36 0-7.907 3.547-7.907 7.906a7.9 7.9 0 0 0 4.828 7.282.78.78 0 0 1 .49.71v.76a9.126 9.126 0 0 1-6.539-8.753c0-5.032 4.095-9.126 9.128-9.126s9.128 4.095 9.128 9.127a9.15 9.15 0 0 1-4.727 7.995c-.162.09-.333.16-.5.238m-9.808-8.234a5.913 5.913 0 0 1 5.907-5.906 5.913 5.913 0 0 1 5.906 5.906c0 3.687-2.665 7.147-6.494 8.63v-.639a2.78 2.78 0 0 0-1.71-2.55 5.91 5.91 0 0 1-3.61-5.441m-19.95 4.724a.88.88 0 0 1-.884-.876V9.177c0-.482.397-.875.884-.875h29.696a.88.88 0 0 1 .885.875v15.788a11.05 11.05 0 0 0-4.724-1.067c-6.136 0-11.127 4.99-11.127 11.127 0 1.669.372 3.275 1.05 4.724zm36.865-14.733v-2h-4.284v-3.283h4.284v-2h-4.284v-3.285h4.284v-2h-4.284V9.177a2.883 2.883 0 0 0-2.885-2.875h-3.28V2h-2v4.302H30.3V2h-2v4.302h-3.284V2h-2v4.302h-3.284V2h-2v4.302h-3.285V2h-2v4.302h-3.28a2.883 2.883 0 0 0-2.884 2.875v3.271H2v2h4.284v3.285H2v2h4.284v3.284H2v2h4.284V28.3H2v2h4.284v3.283H2v2h4.284v3.29a2.883 2.883 0 0 0 2.884 2.874h3.28v4.285h2v-4.285h3.285v4.285h2v-4.285h3.284v4.285h2v-6.15a11.14 11.14 0 0 0 5.67 5.389 11.133 11.133 0 0 0 9.707-.502 11.15 11.15 0 0 0 5.759-9.745c0-4.402-2.578-8.205-6.296-10.008z"/></svg>