<svg xmlns="http://www.w3.org/2000/svg" viewBox="0 0 48 48"><title>Icon-Resource/Management-Governance/Res_AWS-License-Manager_Application-Discovery_48</title><path fill="#e7157b" fill-rule="evenodd" d="M15.833 15.684h.038c.228 0 .444.083.612.238a.9.9 0 0 1 .292.63.9.9 0 0 1-.238.65.905.905 0 1 1-.704-1.518M8.97 13.962l-.458 9.799 7.733 7.724c.9.082 1.955.225 2.855.134l-8.628-8.618.363-7.768c.837.542 1.584.995 2.142 1.32 0 .053-.011.104-.009.158a2.91 2.91 0 0 0 3.024 2.781 2.9 2.9 0 0 0 2.018-.936 2.9 2.9 0 0 0 .763-2.088 2.91 2.91 0 0 0-3.024-2.782 2.9 2.9 0 0 0-2.045.975 50 50 0 0 1-2.76-1.767l.075-1.586 11.692-.567 8.826 8.816c.115-.868.049-1.742.002-2.615L23.468 8.78 9.18 9.472l-.097 2.071c-2.472-1.902-4.557-3.99-4.782-5.581-.076-.542.076-.969.537-1.429.018-.019.453-.469 1.23-.431 1.173.069 2.637 1.221 4.093 3.202l.532.811 1.672-1.098-.562-.854C9.876 3.538 7.957 2.171 6.102 2.102c-1.699-.069-2.668.995-2.715 1.056-.863.855-1.231 1.922-1.066 3.084.378 2.675 3.658 5.58 6.649 7.72m34.193 29.297a2.29 2.29 0 0 1-3.234 0L28.483 31.813a16.7 16.7 0 0 0 3.248-3.22l11.432 11.432c.43.429.666 1.003.666 1.617a2.27 2.27 0 0 1-.666 1.617M32.867 26.901a16.44 16.44 0 0 0 2.271-8.332C35.138 9.433 27.705 2 18.569 2c-2.361 0-4.603.505-6.638 1.398l1.328 1.619A14.5 14.5 0 0 1 18.569 4c8.034 0 14.569 6.536 14.569 14.569 0 3.736-1.425 7.137-3.745 9.718a15 15 0 0 1-1.999 1.847 14.492 14.492 0 0 1-18.018-.276 14.6 14.6 0 0 1-2.002-1.98A14.486 14.486 0 0 1 5.038 13.2l-1.55-1.455A16.45 16.45 0 0 0 2 18.569c0 9.136 7.433 16.569 16.569 16.569 2.99 0 5.788-.807 8.213-2.198l11.733 11.733a4.27 4.27 0 0 0 3.031 1.254 4.27 4.27 0 0 0 3.031-1.254 4.25 4.25 0 0 0 1.252-3.031 4.25 4.25 0 0 0-1.252-3.031z"/></svg>