<svg xmlns="http://www.w3.org/2000/svg" viewBox="0 0 48 48"><title>Icon-Resource/Migration-and-Transfer/Res_AWS-Mainframe-Modernization_Developer_48</title><path fill="#01a88d" fill-rule="evenodd" d="M13.03 8h2V6h-2zm-3 0h2V6h-2zm-3 0h2V6h-2zm26.288 11.466a1 1 0 0 1 0 1.414l-3.881 3.882-1.415-1.414 3.175-3.175-3.175-3.175 1.415-1.415zm-15.062-2.468-3.175 3.175 3.175 3.175-1.414 1.414-3.882-3.882a1 1 0 0 1 0-1.414l3.882-3.883zm5.936-2.469 1.858.743-4.217 10.544-1.857-.743zM33.671 43H14.37l-8.809-6.881 6.451-6.12 23.976-.003 6.49 6.125zM5.045 11H42.03v17l-37 .004zM42.03 5v4h-37l.004-4zm-3.128 25h3.368c.97 0 1.76-.764 1.76-1.702V4.701c0-.938-.79-1.701-1.76-1.701H4.791C3.82 3 3.03 3.763 3.03 4.699l-.02 23.597c-.002.934.782 1.698 1.756 1.704h4.339L2.5 36.265 13.681 45h20.681l11.18-8.734z"/></svg>