<svg xmlns="http://www.w3.org/2000/svg" viewBox="0 0 48 48"><title>Icon-Resource/Migration-and-Transfer/Res_AWS-Migration-Hub_Refactor-Spaces-Applications_48</title><path fill="#01a88d" fill-rule="evenodd" d="M31 34c0 3.86-3.141 7-7 7s-7-3.14-7-7c0-2.785 1.639-5.189 4-6.315v2.341c-1.207.913-2 2.347-2 3.974 0 2.757 2.243 5 5 5s5-2.243 5-5c0-1.627-.793-3.061-2-3.974v-2.341c2.361 1.126 4 3.53 4 6.315M12 24c1.654 0 3 1.346 3 3s-1.346 3-3 3-3-1.346-3-3 1.346-3 3-3m6-3h12V9H18zm18 3c1.654 0 3 1.346 3 3s-1.346 3-3 3-3-1.346-3-3 1.346-3 3-3m-24 8c2.44 0 4.471-1.76 4.907-4.076A6.005 6.005 0 0 0 21.91 23H23v9h2v-9h1.09a6.005 6.005 0 0 0 5.003 4.924C31.529 30.24 33.56 32 36 32c2.757 0 5-2.243 5-5s-2.243-5-5-5c-2.377 0-4.365 1.672-4.869 3.899A4 4 0 0 1 28.142 23H31a1 1 0 0 0 1-1V8a1 1 0 0 0-1-1H17a1 1 0 0 0-1 1v14a1 1 0 0 0 1 1h2.858a4 4 0 0 1-2.989 2.899C16.365 23.672 14.377 22 12 22c-2.757 0-5 2.243-5 5s2.243 5 5 5m12.707-16.957 3.5 3.5-1.414 1.414L24 17.164l-2.793 2.793-1.414-1.414 3.5-3.5a1 1 0 0 1 1.414 0m0-4.5 3.5 3.5-1.414 1.414L24 12.664l-2.793 2.793-1.414-1.414 3.5-3.5a1 1 0 0 1 1.414 0M4 44h40V4H4zM45 2H3a1 1 0 0 0-1 1v42a1 1 0 0 0 1 1h42a1 1 0 0 0 1-1V3a1 1 0 0 0-1-1"/></svg>