<svg xmlns="http://www.w3.org/2000/svg" viewBox="0 0 48 48"><title>Icon-Resource/Migration-and-Transfer/Res_AWS-Migration-Hub_Refactor-Spaces-Environments_48</title><path fill="#01a88d" fill-rule="evenodd" d="m31.707 26.293 4 4-1.414 1.414L31 28.414l-3.293 3.293-1.414-1.414 4-4a1 1 0 0 1 1.414 0m0 5 4 4-1.414 1.414L31 33.414l-3.293 3.293-1.414-1.414 4-4a1 1 0 0 1 1.414 0M23 39h16V23H23zm-2-17v18a1 1 0 0 0 1 1h18a1 1 0 0 0 1-1V22a1 1 0 0 0-1-1H22a1 1 0 0 0-1 1M7 26V8a1 1 0 0 1 1-1h18a1 1 0 0 1 1 1v11h-2V9H9v16h10v2H8a1 1 0 0 1-1-1m10-11.586-3.293 3.293-1.414-1.414 4-4a1 1 0 0 1 1.414 0l4 4-1.414 1.414zm-4.707 6.879 4-4a1 1 0 0 1 1.414 0l2.619 2.619-1.414 1.414L17 19.414l-3.293 3.293zM4 44h40V4H4zM45 2H3a1 1 0 0 0-1 1v42a1 1 0 0 0 1 1h42a1 1 0 0 0 1-1V3a1 1 0 0 0-1-1"/></svg>