<svg xmlns="http://www.w3.org/2000/svg" viewBox="0 0 48 48"><title>Icon-Resource/General-Resource/Res_AWS-Management-Console_48_Light</title><path fill="#232f3d" fill-rule="evenodd" d="M10.001 41H44V14H10.001zM4 41h4.001V14H4zm0-29h40V6H4zm42-7v37a1 1 0 0 1-1 1H3a1 1 0 0 1-1-1V5a1 1 0 0 1 1-1h42a1 1 0 0 1 1 1M35 32.409v-8.543l-7 4.667v7.765zm-16 0 7 3.889v-7.765l-7-4.667zm.919-10.334L27 26.796l7.081-4.721L27 18.142zM37 21.998v11a1 1 0 0 1-.515.874l-9 5a1 1 0 0 1-.97 0l-9-5a1 1 0 0 1-.515-.874v-11c0-.364.197-.698.515-.874l9-5c.3-.168.67-.168.97 0l9 5c.318.176.515.51.515.874M14.001 10h2V8h-2zm-4 0h2V8h-2zm-4 0h2V8h-2z"/></svg>