<svg xmlns="http://www.w3.org/2000/svg" viewBox="0 0 48 48"><title>Icon-Resource/Migration-and-Transfer/Res_AWS-Mainframe-Modernization_Analyzer_48</title><path fill="#01a88d" fill-rule="evenodd" d="M30.007 10h11V8h-11zm-14 0h7V8h-7zm15 6h15v-2h-15zm-19-5c0 3.86 3.141 7 7 7s7-3.14 7-7-3.141-7-7-7-7 3.14-7 7m.769 6.479-9.062 9.062L2.3 25.126l9.19-9.19A8.94 8.94 0 0 1 10.007 11c0-4.962 4.037-9 9-9s9 4.038 9 9-4.037 9-9 9a8.96 8.96 0 0 1-6.231-2.521M14.007 40h23v-2h-23zm-6-6h20v-2h-20zm6-6h23v-2h-23zm13-6h19v-2h-19zm10.767 9.463 7.727 6.037L34.62 46H14.73L3.85 37.5l3.369-2.633 1.232 1.576L7.098 37.5l8.321 6.5h18.512l8.322-6.5-5.71-4.46z"/></svg>