<svg xmlns="http://www.w3.org/2000/svg" viewBox="0 0 48 48"><title>Icon-Resource/Management-Governance/Res_AWS-Organizations_Organizational-Unit_48</title><path fill="#e7157b" fill-rule="evenodd" d="M34 30c2.757 0 5 2.243 5 5s-2.243 5-5 5-5-2.243-5-5 2.243-5 5-5m0 12c3.859 0 7-3.14 7-7s-3.141-7-7-7-7 3.14-7 7 3.141 7 7 7m1.831-26.497L39.579 23h-7.496zM30.465 25h10.732a1 1 0 0 0 .895-1.447L36.726 12.82c-.34-.677-1.45-.677-1.789 0L29.57 23.553A1 1 0 0 0 30.465 25M14 32h9v-9h-9zm-1 2h11a1 1 0 0 0 1-1V22a1 1 0 0 0-1-1H13a1 1 0 0 0-1 1v11a1 1 0 0 0 1 1m-9 4h2v2H3a1 1 0 0 1-1-1V3a1 1 0 0 1 1-1h36a1 1 0 0 1 1 1v3h-2V4H4zm6 6h34V10H10zM45 8H9a1 1 0 0 0-1 1v36a1 1 0 0 0 1 1h36a1 1 0 0 0 1-1V9a1 1 0 0 0-1-1"/></svg>