<svg xmlns="http://www.w3.org/2000/svg" viewBox="0 0 48 48"><title>Icon-Resource/Management-Governance/Res_AWS-Systems-Manager_Change-Calendar_48</title><path fill="#e7157b" fill-rule="evenodd" d="m41.958 26.206 1.98.283c-1.432 10.014-10.212 17.859-19.99 17.859-8.602 0-16.428-6.075-19.161-14.356l-.891 2.672L2 32.031l2-6a.998.998 0 0 1 1.573-.464l5 4-1.25 1.561-2.768-2.215c2.324 7.716 9.49 13.435 17.393 13.435 8.805 0 16.716-7.091 18.01-16.142m-36.02-3.717-1.98-.283C5.419 11.997 14.199 4 23.948 4c8.595 0 16.43 6.219 19.167 14.686L44 16.031l1.896.633-2 6a.997.997 0 0 1-1.573.464l-5-4 1.25-1.561 2.78 2.224C39.03 11.875 31.848 6 23.948 6c-8.776 0-16.687 7.243-18.01 16.489M28.948 32h2v-2h-2zm0-4h2v-2h-2zm-4 4h2v-2h-2zm0-4h2v-2h-2zm-4 4h2v-2h-2zm0-4h2v-2h-2zm-4 4h2v-2h-2zm0-4h2v-2h-2zm0-4h2v-2h-2zm12 0h2v-2h-2zm-4 0h2v-2h-2zm-4 0h2v-2h-2zm0-9v1h2v-1h2v1h2v-1h2v1h2v-1h2v3h-18v-3h2v1h2v-1zm-6 19h18V20h-18zm2-22v1h-3a1 1 0 0 0-1 1v21a1 1 0 0 0 1 1h20a1 1 0 0 0 1-1V14a1 1 0 0 0-1-1h-3v-1h-2v1h-2v-1h-2v1h-2v-1h-2v1h-2v-1z"/></svg>