<svg xmlns="http://www.w3.org/2000/svg" viewBox="0 0 48 48"><title>Icon-Resource/Management-Governance/Res_AWS-Systems-Manager_OpsCenter_48</title><path fill="#e7157b" fill-rule="evenodd" d="m14.41 14.748-1.415 1.414 7.805 7.805 16.502-20.17-1.549-1.266L20.651 20.99zm28.598 22.937L38.24 33.26l-5.147 5.147 4.755 4.398c1.434 1.393 3.7 1.362 5.075-.05 1.421-1.392 1.451-3.658.086-5.07m-12.38-1.557.995.92 5.15-5.151-.92-.853a18.6 18.6 0 0 1-2.165 2.616c-.94.942-1.969 1.76-3.06 2.468m13.711 8.039a5.53 5.53 0 0 1-3.974 1.669 5.57 5.57 0 0 1-3.892-1.577l-7.672-7.097a18.5 18.5 0 0 1-8.232 1.941h-.012a18.43 18.43 0 0 1-13.114-5.427A18.44 18.44 0 0 1 2 20.557a18.3 18.3 0 0 1 1.375-7.009l1.85.76a16.2 16.2 0 0 0-1.179 5.248h5.1v2H4.048a16.43 16.43 0 0 0 4.807 10.705 16.43 16.43 0 0 0 10.702 4.794v-5.086h2v5.086c4.05-.242 7.825-1.914 10.715-4.808a16.42 16.42 0 0 0 4.794-10.691h-5.096v-2h5.11a16.5 16.5 0 0 0-2.564-7.917l1.686-1.077a18.54 18.54 0 0 1 2.913 9.972 18.5 18.5 0 0 1-2.192 8.776l7.483 6.948c2.166 2.236 2.118 5.767-.068 7.909M9.8 8.005 8.492 6.489a18.5 18.5 0 0 0-4.064 4.964l1.742.981a16.5 16.5 0 0 1 3.627-4.429m1.768-1.359-1.086-1.679a18.6 18.6 0 0 1 20.071-.056l-1.077 1.686a16.5 16.5 0 0 0-7.917-2.565v5.111h-2V4.035a16.53 16.53 0 0 0-7.99 2.611"/></svg>