<svg xmlns="http://www.w3.org/2000/svg" viewBox="0 0 48 48"><title>Icon-Resource/Storage/Res_AWS-Storage-Gateway_Virtual-Tape-Library_48</title><path fill="#7aa116" fill-rule="evenodd" d="M16.187 22.371a4.69 4.69 0 0 1 4.686 4.687 4.69 4.69 0 0 1-4.686 4.686 4.69 4.69 0 0 1-4.687-4.686 4.693 4.693 0 0 1 4.687-4.687m10.186 4.687a4.69 4.69 0 0 1 4.686-4.687 4.69 4.69 0 0 1 4.686 4.687 4.69 4.69 0 0 1-4.686 4.686 4.69 4.69 0 0 1-4.686-4.686m-10.186 6.686c.147 0 .292-.013.437-.022v.022h14.873v-.022c3.482-.227 6.248-3.125 6.248-6.664a6.694 6.694 0 0 0-6.686-6.687c-3.686 0-6.686 3-6.686 6.687 0 1.824.736 3.478 1.924 4.686h-5.35a6.67 6.67 0 0 0 1.926-4.686 6.694 6.694 0 0 0-6.686-6.687c-3.687 0-6.687 3-6.687 6.687 0 3.686 3 6.686 6.687 6.686m15.87-18.497h-3.97v-7.88h1.104v6.96h2.866zm-8.052-6.96h-1.956v-.92h5.027v.92h-1.967v6.96h-1.104zm-5.89 6.96-2.275-7.88h1.216l1.66 6.686 1.673-6.687h1.17l-2.273 7.881zm21.13 28.744h-8.498v-5.124a1 1 0 0 0-1-1H17.499a1 1 0 0 0-1 1v5.124h-8.5V4.001h31.246zm1-41.99H7a1 1 0 0 0-1 1v41.99a1 1 0 0 0 1 1h10.499a1 1 0 0 0 1-1v-5.124h10.248v5.124a1 1 0 0 0 1 1h10.498a1 1 0 0 0 1-1V3.001a1 1 0 0 0-1-1"/></svg>