<svg xmlns="http://www.w3.org/2000/svg" viewBox="0 0 48 48"><title>Icon-Resource/Storage/Res_AWS-Storage-Gateway_Tape-Gateway_48</title><path fill="#7aa116" fill-rule="evenodd" d="M41.458 41.769H33.72a13 13 0 0 1-2.597 2.153h8.569zm-17.222 2.153c6.047 0 10.966-4.92 10.966-10.966 0-6.047-4.919-10.966-10.966-10.966s-10.965 4.919-10.965 10.966 4.918 10.966 10.965 10.966m20.109-2.519-3.406 4.153a1 1 0 0 1-.773.366h-16.17c-.029 0-.053-.013-.08-.016-7.001-.172-12.645-5.908-12.645-12.95 0-7.15 5.816-12.966 12.965-12.966 7.15 0 12.966 5.816 12.966 12.966 0 2.501-.723 4.831-1.955 6.813h8.324a1.001 1.001 0 0 1 .774 1.634m-20.109-3.297c2.84 0 5.15-2.311 5.15-5.15s-2.31-5.15-5.15-5.15-5.15 2.31-5.15 5.15c0 2.839 2.31 5.15 5.15 5.15m0 2c-3.942 0-7.15-3.208-7.15-7.15s3.208-7.15 7.15-7.15a7.157 7.157 0 0 1 7.15 7.15c0 3.942-3.207 7.15-7.15 7.15M17.523 4C11.934 4 8.485 5.619 5 7.632v37.29H3V7.057c0-.354.188-.684.494-.862C7.266 3.984 11.176 2 17.523 2c5.898 0 10.215 2.227 13.685 4.015l.296.153a1 1 0 0 1 .542.889v12.177h-2V7.666C26.657 5.921 22.808 4 17.523 4"/></svg>