<svg xmlns="http://www.w3.org/2000/svg" viewBox="0 0 48 48"><title>Icon-Resource/Management-Governance/Res_AWS-Systems-Manager_Distributor_48</title><path fill="#e7157b" fill-rule="evenodd" d="M19 18h10v-2H19zm4.375-4.219-5-4 1.25-1.562 3.375 2.7V2h2v8.919l3.375-2.7 1.25 1.562-5 4a1 1 0 0 1-1.25 0m5.686 17.393-3.67-6.241 14.232-7.598 3.968 6.779zM39 36.526c-1.442.946-7.847 4.055-14 6.91V28.215l2.805 4.769a1 1 0 0 0 1.3.393L39 28.569zM9 28.501l9.891 4.874a.998.998 0 0 0 1.304-.391L23 28.215v15.168L9 36.394zm-.628-11.168 14.237 7.6-3.667 6.237-14.531-7.159zm37.491 6.703-5-8.541a1 1 0 0 0-.375-.349l.008-.014-7-4-.992 1.736 5.429 3.102L24 23.408l-13.822-7.379 6.269-3.134-.894-1.79-8 4 .008.016a.97.97 0 0 0-.421.369l-5 8.43a1.003 1.003 0 0 0 .418 1.407L7 27.516v9.497c0 .379.214.725.554.894l16 7.988.004-.009c.139.07.289.114.442.114.143 0 .285-.03.418-.092C41 38.274 41 37.754 41 36.967v-9.37l4.438-2.156a1.003 1.003 0 0 0 .425-1.405"/></svg>