<svg xmlns="http://www.w3.org/2000/svg" viewBox="0 0 48 48"><title>Icon-Resource/Management-Governance/Res_AWS-Systems-Manager_Maintenance-Windows_48</title><path fill="#e7157b" fill-rule="evenodd" d="M25 23.875h6.875v2H24a1 1 0 0 1-1-1v-10.5h2zM24 35.25c-6.203 0-11.25-5.047-11.25-11.25S17.797 12.75 24 12.75 35.25 17.797 35.25 24 30.203 35.25 24 35.25m0-24.5c-7.306 0-13.25 5.944-13.25 13.25S16.694 37.25 24 37.25 37.25 31.306 37.25 24 31.306 10.75 24 10.75m20 16.364-2.427-.137c-.457-.02-.925.299-1.032.777a16.8 16.8 0 0 1-2.189 5.287 1 1 0 0 0 .18 1.28l1.813 1.618-4.405 4.406-1.612-1.808a1 1 0 0 0-1.28-.181 16.8 16.8 0 0 1-5.292 2.194 1 1 0 0 0-.778 1.032L27.115 44h-6.229l.137-2.42a1 1 0 0 0-.777-1.032 16.8 16.8 0 0 1-5.289-2.194 1 1 0 0 0-1.28.179l-1.616 1.812-4.405-4.406 1.81-1.614a1 1 0 0 0 .18-1.279 16.8 16.8 0 0 1-2.189-5.291 1.02 1.02 0 0 0-1.032-.778L4 27.114v-6.229l2.432.137c.483.013.922-.299 1.032-.777a16.8 16.8 0 0 1 2.192-5.279 1 1 0 0 0-.179-1.28l-1.822-1.625 4.407-4.406 1.623 1.82c.324.364.867.438 1.28.179a16.9 16.9 0 0 1 5.281-2.185 1 1 0 0 0 .777-1.032L20.886 4h6.23l-.138 2.438a1 1 0 0 0 .777 1.033 16.8 16.8 0 0 1 5.278 2.187c.41.259.953.184 1.28-.179l1.626-1.824 4.406 4.406-1.818 1.621a1 1 0 0 0-.179 1.28 16.8 16.8 0 0 1 2.191 5.283c.108.478.553.79 1.032.777l2.43-.137zm1.687-8.014a1 1 0 0 0-.744-.272l-2.66.151a18.7 18.7 0 0 0-1.806-4.356l1.99-1.775a1 1 0 0 0 .041-1.453l-5.903-5.903c-.194-.194-.468-.281-.735-.293a1 1 0 0 0-.718.334l-1.78 1.996a18.8 18.8 0 0 0-4.35-1.803l.15-2.669A1 1 0 0 0 28.174 2h-8.347a1 1 0 0 0-.726.313 1 1 0 0 0-.272.744l.151 2.667a18.8 18.8 0 0 0-4.354 1.801L12.85 5.533a1 1 0 0 0-.718-.334c-.277.015-.54.099-.735.293l-5.903 5.903a1 1 0 0 0 .041 1.453l1.993 1.778a18.8 18.8 0 0 0-1.807 4.353l-2.663-.151a.98.98 0 0 0-.744.272 1 1 0 0 0-.313.726v8.347c0 .275.113.538.313.726.2.189.465.288.744.272l2.655-.15a18.8 18.8 0 0 0 1.805 4.363l-1.983 1.768a1 1 0 0 0-.04 1.453l5.902 5.903a1.002 1.002 0 0 0 1.453-.041l1.77-1.985a18.8 18.8 0 0 0 4.36 1.811l-.15 2.65A.997.997 0 0 0 19.827 46h8.347a1 1 0 0 0 .998-1.057l-.15-2.648a18.8 18.8 0 0 0 4.365-1.809l1.765 1.98c.183.206.443.326.718.335.242.008.541-.099.735-.293l5.903-5.903a1 1 0 0 0-.04-1.453L40.48 33.38a18.8 18.8 0 0 0 1.806-4.359l2.657.15c.274.015.544-.083.744-.272a1 1 0 0 0 .313-.726v-8.347a1 1 0 0 0-.313-.726"/></svg>