<svg xmlns="http://www.w3.org/2000/svg" viewBox="0 0 48 48"><title>Icon-Resource/Management-Governance/Res_AWS-Systems-Manager_Automation_48</title><path fill="#e7157b" fill-rule="evenodd" d="m36.158 15.675 1.782.906-2.968 5.835a1 1 0 0 1-1.299.46l-6.193-2.764.816-1.827 3.87 1.728c-1.49-3.045-4.625-5.09-8.132-5.09-4.28 0-8.01 3.045-8.868 7.24l-1.96-.4c1.049-5.122 5.602-8.84 10.828-8.84 4.451 0 8.407 2.702 10.132 6.668zm-3.255 10.107 1.959.4c-1.046 5.122-5.6 8.84-10.827 8.84-4.117 0-7.768-2.24-9.667-5.695l-.745 3.56-1.957-.41 1.34-6.408c.11-.521.62-.857 1.133-.784l6.7 1.049-.31 1.977-4.807-.753a9.01 9.01 0 0 0 8.313 5.464c4.282 0 8.012-3.045 8.868-7.24m11.043 1.3-2.423-.137a1.02 1.02 0 0 0-1.033.778 16.8 16.8 0 0 1-2.187 5.279 1 1 0 0 0 .18 1.279l1.812 1.616-4.398 4.397-1.61-1.805a1 1 0 0 0-1.28-.18 16.8 16.8 0 0 1-5.285 2.19 1 1 0 0 0-.777 1.033l.137 2.413h-6.219l.139-2.415a1 1 0 0 0-.778-1.032 16.9 16.9 0 0 1-5.283-2.191 1 1 0 0 0-1.28.18l-1.611 1.807-4.398-4.397 1.807-1.612a1 1 0 0 0 .178-1.28 16.8 16.8 0 0 1-2.185-5.282 1.02 1.02 0 0 0-1.032-.778L4 27.082v-6.22l2.428.139c.476.023.922-.301 1.032-.776a16.8 16.8 0 0 1 2.189-5.274 1 1 0 0 0-.18-1.28l-1.818-1.622L12.05 7.65l1.62 1.817c.325.364.867.438 1.28.18a16.8 16.8 0 0 1 5.273-2.183 1 1 0 0 0 .779-1.032L20.863 4h6.22l-.138 2.435a1 1 0 0 0 .776 1.032 16.8 16.8 0 0 1 5.272 2.185c.41.258.953.183 1.28-.18l1.624-1.82 4.398 4.396-1.815 1.619a1 1 0 0 0-.18 1.28 16.8 16.8 0 0 1 2.189 5.277c.107.476.568.8 1.032.777l2.425-.138zm1.687-8.004a1 1 0 0 0-.745-.271l-2.654.15a18.7 18.7 0 0 0-1.806-4.348l1.989-1.773a1 1 0 0 0 .04-1.453l-5.895-5.895a1.08 1.08 0 0 0-.734-.292 1 1 0 0 0-.719.333l-1.778 1.994a18.8 18.8 0 0 0-4.344-1.801l.152-2.665a1 1 0 0 0-.271-.743A1 1 0 0 0 28.14 2h-8.336a1 1 0 0 0-.727.314 1 1 0 0 0-.271.743l.152 2.663a18.7 18.7 0 0 0-4.347 1.799l-1.776-1.99a1 1 0 0 0-.718-.333c-.283.009-.54.098-.735.292L5.49 11.383a1 1 0 0 0 .04 1.453l1.99 1.777a18.8 18.8 0 0 0-1.804 4.345l-2.658-.151A.997.997 0 0 0 2 19.805v8.336c0 .275.113.538.313.726.199.189.475.285.743.272l2.65-.151a18.8 18.8 0 0 0 1.803 4.356L5.53 35.11a1 1 0 0 0-.042 1.453l5.895 5.894c.195.195.45.285.736.293.274-.008.534-.13.717-.334l1.766-1.98a18.8 18.8 0 0 0 4.355 1.806l-.15 2.646a1 1 0 0 0 .998 1.057h8.336a1 1 0 0 0 .998-1.057l-.15-2.643a18.8 18.8 0 0 0 4.357-1.806l1.764 1.977c.182.205.443.326.718.334.265-.005.54-.098.734-.293l5.896-5.894a.998.998 0 0 0-.041-1.453l-1.984-1.77a18.7 18.7 0 0 0 1.803-4.352l2.653.15a.996.996 0 0 0 1.057-.998v-8.335a1 1 0 0 0-.313-.727"/></svg>