<svg xmlns="http://www.w3.org/2000/svg" viewBox="0 0 48 48"><title>Icon-Resource/Storage/Res_AWS-Storage-Gateway_Volume-Gateway_48</title><path fill="#7aa116" fill-rule="evenodd" d="M20.523 4C14.936 4 11.487 5.618 8 7.632v37.291H6V7.057c0-.356.188-.684.494-.864C10.267 3.983 14.178 2 20.523 2c5.895 0 10.211 2.225 13.68 4.013l.301.154c.333.172.542.515.542.89v8.548h-2V7.666C29.658 5.921 25.807 4 20.523 4m10.428 20.485c-6.407 0-9.712-1.772-9.712-2.528s3.305-2.527 9.712-2.527 9.712 1.771 9.712 2.527-3.305 2.528-9.712 2.528m9.712.932c0 .756-3.305 2.527-9.712 2.527s-9.712-1.771-9.712-2.527v-.777c2.251 1.256 6.071 1.845 9.712 1.845s7.461-.589 9.712-1.845zm0 12.31c0 .755-3.305 2.527-9.712 2.527s-9.712-1.772-9.712-2.527V28.1c2.251 1.254 6.071 1.844 9.712 1.844s7.461-.59 9.712-1.844zm0 3.669c0 .755-3.305 2.527-9.712 2.527s-9.712-1.772-9.712-2.527v-.987c2.251 1.255 6.071 1.845 9.712 1.845s7.461-.59 9.712-1.845zM30.951 17.43c-5.641 0-11.712 1.417-11.712 4.527v19.439c0 3.11 6.071 4.527 11.712 4.527 5.64 0 11.712-1.417 11.712-4.527V21.957c0-3.11-6.072-4.527-11.712-4.527"/></svg>