<svg xmlns="http://www.w3.org/2000/svg" viewBox="0 0 48 48"><title>Icon-Resource/Management-Governance/Res_AWS-Systems-Manager_Run-Command_48</title><path fill="#e7157b" fill-rule="evenodd" d="M2 27.63h8.815v-2H2zm0-6.17h10.578v-2H2zm0-6.171h12.341v-2H2zm32.715 10.34H20.91l1.264-5.051h13.805zm-14.104-7.051L18.35 27.63h17.927l2.262-9.052zm17.668 18.195a.4.4 0 0 1-.39.316H13.424a.397.397 0 0 1-.391-.482l4.533-21.367h25.28zM19 10h24.466c.165 0 .265.093.31.148a.4.4 0 0 1 .08.335l-.585 2.757H17.99l.621-2.923A.4.4 0 0 1 19 10m26.329-1.111a2.39 2.39 0 0 0-1.863-.89H19a2.41 2.41 0 0 0-2.347 1.903l-5.577 26.29a2.39 2.39 0 0 0 .484 2.008 2.39 2.39 0 0 0 1.864.889h24.465a2.41 2.41 0 0 0 2.347-1.901l5.577-26.291a2.39 2.39 0 0 0-.484-2.008"/></svg>