<svg xmlns="http://www.w3.org/2000/svg" viewBox="0 0 48 48"><title>Icon-Resource/Management-Governance/Res_AWS-Systems-Manager_Documents_48</title><path fill="#e7157b" fill-rule="evenodd" d="M20.114 31.103h14.862v-2H20.114zm0-6.12h18.359v-2H20.114zm0-6.121h7.869v-2h-7.869zM8 36.971h.748v2H7a1 1 0 0 1-1-1V3a1 1 0 0 1 1-1h16.611v2H8zm5.245 3.497h1.623v2h-2.623a1 1 0 0 1-1-1V6.497a1 1 0 0 1 1-1h15.738v2H13.245zm5.246 3.497V10.994h12.863v7.742a1 1 0 0 0 1 1h7.742v24.229zm14.863-31.557 5.328 5.328h-5.328zm8.449 5.621-8.742-8.742a1 1 0 0 0-.707-.293H17.491a1 1 0 0 0-1 1v34.971a1 1 0 0 0 1 1h23.605a1 1 0 0 0 1-1V18.736c0-.265-.106-.519-.293-.707"/></svg>