<svg xmlns="http://www.w3.org/2000/svg" viewBox="0 0 48 48"><title>Icon-Resource/Management-Governance/Res_AWS-Systems-Manager_Compliance_48</title><path fill="#e7157b" fill-rule="evenodd" d="M11 37h15v2H10a1 1 0 0 1-1-1V15a1 1 0 0 1 1-1h20a1 1 0 0 1 1 1v6h-2v-5H11zm2.502-31h3.682A3 3 0 0 0 20 8a3 3 0 0 0 2.816-2h3.799l1.125 4H12.377zM20 4a1.001 1.001 0 0 1 0 2 1.001 1.001 0 0 1 0-2m-8.943 8h18.004a1 1 0 0 0 .796-.396 1 1 0 0 0 .166-.875l-1.687-6A1 1 0 0 0 27.373 4h-4.557A3 3 0 0 0 20 2a3 3 0 0 0-2.816 2h-4.44a1 1 0 0 0-.963.729l-1.687 6a1 1 0 0 0 .166.875c.188.25.483.396.797.396m21.296-4H31V6h1.353C33.812 6 35 7.275 35 8.842V20h-2V8.842c0-.456-.297-.842-.647-.842M7.647 41H25v2H7.647C6.187 43 5 41.725 5 40.158V8.842C5 7.275 6.187 6 7.647 6H9v2H7.647C7.297 8 7 8.386 7 8.842v31.316c0 .456.297.842.647.842m31.824-9.904a1 1 0 0 0-.185.691l.14 1.345-1.237.551a1 1 0 0 0-.507.507l-.549 1.236-1.346-.14a1 1 0 0 0-.69.185L34 36.265l-1.097-.794a1 1 0 0 0-.69-.185l-1.346.14-.55-1.237a1 1 0 0 0-.507-.506l-1.236-.551.14-1.345a1 1 0 0 0-.185-.691L27.735 30l.794-1.096a1 1 0 0 0 .185-.691l-.14-1.345 1.237-.551a1 1 0 0 0 .507-.507l.549-1.236 1.346.14c.242.023.49-.04.69-.185L34 23.735l1.097.794c.2.145.445.208.69.185l1.346-.14.55 1.237c.1.225.281.406.507.506l1.236.551-.14 1.345a1 1 0 0 0 .185.691L40.265 30zm-1.155 10.955a1 1 0 0 0-1.023.242l-.846.846-1.623-5.002 1.136-.823 1.525.16 1.843 4.915zm-6.091.759-.518-.517a1 1 0 0 0-1.023-.242l-1.272.424 1.254-5.017 1.374-.144.819.594-.119-.012zM42.31 29.413l-.996-1.373.176-1.687a1 1 0 0 0-.588-1.018l-1.548-.689-.689-1.549a1.01 1.01 0 0 0-1.018-.588l-1.687.177-1.373-.996a1 1 0 0 0-1.174 0l-1.373.996-1.687-.177a1.01 1.01 0 0 0-1.018.589l-.689 1.548-1.548.689a1 1 0 0 0-.588 1.018l.176 1.687-.996 1.373c-.253.35-.253.824 0 1.174l.996 1.373-.176 1.687a1 1 0 0 0 .588 1.018l1.548.689.31.698-1.926 7.705a1.002 1.002 0 0 0 1.286 1.192l2.413-.805 1.564 1.563a1 1 0 0 0 1.041.235 1 1 0 0 0 .66-.838l.242-2.301.813 2.506A1 1 0 0 0 36 46a1 1 0 0 0 .707-.293l1.564-1.563 2.413.805a1 1 0 0 0 1.253-1.3l-2.87-7.652.287-.643 1.548-.689a1 1 0 0 0 .588-1.018l-.176-1.687.996-1.373c.253-.35.253-.824 0-1.174"/></svg>