<svg xmlns="http://www.w3.org/2000/svg" viewBox="0 0 48 48"><title>Icon-Resource/Management-Governance/Res_AWS-Systems-Manager_Incident-Manager_48</title><path fill="#e7157b" fill-rule="evenodd" d="m22.84 15.374-1.06-1.695a14.1 14.1 0 0 1 5.519-2.016l.285 1.979a12.15 12.15 0 0 0-4.743 1.732m-1.304.942a12.26 12.26 0 0 0-4.437 8.906l-1.998-.085a14.27 14.27 0 0 1 5.16-10.362zm1.273 6.546a6.13 6.13 0 0 0-.376 3.159l-1.981.285a8.15 8.15 0 0 1 .5-4.19zm.572-1.094-1.67-1.101a8.15 8.15 0 0 1 5.642-3.582l.285 1.98a6.15 6.15 0 0 0-4.257 2.703M23 30.994H8.956c-1.174 0-2.028-.444-2.642-.831C4.704 29.152 2 26.785 2 22.3c0-5.316 3.54-7.348 5.727-8.096l-.032-.528c-.001-4.47 2.973-9.041 6.918-10.691 4.608-1.941 9.494-.981 13.065 2.576 1.046 1.039 1.916 2.29 2.597 3.736a5.48 5.48 0 0 1 5-.816c2.246.742 3.659 2.773 3.872 5.505 2.314.584 6.824 2.483 6.824 8.383v.3c.003.452.006 1.193-.001 1.349l-1.998-.088c.007-.146.002-.832 0-1.25l-.001-.311c0-5.016-4.184-6.277-5.984-6.587a1 1 0 0 1-.813-1.168c-.028-2.172-.945-3.712-2.527-4.234-1.43-.474-3.01.036-3.925 1.27a1 1 0 0 1-1.744-.258c-.636-1.773-1.548-3.258-2.711-4.413-1.43-1.423-5.35-4.484-10.88-2.15-3.193 1.336-5.693 5.195-5.693 8.787l.077 1.26a1 1 0 0 1-.754 1.03C7.144 16.379 4 17.837 4 22.3c0 3.345 1.838 5.2 3.379 6.169.599.378 1.04.524 1.577.524H23zm12.767 11.785h2a3.2 3.2 0 0 1-3.197 3.196 3.2 3.2 0 0 1-3.196-3.196h2c0 .659.537 1.196 1.196 1.196.66 0 1.197-.537 1.197-1.196M44 38.773c0 .673-.548 1.22-1.221 1.22H26.22A1.223 1.223 0 0 1 25 38.774v-.558c0-.673.548-1.221 1.22-1.221H42.78c.673 0 1.22.548 1.22 1.22zm-16-9.618c0-3.22 1.503-5.547 4.02-6.225.437-.118.74-.514.74-.966v-2.085c0-.346.2-.676.55-.903a1.55 1.55 0 0 1 1.642-.078c.495.268.763.714.763.997v1.868a1 1 0 0 0 .778.975C39.273 23.37 41 25.876 41 29.28v5.714H28zm15 5.86V29.28c0-4.075-2.004-7.172-5.285-8.274v-1.111c0-1.077-.71-2.16-1.81-2.755-1.173-.637-2.552-.58-3.685.159-.913.595-1.46 1.559-1.46 2.58v1.36C27.765 22.383 26 25.285 26 29.155v5.839h.22a3.225 3.225 0 0 0-3.22 3.22v.559a3.225 3.225 0 0 0 3.22 3.22H42.78a3.224 3.224 0 0 0 3.22-3.22v-.558c0-1.7-1.327-3.083-3-3.2"/></svg>