<svg xmlns="http://www.w3.org/2000/svg" viewBox="0 0 48 48"><title>Icon-Resource/Management-Governance/Res_AWS-Systems-Manager_Session-Manager_48</title><path fill="#e7157b" fill-rule="evenodd" d="M4 41h21v-2H4zm10 3h1v-1h-1zm11-7H4V25h6v-2H3a1 1 0 0 0-1 1v18a1 1 0 0 0 1 1h9v1H8v2h13v-2h-4v-1h9a1 1 0 0 0 1-1v-6h-2zm2-30h2V5h-2zm0 6h2v-2h-2zm-1-5h18V4H26zm19-6H25a1 1 0 0 0-1 1v9h2v-2h18v4H29v2h15v4h-7v2h8a1 1 0 0 0 1-1V3a1 1 0 0 0-1-1M34.481 32l-17.526-.019c-1.943-.002-3.811-1.594-3.997-3.41a5 5 0 0 1-.026-.532c0-2.618 1.795-3.507 2.909-3.806a1 1 0 0 0 .803-1.103 6 6 0 0 1-.044-.735c0-2.169 1.55-4.589 3.456-5.396 3.371-1.427 5.756.451 6.628 1.323.713.717 1.272 1.637 1.662 2.736a.999.999 0 0 0 1.747.261c.473-.642 1.235-.922 1.942-.716.876.256 1.459 1.177 1.572 2.474a1 1 0 0 0 .828 1.07c1.071.185 3.565.937 3.565 3.934 0 3.493-3.236 3.889-3.519 3.919m1.047-9.654c-.317-1.863-1.382-3.21-2.932-3.663a3.7 3.7 0 0 0-2.939.379A8.7 8.7 0 0 0 28.1 16.91c-2.41-2.416-5.708-3.072-8.824-1.753-2.666 1.129-4.676 4.24-4.676 7.238l.001.141c-2.314.897-3.669 2.901-3.669 5.503q0 .387.037.738c.288 2.818 3.028 5.202 5.984 5.204l17.609.016c1.88-.153 5.438-1.586 5.438-5.916 0-3.325-2.19-5.098-4.472-5.735"/></svg>