<svg xmlns="http://www.w3.org/2000/svg" viewBox="0 0 48 48"><title>Icon-Resource/Management-Governance/Res_AWS-Systems-Manager_Parameter-Store_48</title><path fill="#e7157b" fill-rule="evenodd" d="M35.589 36.759c0 .375.306.682.68.682h.002a.678.678 0 0 0 .68-.682v-.002a.678.678 0 0 0-.68-.68h-.001a.67.67 0 0 0-.481.2.67.67 0 0 0-.2.482m-2-.001c0-.717.28-1.39.786-1.896a2.66 2.66 0 0 1 1.894-.785h.003c.716 0 1.39.28 1.897.787a2.66 2.66 0 0 1 .782 1.897 2.66 2.66 0 0 1-.786 1.895c-.26.26-.564.457-.895.59v2.797h-2v-2.8a2.68 2.68 0 0 1-1.681-2.485m9.527-3.983-13.687-.006-.004 11.069 13.685.007zM32.902 30.77l6.713.002v-2.47c.006-2.021-1.487-3.667-3.328-3.673h-.011c-.882 0-1.715.368-2.348 1.036a3.77 3.77 0 0 0-1.014 2.594zm12.214 1.004-.006 13.07a1 1 0 0 1-1 1l-15.685-.007a1 1 0 0 1-1-1l.004-13.07a.997.997 0 0 1 1-1l2.473.002.012-2.518a5.76 5.76 0 0 1 1.56-3.96c1.015-1.072 2.365-1.662 3.802-1.662h.017c2.944.01 5.332 2.556 5.322 5.676v2.468h2.5c.267 0 .52.106.708.294a1 1 0 0 1 .293.707m-30.64-.75h6.974v-2h-6.974zm0-3.487h6.974v-2h-6.974zm0-3.487h6.974v-2h-6.974zm-1.57 9.333H23.11V19.693H12.906zM25.11 18.693v15.69a1 1 0 0 1-1 1H11.906a1 1 0 0 1-1-1v-15.69a1 1 0 0 1 1-1H24.11a1 1 0 0 1 1 1M5.94 8.975h24.077L26.47 4H9.486zm-2.83 1.458a1 1 0 0 1 .076-1.038l4.97-6.975A1 1 0 0 1 8.97 2h18.015a1 1 0 0 1 .815.42l4.97 6.975a1 1 0 0 1-.814 1.58H4a1 1 0 0 1-.89-.542m1.94 29.054h19.888v2H4.05a1 1 0 0 1-1-1V13.462a1 1 0 0 1 1-1h27.905a1 1 0 0 1 1 1v8.717h-2v-7.717H5.05z"/></svg>