<svg xmlns="http://www.w3.org/2000/svg" viewBox="0 0 48 48"><title>Icon-Resource/Management-Governance/Res_AWS-Systems-Manager_Change-Manager_48</title><path fill="#e7157b" fill-rule="evenodd" d="M43.938 26.489c-1.433 10.014-10.213 17.858-19.99 17.858-8.603 0-16.428-6.074-19.161-14.355l-.891 2.672L2 32.031l2-6a.997.997 0 0 1 1.573-.464l5 4-1.25 1.561-2.769-2.215c2.324 7.716 9.491 13.434 17.394 13.434 8.804 0 16.716-7.09 18.01-16.141zm-38-4-1.98-.283C5.418 11.997 14.199 4 23.948 4c8.595 0 16.429 6.218 19.167 14.686L44 16.031l1.896.633-2 6a.998.998 0 0 1-1.573.464l-5-4 1.25-1.561 2.78 2.224C39.029 11.875 31.848 6 23.948 6 15.171 6 7.26 13.243 5.938 22.489M19.948 30h9v-2h-9zm0-4h9v-2h-9zm0-4h9v-2h-9zm12.554 8.12 1.155 1.097-2.27 2.156-1.229-1.168c-.318-.3-.791-.36-1.173-.15-.717.397-1.484.7-2.281.9a1 1 0 0 0-.756.97V36h-3v-1.711a1 1 0 0 0-.732-.963 8.5 8.5 0 0 1-2.141-.936 1 1 0 0 0-1.248.164l-1.097 1.155-2.156-2.27 1.168-1.229a1 1 0 0 0 .15-1.172 9.5 9.5 0 0 1-.899-2.282 1 1 0 0 0-.97-.756h-2.075v-3h1.711c.449 0 .842-.3.964-.732a8.4 8.4 0 0 1 .934-2.141 1 1 0 0 0-.164-1.247l-1.154-1.098 2.269-2.156 1.23 1.168c.317.301.791.36 1.173.15a9.5 9.5 0 0 1 2.28-.899c.445-.112.757-.512.757-.97V13h3v1.71c0 .449.299.843.731.964a8.5 8.5 0 0 1 2.142.936 1 1 0 0 0 1.248-.164l1.097-1.156 2.156 2.27-1.168 1.23a1 1 0 0 0-.151 1.173c.398.718.7 1.485.9 2.28a1 1 0 0 0 .97.757h2.075v3h-1.711a1 1 0 0 0-.964.732 8.5 8.5 0 0 1-.935 2.141 1 1 0 0 0 .164 1.247M36.429 21h-1.804q-.225-.69-.534-1.345l.996-1.049a1.52 1.52 0 0 0-.001-2.091l-2.821-2.971a1.52 1.52 0 0 0-1.099-.471h-.002c-.414 0-.815.173-1.1.473l-.91.959a10 10 0 0 0-1.206-.524v-1.463A1.52 1.52 0 0 0 26.429 11h-3.963a1.52 1.52 0 0 0-1.518 1.518v1.805q-.69.224-1.346.534l-1.047-.995a1.517 1.517 0 0 0-2.093-.001l-2.968 2.82a1.521 1.521 0 0 0 0 2.202l.959.911A10 10 0 0 0 13.929 21h-1.463a1.52 1.52 0 0 0-1.518 1.518v3.963A1.52 1.52 0 0 0 12.466 28h1.805q.224.689.533 1.345l-.997 1.05a1.52 1.52 0 0 0 .002 2.09l2.821 2.971c.287.299.687.471 1.1.471h.002a1.53 1.53 0 0 0 1.1-.473l.91-.959q.589.3 1.206.524v1.462A1.52 1.52 0 0 0 22.466 38h3.963a1.52 1.52 0 0 0 1.519-1.519v-1.804q.69-.225 1.345-.534l1.047.995c.59.559 1.509.558 2.093 0l2.969-2.82a1.52 1.52 0 0 0 0-2.202l-.959-.911q.3-.589.523-1.205h1.463a1.52 1.52 0 0 0 1.519-1.519v-3.963A1.52 1.52 0 0 0 36.429 21"/></svg>