<svg xmlns="http://www.w3.org/2000/svg" viewBox="0 0 48 48"><title>Icon-Resource/Management-Governance/Res_AWS-Systems-Manager_Application-Manager_48</title><path fill="#e7157b" fill-rule="evenodd" d="M39 23.977c0-3.028-.897-5.946-2.596-8.437l1.653-1.126A16.9 16.9 0 0 1 41 23.977zM27.751 38.505l.498 1.936a17 17 0 0 1-6.373.404l.248-1.984c1.863.233 3.808.112 5.627-.356M9 23.977H7c0-3.583 1.103-7.012 3.188-9.913l1.624 1.167A14.9 14.9 0 0 0 9 23.977m8.037-13.255a1 1 0 0 0 .745-1.085 5 5 0 0 1-.03-.518c0-1.513 1.072-3.2 2.39-3.76a4.3 4.3 0 0 1 1.675-.361c1.45 0 2.474.834 2.921 1.285.492.497.896 1.165 1.165 1.93a.999.999 0 0 0 1.749.26c.287-.39.727-.557 1.144-.433.535.156.894.745.973 1.585a1 1 0 0 0 .828 1.048c.901.156 2.413.708 2.413 2.659 0 2.3-2.017 2.61-2.332 2.645l-12.904-.014c-1.28-.001-2.569-1.072-2.705-2.247a4 4 0 0 1-.023-.415c0-1.71 1.083-2.346 1.991-2.58m.735 7.24 12.986.012c1.471-.121 4.252-1.245 4.252-4.642 0-2.532-1.611-3.917-3.331-4.451-.284-1.401-1.121-2.411-2.324-2.761a2.97 2.97 0 0 0-2.129.177 6.6 6.6 0 0 0-1.068-1.422c-1.856-1.871-4.398-2.378-6.8-1.356-2.036.866-3.576 3.235-3.606 5.53-1.71.734-2.706 2.273-2.706 4.252q0 .338.037.645c.251 2.175 2.398 4.015 4.689 4.017m.382 23.842c-.221.219-.564.233-.768.029l-3.689-3.681q.423-.383.78-.828l3.708 3.718c.201.202.187.543-.031.762M4 32.977c0-2.757 2.243-5 5-5s5 2.243 5 5-2.243 5-5 5-5-2.243-5-5m11.511 2.552A7 7 0 0 0 16 32.977c0-3.86-3.141-7-7-7s-7 3.14-7 7 3.141 7 7 7a6.94 6.94 0 0 0 3.005-.688l3.969 3.959a2.49 2.49 0 0 0 1.768.728c.658 0 1.32-.253 1.824-.757.998-.996 1.014-2.607.035-3.59zM37 38.977c-3.371 0-7-1.564-7-5 0-2.05.948-4.456 3-5.562v4.562a1 1 0 0 0 1 1h6a1 1 0 0 0 1-1v-4.562c2.052 1.106 3 3.512 3 5.562 0 3.436-3.629 5-7 5m9-5c0-3.894-2.373-7.173-5.771-7.973a1.001 1.001 0 0 0-1.229.973v5h-4v-5a1 1 0 0 0-1.229-.973c-3.398.8-5.771 4.079-5.771 7.973 0 2.916 1.962 5.25 5 6.336v3.664h2V40.82a12.9 12.9 0 0 0 4 0v3.156h2v-3.664c3.038-1.086 5-3.42 5-6.336"/></svg>