<svg xmlns="http://www.w3.org/2000/svg" viewBox="0 0 48 48"><title>Icon-Resource/Migration-and-Transfer/Res_AWS-Transfer-Family_AWS-SFTP_48</title><path fill="#01a88d" fill-rule="evenodd" d="M36.574 39.557q0-.722-.266-1.098-.262-.374-.767-.374h-.84v2.945h.84q.504 0 .767-.374.267-.375.266-1.1m1.078-2.06q.705.755.705 2.06t-.705 2.06q-.703.756-1.892.756h-1.059v3.32h-1.77v-8.951h2.83q1.188 0 1.891.755m-11.838.678h2.145v7.518h1.808v-7.518h2.143v-1.433h-6.096zm-5.412 7.518h1.81V41.92h2.233v-1.382h-2.234v-2.416h2.853v-1.381h-4.662zm-2.099-4.353q-.394-.361-1.065-.723l-.697-.375q-.57-.309-.77-.57-.2-.257-.199-.657 0-.477.31-.75.31-.27.852-.27.8 0 1.848.387v-1.37a4.8 4.8 0 0 0-2.029-.464q-.814 0-1.44.317a2.4 2.4 0 0 0-.988.903q-.363.588-.362 1.376 0 .852.413 1.446.413.595 1.37 1.112l.698.375q.527.284.754.56.226.28.226.679 0 .543-.322.833t-.943.29a5.3 5.3 0 0 1-1.028-.122 7 7 0 0 1-1.078-.303v1.355q.413.233 1.022.375a5.3 5.3 0 0 0 1.213.142q1.395 0 2.19-.717.793-.716.794-1.943 0-.632-.187-1.08a2.3 2.3 0 0 0-.582-.806M45.61 10.904 37 2.293a1 1 0 0 0-1.415 0l-8.61 8.61a1 1 0 0 0-.217 1.09 1 1 0 0 0 .923.618h4.382v11.917a1 1 0 0 0 1 1h2.968l-6.197 6.197-6.197-6.197h2.967a1 1 0 0 0 1-1v-7.535h-2v6.535h-4.382a1 1 0 0 0-.923.617 1 1 0 0 0 .216 1.09l8.612 8.61a.997.997 0 0 0 1.414 0l8.611-8.61a1 1 0 0 0-.707-1.707h-4.382V11.61a1 1 0 0 0-1-1h-2.967l6.196-6.197 6.197 6.197H39.52a1 1 0 0 0-1 1v7.61h-2.229v2h5.46V43.98h-2.295v2h3.294a1 1 0 0 0 1-1V20.222a1 1 0 0 0-1-1h-2.23V12.61h4.382a1 1 0 0 0 .707-1.707M9.08 43.979h2.454v2H6.152A3.156 3.156 0 0 1 3 42.827v-30.14a1 1 0 0 1 1-1h11.922c.31 0 .602.144.791.39l2.193 2.839h4.47v2h-4.96a1 1 0 0 1-.792-.388l-2.194-2.84H5v29.139a1.153 1.153 0 0 0 2.305 0V20.222a1 1 0 0 1 1-1h15.07v2H9.305v21.605c0 .407-.084.794-.225 1.152"/></svg>