<svg xmlns="http://www.w3.org/2000/svg" viewBox="0 0 48 48"><title>Icon-Resource/Management-Governance/Res_AWS-Trusted-Advisor_Checklist-Cost_48</title><path fill="#e7157b" fill-rule="evenodd" d="M27.366 27.053a.312.312 0 0 0-.534-.221.31.31 0 0 0 0 .44c.18.183.305.138.44.003l.003-.002a.3.3 0 0 0 .09-.22m1.323-1.634c.436.436.677 1.017.677 1.634 0 .618-.241 1.198-.678 1.635a2.3 2.3 0 0 1-1.634.678 2.3 2.3 0 0 1-1.635-.678 2.3 2.3 0 0 1-.678-1.635c0-.617.24-1.198.678-1.635.874-.873 2.398-.872 3.27 0m14.89 10.825L31.456 24.12h-7.334v7.335l12.123 12.122zm2.12.707-8.747 8.748a1 1 0 0 1-.707.293 1 1 0 0 1-.707-.293L22.415 32.577a1 1 0 0 1-.293-.707v-8.75a1 1 0 0 1 1-1h8.749c.265 0 .518.107.707.294l13.121 13.123a1 1 0 0 1 0 1.414M6.33 26.676l-1.406 1.422 2.798 2.769a1 1 0 0 0 1.5-.106l4.2-5.54-1.594-1.21-3.51 4.632zm5.498-11.995-3.51 4.63-1.989-1.967-1.405 1.422 2.798 2.77a1 1 0 0 0 .704.289l.07-.002a1 1 0 0 0 .726-.394l4.2-5.541zm0-9.332-3.51 4.63-1.989-1.966-1.405 1.422 2.798 2.769a1 1 0 0 0 1.5-.106l4.2-5.54zm3.422 24.02h5.248v-2H15.25zm0-8.747h11.373v-2H15.249zm0-9.623h11.373v-2H15.249zM4 34.369h19.122v2H3a1 1 0 0 1-1-1V2.999a1 1 0 0 1 1-1h26.245a1 1 0 0 1 1 1v17.498h-2V4H4z"/></svg>