<svg xmlns="http://www.w3.org/2000/svg" viewBox="0 0 48 48"><title>Icon-Resource/Migration-and-Transfer/Res_AWS-Transfer-Family_AWS-FTP_48</title><path fill="#01a88d" fill-rule="evenodd" d="M30.278 39.832q0-.723-.265-1.098-.264-.374-.767-.374h-.839v2.944h.84q.502 0 .766-.375.265-.375.265-1.097m1.078-2.059q.704.755.703 2.059 0 1.303-.703 2.059-.704.754-1.89.754h-1.059v3.318h-1.769v-8.945h2.827q1.187 0 1.891.755m-11.83.677h2.142v7.513h1.807V38.45h2.143v-1.432h-6.093zm-5.408 7.513h1.806v-3.769h2.234v-1.382h-2.234v-2.413h2.853v-1.381h-4.659zm31.464-35.065-8.606-8.605a1 1 0 0 0-1.414 0l-8.605 8.605a1 1 0 0 0 .707 1.707h4.38v11.908a1 1 0 0 0 1 1h2.963l-6.192 6.191-6.19-6.191h2.964a1 1 0 0 0 1-1v-7.53h-2v6.53h-4.378a.998.998 0 0 0-.707 1.707l8.604 8.605a.997.997 0 0 0 1.414 0l8.606-8.605a1 1 0 0 0 .216-1.09 1 1 0 0 0-.923-.617h-4.378V11.605a1 1 0 0 0-1-1h-2.965l6.191-6.191 6.192 6.191h-2.965a1 1 0 0 0-1 1v7.605H36.27v2h5.454v22.74h-8.376v2h9.376a1 1 0 0 0 1-1V20.21a1 1 0 0 0-1-1h-2.227v-6.605h4.38a1 1 0 0 0 .706-1.707M9.077 43.95h2.453v2H6.151a3.155 3.155 0 0 1-3.15-3.151V12.681a1 1 0 0 1 1-1h11.913c.31 0 .602.143.792.388l2.19 2.839h4.465v2h-4.956a1 1 0 0 1-.792-.388l-2.19-2.839H5v29.118a1.152 1.152 0 0 0 2.302 0V20.21a1 1 0 0 1 1-1h15.06v2H9.301v21.589c0 .407-.084.794-.225 1.151"/></svg>