<svg xmlns="http://www.w3.org/2000/svg" viewBox="0 0 48 48"><title>Icon-Resource/Migration-and-Transfer/Res_AWS-Transfer-Family_AWS-FTPS_48</title><path fill="#01a88d" fill-rule="evenodd" d="m45.502 10.882-8.589-8.59a1 1 0 0 0-1.414 0l-8.589 8.59a1 1 0 0 0 .707 1.707h4.368V24.47a1 1 0 0 0 1 1h2.954l-6.174 6.175-6.174-6.175h2.953a1 1 0 0 0 1-1v-7.515h-2v6.515h-4.367a.999.999 0 0 0-.707 1.707l8.588 8.589a1 1 0 0 0 1.414 0l8.589-8.59a1 1 0 0 0 .216-1.09 1 1 0 0 0-.923-.616h-4.369V11.589a1 1 0 0 0-1-1h-2.954l6.175-6.175 6.175 6.175h-2.954a1 1 0 0 0-1 1v7.588h-2.221v2h5.442v22.69h-1.952v2h2.952a1 1 0 0 0 1-1v-24.69a1 1 0 0 0-1-1h-2.221v-6.588h4.368a1 1 0 0 0 .707-1.707M9.294 42.722V21.177h14.029v-2H8.294a1 1 0 0 0-1 1v22.545a1.148 1.148 0 0 1-2.294 0v-29.06h10.399l2.186 2.832c.189.245.482.389.792.389h4.946v-2h-4.455l-2.185-2.832a1 1 0 0 0-.792-.39H4a1 1 0 0 0-1 1v30.06a3.15 3.15 0 0 0 3.147 3.147h5.368v-2H9.07c.141-.356.224-.741.224-1.146m28.294-1.2q-.393-.36-1.063-.72l-.695-.374q-.569-.309-.767-.567-.2-.257-.2-.657 0-.476.309-.747.31-.27.851-.27.799 0 1.842.385v-1.365a4.8 4.8 0 0 0-2.023-.464q-.812 0-1.436.316a2.4 2.4 0 0 0-.986.902q-.36.586-.359 1.372-.001.85.412 1.443.41.592 1.365 1.108l.695.373q.528.284.754.56t.225.677q0 .541-.323.83-.321.29-.939.29-.425 0-1.023-.122a7 7 0 0 1-1.077-.302v1.352q.411.232 1.018.374.604.142 1.211.142 1.39 0 2.184-.715.792-.715.793-1.94 0-.631-.188-1.075a2.3 2.3 0 0 0-.58-.805m-7.361-1.777q0-.721-.264-1.094-.265-.375-.768-.374h-.838v2.937h.838q.502 0 .768-.374.264-.373.264-1.095m1.076-2.054q.7.753.701 2.054 0 1.301-.701 2.055-.703.754-1.889.754h-1.057v3.31h-1.763v-8.927h2.82q1.186-.001 1.889.754m-11.809.675h2.139v7.498h1.805v-7.498h2.138v-1.43h-6.082zm-5.396-1.43h4.65v1.38H15.9v2.408h2.229v1.379H15.9v3.76h-1.802z"/></svg>