<svg xmlns="http://www.w3.org/2000/svg" viewBox="0 0 48 48"><title>Icon-Resource/Management-Governance/Res_AWS-Trusted-Advisor_Checklist-Security_48</title><path fill="#e7157b" fill-rule="evenodd" d="m44 31.977-15.504-.007-.005 12.009 15.503.007zm-12.02-2.005 8.491.003v-2.707c.006-2.205-1.884-4.003-4.214-4.011h-.015c-2.337 0-4.242 1.775-4.249 3.96zM46 30.977l-.006 14.009a1 1 0 0 1-1 1l-17.503-.007a1 1 0 0 1-1-1l.005-14.01a1.003 1.003 0 0 1 1-1l2.483.002.014-2.761c.011-3.286 2.813-5.953 6.25-5.953h.02c3.433.012 6.217 2.709 6.207 6.014l.001 2.705h2.53c.265 0 .52.106.706.294a1 1 0 0 1 .293.707M6.327 26.672l-1.406 1.422 2.8 2.77a1 1 0 0 0 1.5-.108l4.197-5.54-1.594-1.207-3.509 4.63zm5.497-11.993-3.509 4.63-1.988-1.967-1.406 1.422 2.8 2.77a1 1 0 0 0 1.5-.108l4.197-5.54zm0-9.33-3.509 4.63-1.988-1.967-1.406 1.422 2.8 2.77a1 1 0 0 0 1.5-.108l4.197-5.54zm3.422 24.018h11.37v-2h-11.37zm0-8.747h11.37v-2h-11.37zm0-9.622h11.37v-2h-11.37zM4 34.365h20.867v2H3a1 1 0 0 1-1-1V3a1 1 0 0 1 1-1h26.24a1 1 0 0 1 1 1v20.994h-2V4H4z"/></svg>