<svg xmlns="http://www.w3.org/2000/svg" viewBox="0 0 48 48"><title>Icon-Resource/Management-Governance/Res_AWS-Trusted-Advisor_Checklist-Fault-Tolerant_48</title><path fill="#e7157b" fill-rule="evenodd" d="M33.626 40.26q-.525 0-.854.328t-.328.853.328.853q.329.328.854.328t.854-.328.328-.853q0-.525-.328-.853-.33-.329-.854-.328m-1.05-6.877.289 6.037h1.522l.289-6.037a2.4 2.4 0 0 0-1.05-.25q-.525 0-1.05.25M43.248 44l-9.622-16.284L24.003 44zm2.62 1.496a1 1 0 0 1-.867.504H22.25a1 1 0 0 1-.868-.505 1 1 0 0 1 .007-1.004l11.376-19.25a1 1 0 0 1 1.722 0l11.375 19.25c.183.31.186.693.007 1.005M6.329 26.68l-1.406 1.422 2.8 2.77a1 1 0 0 0 .775.286 1 1 0 0 0 .726-.393l4.199-5.541-1.594-1.207-3.51 4.63zm5.5-11.997-3.511 4.632-1.99-1.968-1.405 1.422 2.8 2.77a1 1 0 0 0 .775.286 1 1 0 0 0 .726-.393l4.199-5.542zm0-9.333-3.51 4.63-1.99-1.967-1.406 1.422 2.8 2.77a1 1 0 0 0 .775.286 1 1 0 0 0 .726-.393l4.199-5.541zm3.422 24.025h11.376v-2H15.25zm0-8.75h11.376v-2H15.25zm0-9.625h11.376V9H15.25zm9.625 25.375H3a1 1 0 0 1-1-1V3a1 1 0 0 1 1-1h26.25a1 1 0 0 1 1 1v25.375h-2V4H4v30.375h20.875z"/></svg>