<svg xmlns="http://www.w3.org/2000/svg" viewBox="0 0 48 48"><title>Icon-Resource/Management-Governance/Res_AWS-Trusted-Advisor_Checklist_48</title><path fill="#e7157b" fill-rule="evenodd" d="m13.285 41.291-3.496-3.496 1.414-1.414 2.68 2.681 4.553-6.07 1.6 1.199-5.244 6.993a.998.998 0 0 1-1.507.107m0-13.984-3.496-3.496 1.414-1.415 2.68 2.681 4.553-6.069 1.6 1.199-5.244 6.992a1 1 0 0 1-1.507.108m0-13.986L9.789 9.825l1.414-1.414 2.68 2.681 4.553-6.07 1.6 1.2-5.244 6.992a.998.998 0 0 1-1.507.107m9.448 26.515h14.859v-2h-14.86zm0-13.11h14.859v-2h-14.86zm0-13.986h14.859v-2h-14.86zM8 43.954h32.962V4H8zM41.962 2H7a1 1 0 0 0-1 1v41.954a1 1 0 0 0 1 1h34.962a1 1 0 0 0 1-1V3a1 1 0 0 0-1-1"/></svg>