<svg xmlns="http://www.w3.org/2000/svg" viewBox="0 0 48 48"><title>Icon-Resource/Migration-and-Transfer/Res_AWS-Transfer-Family_AWS-AS2_48</title><path fill="#01a88d" fill-rule="evenodd" d="M33.49 42.03q.613-.91.846-1.537t.232-1.208q0-1.136-.594-1.789-.594-.651-1.628-.652a3.7 3.7 0 0 0-1.213.207 5.6 5.6 0 0 0-1.253.646v1.485q1.228-.814 2.053-.814.388 0 .594.26.207.257.207.748 0 .594-.271 1.227-.272.633-.91 1.575a54 54 0 0 1-1.854 2.52v1.291h5.141V44.53h-3.216q1.252-1.59 1.866-2.5m-5.632-.394q-.395-.36-1.065-.723l-.698-.375q-.568-.31-.768-.568t-.2-.659q0-.478.309-.749.311-.27.853-.27.8 0 1.847.386V37.31a4.8 4.8 0 0 0-2.028-.465q-.814 0-1.44.316a2.43 2.43 0 0 0-.989.905q-.361.588-.361 1.375 0 .854.413 1.447.415.595 1.369 1.111l.699.374q.529.285.754.562.227.277.227.68 0 .54-.323.832-.322.29-.943.29-.426 0-1.027-.123-.6-.123-1.078-.303v1.356q.412.233 1.02.375.607.142 1.214.142 1.395 0 2.19-.717t.794-1.944q0-.633-.188-1.078a2.3 2.3 0 0 0-.581-.808m-7.859.93-.814-3.707-.788 3.707zm.259-5.528 2.466 8.951h-1.989l-.465-2.13h-2.143l-.452 2.13h-1.9l2.481-8.95zm25.351-26.146-8.611-8.61a1.03 1.03 0 0 0-1.414 0l-8.611 8.61a1 1 0 0 0-.216 1.09 1 1 0 0 0 .923.617h4.382v11.917a1 1 0 0 0 1 1h2.968l-6.197 6.197-6.197-6.197h2.968a1 1 0 0 0 1-1v-7.535h-2v6.535h-4.383a1 1 0 0 0-.923.617 1 1 0 0 0 .216 1.09l8.612 8.611a.997.997 0 0 0 1.414 0l8.611-8.61a1 1 0 0 0-.707-1.708h-4.382V11.6a1 1 0 0 0-1-1h-2.968l6.197-6.197 6.197 6.197H39.52a1 1 0 0 0-1 1v7.611h-2.229v2h5.459v22.757h-2.294v2h3.294a1 1 0 0 0 1-1V20.21a1 1 0 0 0-1-1h-2.23V12.6h4.382a.999.999 0 0 0 .707-1.708M9.08 43.967h2.455v2H6.152A3.156 3.156 0 0 1 3 42.814V12.676a1 1 0 0 1 1-1h11.922c.309 0 .602.143.792.388l2.192 2.841h4.469v2h-4.96c-.31 0-.603-.144-.792-.389l-2.193-2.84H5v29.138a1.153 1.153 0 0 0 2.305 0V20.21a1 1 0 0 1 1-1h15.07v2H9.305v21.604c0 .408-.083.795-.225 1.153"/></svg>