<svg xmlns="http://www.w3.org/2000/svg" viewBox="0 0 48 48"><title>Icon-Resource/Security-Identity-and-Compliance/Res_AWS-WAF_Bad-Bot_48</title><path fill="#dd344c" fill-rule="evenodd" d="M24 35a5.01 5.01 0 0 1-4.898-4h9.796A5.01 5.01 0 0 1 24 35m0-10a5.01 5.01 0 0 1 4.898 4h-9.796A5.01 5.01 0 0 1 24 25m0-2c-3.859 0-7 3.14-7 7s3.141 7 7 7 7-3.14 7-7-3.141-7-7-7m10 7c0 4.962-4.037 9-9 9h-2c-4.963 0-9-4.038-9-9s4.037-9 9-9h2c2.031 0 3.9.684 5.408 1.823l.11.17.063-.041C32.66 24.603 34 27.146 34 30M22.291 17h3.416c1.424 0 2.625 1.126 3.072 2.683A10.9 10.9 0 0 0 25 19h-2c-1.33 0-2.6.249-3.781.684.447-1.558 1.648-2.684 3.072-2.684M22 8c0-1.103.897-2 2-2s2 .897 2 2-.897 2-2 2-2-.897-2-2m24 9v-2h-6.779l-8.279 5.34c-.29-2.999-2.526-5.34-5.235-5.34H25v-3.142c1.721-.447 3-2 3-3.858 0-2.206-1.794-4-4-4s-4 1.794-4 4c0 1.858 1.279 3.411 3 3.858V15h-.709c-2.838 0-5.152 2.57-5.259 5.772-.035.024-.074.044-.109.067L9.49 15H2v2h6.799l6.53 5.131c-.852.831-1.566 1.8-2.115 2.869H2v2h10.427A11 11 0 0 0 12 30c0 .684.071 1.351.191 2H2v2h10.764a11 11 0 0 0 2.525 3.833L8.212 42H2v2h6.757l8.192-4.823A10.94 10.94 0 0 0 23 41h2c2.216 0 4.277-.664 6.006-1.796L38.565 44H46v-2h-6.854l-6.49-4.118A11 11 0 0 0 35.236 34H46v-2H35.809c.12-.649.191-1.316.191-2 0-1.041-.155-2.045-.427-3H46v-2H34.786a11.1 11.1 0 0 0-2.454-3.177L39.811 17z"/></svg>