<svg xmlns="http://www.w3.org/2000/svg" viewBox="0 0 48 48"><title>Icon-Resource/Security-Identity-and-Compliance/Res_AWS-WAF_Bot_48</title><path fill="#dd344c" fill-rule="evenodd" d="M36.975 32.975c-1.322 1.322-3.627 1.322-4.949 0A3.48 3.48 0 0 1 31 30.5c0-.935.365-1.814 1.026-2.475A3.48 3.48 0 0 1 34.5 27c.935 0 1.814.364 2.475 1.025A3.48 3.48 0 0 1 38 30.5c0 .935-.364 1.814-1.025 2.475M34.5 25c-1.468 0-2.85.572-3.888 1.611A5.46 5.46 0 0 0 29 30.5c0 1.469.573 2.85 1.612 3.889A5.46 5.46 0 0 0 34.5 36a5.46 5.46 0 0 0 3.889-1.611A5.46 5.46 0 0 0 40 30.5a5.46 5.46 0 0 0-1.611-3.889A5.46 5.46 0 0 0 34.5 25m-18.525 7.975c-1.322 1.322-3.627 1.322-4.949 0A3.48 3.48 0 0 1 10 30.5c0-.935.365-1.814 1.026-2.475A3.48 3.48 0 0 1 13.5 27c.935 0 1.814.364 2.475 1.025A3.48 3.48 0 0 1 17 30.5c0 .935-.364 1.814-1.025 2.475M13.5 25c-1.468 0-2.85.572-3.888 1.611A5.46 5.46 0 0 0 8 30.5c0 1.469.573 2.85 1.612 3.889A5.46 5.46 0 0 0 13.5 36a5.46 5.46 0 0 0 3.889-1.611A5.46 5.46 0 0 0 19 30.5a5.46 5.46 0 0 0-1.611-3.889A5.46 5.46 0 0 0 13.5 25M44 39.581a.42.42 0 0 1-.419.419H4.419A.42.42 0 0 1 4 39.581v-18.93c0-.359.292-.651.651-.651H43.35c.358 0 .65.292.65.651zm-21.821-24.67h4.143c1.924 0 3.533 1.315 4.016 3.089H18.163c.483-1.774 2.091-3.089 4.016-3.089M22 6c0-1.103.898-2 2-2 1.103 0 2 .897 2 2s-.897 2-2 2-2-.897-2-2m21.35 12H32.398c-.517-2.888-3.041-5.089-6.076-5.089H25V9.858c1.721-.447 3-2 3-3.858 0-2.206-1.794-4-4-4s-4 1.794-4 4c0 1.858 1.28 3.411 3 3.858v3.053h-.821c-3.035 0-5.559 2.201-6.076 5.089H4.651A2.654 2.654 0 0 0 2 20.651v18.93A2.42 2.42 0 0 0 4.419 42H17v4h2v-4h10v4h2v-4h12.581A2.42 2.42 0 0 0 46 39.581v-18.93A2.653 2.653 0 0 0 43.35 18"/></svg>