<svg xmlns="http://www.w3.org/2000/svg" viewBox="0 0 48 48"><title>Icon-Resource/Security-Identity-and-Compliance/Res_AWS-WAF_Managed-Rule_48</title><path fill="#dd344c" fill-rule="evenodd" d="M13 10.062a3.12 3.12 0 0 1 3.118 3.118A3.12 3.12 0 0 1 13 16.297a3.12 3.12 0 0 1-3.118-3.117A3.12 3.12 0 0 1 13 10.062m0 8.236a5.124 5.124 0 0 0 5.118-5.118A5.124 5.124 0 0 0 13 8.062a5.124 5.124 0 0 0-5.118 5.118A5.124 5.124 0 0 0 13 18.298m-8.82-6.335h1.884l.198-.744c.157-.593.405-1.043.714-1.57l.39-.667-1.334-1.33 1.488-1.48.792.788.626.492.664-.385c.542-.314.899-.522 1.435-.663l.745-.197V4.36h2.436v1.877l.741.199c.523.14.874.347 1.487.709l.672.396 1.308-1.327 1.452 1.473-1.313 1.33.378.66c.353.614.559.988.703 1.538l.195.749h1.979v2.434h-1.886l-.198.743c-.146.554-.367.944-.713 1.535l-.392.67 1.334 1.326-1.487 1.479-1.336-1.328-.766.443c-.532.308-.884.512-1.412.65l-.746.198V22h-2.436v-1.884l-.743-.198c-.579-.154-1.011-.393-1.557-.713l-.669-.392-1.324 1.332-1.475-1.485.787-.793.491-.626-.384-.662c-.313-.541-.52-.9-.662-1.437l-.195-.745H4.18zm-.591 4.434h.973c.086.207.182.402.287.598l-.668.672a1.415 1.415 0 0 0 0 1.985l2.309 2.325c.533.537 1.465.538 1.998 0l.663-.666c.203.105.41.203.631.293v.986A1.41 1.41 0 0 0 11.191 24h3.618a1.41 1.41 0 0 0 1.409-1.41v-.99c.21-.088.404-.184.595-.286l.671.67a1.413 1.413 0 0 0 1.987-.002l2.325-2.31c.268-.268.417-.623.417-1.001a1.4 1.4 0 0 0-.416-1l-.665-.66c.102-.194.199-.396.288-.614h.991a1.41 1.41 0 0 0 1.409-1.408V11.37a1.41 1.41 0 0 0-1.409-1.408h-1.077a7 7 0 0 0-.286-.616l.663-.671a1.414 1.414 0 0 0 0-1.98l-2.28-2.312c-.536-.544-1.476-.542-2.008 0l-.639.646a7 7 0 0 0-.566-.274v-.988a1.41 1.41 0 0 0-1.409-1.408h-3.618a1.41 1.41 0 0 0-1.409 1.409v.952a7 7 0 0 0-.597.287l-.67-.668a1.413 1.413 0 0 0-1.991 0L4.202 6.653a1.4 1.4 0 0 0-.417 1c0 .378.149.734.415.999l.671.667a8 8 0 0 0-.296.643h-.986a1.41 1.41 0 0 0-1.409 1.41v3.617a1.41 1.41 0 0 0 1.409 1.407m29.003 24.018 2.353-2.355-2.353-2.352 1.414-1.416 2.353 2.355 2.354-2.355 1.414 1.416-2.354 2.352 2.354 2.354-1.414 1.414-2.354-2.354-2.353 2.355zm8.474-18.134-5.336 5.336-3.949-2.802 1.156-1.63 2.573 1.824 4.142-4.143zm0-14-5.336 5.336-3.949-2.802 1.156-1.63 2.573 1.823 4.142-4.141zM4 43.999h40V32H4zM23 2v2h21v12H26v2h18v12H4v-7H2v23h44V2z"/></svg>