<svg xmlns="http://www.w3.org/2000/svg" viewBox="0 0 48 48"><title>Icon-Resource/Security-Identity-and-Compliance/Res_AWS-WAF_Bot-Control_48</title><path fill="#dd344c" fill-rule="evenodd" d="M32 26.5c0-.4-.156-.777-.439-1.06v-.001a1.5 1.5 0 0 0-1.061-.438A1.497 1.497 0 0 0 29 26.5a1.502 1.502 0 0 0 2.561 1.061c.283-.284.439-.661.439-1.061m.975-2.475A3.48 3.48 0 0 1 34 26.5c0 .935-.364 1.814-1.025 2.475a3.5 3.5 0 0 1-2.475 1.023 3.5 3.5 0 0 1-2.475-1.023A3.48 3.48 0 0 1 27 26.5c0-.935.364-1.814 1.025-2.475a3.506 3.506 0 0 1 4.95 0M19 26.5c0-.4-.156-.777-.439-1.06a1.5 1.5 0 0 0-1.061-.439A1.497 1.497 0 0 0 16 26.5a1.502 1.502 0 0 0 2.561 1.061v-.001A1.5 1.5 0 0 0 19 26.5m.975-2.475A3.48 3.48 0 0 1 21 26.5c0 .935-.364 1.814-1.025 2.475a3.5 3.5 0 0 1-2.475 1.023 3.5 3.5 0 0 1-2.475-1.023A3.48 3.48 0 0 1 14 26.5c0-.935.364-1.814 1.025-2.475a3.505 3.505 0 0 1 4.95 0M35 21.651a.65.65 0 0 0-.65-.651h-20.7a.65.65 0 0 0-.65.651v9.93a.42.42 0 0 0 .419.419h21.162a.42.42 0 0 0 .419-.419zM21.04 19h5.904a1.87 1.87 0 0 0-1.651-1h-2.586a1.9 1.9 0 0 0-1.667 1M23 12a1.001 1.001 0 0 0 2 0 1.001 1.001 0 0 0-2 0m14 19.581A2.42 2.42 0 0 1 34.581 34H28v4h-2v-4h-4v4h-2v-4h-6.581A2.42 2.42 0 0 1 11 31.581v-9.93A2.653 2.653 0 0 1 13.65 19h5.267a3.906 3.906 0 0 1 3.79-3H23v-1.185A2.995 2.995 0 0 1 21 12c0-1.654 1.346-3 3-3s3 1.346 3 3a3 3 0 0 1-2 2.816V16h.293a3.906 3.906 0 0 1 3.79 3h5.267A2.653 2.653 0 0 1 37 21.651zM7.489 35.95l1.621-1.173A18.2 18.2 0 0 1 5.676 25H8v-2H5.679a18.17 18.17 0 0 1 3.431-9.719l-1.621-1.173A20.17 20.17 0 0 0 3.679 23H2v2h1.676c.185 3.962 1.484 7.731 3.813 10.95m27.258 2.968A18.2 18.2 0 0 1 25 42.351V40h-2v2.351a18.2 18.2 0 0 1-9.75-3.433l-1.172 1.621A20.2 20.2 0 0 0 23 44.351V46h2v-1.649c3.951-.191 7.709-1.489 10.919-3.812zM13.25 9.14A18.2 18.2 0 0 1 23 5.708V8h2V5.708a18.2 18.2 0 0 1 9.747 3.432l1.172-1.62A20.15 20.15 0 0 0 25 3.708V2h-2v1.708A20.16 20.16 0 0 0 12.078 7.52zM44.319 23a20.17 20.17 0 0 0-3.81-10.892l-1.621 1.173A18.17 18.17 0 0 1 42.319 23H40v2h2.322a18.2 18.2 0 0 1-3.434 9.777l1.621 1.173c2.329-3.219 3.628-6.988 3.813-10.95H46v-2zm-7.293-10.584 6.16-6.16-1.415-1.414-6.159 6.16zM10.972 35.642l-6.16 6.16 1.414 1.414 6.16-6.16zm.734-25.349-8.12-8.12-1.414 1.414 8.12 8.121zm26 26 8.12 8.12-1.414 1.414-8.12-8.119z"/></svg>