<svg xmlns="http://www.w3.org/2000/svg" viewBox="0 0 48 48"><title>Icon-Resource/General-Resource/Res_Camera_48_Light</title><path fill="#232f3d" fill-rule="evenodd" d="M8 20v-2h3l.001 2zm3-4H8c-1.103 0-2 .897-2 2v2c0 1.103.897 2 2 2h3c1.103 0 2-.897 2-2v-2c0-1.103-.897-2-2-2m14.5 16a5.506 5.506 0 0 1-5.5-5.5c0-3.033 2.468-5.5 5.5-5.5s5.5 2.467 5.5 5.5-2.468 5.5-5.5 5.5m0-13c-4.136 0-7.5 3.364-7.5 7.5s3.364 7.5 7.5 7.5 7.5-3.364 7.5-7.5-3.364-7.5-7.5-7.5m0 17c-5.238 0-9.5-4.262-9.5-9.5s4.262-9.5 9.5-9.5 9.5 4.262 9.5 9.5-4.262 9.5-9.5 9.5m0-21C19.159 15 14 20.159 14 26.5S19.159 38 25.5 38 37 32.841 37 26.5 31.841 15 25.5 15M44 38.424c0 .869-.707 1.576-1.576 1.576H5.576A1.58 1.58 0 0 1 4 38.424V15.576C4 14.707 4.707 14 5.576 14h12.411a1 1 0 0 0 .979-.795l.744-3.559A.816.816 0 0 1 20.505 9h10.248c.382 0 .716.271.795.646l.745 3.559a1 1 0 0 0 .978.795h9.153c.869 0 1.576.707 1.576 1.576zM10 12h3.001v-1H10zm32.424 0h-8.34l-.579-2.764A2.825 2.825 0 0 0 30.753 7H20.505c-1.323 0-2.481.94-2.752 2.236L17.175 12h-2.174v-1c0-1.103-.897-2-2-2H10c-1.103 0-2 .897-2 2v1H5.576A3.58 3.58 0 0 0 2 15.576v22.848A3.58 3.58 0 0 0 5.576 42h36.848A3.58 3.58 0 0 0 46 38.424V15.576A3.58 3.58 0 0 0 42.424 12"/></svg>