<svg xmlns="http://www.w3.org/2000/svg" viewBox="0 0 48 48"><title>Icon-Resource/General-Resource/Res_Chat_48_Light</title><path fill="#232f3d" fill-rule="evenodd" d="M36 22c-1.103 0-2-.897-2-2s.897-2 2-2 2 .897 2 2-.897 2-2 2m0-6c-2.206 0-4 1.794-4 4s1.794 4 4 4 4-1.794 4-4-1.794-4-4-4m-12 6c-1.103 0-2-.897-2-2s.897-2 2-2 2 .897 2 2-.897 2-2 2m0-6c-2.206 0-4 1.794-4 4s1.794 4 4 4 4-1.794 4-4-1.794-4-4-4m-12 6c-1.103 0-2-.897-2-2s.897-2 2-2 2 .897 2 2-.897 2-2 2m0-6c-2.206 0-4 1.794-4 4s1.794 4 4 4 4-1.794 4-4-1.794-4-4-4m32 16.95c0 1.13-.837 2.05-1.879 2.05l-4.133.05a1 1 0 0 0-.988 1v4.239l-5.545-5.03a1 1 0 0 0-.67-.26H6c-1.169 0-2-.968-2-2.095V9.029c0-1.12.91-2.03 2.029-2.03h35.942C43.09 7 44 7.91 44 9.03zM41.971 5H6.029A4.033 4.033 0 0 0 2 9.029v23.875c0 2.23 1.848 4.045 4.118 4.045l24.278.05 6.932 6.288a1 1 0 0 0 1.077.173 1 1 0 0 0 .595-.914v-5.507l3.133-.04C44.265 37 46 35.184 46 32.95V9.03a4.033 4.033 0 0 0-4.029-4.03"/></svg>