<svg xmlns="http://www.w3.org/2000/svg" viewBox="0 0 48 48"><title>Icon-Resource/General-Resource/Res_Client_48_Light</title><path fill="#232f3d" fill-rule="evenodd" d="M42.299 38.773v1.923a.793.793 0 0 1-.793.794H30.762a.794.794 0 0 1-.794-.794v-1.923c0-.438.355-.793.794-.793h10.744c.439 0 .793.355.793.793m1.498 3.626a.646.646 0 0 1-.644.645H4.645A.646.646 0 0 1 4 42.399v-5.388c0-.355.289-.644.645-.644h38.508c.355 0 .644.289.644.644zm-.644-8.032H4.645A2.65 2.65 0 0 0 2 37.011v5.388a2.65 2.65 0 0 0 2.645 2.645h38.508a2.65 2.65 0 0 0 2.644-2.645v-5.388a2.647 2.647 0 0 0-2.644-2.644M7.501 27.21h32.763V7.502H7.501zM40.842 5.502H6.924c-.784 0-1.423.637-1.423 1.421v20.865c0 .784.639 1.422 1.423 1.422h33.918c.784 0 1.422-.638 1.422-1.422V6.923c0-.784-.638-1.421-1.422-1.421m2.955 24.565a.645.645 0 0 1-.644.644H4.645A.645.645 0 0 1 4 30.067V4.644C4 4.289 4.289 4 4.645 4h38.508c.355 0 .644.289.644.644zM43.153 2H4.645A2.65 2.65 0 0 0 2 4.644v25.423a2.65 2.65 0 0 0 2.645 2.644h38.508a2.647 2.647 0 0 0 2.644-2.644V4.644A2.647 2.647 0 0 0 43.153 2"/></svg>