<svg xmlns="http://www.w3.org/2000/svg" viewBox="0 0 48 48"><title>Icon-Resource/General-Resource/Res_Cold-Storage_48_Light</title><path fill="#232f3d" fill-rule="evenodd" d="M42 37.97c0-1.795-.958-3.46-2.499-4.35a1 1 0 0 1-.501-.866V7.97c0-1.103-.897-2-2-2s-2 .897-2 2v24.803c0 .357-.19.686-.499.865A5.02 5.02 0 0 0 32 37.97c0 2.757 2.243 5 5 5s5-2.243 5-5m2 0c0 3.86-3.141 7-7 7s-7-3.14-7-7a7.03 7.03 0 0 1 3-5.745V7.97c0-2.206 1.794-4 4-4s4 1.794 4 4v24.236c1.864 1.3 3 3.457 3 5.764m-5 0c0-1.103-.897-2-2-2s-2 .897-2 2 .897 2 2 2 2-.897 2-2m2 0c0 2.206-1.794 4-4 4s-4-1.794-4-4c0-1.858 1.279-3.41 3-3.858V25.97h2v8.142c1.721.447 3 2 3 3.858m-12.257 4.117.863 1.803c-2.718 1.303-6.9 2.05-11.471 2.05C9.681 45.94 4 43.484 4 39.831V7.97h.021C4.245 4.39 9.988 2 18.476 2c4.768 0 9.108.79 11.907 2.167L29.5 5.961C27.004 4.733 22.883 4 18.476 4 10.77 4 6 6.171 6 8.183s4.77 4.183 12.476 4.183c4.447 0 8.589-.744 11.082-1.99l.894 1.79c-2.798 1.398-7.163 2.2-11.976 2.2-5.647 0-10.072-1.06-12.476-2.822v7.746c0 2.012 4.77 4.184 12.476 4.184 4.429 0 8.558-.733 11.044-1.96l.886 1.792c-2.789 1.378-7.137 2.168-11.93 2.168-5.647 0-10.072-1.062-12.476-2.823v7.034c0 2.043 4.666 4.156 12.476 4.156 3.864 0 7.527-.552 10.048-1.514l.713 1.87c-2.781 1.06-6.602 1.644-10.761 1.644-5.647 0-10.072-1.057-12.476-2.81v6.8c0 2.02 4.539 4.108 12.135 4.108 4.283 0 8.149-.676 10.608-1.853"/></svg>