<svg xmlns="http://www.w3.org/2000/svg" viewBox="0 0 48 48"><title>Icon-Resource/General-Resource/Res_Data-Stream_48_Light</title><path fill="#232f3d" fill-rule="evenodd" d="M36.001 36c-1.654 0-3-1.346-3-3s1.346-3 3-3 3 1.346 3 3-1.346 3-3 3m0-8a4.97 4.97 0 0 0-3.423 1.374l-4.167-3.36L2.002 26 2 28l25.704.014 3.716 2.996a4.95 4.95 0 0 0-.419 1.99c0 2.757 2.243 5 5 5s5-2.243 5-5-2.243-5-5-5m-9-24c1.654 0 3 1.346 3 3s-1.346 3-3 3-3-1.346-3-3 1.346-3 3-3m-3.621 6.429A4.98 4.98 0 0 0 27.001 12c2.757 0 5-2.243 5-5s-2.243-5-5-5-5 2.243-5 5c0 .607.125 1.181.324 1.72L19.765 10H2.001v2h18.236zm-3.379 33.157L16.415 40l3.586-3.586L23.587 40zm.707-9.293a1 1 0 0 0-1.414 0l-1.793 1.793L15.415 34H2.001v2h12.586l1.5 1.5-1.793 1.793a1 1 0 0 0 0 1.414l5 5a.997.997 0 0 0 1.414 0l5-5a1 1 0 0 0 0-1.414zM38.001 22h6v-6h-6zm7-8h-8a1 1 0 0 0-1 1v3h-34v2h34v3a1 1 0 0 0 1 1h8a1 1 0 0 0 1-1v-8a1 1 0 0 0-1-1"/></svg>