<svg xmlns="http://www.w3.org/2000/svg" viewBox="0 0 48 48"><title>Icon-Resource/General-Resource/Res_Database_48_Light</title><path fill="#232f3d" fill-rule="evenodd" d="M31.755 43.307a42 42 0 0 1-3.954.47q-.836.06-1.696.092a52 52 0 0 1-3.497 0 51 51 0 0 1-1.698-.092 42 42 0 0 1-3.954-.47C12.049 42.475 9 40.73 9 38.754V10.765c2.997 1.896 8.74 3.076 15.356 3.076 6.61 0 12.28-1.161 15.289-3.038v27.951c0 2.013-2.95 3.715-7.89 4.553M24.356 4c8.54 0 14.12 2.184 15.114 4.432-1.668 1.666-7.01 3.409-15.114 3.409-8.096 0-13.528-1.78-15.149-3.433l-.036.035C10.155 6.191 15.765 4 24.356 4m0-2C14.137 2 7 4.938 7 9.145v29.609c0 1.827 1.25 5.106 9.622 6.526 1.311.221 2.705.387 4.144.491a50 50 0 0 0 7.179 0 44 44 0 0 0 4.144-.491c8.314-1.411 9.556-4.694 9.556-6.526V9.145C41.645 4.938 34.535 2 24.356 2"/></svg>