<svg xmlns="http://www.w3.org/2000/svg" viewBox="0 0 48 48"><title>Icon-Resource/General-Resource/Res_Disk_48_Light</title><path fill="#232f3d" fill-rule="evenodd" d="M24.014 44.028C12.979 44.028 4 35.049 4 24.013 4 12.978 12.979 4 24.014 4s20.014 8.978 20.014 20.013-8.979 20.015-20.014 20.015m0-42.028C11.875 2 2 11.875 2 24.013s9.875 22.015 22.014 22.015 22.014-9.876 22.014-22.015C46.028 11.875 36.153 2 24.014 2m0 29.749c-4.266 0-7.735-3.47-7.735-7.736 0-4.265 3.469-7.735 7.735-7.735s7.735 3.47 7.735 7.735-3.469 7.736-7.735 7.736m0-17.471c-5.368 0-9.735 4.367-9.735 9.735 0 5.369 4.367 9.736 9.735 9.736s9.735-4.367 9.735-9.736c0-5.368-4.367-9.735-9.735-9.735m0 13.225a3.494 3.494 0 0 1-3.489-3.49 3.493 3.493 0 0 1 3.489-3.489 3.493 3.493 0 0 1 3.489 3.489 3.494 3.494 0 0 1-3.489 3.49m0-8.979a5.496 5.496 0 0 0-5.489 5.489 5.496 5.496 0 0 0 5.489 5.49 5.496 5.496 0 0 0 5.489-5.49 5.496 5.496 0 0 0-5.489-5.489"/></svg>