<svg xmlns="http://www.w3.org/2000/svg" viewBox="0 0 48 48"><title>Icon-Resource/General-Resource/Res_Documents_48_Light</title><path fill="#232f3d" fill-rule="evenodd" d="m40.708 17.292-2.874-2.874-1.414 1.414 2.581 2.581V44h-24v-2h-2v3a1 1 0 0 0 1 1h26a1 1 0 0 0 1-1V17.999c0-.265-.106-.52-.293-.707M33 38V12.999h-7.999a1 1 0 0 1-1-1V4H9v34zm-6.999-27.001h5.585l-5.585-5.585zM34 40H8a1 1 0 0 1-1-1V3a1 1 0 0 1 1-1h17.001c.266 0 .519.105.707.293l8.999 8.999a1 1 0 0 1 .293.707V39a1 1 0 0 1-1 1M13.001 18H23v-2h-9.999zm0 12H23v-2h-9.999zm0-6.001H27v-2H13.001z"/></svg>