<svg xmlns="http://www.w3.org/2000/svg" viewBox="0 0 48 48"><title>Icon-Resource/General-Resource/Res_Firewall_48_Light</title><path fill="#242f3e" fill-rule="evenodd" d="M34.912 36.012h9.074v-3.73h-9.074zm-1.275 2.001h-6.793v3.075h8.968v-3.075h-2.175m-10.529-2h9.804v-3.73h-9.804zm10.803-5.73h5.971v-3.954h-8.969v3.953h2.998m12.075 1v5.73a1 1 0 0 1-1 1h-7.174v4.075a1 1 0 0 1-1 1H25.844a1 1 0 0 1-1-1v-4.075h-2.736a1 1 0 0 1-1-1v-5.73a1 1 0 0 1 1-1h6.805v-4.954a1 1 0 0 1 1-1h10.969a1 1 0 0 1 1 1v4.953h3.104a1 1 0 0 1 1 1m-22.399-6.579a1.002 1.002 0 0 0 1.61.942c.097-.077 2.084-1.704 2.961-5.687.396.511.82 1.22 1.15 2.175l1.89-.653c-1.102-3.19-3.167-4.342-3.253-4.39a1 1 0 0 0-1.472.774 13.7 13.7 0 0 1-.642 3.006c-.412-10.429-9.461-13.988-9.563-14.027a1 1 0 0 0-.956 1.734c2.784 2.1 4.054 5.654 3.492 9.713l-.237 1.294a16.4 16.4 0 0 1-1.716 4.388l-.695 1.377c-3.393 7.547-.522 15.114-.398 15.432a1 1 0 0 0 1.009.635c.051-.004 1.261-.1 2.969-.504l-.461-1.946a22 22 0 0 1-1.891.362c-.586-1.978-1.878-7.656.577-13.117l.654-1.297a18.4 18.4 0 0 0 1.91-4.926l.253-1.379c.334-2.412.118-4.674-.603-6.652 2.313 2.452 4.426 6.487 3.412 12.746M12.408 7.511A5 5 0 0 0 10.497 7c1.602 2.052 3.887 6.385 1.593 12.686a1 1 0 0 1-.86.655.99.99 0 0 1-.953-.51c-.62-1.11-2.363-3.63-4.288-4.617.669 2.436 1.423 6.858-.673 10.041a10 10 0 0 0-.295.474c-1.834 3.124-1.205 6.952 1.602 9.75.007.006.699.68 2.494 1.714 2.211 1.277 3.078 1.652 3.087 1.655l-.778 1.842c-.038-.016-.957-.407-3.309-1.764-2.031-1.172-2.827-1.952-2.911-2.036-3.415-3.404-4.184-8.298-1.91-12.173q.165-.283.35-.563c2.404-3.649-.068-9.91-.093-9.973a.998.998 0 0 1 .928-1.373c2.667 0 4.972 2.41 6.311 4.19 1.351-6.318-2.627-9.642-2.813-9.793a1.004 1.004 0 0 1 .099-1.629c1.547-.959 3.807-.59 5.252.16z"/></svg>