<svg xmlns="http://www.w3.org/2000/svg" viewBox="0 0 48 48"><title>Icon-Resource/General-Resource/Res_Forums_48_Light</title><path fill="#232f3d" fill-rule="evenodd" d="M4 43.201h40.178v-4.867H4zm42.178-5.59v6.314c0 .704-.573 1.277-1.277 1.277H3.276A1.28 1.28 0 0 1 2 43.925v-6.314c0-.704.572-1.277 1.276-1.277h41.625c.704 0 1.277.573 1.277 1.277M4 31.701h40.178v-4.867H4zm42.178-5.59v6.314c0 .704-.573 1.277-1.277 1.277H3.276A1.28 1.28 0 0 1 2 32.425v-6.314c0-.704.572-1.277 1.276-1.277h41.625c.704 0 1.277.573 1.277 1.277M4.055 20.256h40.177V15.39H4.055zm42.177-5.59v6.315c0 .703-.572 1.275-1.275 1.275H3.332a1.277 1.277 0 0 1-1.276-1.275v-6.315c0-.704.572-1.276 1.276-1.276h41.625c.703 0 1.275.572 1.275 1.276M4 8.868h40.178V4.001H4zm-2 .723V3.277C2 2.573 2.572 2 3.276 2h41.625c.704 0 1.277.573 1.277 1.277v6.314c0 .704-.573 1.277-1.277 1.277H3.276A1.28 1.28 0 0 1 2 9.591m3.689 32.125h23.776v-2H5.689zm0-22.889h23.776v-2H5.689zm16.599 11.5h20.229v-2H22.288zm-.001-22.89h20.229v-2H22.287z"/></svg>