<svg xmlns="http://www.w3.org/2000/svg" viewBox="0 0 48 48"><title>Icon-Resource/General-Resource/Res_Gear_48_Light</title><path fill="#232f3d" fill-rule="evenodd" d="M24.006 31.814c-4.306 0-7.809-3.503-7.809-7.809 0-4.305 3.503-7.808 7.809-7.808s7.809 3.503 7.809 7.808c0 4.306-3.503 7.809-7.809 7.809m0-17.617c-5.408 0-9.809 4.4-9.809 9.808 0 5.409 4.401 9.809 9.809 9.809s9.809-4.4 9.809-9.809-4.401-9.808-9.809-9.808m20.006 13.552h-3.528a1 1 0 0 0-.967.742c-.37 1.393-.961 2.402-1.646 3.57a1 1 0 0 0 .158 1.214l2.492 2.476-4.799 4.77-2.499-2.485a1 1 0 0 0-1.206-.156l-.22.127c-1.175.681-2.023 1.173-3.303 1.509a1 1 0 0 0-.745.967v3.528h-7.486v-3.526a1 1 0 0 0-.743-.966c-1.375-.366-2.367-.913-3.616-1.643a1 1 0 0 0-1.214.158l-2.471 2.488-4.763-4.795 2.482-2.498c.317-.32.381-.814.156-1.205l-.109-.186c-.688-1.191-1.186-2.052-1.526-3.344a1 1 0 0 0-.967-.745H4v-7.487h3.526a1 1 0 0 0 .966-.743c.372-1.403.94-2.436 1.644-3.641a1 1 0 0 0-.157-1.213l-2.492-2.481 4.795-4.777 2.496 2.487a1 1 0 0 0 1.207.157l.177-.102c1.197-.694 2.061-1.196 3.356-1.536.438-.116.745-.514.745-.968V4h7.486v3.51a1 1 0 0 0 .741.966c1.271.34 2.12.842 3.293 1.535l.173.102a1 1 0 0 0 1.22-.159l2.436-2.47 4.705 4.768-2.457 2.491c-.315.32-.378.811-.155 1.2.702 1.221 1.257 2.186 1.618 3.572.116.44.513.747.968.747h3.721zm.125-9.487h-3.099c-.331-.999-.749-1.815-1.221-2.655l2.01-2.037a1.883 1.883 0 0 0 0-2.634l-4.88-4.947c-.711-.72-1.959-.72-2.67 0l-1.978 2.006c-.814-.474-1.592-.894-2.55-1.224V3.875A1.877 1.877 0 0 0 27.874 2h-7.736a1.877 1.877 0 0 0-1.875 1.875v2.827c-.983.332-1.78.756-2.615 1.234l-2.042-2.034a1.88 1.88 0 0 0-2.647 0l-4.973 4.954a1.86 1.86 0 0 0-.55 1.327c0 .503.195.974.55 1.33l2.038 2.028c-.48.853-.908 1.707-1.244 2.721H3.876A1.88 1.88 0 0 0 2 20.137v7.737c0 1.033.842 1.875 1.876 1.875h2.872c.332.982.754 1.778 1.232 2.613l-2.031 2.044a1.88 1.88 0 0 0 .001 2.642l4.938 4.972c.353.357.826.554 1.329.554h.002c.503 0 .975-.197 1.331-.554l2.017-2.031c.868.491 1.702.909 2.696 1.241v2.906c0 1.033.841 1.875 1.875 1.875h7.736a1.88 1.88 0 0 0 1.875-1.875v-2.909c.982-.332 1.774-.755 2.607-1.233l2.044 2.032a1.88 1.88 0 0 0 2.644 0l4.975-4.945c.357-.354.554-.828.554-1.331a1.86 1.86 0 0 0-.553-1.329l-2.034-2.02c.468-.817.901-1.648 1.24-2.652h2.911a1.88 1.88 0 0 0 1.875-1.875v-7.737a1.88 1.88 0 0 0-1.875-1.875"/></svg>