<svg xmlns="http://www.w3.org/2000/svg" viewBox="0 0 48 48"><title>Icon-Resource/General-Resource/Res_Git-Repository_48_Light</title><path fill="#232f3d" fill-rule="evenodd" d="M36.002 44c-1.654 0-3-1.346-3-3s1.346-3 3-3 3 1.346 3 3-1.346 3-3 3M12 10c-1.654 0-3-1.346-3-3s1.346-3 3-3 3 1.346 3 3-1.346 3-3 3m24.002 11.001c1.654 0 3 1.346 3 3s-1.346 3-3 3-3-1.346-3-3 1.346-3 3-3m0 14.999a5.01 5.01 0 0 0-4.899 4.001h-5.102c-.663 0-1-.316-1-.939V25.001h6.102a5.01 5.01 0 0 0 4.899 4c2.757 0 5-2.243 5-5s-2.243-5-5-5a5.01 5.01 0 0 0-4.899 4h-6.102V8.938c0-1.73-1.233-2.939-3-2.939h-5.102A5.01 5.01 0 0 0 12 2C9.243 2 7 4.243 7 7s2.243 5 5 5a5.01 5.01 0 0 0 4.899-4.001h5.102c.673 0 1 .307 1 .939v30.124c0 1.73 1.233 2.939 3 2.939h5.102A5.01 5.01 0 0 0 36.002 46c2.757 0 5-2.243 5-5s-2.243-5-5-5"/></svg>