<svg xmlns="http://www.w3.org/2000/svg" viewBox="0 0 48 48"><title>Icon-Resource/General-Resource/Res_Globe_48_Light</title><path fill="#232f3d" fill-rule="evenodd" d="M37.322 9.762c-1.385.68-3.02 1.24-4.836 1.657-.822-2.708-1.936-4.942-3.264-6.559a19.5 19.5 0 0 1 8.1 4.902M34.033 22c-.064-3.146-.424-6.068-1.033-8.656 2.153-.501 4.088-1.19 5.693-2.039A19.4 19.4 0 0 1 42.924 22zM32.71 33.883c.781-2.909 1.248-6.264 1.323-9.883h8.941a19.4 19.4 0 0 1-4.431 11.894c-1.645-.847-3.637-1.522-5.833-2.011m-.58 1.913c1.867.405 3.555.957 4.987 1.636a19.5 19.5 0 0 1-8.64 4.9c1.46-1.515 2.708-3.759 3.653-6.536m-16.096.153c1.009 2.909 2.351 5.23 3.922 6.713a19.43 19.43 0 0 1-9.391-4.609c1.468-.874 3.338-1.587 5.469-2.104M14.078 24c.076 3.688.561 7.101 1.368 10.047-2.486.617-4.662 1.487-6.341 2.561A19.4 19.4 0 0 1 4.025 24zm1.073-10.836c-.634 2.631-1.007 5.618-1.073 8.836H4.076a19.4 19.4 0 0 1 4.868-11.431c1.634 1.081 3.762 1.962 6.207 2.595m.522-1.916c-2.073-.531-3.887-1.25-5.3-2.126a19.44 19.44 0 0 1 8.805-4.623c-1.43 1.604-2.628 3.919-3.505 6.749M16.078 22c.065-3.162.428-5.984 1.011-8.396 2.288.443 4.781.682 7.355.682 2.289 0 4.522-.191 6.607-.547.565 2.382.918 5.156.982 8.261zm14.085 13.434c-1.564 4.447-3.879 7.066-6.108 7.066-2.21 0-4.507-2.574-6.071-6.955a38 38 0 0 1 6.46-.545c1.983 0 3.906.157 5.719.434M24.444 33c-2.464 0-4.851.222-7.057.629A39.3 39.3 0 0 1 16 24h16c-.075 3.603-.51 6.811-1.243 9.506A39.6 39.6 0 0 0 24.444 33m.038-28.95c2.267.312 4.583 3.071 6.046 7.751a38 38 0 0 1-6.084.485c-2.397 0-4.708-.213-6.82-.606 1.522-4.781 3.935-7.533 6.263-7.66.2.004.397.02.595.03m.154-1.992c-.193-.022-.384-.058-.581-.058-.063 0-.124.016-.187.019C23.744 2.017 23.624 2 23.5 2 11.645 2 2 11.645 2 23.5S11.645 45 23.5 45 45 35.355 45 23.5c0-11.472-9.039-20.846-20.364-21.442"/></svg>