<svg xmlns="http://www.w3.org/2000/svg" viewBox="0 0 48 48"><title>Icon-Resource/General-Resource/Res_Internet-alt1_48_Light</title><path fill="#232f3d" fill-rule="evenodd" d="M23.61 22.049c3.891 0 7.577 1.495 10.38 4.211l-1.393 1.435a12.85 12.85 0 0 0-8.987-3.646 12.97 12.97 0 0 0-9.427 4.092l-1.459-1.369a14.99 14.99 0 0 1 10.886-4.723m0 3.634c3.074 0 5.95 1.219 8.098 3.43l-1.436 1.393a9.21 9.21 0 0 0-6.662-2.823 9.3 9.3 0 0 0-6.922 3.097l-1.49-1.334a11.3 11.3 0 0 1 8.412-3.763m0 3.633c2.103 0 4.138.881 5.582 2.42l-1.457 1.369a5.6 5.6 0 0 0-4.125-1.789c-1.746 0-3.37.791-4.454 2.171l-1.572-1.236a7.62 7.62 0 0 1 6.026-2.935m18.774 4.359c-1.895 1.894-4.853 1.914-4.893 1.914l-4.769-.005-23.693-.023a3.36 3.36 0 0 1-1.722-.474C5.798 34.181 4 32.442 4 29.297c0-4.131 3.006-5.527 4.853-5.995l.058-.012a1 1 0 0 0 .77-1.1 9 9 0 0 1-.07-1.123c0-3.379 2.457-7.017 5.593-8.283 5.469-2.214 9.34.69 10.751 2.038 1.144 1.094 2.037 2.493 2.654 4.158.126.34.427.586.786.64a.99.99 0 0 0 .942-.376c.88-1.135 2.309-1.608 3.644-1.205 1.544.468 2.525 1.934 2.703 4.03a1 1 0 0 0 .831 1.103 9.8 9.8 0 0 1 3.38 1.287c2.806 1.72 3.13 3.489 3.13 4.67 0 1.93-.552 3.459-1.641 4.546m-.444-10.921a12.1 12.1 0 0 0-3.325-1.394c-.382-2.638-1.864-4.571-4.054-5.235a5.3 5.3 0 0 0-4.665.788c-.669-1.364-1.526-2.55-2.558-3.536-3.522-3.367-8.337-4.282-12.882-2.448-3.903 1.575-6.845 5.933-6.845 10.138q0 .256.012.514C5.461 22.305 2 24.253 2 29.297c0 4.295 2.68 6.546 4.279 7.505a5.36 5.36 0 0 0 2.748.759l28.456.028h.013c.281 0 3.836-.05 6.287-2.484 1.487-1.478 2.242-3.488 2.242-5.976 0-2.604-1.336-4.69-4.085-6.375"/></svg>