<svg xmlns="http://www.w3.org/2000/svg" viewBox="0 0 48 48"><title>Icon-Resource/General-Resource/Res_Internet_48_Light</title><path fill="#232f3d" fill-rule="evenodd" d="m34.59 29.79-3.593 3.591V21.76h-2V33.27l-3.441-3.497-1.426 1.403 5.195 5.28c.188.19.443.297.709.298h.004c.265 0 .52-.106.707-.293l5.259-5.258zm-12.24-2.066 1.414-1.414-5.258-5.258a1 1 0 0 0-.707-.293h-.004a1 1 0 0 0-.709.3l-5.196 5.277 1.426 1.402 3.441-3.495v13.311h2V24.131zm-2.017 9.848 7.067.007.002-2-7.067-.007zm25.693-8.442c0 2.487-.754 4.498-2.243 5.975-2.451 2.435-6.007 2.485-6.287 2.485h-.012l-4.763-.005.002-2 4.768.005c.04 0 2.998-.02 4.894-1.914 1.089-1.088 1.641-2.617 1.641-4.546 0-1.182-.325-2.95-3.13-4.67-1.474-.903-2.855-1.2-3.379-1.286a1 1 0 0 1-.832-1.105c-.178-2.095-1.159-3.56-2.703-4.029-1.335-.404-2.764.068-3.645 1.204a.99.99 0 0 1-.941.376 1 1 0 0 1-.786-.64c-.618-1.666-1.511-3.063-2.655-4.157-1.41-1.348-5.28-4.249-10.751-2.039-3.135 1.267-5.593 4.905-5.593 8.283 0 .377.024.755.071 1.122a1 1 0 0 1-.817 1.111C7.02 23.764 4 25.157 4 29.298c0 3.145 1.799 4.884 3.308 5.79a3.36 3.36 0 0 0 1.721.473l6.152.006-.002 2-6.151-.006a5.35 5.35 0 0 1-2.75-.759C4.681 35.844 2 33.595 2 29.298c0-3.715 2.084-6.547 5.623-7.719q-.012-.255-.012-.512c0-4.204 2.943-8.562 6.845-10.137 4.545-1.837 9.361-.919 12.882 2.448 1.032.986 1.89 2.172 2.559 3.536a5.3 5.3 0 0 1 4.665-.788c2.189.664 3.672 2.597 4.053 5.234 1.133.282 2.31.772 3.326 1.395 2.749 1.683 4.085 3.77 4.085 6.375"/></svg>