<svg xmlns="http://www.w3.org/2000/svg" viewBox="0 0 48 48"><title>Icon-Resource/General-Resource/Res_Internet-alt2_48_Light</title><path fill="#232f3d" fill-rule="evenodd" d="M30.997 42.233V14.759h-2v27.364l-3.441-3.497-1.426 1.402 5.195 5.279a1 1 0 0 0 .709.299h.004c.265 0 .52-.105.707-.293l5.259-5.258-1.414-1.414zM22.35 20.725l1.414-1.414-5.258-5.26a1 1 0 0 0-1.42.006l-5.196 5.28 1.425 1.403 3.442-3.496v13.31h2V17.132zm5.051 7.856-7.066-.007-.002 2 7.066.007zm18.624-6.451c0 2.489-.755 4.499-2.242 5.976-2.451 2.435-6.006 2.484-6.287 2.484h-.013l-4.762-.004.002-2 4.768.004c.039 0 2.997-.02 4.894-1.914 1.089-1.087 1.64-2.616 1.64-4.546 0-1.18-.324-2.95-3.13-4.67a9.7 9.7 0 0 0-3.379-1.287 1 1 0 0 1-.832-1.103c-.177-2.096-1.159-3.562-2.703-4.03-1.335-.404-2.763.07-3.644 1.206a.99.99 0 0 1-.942.376 1 1 0 0 1-.786-.641c-.617-1.664-1.509-3.062-2.654-4.157-1.411-1.35-5.277-4.252-10.751-2.038-3.136 1.265-5.593 4.903-5.593 8.282 0 .377.024.755.071 1.123a1 1 0 0 1-.829 1.112C7.007 16.77 4 18.168 4 22.298c0 3.145 1.799 4.884 3.308 5.79a3.36 3.36 0 0 0 1.721.474l6.152.006-.002 2-6.152-.006a5.36 5.36 0 0 1-2.748-.76C4.681 28.845 2 26.593 2 22.299c0-5.044 3.461-6.992 5.623-7.715a11 11 0 0 1-.012-.515c0-4.204 2.943-8.563 6.845-10.138 4.545-1.835 9.36-.92 12.882 2.449a12.4 12.4 0 0 1 2.558 3.536 5.3 5.3 0 0 1 4.665-.788c2.19.664 3.672 2.596 4.054 5.234a12 12 0 0 1 3.325 1.394c2.749 1.685 4.085 3.77 4.085 6.375"/></svg>