<svg xmlns="http://www.w3.org/2000/svg" viewBox="0 0 48 48"><title>Icon-Resource/General-Resource/Res_JSON-Script_48_Light</title><path fill="#232f3d" fill-rule="evenodd" d="M25 22.512a1 1 0 1 1-2 0 1 1 0 0 1 2 0m-.057 5.418-.998 2.829a1 1 0 1 1-1.886-.665l.998-2.829a1 1 0 0 1 1.276-.61 1 1 0 0 1 .61 1.275m7.611-2.098h.294v1.54h-.294q-.477 0-.686.203t-.21.665v2.086q0 1.246-.672 1.96T29.152 33q-.742 0-1.26-.238V31.39q.42.07.84.07.826 0 .826-.938v-2.24q0-.7.329-1.092t1.071-.588q-.742-.197-1.071-.588-.329-.392-.329-1.092v-2.24q0-.939-.826-.938-.42 0-.84.07v-1.372q.518-.238 1.26-.238 1.162 0 1.834.714t.672 1.96v2.086q0 .462.21.665t.686.203m-13.706-5.628q.742 0 1.26.238v1.372q-.42-.07-.839-.07-.828 0-.827.938v2.24q0 .686-.329 1.085-.328.399-1.071.595.742.196 1.071.595t.329 1.085v2.24q0 .938.827.938.419 0 .839-.07v1.372q-.518.238-1.26.238-1.162 0-1.834-.714t-.672-1.96V28.24q0-.462-.21-.665t-.686-.203h-.294v-1.54h.294q.476 0 .686-.203t.21-.665v-2.086q0-1.246.672-1.96t1.834-.714M10 44l.007-40H28v9a1 1 0 0 0 1 1h9v30zM30 5.414 36.586 12H30zm9.707 6.879-10-10A1 1 0 0 0 29 2H10c-1.178 0-2 .822-2 2v40c0 1.14.859 2 2 2h28c1.141 0 2-.86 2-2V13a1 1 0 0 0-.293-.707"/></svg>