<svg xmlns="http://www.w3.org/2000/svg" viewBox="0 0 48 48"><title>Icon-Resource/General-Resource/Res_Mobile-client_48_Light</title><path fill="#232f3d" fill-rule="evenodd" d="M19.603 6.109a.308.308 0 1 1 0 .616.308.308 0 0 1 0-.616m0 2.115a1.81 1.81 0 0 0 1.808-1.807 1.81 1.81 0 0 0-1.808-1.808 1.81 1.81 0 0 0-1.808 1.808 1.81 1.81 0 0 0 1.808 1.807m3.409-.823h5.362v-2h-5.362zm9.161 36.425H15.812c-.999 0-1.812-.797-1.812-1.776v-1.409h19.986v1.409c0 .979-.814 1.776-1.813 1.776M14 10.802h19.986v27.839H14V10.802M16.646 4h14.693c1.459 0 2.647 1.167 2.647 2.6v2.202H14V6.6C14 5.167 15.187 4 16.646 4m14.708-2H16.646C14.084 2 12 4.064 12 6.6v35.45c0 2.082 1.71 3.776 3.812 3.776h16.361c2.103 0 3.813-1.694 3.813-3.776V6.597c0-2.53-2.076-4.589-4.632-4.597"/></svg>