<svg xmlns="http://www.w3.org/2000/svg" viewBox="0 0 48 48"><title>Icon-Resource/General-Resource/Res_Multimedia_48_Light</title><path fill="#232f3d" fill-rule="evenodd" d="M37.37 38.746h2.178v-1.481H37.37zm3.178-3.481H36.37a1 1 0 0 0-1 1v3.481a1 1 0 0 0 1 1h4.178a1 1 0 0 0 1-1v-3.481a1 1 0 0 0-1-1M27.62 38.746h2.178v-1.481H27.62zm3.178-3.481H26.62a1 1 0 0 0-1 1v3.481a1 1 0 0 0 1 1h4.178a1 1 0 0 0 1-1v-3.481a1 1 0 0 0-1-1M18.12 38.746h2.178v-1.481H18.12zm3.178-3.481H17.12a1 1 0 0 0-1 1v3.481a1 1 0 0 0 1 1h4.178a1 1 0 0 0 1-1v-3.481a1 1 0 0 0-1-1M8.37 38.746h2.178v-1.481H8.37zm3.178-3.481H7.37a1 1 0 0 0-1 1v3.481a1 1 0 0 0 1 1h4.178a1 1 0 0 0 1-1v-3.481a1 1 0 0 0-1-1M37.37 9.898h2.178V8.417H37.37zm3.178-3.481H36.37a1 1 0 0 0-1 1v3.481a1 1 0 0 0 1 1h4.178a1 1 0 0 0 1-1V7.417a1 1 0 0 0-1-1M27.62 9.898h2.178V8.417H27.62zm-1 2h4.178a1 1 0 0 0 1-1V7.417a1 1 0 0 0-1-1H26.62a1 1 0 0 0-1 1v3.481a1 1 0 0 0 1 1m-8.5-2h2.178V8.417H18.12zm-1 2h4.178a1 1 0 0 0 1-1V7.417a1 1 0 0 0-1-1H17.12a1 1 0 0 0-1 1v3.481a1 1 0 0 0 1 1m-8.75-2h2.178V8.417H8.37zm3.178-3.481H7.37a1 1 0 0 0-1 1v3.481a1 1 0 0 0 1 1h4.178a1 1 0 0 0 1-1V7.417a1 1 0 0 0-1-1m32.334 34.754c0 .647-.528 1.175-1.175 1.175H5.174A1.176 1.176 0 0 1 4 41.171V6.174C4 5.526 4.526 5 5.174 5h37.533c.647 0 1.175.526 1.175 1.174zM42.707 3H5.174A3.18 3.18 0 0 0 2 6.174v34.997a3.18 3.18 0 0 0 3.174 3.175h37.533a3.18 3.18 0 0 0 3.175-3.175V6.174A3.18 3.18 0 0 0 42.707 3M21.895 20.212 27.8 23.63l-5.905 3.418zm-1.499-2.601a1 1 0 0 0-.501.867v10.304a.998.998 0 0 0 1.501.865l8.901-5.152a1 1 0 0 0 0-1.73l-8.901-5.153a1 1 0 0 0-1-.001m3.544 13.918c-4.226 0-7.665-3.544-7.665-7.899s3.439-7.9 7.665-7.9c4.228 0 7.666 3.544 7.666 7.9s-3.438 7.899-7.666 7.899m0-17.799c-5.329 0-9.665 4.441-9.665 9.9s4.336 9.899 9.665 9.899c5.33 0 9.666-4.44 9.666-9.899s-4.336-9.9-9.666-9.9"/></svg>