<svg xmlns="http://www.w3.org/2000/svg" viewBox="0 0 48 48"><title>Icon-Resource/General-Resource/Res_Office-building_48_Light</title><path fill="#232f3d" fill-rule="evenodd" d="M32.82 42.821h2v-5.307h-2zm-3.533.001h2v-5.307h-2zm-4.407 0h2v-5.307h-2zm-3.492 0h2v-5.307h-2zm-4.447 0h2v-5.307h-2zm-3.575 0h2v-5.307h-2zm19.454-7.981h2v-4.365h-2zm-3.533 0h2v-4.365h-2zm-4.407 0h2v-4.365h-2zm-3.492 0h2v-4.365h-2zm-4.447 0h2v-4.365h-2zm-3.575 0h2v-4.365h-2zm19.454-7.026h2v-4.364h-2zm-3.533 0h2v-4.364h-2zm-4.407 0h2v-4.364h-2zm-3.492 0h2v-4.364h-2zm-4.447 0h2v-4.364h-2zm-3.575 0h2v-4.364h-2zm19.454-6.983h2v-4.364h-2zm-3.533 0h2v-4.364h-2zm-4.407 0h2v-4.364h-2zm-3.492 0h2v-4.364h-2zm-4.447 0h2v-4.364h-2zm-3.575 0h2v-4.364h-2zm11.542-7.085h2V5.923h-2zm-3.533 0h2V5.923h-2zm14.978 30.776H12V14.849h5.899a1 1 0 0 0 1-1V4H29.44v9.849a1 1 0 0 0 1 1h5.913zm.211-31.674H31.44v-9.06c0-.986-.803-1.789-1.789-1.789H18.688c-.986 0-1.789.803-1.789 1.789v9.06h-5.11A1.79 1.79 0 0 0 10 14.638v30.096a1.79 1.79 0 0 0 1.789 1.789h24.775c.986 0 1.789-.802 1.789-1.789V14.638c0-.987-.803-1.789-1.789-1.789"/></svg>