<svg xmlns="http://www.w3.org/2000/svg" viewBox="0 0 48 48"><title>Icon-Resource/General-Resource/Res_Question_48_Light</title><path fill="#232f3d" fill-rule="evenodd" d="M24.684 43.34c-.51.524-1.175.779-2.032.779-.858 0-1.523-.255-2.033-.779-.518-.532-.77-1.213-.77-2.082s.252-1.549.77-2.081c.51-.525 1.175-.78 2.033-.78s1.521.255 2.032.78c.519.533.771 1.214.771 2.081 0 .868-.252 1.549-.771 2.082m-2.032-6.943c-1.406 0-2.572.465-3.467 1.385-.887.912-1.336 2.08-1.336 3.476s.449 2.565 1.337 3.478c.894.917 2.06 1.383 3.466 1.383s2.572-.466 3.466-1.384c.886-.913 1.337-2.082 1.337-3.477s-.451-2.564-1.337-3.476c-.894-.919-2.06-1.385-3.466-1.385m9.354-17.604c-1.543 1.825-4.039 3.527-7.419 5.059a1 1 0 0 0-.587.911v6.371h-2.826l-.434-7.82 2.085-1.048c2.662-1.317 4.551-2.627 5.775-4.006 1.287-1.449 1.939-3.139 1.939-5.023 0-2.05-.655-3.653-1.948-4.765-1.25-1.072-3.045-1.616-5.337-1.616-1.522 0-3.073.219-4.606.651-1.109.312-2.331.765-3.648 1.35V6.389C17.872 4.803 20.959 4 24.186 4c3.187 0 5.696.783 7.459 2.326 1.749 1.533 2.599 3.602 2.599 6.327 0 2.351-.732 4.36-2.238 6.14m.957-13.971C30.825 2.949 27.872 2 24.186 2c-3.773 0-7.371.991-10.692 2.945-.306.18-.494.508-.494.863v4.622c0 .346.179.666.472.848.293.183.66.202.97.049 1.763-.867 3.361-1.505 4.748-1.894a15 15 0 0 1 4.064-.577c1.8 0 3.158.381 4.034 1.132.842.725 1.251 1.788 1.251 3.249 0 1.399-.469 2.608-1.435 3.695-1.035 1.166-2.774 2.357-5.172 3.544l-2.677 1.345a1 1 0 0 0-.549.95l.524 9.419a1 1 0 0 0 .998.944H25a1 1 0 0 0 1-1v-6.732c3.359-1.588 5.891-3.375 7.534-5.318 1.797-2.126 2.71-4.627 2.71-7.431 0-3.289-1.104-5.923-3.281-7.831"/></svg>