<svg xmlns="http://www.w3.org/2000/svg" viewBox="0 0 48 48"><title>Icon-Resource/General-Resource/Res_SAML-token_48_Light</title><path fill="#232f3d" fill-rule="evenodd" d="M23.886 24.573a1 1 0 0 0-.175 1.18c1.068 1.994.728 4.39-.845 5.963a5.07 5.07 0 0 1-7.16 0 5.03 5.03 0 0 1-1.481-3.58c0-1.352.526-2.623 1.482-3.579a4.97 4.97 0 0 1 3.53-1.462c.824 0 1.66.203 2.435.617.388.206.866.136 1.179-.175l1.322-1.323a1 1 0 0 0 .292-.742l-.042-1.245 1.246.042a.95.95 0 0 0 .74-.292l.747-.745c.196-.196.3-.465.292-.74l-.043-1.247 1.246.043c.26.01.545-.097.74-.292l.866-.865 1.31-.128.04.85zm9.287-10.425a1.01 1.01 0 0 0-.752-.239l-2.716.267a1 1 0 0 0-.61.288l-.81.81-1.882-.064c-.255-.032-.546.095-.742.292a1 1 0 0 0-.292.741l.065 1.883-.131.13-1.882-.064a.94.94 0 0 0-.741.292 1 1 0 0 0-.292.741l.063 1.882-.518.52c-2.628-1.076-5.616-.507-7.64 1.516a7.01 7.01 0 0 0-2.068 4.993c0 1.886.734 3.66 2.068 4.994a7.04 7.04 0 0 0 4.994 2.065 7.04 7.04 0 0 0 4.994-2.065c2.022-2.023 2.59-5.012 1.515-7.639l7.536-7.536a1 1 0 0 0 .292-.752l-.106-2.344a1 1 0 0 0-.345-.71M18.579 30.04a.845.845 0 1 1-1.192-1.196.845.845 0 0 1 1.192 1.196m-2.608-2.61a2.85 2.85 0 0 0 0 4.024 2.84 2.84 0 0 0 2.012.832c.727 0 1.456-.277 2.01-.832a2.85 2.85 0 0 0 0-4.024c-1.075-1.075-2.95-1.072-4.022 0m22.57-15.604a1.777 1.777 0 0 1-2.51 0l-.001-.002a1.76 1.76 0 0 1-.516-1.255 1.766 1.766 0 0 1 1.772-1.77h.002a1.76 1.76 0 0 1 1.77 1.773c0 .476-.184.922-.517 1.254m-3.922-3.928a3.75 3.75 0 0 0-1.106 2.67 3.75 3.75 0 0 0 1.102 2.67 3.76 3.76 0 0 0 2.67 1.106c.966 0 1.932-.368 2.668-1.102a3.78 3.78 0 0 0 .005-5.339 3.78 3.78 0 0 0-5.34-.005M20.255 43.574 4.414 27.706 28.139 4.02l15.134.733.708 15.133zM45.228 3.751a1 1 0 0 0-.95-.952l-16.484-.798a.97.97 0 0 0-.755.291L2.294 26.997a1 1 0 0 0-.002 1.414l17.254 17.283a.997.997 0 0 0 1.414.002L45.706 20.99a1 1 0 0 0 .293-.755z"/></svg>