<svg xmlns="http://www.w3.org/2000/svg" viewBox="0 0 48 48"><title>Icon-Resource/General-Resource/Res_SDK_48_Light</title><path fill="#232f3d" fill-rule="evenodd" d="M25.225 43.356v-8.181l8.612-4.971a1 1 0 0 0 .5-.867V19.223l7.113-4.105v18.87zM7 15.118l7.113 4.105v10.114a1 1 0 0 0 .5.867l8.612 4.97v8.182L7 33.988zm18.225 9.466 7.112-4.106v8.282l-7.112 4.107zm-9.112-4.107 7.112 4.107v8.283l-7.112-4.107zm8.112 2.275-6.966-4.022 6.966-4.021 6.966 4.02zm0-18.598 16.106 9.299-7.14 4.123-8.466-4.888a1 1 0 0 0-1 0l-8.466 4.888-7.14-4.123zm18.725 8.5L24.725 2.134a1.01 1.01 0 0 0-1 0L5.5 12.655c-.309.179-.5.509-.5.866v21.044c0 .357.191.687.5.866l18.225 10.523a1 1 0 0 0 1 0L42.95 35.43c.309-.18.5-.51.5-.866V13.52c0-.357-.191-.687-.5-.866"/></svg>