<svg xmlns="http://www.w3.org/2000/svg" viewBox="0 0 48 48"><title>Icon-Resource/General-Resource/Res_Servers_48_Light</title><path fill="#232f3d" fill-rule="evenodd" d="M8.999 40h2v-2h-2zm0-15.001h2v-2h-2zm0-14.999h2V8h-2zm2 7.999H37V16H10.999zM4 29h40v-9.001H4zm6.999 4h26.002v-2H10.999zM4 43.999h40V35H4zM4 14h40V5H4zm41 2a1 1 0 0 0 1-1V4a1 1 0 0 0-1-1H3a1 1 0 0 0-1 1v11a1 1 0 0 0 1 1h5.999v1.999H3a1 1 0 0 0-1 1V30a1 1 0 0 0 1 1h5.999v2H3a1 1 0 0 0-1 1v10.999a1 1 0 0 0 1 1h42a1 1 0 0 0 1-1V34a1 1 0 0 0-1-1h-5.999v-2H45a1 1 0 0 0 1-1V18.999a1 1 0 0 0-1-1h-6V16z"/></svg>