<svg xmlns="http://www.w3.org/2000/svg" viewBox="0 0 48 48"><title>Icon-Resource/General-Resource/Res_Shield_48_Light</title><path fill="#232f3d" fill-rule="evenodd" d="M23.972 38.445c-6.145-1.255-10.083-5.808-11.707-13.537-.658-3.128-.817-6.178-.792-8.613l23.62 10.902c-1.884 6.338-5.613 10.123-11.12 11.248m0-27.875c2.29 1.759 6.18 3.757 12.467 4.482.096 2.634.006 6.273-.787 9.976-.015.069-.033.133-.048.202L13.06 14.824c5.368-.853 8.82-2.647 10.912-4.254m13.521 2.58c-6.938-.646-10.828-2.872-12.87-4.626a1 1 0 0 0-1.302 0c-2.043 1.754-5.934 3.98-12.873 4.627a1 1 0 0 0-.906.94c-.152 2.738-.142 6.908.766 11.229 1.822 8.67 6.355 13.76 13.476 15.126a.9.9 0 0 0 .376 0c7.083-1.36 11.608-6.406 13.45-15 .927-4.335.941-8.567.79-11.354a1 1 0 0 0-.907-.941m-13.52 29.973C5.476 39.937 6.75 15.938 7.192 11.156c10.51-.56 15.057-4.332 16.78-6.4 1.721 2.068 6.268 5.84 16.778 6.4.443 4.782 1.716 28.78-16.779 31.968m18.672-33.065a1 1 0 0 0-.956-.863C28.03 8.714 24.905 2.626 24.88 2.574a1 1 0 0 0-.9-.574h-.009c-.382 0-.733.222-.9.566-.03.06-3.156 6.148-16.814 6.63a1 1 0 0 0-.956.863c-.043.313-4.045 31.35 18.51 35.066a1 1 0 0 0 .325 0c22.554-3.715 18.552-34.753 18.51-35.066"/></svg>