<svg xmlns="http://www.w3.org/2000/svg" viewBox="0 0 48 48"><title>Icon-Resource/General-Resource/Res_Source-Code_48_Light</title><path fill="#232f3d" fill-rule="evenodd" d="m25.052 19.684 1.896.633-4 12-1.896-.633zm9.573 5.536A1 1 0 0 1 35 26a1 1 0 0 1-.375.781l-5 4-1.25-1.561L32.4 26l-4.025-3.219 1.25-1.561zm-15-2.439L15.6 26l4.024 3.22-1.25 1.561-5-4a1 1 0 0 1 0-1.561l5-4zM10 44l.007-40H28v9a1 1 0 0 0 1 1h9v30zM30 5.414 36.586 12H30zm9.707 6.879-10-10A1 1 0 0 0 29 2H10c-1.177 0-2 .822-2 2v40c0 1.14.86 2 2 2h28c1.14 0 2-.86 2-2V13a1 1 0 0 0-.293-.707"/></svg>