<svg xmlns="http://www.w3.org/2000/svg" viewBox="0 0 48 48"><title>Icon-Resource/General-Resource/Res_SSL-padlock_48_Light</title><path fill="#232f3d" fill-rule="evenodd" d="M24.111 24.356c.695 0 1.261.565 1.261 1.261a1.262 1.262 0 0 1-2.522 0c0-.696.566-1.261 1.261-1.261m-1 4.348v3.392h2v-3.392c1.307-.425 2.261-1.641 2.261-3.087a3.265 3.265 0 0 0-3.261-3.261 3.265 3.265 0 0 0-3.261 3.261c0 1.446.954 2.662 2.261 3.087m8.843 4.803L16.261 33.5l.005-12.639 15.694.008zM20.066 15.811c.007-2.178 1.833-3.945 4.073-3.945h.014a4.05 4.05 0 0 1 2.868 1.182 3.92 3.92 0 0 1 1.169 2.812v3.007l-8.139-.004zm12.894 3.058-2.77-.001v-3.005a5.9 5.9 0 0 0-1.758-4.233 6.05 6.05 0 0 0-4.273-1.764h-.02c-3.34 0-6.062 2.66-6.073 5.937l-.015 3.059-2.785-.001a1 1 0 0 0-1 1L14.261 34.5c0 .551.448 1 1 1l17.693.007a1 1 0 0 0 1-1l.006-14.638a1 1 0 0 0-1-1m1.272 20.79c-4.692.843-8.648 3.316-10.121 4.332-1.474-1.016-5.43-3.489-10.122-4.332C11.645 39.238 4 37.369 4 30.978c0-2.669 1.009-4.408 2.079-6.25 1.003-1.728 2.04-3.515 2.04-5.959 0-3.686-2.041-6.334-3.176-7.522 1.16-1.412 3.721-4.536 5.122-6.328 2.133 1.947 4.595 3.005 7.033 3.005 2.715 0 4.969-1.072 7.013-3.355 2.043 2.283 4.297 3.355 7.013 3.355 2.438 0 4.9-1.058 7.033-3.005 1.4 1.793 3.961 4.916 5.121 6.328-1.135 1.188-3.176 3.836-3.176 7.522 0 2.444 1.037 4.231 2.04 5.959 1.07 1.842 2.079 3.581 2.079 6.25 0 6.392-7.645 8.26-9.989 8.681m9.64-15.935c-.949-1.637-1.77-3.05-1.77-4.955 0-4.023 3.14-6.638 3.169-6.662a1 1 0 0 0 .143-1.414c-.052-.063-5.174-6.268-6.344-7.872a1 1 0 0 0-.747-.409 1.05 1.05 0 0 0-.791.315c-1.929 2.062-4.204 3.197-6.408 3.197-2.431 0-4.349-1.089-6.219-3.532a1 1 0 0 0-1.588 0c-1.87 2.443-3.788 3.532-6.219 3.532-2.204 0-4.479-1.135-6.408-3.197a.97.97 0 0 0-.791-.315 1 1 0 0 0-.747.408c-1.171 1.605-6.293 7.81-6.345 7.873a1.003 1.003 0 0 0 .141 1.413c.031.025 3.171 2.64 3.171 6.663 0 1.905-.82 3.318-1.77 4.955C3.248 25.621 2 27.771 2 30.978c0 5.36 4.349 9.342 11.635 10.649 5.345.96 9.823 4.354 9.868 4.388a.99.99 0 0 0 1.216 0c.045-.034 4.522-3.428 9.867-4.388 7.286-1.307 11.635-5.289 11.635-10.649 0-3.207-1.248-5.357-2.349-7.254"/></svg>