<svg xmlns="http://www.w3.org/2000/svg" viewBox="0 0 48 48"><title>Icon-Resource/General-Resource/Res_Tape-storage_48_Light</title><path fill="#232f3d" fill-rule="evenodd" d="M39.583 24.08h3.74v-2h-3.74zm-6.975 2.381 1.726 1.01-1.87 3.2-1.726-1.009zm-.083-6.203-1.87-3.2 1.726-1.01 1.87 3.2zm2.858 4.433a1.077 1.077 0 0 1-1.075-1.075c0-.593.483-1.076 1.075-1.076.594 0 1.076.483 1.076 1.076 0 .592-.482 1.075-1.076 1.075m0-4.151a3.08 3.08 0 0 0-3.075 3.076 3.08 3.08 0 0 0 3.075 3.075 3.08 3.08 0 0 0 3.076-3.075 3.08 3.08 0 0 0-3.076-3.076m.014 11.69c-4.75 0-8.614-3.864-8.614-8.614S30.647 15 35.397 15s8.614 3.866 8.614 8.616-3.864 8.614-8.614 8.614M4 23.616C4 18.866 7.865 15 12.615 15s8.614 3.866 8.614 8.616-3.864 8.614-8.614 8.614S4 28.366 4 23.616M35.397 13c-5.853 0-10.614 4.762-10.614 10.616 0 2.917 1.184 5.562 3.095 7.483h-7.745a10.58 10.58 0 0 0 3.096-7.483C23.229 17.762 18.467 13 12.615 13S2 17.762 2 23.616C2 29.468 6.762 34.23 12.615 34.23c1.704 0 3.311-.414 4.739-1.131h13.163v-.067c1.463.76 3.12 1.198 4.88 1.198 5.852 0 10.614-4.762 10.614-10.614C46.011 17.762 41.249 13 35.397 13M16.801 24.08h3.74v-2h-3.74zm-6.974 2.381 1.726 1.01-1.871 3.2-1.726-1.009zm-.084-6.203-1.87-3.2 1.726-1.01 1.87 3.2zm2.859 4.433a1.077 1.077 0 0 1-1.076-1.075c0-.593.482-1.076 1.076-1.076a1.077 1.077 0 0 1 0 2.151m0-4.151a3.08 3.08 0 0 0-3.076 3.076 3.08 3.08 0 0 0 3.076 3.075 3.08 3.08 0 0 0 3.075-3.075 3.08 3.08 0 0 0-3.075-3.076"/></svg>