<svg xmlns="http://www.w3.org/2000/svg" viewBox="0 0 48 48"><title>Icon-Resource/General-Resource/Res_Toolkit_48_Light</title><path fill="#232f3d" fill-rule="evenodd" d="m32.438 34.203-7.318-7.319 1.837-1.837 7.318 7.319zM13.922 14.201l.351-.351 2.844 2.074-1.121 1.121zm13.742 8.725a1.03 1.03 0 0 0-1.414 0l-.919.919-6.654-6.654.68-.679a1.003 1.003 0 0 0-.118-1.515l-4.48-3.267a1 1 0 0 0-1.296.101l-1.56 1.56a1 1 0 0 0-.101 1.296l3.267 4.48a.996.996 0 0 0 1.515.118l.679-.68 6.654 6.654-.918.918a1 1 0 0 0 0 1.414l8.732 8.733a.996.996 0 0 0 1.414 0l3.251-3.251a1 1 0 0 0 0-1.414zm-.488-5.655a4.84 4.84 0 0 1 1.316-4.327A4.81 4.81 0 0 1 34 12.022a1 1 0 0 1 .269 1.607l-1.483 1.483.329.33 1.481-1.481a.998.998 0 0 1 1.605.266 4.8 4.8 0 0 1-.915 5.506 4.77 4.77 0 0 1-4.333 1.317l-1.703 1.704-1.414-1.414 2.11-2.112a1 1 0 0 1 1.03-.239 2.79 2.79 0 0 0 2.896-.67 2.8 2.8 0 0 0 .794-1.599l-.845.844a1 1 0 0 1-.707.293h-.001a1 1 0 0 1-.707-.294l-1.741-1.746a1 1 0 0 1 .001-1.413l.839-.84a2.8 2.8 0 0 0-1.599.794 2.82 2.82 0 0 0-.67 2.89c.123.361.03.762-.239 1.031l-3.736 3.736-1.414-1.415zM22.828 29.18l-1.704 1.705a4.84 4.84 0 0 1-1.324 4.328 4.77 4.77 0 0 1-3.386 1.406 4.8 4.8 0 0 1-2.118-.493 1.003 1.003 0 0 1-.265-1.605l1.481-1.481-.327-.327-1.481 1.481a1.003 1.003 0 0 1-1.605-.265 4.79 4.79 0 0 1 .915-5.506 4.82 4.82 0 0 1 4.327-1.318l3.333-3.332 1.414 1.414-3.74 3.74a1 1 0 0 1-1.033.238 2.8 2.8 0 0 0-2.885.67 2.8 2.8 0 0 0-.797 1.601l.845-.844a1 1 0 0 1 1.414 0l1.741 1.741a1 1 0 0 1 0 1.414l-.846.847a2.815 2.815 0 0 0 2.277-3.687c-.123-.36-.03-.761.239-1.03l2.111-2.111zm18.415 4.828-17.148 9.838-17.092-9.931.054-19.769 17.147-9.838 17.091 9.932zM24.209 2 5.061 12.986 5 35.063l19.089 11.091 19.15-10.986.06-22.076z"/></svg>