<svg xmlns="http://www.w3.org/2000/svg" viewBox="0 0 48 48"><title>Icon-Resource/General-Resource/Res_Users_48_Light</title><path fill="#242f3e" fill-rule="evenodd" d="M28.639 9.286c0-2.915 2.413-5.286 5.38-5.286s5.378 2.371 5.378 5.286-2.412 5.286-5.378 5.286-5.38-2.371-5.38-5.286m11.524 7.048a11.7 11.7 0 0 0-2.035-1.001c1.97-1.31 3.269-3.531 3.269-6.047 0-4.017-3.31-7.286-7.378-7.286-4.069 0-7.38 3.269-7.38 7.286 0 2.51 1.293 4.728 3.256 6.039a11.9 11.9 0 0 0-3.546 2.1l1.303 1.518A9.77 9.77 0 0 1 34 16.572c1.802 0 3.569.505 5.109 1.461 2.74 1.702 4.538 4.692 4.844 7.967H34v2h11a1 1 0 0 0 1-1c0-4.343-2.236-8.43-5.837-10.666M8.639 9.286C8.639 6.371 11.052 4 14.019 4s5.378 2.371 5.378 5.286-2.412 5.286-5.378 5.286-5.38-2.371-5.38-5.286M14 26H4.046C4.53 20.717 8.81 16.572 14 16.572c1.802 0 3.569.505 5.109 1.461.432.269.849.575 1.24.91l1.303-1.517a11.71 11.71 0 0 0-3.524-2.093c1.97-1.31 3.269-3.531 3.269-6.047 0-4.017-3.31-7.286-7.378-7.286-4.069 0-7.38 3.269-7.38 7.286 0 2.515 1.298 4.737 3.268 6.046C5.302 17.071 2 21.638 2 27a1 1 0 0 0 1 1h11zm.046 18c.484-5.283 4.764-9.428 9.954-9.428 1.802 0 3.569.505 5.109 1.461 2.74 1.702 4.538 4.692 4.844 7.967zm4.593-16.714c0-2.915 2.413-5.286 5.38-5.286s5.378 2.371 5.378 5.286-2.412 5.286-5.378 5.286-5.38-2.371-5.38-5.286m11.524 7.048a11.7 11.7 0 0 0-2.035-1.001c1.97-1.31 3.269-3.531 3.269-6.047 0-4.017-3.31-7.286-7.378-7.286-4.069 0-7.38 3.269-7.38 7.286 0 2.515 1.298 4.737 3.268 6.046C15.302 35.071 12 39.638 12 45a1 1 0 0 0 1 1h22a1 1 0 0 0 1-1c0-4.343-2.236-8.43-5.837-10.666"/></svg>