<svg xmlns="http://www.w3.org/2000/svg" viewBox="0 0 48 48"><title>Icon-Resource/General-Resource/Res_User_48_Light</title><path fill="#242f3e" fill-rule="evenodd" d="M6.025 44c.499-9.915 8.37-17.822 17.975-17.822 3.248 0 6.43.914 9.205 2.644 5.149 3.211 8.448 8.961 8.769 15.178zm8.167-30.122c0-5.446 4.4-9.878 9.809-9.878 5.407 0 9.806 4.432 9.806 9.878 0 5.447-4.399 9.879-9.806 9.879-5.409 0-9.809-4.432-9.809-9.879m20.071 13.247a19.4 19.4 0 0 0-5.565-2.354 11.89 11.89 0 0 0 7.109-10.893C35.807 7.329 30.51 2 24.001 2c-6.512 0-11.809 5.329-11.809 11.878 0 4.877 2.938 9.072 7.125 10.9C10.545 26.981 4 35.2 4 45a1 1 0 0 0 1 1h38a1 1 0 0 0 1-1c0-7.281-3.731-14.13-9.737-17.875"/></svg>