<svg xmlns="http://www.w3.org/2000/svg" viewBox="0 0 64 64"><title>Icon-Architecture/48/Arch_Amazon-Kinesis-Video-Streams_48</title><g fill="none" fill-rule="evenodd"><path fill="#ed7100" d="M0 0h64v64H0z"/><path fill="#fff" d="M28 36.986v2.058C18.82 41.191 18 44.637 18 48h-2c0-4.339 1.48-8.663 12-11.014m0 5.407v2.198c-4.989 2.488-5.001 5.796-5 9.285V54h-2v-.123c-.001-3.77.02-8.429 7-11.484m24 8.606c0 .552-.449 1.001-1.001 1.001H33.001A1 1 0 0 1 32 50.999V39c0-.552.449-1 1.001-1h17.998c.552 0 1.001.448 1.001 1zM50.999 36H33.001A3.005 3.005 0 0 0 30 39v11.999A3.005 3.005 0 0 0 33.001 54h17.998A3.005 3.005 0 0 0 54 50.999V39c0-1.654-1.347-3-3.001-3M54 31v2c-27.589 0-41 2.616-41 8h-2c0-3.615 2.747-7.285 19.012-9C13.747 30.285 11 26.614 11 23h2c0 5.383 13.411 8 41 8m0-4v2c-31.782 0-38-4.767-38-13h2c0 5.566 2.779 11 36 11m0-4v2c-14.448 0-23.79-1.557-28.56-4.76-4.442-2.983-4.441-6.939-4.44-10.117V10h2v.124c-.001 3.12-.001 6.067 3.556 8.456C30.984 21.554 39.961 23 54 23M41 46.381v-2.763l2.764 1.381zm5.447-2.276-6-3A1 1 0 0 0 39 42v5.999a1 1 0 0 0 1.447.895l6-3a1.001 1.001 0 0 0 0-1.789"/></g></svg>