<svg xmlns="http://www.w3.org/2000/svg" viewBox="0 0 64 64"><title>Icon-Architecture/48/Arch_AWS-Migration-Hub_48</title><g fill="none" fill-rule="evenodd"><path fill="#01a88d" d="M0 0h64v64H0z"/><path fill="#fff" d="m39.371 27.657-1.301 1.519-6.349-5.443-6.35 5.443-1.301-1.519 7-6a1 1 0 0 1 1.301 0zm-7 4 7 6-1.301 1.519-6.349-5.443-6.35 5.443-1.301-1.519 7-6a1 1 0 0 1 1.301 0m7 1-1.301 1.519-6.349-5.443-6.35 5.443-1.301-1.519 7-6a1 1 0 0 1 1.301 0zm4.84 11.457c-.651.649-1.783.649-2.434 0a1.724 1.724 0 0 1 0-2.435 1.71 1.71 0 0 1 1.217-.503c.46 0 .892.179 1.217.503a1.724 1.724 0 0 1 0 2.435m-11.274 6.215c-.65.649-1.783.649-2.433 0A1.7 1.7 0 0 1 30 49.112c0-.459.179-.892.504-1.217a1.71 1.71 0 0 1 1.217-.504c.46 0 .891.18 1.216.504.326.325.504.758.504 1.217s-.178.892-.504 1.217m-12.924-6.211a1.7 1.7 0 0 1-.504-1.217c0-.459.178-.891.504-1.217a1.7 1.7 0 0 1 1.216-.504c.46 0 .892.18 1.217.504.325.326.504.758.504 1.217s-.179.892-.504 1.217c-.65.649-1.783.649-2.433 0m20.35-3.853c-.97.971-1.275 2.344-.948 3.584l-4.971 2.746c-.033-.037-.057-.078-.093-.114a3.723 3.723 0 0 0-5.261 0c-.02.02-.032.043-.051.063l-4.269-2.56c.387-1.273.095-2.709-.91-3.714a3.723 3.723 0 0 0-5.261 0 3.723 3.723 0 0 0 0 5.262 3.7 3.7 0 0 0 2.63 1.088c.884 0 1.76-.326 2.462-.95l4.405 2.641a3.71 3.71 0 0 0 .994 3.432 3.7 3.7 0 0 0 2.631 1.088 3.716 3.716 0 0 0 3.642-4.459l5.061-2.795a3.71 3.71 0 0 0 5.201-.049 3.73 3.73 0 0 0 0-5.263 3.725 3.725 0 0 0-5.262 0m6.905-2.639a1.722 1.722 0 0 1 0-3.442c.95 0 1.721.772 1.721 1.721s-.771 1.721-1.721 1.721M46 22.69a1.722 1.722 0 0 1 3.441 0c0 .948-.771 1.72-1.72 1.72-.95 0-1.721-.772-1.721-1.72m-10.286-5.249a1.723 1.723 0 0 1-1.721-1.721c0-.948.772-1.72 1.721-1.72s1.72.772 1.72 1.72c0 .949-.771 1.721-1.72 1.721M48.721 32.48v-6.223c1.564-.44 2.72-1.864 2.72-3.567a3.725 3.725 0 0 0-3.72-3.721c-.9 0-1.715.334-2.359.867l-6.016-3.324c.055-.255.088-.519.088-.792a3.724 3.724 0 0 0-3.72-3.72 3.725 3.725 0 0 0-3.721 3.72 3.725 3.725 0 0 0 3.721 3.721 3.7 3.7 0 0 0 2.69-1.163l5.813 3.21A3.7 3.7 0 0 0 44 22.69c0 1.703 1.156 3.127 2.721 3.567v5.983c-1.791.267-3.173 1.801-3.173 3.665a3.725 3.725 0 0 0 3.72 3.721 3.725 3.725 0 0 0 3.721-3.721 3.73 3.73 0 0 0-2.268-3.425m-32.548 5.146a1.723 1.723 0 0 1-1.721-1.721c0-.949.772-1.721 1.721-1.721a1.722 1.722 0 0 1 0 3.442M14 22.69a1.722 1.722 0 0 1 3.441 0c0 .948-.771 1.72-1.72 1.72-.95 0-1.721-.772-1.721-1.72M27.707 14c.949 0 1.721.772 1.721 1.72 0 .949-.772 1.721-1.721 1.721a1.723 1.723 0 0 1-1.721-1.721c0-.948.772-1.72 1.721-1.72m-7.814 21.905c0-1.864-1.381-3.398-3.172-3.665v-5.983c1.564-.44 2.72-1.864 2.72-3.567 0-.423-.086-.823-.216-1.202l5.798-3.203a3.7 3.7 0 0 0 2.684 1.156 3.725 3.725 0 0 0 3.721-3.721A3.725 3.725 0 0 0 27.707 12a3.725 3.725 0 0 0-3.721 3.72c0 .276.035.543.092.802l-5.999 3.314a3.7 3.7 0 0 0-2.358-.867A3.725 3.725 0 0 0 12 22.69c0 1.703 1.156 3.127 2.721 3.567v6.223a3.73 3.73 0 0 0-2.269 3.425 3.725 3.725 0 0 0 3.721 3.721 3.724 3.724 0 0 0 3.72-3.721"/></g></svg>